0
SECTION
2
HEADER
9
$INSUNITS
70
4
9
$ACADVER
1
AC1014
9
$HANDSEED
5
FFFF
0
ENDSEC
0
SECTION
2
TABLES
0
TABLE
2
VPORT
5
8
100
AcDbSymbolTable
0
ENDTAB
0
TABLE
2
LTYPE
5
5
100
AcDbSymbolTable
0
LTYPE
5
14
100
AcDbSymbolTableRecord
100
AcDbLinetypeTableRecord
2
BYBLOCK
70
0
0
LTYPE
5
15
100
AcDbSymbolTableRecord
100
AcDbLinetypeTableRecord
2
BYLAYER
70
0
0
ENDTAB
0
TABLE
2
LAYER
5
2
100
AcDbSymbolTable
70
2
0
LAYER
5
50
100
AcDbSymbolTableRecord
100
AcDbLayerTableRecord
2
0
70
0
6
CONTINUOUS
0
ENDTAB
0
TABLE
2
STYLE
5
3
100
AcDbSymbolTable
70
1
0
STYLE
5
11
100
AcDbSymbolTableRecord
100
AcDbTextStyleTableRecord
2
STANDARD
70
0
0
ENDTAB
0
TABLE
2
VIEW
5
6
100
AcDbSymbolTable
70
0
0
ENDTAB
0
TABLE
2
UCS
5
7
100
AcDbSymbolTable
70
0
0
ENDTAB
0
TABLE
2
APPID
5
9
100
AcDbSymbolTable
70
2
0
APPID
5
12
100
AcDbSymbolTableRecord
100
AcDbRegAppTableRecord
2
ACAD
70
0
0
ENDTAB
0
TABLE
2
DIMSTYLE
5
A
100
AcDbSymbolTable
70
1
0
ENDTAB
0
TABLE
2
BLOCK_RECORD
5
1
100
AcDbSymbolTable
70
1
0
BLOCK_RECORD
5
1F
100
AcDbSymbolTableRecord
100
AcDbBlockTableRecord
2
*MODEL_SPACE
0
BLOCK_RECORD
5
1B
100
AcDbSymbolTableRecord
100
AcDbBlockTableRecord
2
*PAPER_SPACE
0
ENDTAB
0
ENDSEC
0
SECTION
2
BLOCKS
0
BLOCK
5
20
100
AcDbEntity
100
AcDbBlockBegin
2
*MODEL_SPACE
0
ENDBLK
5
21
100
AcDbEntity
100
AcDbBlockEnd
0
BLOCK
5
1C
100
AcDbEntity
100
AcDbBlockBegin
2
*PAPER_SPACE
0
ENDBLK
5
1D
100
AcDbEntity
100
AcDbBlockEnd
0
ENDSEC
0
SECTION
2
ENTITIES
0
ARC
5
100
100
AcDbEntity
8
0
100
AcDbCircle
10
-263.06250000000006
20
23.337499999999952
30
0
40
3.2850000000000072
210
0
220
-0
230
1
100
AcDbArc
50
28.072486935853583
51
151.92751306414593
0
LINE
5
101
100
AcDbEntity
8
0
100
AcDbLine
10
-339.14999999999998
20
24.372500000000002
30
0
11
-266.81250000000006
21
24.372500000000002
31
0
0
ARC
5
102
100
AcDbEntity
8
0
100
AcDbCircle
10
-342.90000000000015
20
23.337500000000041
30
0
40
3.285000000000089
210
0
220
-0
230
1
100
AcDbArc
50
28.072486935850762
51
151.9275130641492
0
LINE
5
103
100
AcDbEntity
8
0
100
AcDbLine
10
-360.77499999999998
20
24.372500000000016
30
0
11
-346.65000000000009
21
24.372500000000002
31
0
0
SPLINE
5
104
100
AcDbEntity
8
0
100
AcDbSpline
70
0
71
3
72
20
73
16
74
0
42
0.000000001
43
0.0000000001
44
0.0000000001
40
0
40
0
40
0
40
0
40
0.060143796080141497
40
0.060143796080141497
40
0.060143796080141497
40
0.10597627159621931
40
0.10597627159621931
40
0.10597627159621931
40
0.14814422625013313
40
0.14814422625013313
40
0.14814422625013313
40
0.18281021658894445
40
0.18281021658894445
40
0.18281021658894445
40
0.22438950008665637
40
0.22438950008665637
40
0.22438950008665637
40
0.22438950008665637
10
-361.39000000000004
20
24.987500000000004
30
0
10
-361.39000000000004
20
24.793497967373614
30
0
10
-361.38193552699869
20
24.70530720348723
30
0
10
-361.36535073783978
20
24.65234670419909
30
0
10
-361.34959737797834
20
24.602041222728875
30
0
10
-361.34037516015866
20
24.582693916015067
30
0
10
-361.29504341183258
20
24.528582854205403
30
0
10
-361.26216644361011
20
24.489338666074858
30
0
10
-361.20289831072819
20
24.439911082625599
30
0
10
-361.16111642315985
20
24.418212008587123
30
0
10
-361.12022846770031
20
24.39697719071663
30
0
10
-361.0999262044183
20
24.391468449574226
30
0
10
-361.05166303790105
20
24.38389509676318
30
0
10
-361.00202817591151
20
24.37610650043392
30
0
10
-360.91119666997793
20
24.372500000000016
30
0
10
-360.77499999999998
20
24.372500000000016
30
0
0
LINE
5
105
100
AcDbEntity
8
0
100
AcDbLine
10
-361.39000000000004
20
29.24589202168999
30
0
11
-361.39000000000004
21
24.987500000000004
31
0
0
LINE
5
106
100
AcDbEntity
8
0
100
AcDbLine
10
-361.39000000000004
20
29.24589202168999
30
0
11
-361.39000000000004
21
37.429107978310057
31
0
0
LINE
5
107
100
AcDbEntity
8
0
100
AcDbLine
10
-361.39000000000004
20
98.837500000000034
30
0
11
-361.39000000000004
21
37.429107978310057
31
0
0
SPLINE
5
108
100
AcDbEntity
8
0
100
AcDbSpline
70
0
71
3
72
20
73
16
74
0
42
0.000000001
43
0.0000000001
44
0.0000000001
40
0
40
0
40
0
40
0
40
0.060143796080124587
40
0.060143796080124587
40
0.060143796080124587
40
0.10597627159617418
40
0.10597627159617418
40
0.10597627159617418
40
0.14814422624964269
40
0.14814422624964269
40
0.14814422624964269
40
0.18281021658739227
40
0.18281021658739227
40
0.18281021658739227
40
0.2243895000829699
40
0.2243895000829699
40
0.2243895000829699
40
0.2243895000829699
10
-360.77499999999998
20
99.452500000000015
30
0
10
-360.96900203262635
20
99.452500000000015
30
0
10
-361.05719279651277
20
99.444435526998646
30
0
10
-361.11015329580084
20
99.427850737839748
30
0
10
-361.16045877727117
20
99.41209737797837
30
0
10
-361.17980608398466
20
99.402875160158743
30
0
10
-361.23391714579418
20
99.357543411832779
30
0
10
-361.27316133392458
20
99.324666443610568
30
0
10
-361.32258891737422
20
99.265398310728528
30
0
10
-361.3442879914129
20
99.223616423159797
30
0
10
-361.36552280928311
20
99.182728467700812
30
0
10
-361.37103155042547
20
99.16242620441956
30
0
10
-361.37860490323658
20
99.114163037901562
30
0
10
-361.38639349956611
20
99.064528175911036
30
0
10
-361.39000000000004
20
98.973696669977613
30
0
10
-361.39000000000004
20
98.837500000000034
30
0
0
LINE
5
109
100
AcDbEntity
8
0
100
AcDbLine
10
-346.65000000000015
20
99.452500000000015
30
0
11
-360.77499999999998
21
99.452500000000015
31
0
0
ARC
5
110
100
AcDbEntity
8
0
100
AcDbCircle
10
-342.90000000000009
20
100.48750000000005
30
0
40
3.2850000000000703
210
0
220
0
230
1
100
AcDbArc
50
208.07248693585308
51
331.92751306414732
0
LINE
5
111
100
AcDbEntity
8
0
100
AcDbLine
10
-266.81249999999102
20
99.452500000000015
30
0
11
-339.15000000000009
21
99.452500000000015
31
0
0
ARC
5
112
100
AcDbEntity
8
0
100
AcDbCircle
10
-263.0624999999967
20
100.48750000001064
30
0
40
3.2850000000000223
210
0
220
0
230
1
100
AcDbArc
50
208.07248693601565
51
331.92751306398497
0
LINE
5
113
100
AcDbEntity
8
0
100
AcDbLine
10
-102.63750000000002
20
99.452500000000015
30
0
11
-259.31250000000239
21
99.452500000000015
31
0
0
ARC
5
114
100
AcDbEntity
8
0
100
AcDbCircle
10
-98.887500000000003
20
100.48750000000004
30
0
40
3.2850000000000308
210
0
220
0
230
1
100
AcDbArc
50
208.07248693585302
51
331.9275130641459
0
LINE
5
115
100
AcDbEntity
8
0
100
AcDbLine
10
-22.800000000000004
20
99.452500000000015
30
0
11
-95.137500000000003
21
99.452500000000015
31
0
0
ARC
5
116
100
AcDbEntity
8
0
100
AcDbCircle
10
-19.049999999999997
20
100.48750000000004
30
0
40
3.2850000000000126
210
0
220
0
230
1
100
AcDbArc
50
208.07248693585424
51
331.92751306414624
0
LINE
5
117
100
AcDbEntity
8
0
100
AcDbLine
10
-1.1750000000000056
20
99.452500000000015
30
0
11
-15.299999999999994
21
99.452500000000015
31
0
0
SPLINE
5
118
100
AcDbEntity
8
0
100
AcDbSpline
70
0
71
3
72
20
73
16
74
0
42
0.000000001
43
0.0000000001
44
0.0000000001
40
0
40
0
40
0
40
0
40
0.060143796080128382
40
0.060143796080128382
40
0.060143796080128382
40
0.10597627159617176
40
0.10597627159617176
40
0.10597627159617176
40
0.14814422625032314
40
0.14814422625032314
40
0.14814422625032314
40
0.18281021658953425
40
0.18281021658953425
40
0.18281021658953425
40
0.2243895000877725
40
0.2243895000877725
40
0.2243895000877725
40
0.2243895000877725
10
-0.56000000000002026
20
98.837500000000034
30
0
10
-0.56000000000001871
20
99.031502032626378
30
0
10
-0.56806447300138463
20
99.119692796512808
30
0
10
-0.58464926216030522
20
99.172653295800984
30
0
10
-0.60040262202172157
20
99.222958777271529
30
0
10
-0.60962483984120508
20
99.242306083984801
30
0
10
-0.65495658816739344
20
99.296417145794578
30
0
10
-0.68783355638999277
20
99.335661333925373
30
0
10
-0.74710168927189002
20
99.385088917374418
30
0
10
-0.78888357684004429
20
99.406787991412813
30
0
10
-0.82977153229982126
20
99.428022809283448
30
0
10
-0.85007379558184548
20
99.43353155042584
30
0
10
-0.89833696209892577
20
99.441104903236862
30
0
10
-0.94797182408859382
20
99.448893499566125
30
0
10
-1.0388033300221693
20
99.452500000000015
30
0
10
-1.1750000000000058
20
99.452500000000015
30
0
0
LINE
5
119
100
AcDbEntity
8
0
100
AcDbLine
10
-0.56000000000000583
20
24.987500000000004
30
0
11
-0.56000000000002026
21
98.837500000000034
31
0
0
SPLINE
5
120
100
AcDbEntity
8
0
100
AcDbSpline
70
0
71
3
72
20
73
16
74
0
42
0.000000001
43
0.0000000001
44
0.0000000001
40
0
40
0
40
0
40
0
40
0.060143796080125052
40
0.060143796080125052
40
0.060143796080125052
40
0.10597627159616682
40
0.10597627159616682
40
0.10597627159616682
40
0.14814422625013243
40
0.14814422625013243
40
0.14814422625013243
40
0.18281021658903096
40
0.18281021658903096
40
0.18281021658903096
40
0.22438950008679182
40
0.22438950008679182
40
0.22438950008679182
40
0.22438950008679182
10
-1.1749999999999972
20
24.372500000000016
30
0
10
-0.98099796737365696
20
24.372500000000016
30
0
10
-0.89280720348717324
20
24.380564473001392
30
0
10
-0.83984670419903706
20
24.397149262160298
30
0
10
-0.78954122272858229
20
24.412902622021683
30
0
10
-0.77019391601524512
20
24.422124839841203
30
0
10
-0.71608285420544315
20
24.467456588167412
30
0
10
-0.67683866607484955
20
24.500333556389833
30
0
10
-0.62741108262562062
20
24.559601689271769
30
0
10
-0.6057120085871468
20
24.601383576840089
30
0
10
-0.58447719071661741
20
24.642271532299709
30
0
10
-0.57896844957421523
20
24.6625737955817
30
0
10
-0.57139509676317068
20
24.710836962098917
30
0
10
-0.56360650043389637
20
24.760471824088569
30
0
10
-0.56000000000000583
20
24.851303330022056
30
0
10
-0.56000000000000583
20
24.987500000000004
30
0
0
LINE
5
121
100
AcDbEntity
8
0
100
AcDbLine
10
-15.300000000000011
20
24.372500000000002
30
0
11
-1.1749999999999972
21
24.372500000000016
31
0
0
ARC
5
122
100
AcDbEntity
8
0
100
AcDbCircle
10
-19.049999999999997
20
23.337500000000006
30
0
40
3.2850000000000006
210
0
220
-0
230
1
100
AcDbArc
50
28.072486935853032
51
151.92751306414704
0
LINE
5
123
100
AcDbEntity
8
0
100
AcDbLine
10
-95.137500000000003
20
24.372500000000002
30
0
11
-22.800000000000011
21
24.372500000000002
31
0
0
ARC
5
124
100
AcDbEntity
8
0
100
AcDbCircle
10
-98.887500000000003
20
23.337499999999988
30
0
40
3.2850000000000219
210
0
220
-0
230
1
100
AcDbArc
50
28.07248693585257
51
151.92751306414632
0
LINE
5
125
100
AcDbEntity
8
0
100
AcDbLine
10
-161.91622810136963
20
24.372499985709656
30
0
11
-102.63750000000002
21
24.372500000000002
31
0
0
LINE
5
126
100
AcDbEntity
8
0
100
AcDbLine
10
-161.91622810136963
20
24.372499985709656
30
0
11
-180.98377190454084
21
24.372499991826025
31
0
0
LINE
5
127
100
AcDbEntity
8
0
100
AcDbLine
10
-184.06249999725216
20
24.372500000000002
30
0
11
-180.98377190454084
21
24.372499991826025
31
0
0
ARC
5
128
100
AcDbEntity
8
0
100
AcDbCircle
10
-187.81250000000003
20
23.337500000000034
30
0
40
3.284999999999962
210
0
220
-0
230
1
100
AcDbArc
50
28.072486935852041
51
151.92751306414843
0
LINE
5
129
100
AcDbEntity
8
0
100
AcDbLine
10
-259.31250000000011
20
24.372500000000002
30
0
11
-191.56250000000003
21
24.372500000000002
31
0
0
ARC
5
130
100
AcDbEntity
8
0
100
AcDbCircle
10
-15.300000000000011
20
25.337499999999974
30
0
40
0.96499999999997155
210
0
220
0
230
1
100
AcDbArc
50
208.07248693585143
51
270
0
ARC
5
131
100
AcDbEntity
8
0
100
AcDbCircle
10
-22.800000000000004
20
25.337500000000009
30
0
40
0.96500000000000696
210
0
220
0
230
1
100
AcDbArc
50
269.9999999999996
51
331.92751306414709
0
ARC
5
132
100
AcDbEntity
8
0
100
AcDbCircle
10
-339.14999999999998
20
25.337499999999977
30
0
40
0.96500000000000585
210
0
220
0
230
1
100
AcDbArc
50
208.07248693585228
51
270
0
ARC
5
133
100
AcDbEntity
8
0
100
AcDbCircle
10
-346.6500000000002
20
25.33749999999991
30
0
40
0.96499999999990926
210
0
220
0
230
1
100
AcDbArc
50
270.00000000000671
51
331.92751306414829
0
ARC
5
134
100
AcDbEntity
8
0
100
AcDbCircle
10
-15.299999999999955
20
98.48749999999994
30
0
40
0.96500000000007802
210
0
220
0
230
1
100
AcDbArc
50
90.000000000002331
51
151.9275130641457
0
ARC
5
135
100
AcDbEntity
8
0
100
AcDbCircle
10
-22.800000000000061
20
98.487499999999898
30
0
40
0.96500000000010588
210
0
220
-0
230
1
100
AcDbArc
50
28.072486935854229
51
89.999999999996632
0
ARC
5
136
100
AcDbEntity
8
0
100
AcDbCircle
10
-95.137499999999932
20
98.487499999999898
30
0
40
0.96500000000011354
210
0
220
0
230
1
100
AcDbArc
50
90.000000000004221
51
151.92751306414556
0
ARC
5
137
100
AcDbEntity
8
0
100
AcDbCircle
10
-102.6375
20
98.48750000000004
30
0
40
0.96499999999996633
210
0
220
-0
230
1
100
AcDbArc
50
28.072486935852744
51
90.000000000000853
0
ARC
5
138
100
AcDbEntity
8
0
100
AcDbCircle
10
-259.31250000000239
20
98.487500000000026
30
0
40
0.9649999999999892
210
0
220
-0
230
1
100
AcDbArc
50
90
51
151.92751306398375
0
ARC
5
139
100
AcDbEntity
8
0
100
AcDbCircle
10
-266.81249999999113
20
98.487499999999926
30
0
40
0.965000000000102
210
0
220
-0
230
1
100
AcDbArc
50
28.072486936016034
51
89.99999999999325
0
ARC
5
140
100
AcDbEntity
8
0
100
AcDbCircle
10
-339.14999999999998
20
98.48750000000004
30
0
40
0.96499999999997144
210
0
220
0
230
1
100
AcDbArc
50
90.00000000000675
51
151.92751306414846
0
ARC
5
141
100
AcDbEntity
8
0
100
AcDbCircle
10
-346.65000000000015
20
98.487500000000011
30
0
40
0.96500000000001429
210
0
220
-0
230
1
100
AcDbArc
50
28.072486935853053
51
90
0
ARC
5
142
100
AcDbEntity
8
0
100
AcDbCircle
10
-95.137500000000003
20
25.337499999999974
30
0
40
0.96499999999997033
210
0
220
0
230
1
100
AcDbArc
50
208.07248693585353
51
270
0
ARC
5
143
100
AcDbEntity
8
0
100
AcDbCircle
10
-102.63750000000007
20
25.337500000000084
30
0
40
0.96500000000008246
210
0
220
0
230
1
100
AcDbArc
50
270.00000000000335
51
331.92751306414647
0
ARC
5
144
100
AcDbEntity
8
0
100
AcDbCircle
10
-184.06249999469009
20
25.33750000884995
30
0
40
0.96500000884996207
210
0
220
0
230
1
100
AcDbArc
50
208.07248725112845
51
269.99999984787974
0
ARC
5
145
100
AcDbEntity
8
0
100
AcDbCircle
10
-191.56249999999997
20
25.337499999999885
30
0
40
0.96499999999988262
210
0
220
0
230
1
100
AcDbArc
50
269.99999999999665
51
331.92751306414863
0
ARC
5
146
100
AcDbEntity
8
0
100
AcDbCircle
10
-259.31250000000011
20
25.337499999999999
30
0
40
0.96499999999998298
210
0
220
0
230
1
100
AcDbArc
50
208.07248693585484
51
270
0
ARC
5
147
100
AcDbEntity
8
0
100
AcDbCircle
10
-266.8125
20
25.337500000000045
30
0
40
0.96500000000004249
210
0
220
0
230
1
100
AcDbArc
50
269.99999999999665
51
331.92751306414442
0
ENDSEC
0
SECTION
2
OBJECTS
0
DICTIONARY
5
C
100
AcDbDictionary
3
ACAD_GROUP
350
D
3
ACAD_MLINESTYLE
350
17
0
DICTIONARY
5
D
100
AcDbDictionary
0
DICTIONARY
5
1A
330
C
100
AcDbDictionary
0
DICTIONARY
5
17
100
AcDbDictionary
0
ENDSEC
0
EOF
