%TF.GenerationSoftware,KiCad,Pcbnew,7.0.7*%
%TF.CreationDate,2024-05-20T20:21:32-06:00*%
%TF.ProjectId,spell,7370656c-6c2e-46b6-9963-61645f706362,rev?*%
%TF.SameCoordinates,Original*%
%TF.FileFunction,Legend,Top*%
%TF.FilePolarity,Positive*%
%FSLAX46Y46*%
G04 Gerber Fmt 4.6, Leading zero omitted, Abs format (unit mm)*
G04 Created by KiCad (PCBNEW 7.0.7) date 2024-05-20 20:21:32*
%MOMM*%
%LPD*%
G01*
G04 APERTURE LIST*
%ADD10C,0.150000*%
%ADD11C,1.750000*%
%ADD12C,3.987800*%
%ADD13C,3.048000*%
G04 APERTURE END LIST*
D10*
X80410699Y-98304580D02*
X80363080Y-98352200D01*
X80363080Y-98352200D02*
X80220223Y-98399819D01*
X80220223Y-98399819D02*
X80124985Y-98399819D01*
X80124985Y-98399819D02*
X79982128Y-98352200D01*
X79982128Y-98352200D02*
X79886890Y-98256961D01*
X79886890Y-98256961D02*
X79839271Y-98161723D01*
X79839271Y-98161723D02*
X79791652Y-97971247D01*
X79791652Y-97971247D02*
X79791652Y-97828390D01*
X79791652Y-97828390D02*
X79839271Y-97637914D01*
X79839271Y-97637914D02*
X79886890Y-97542676D01*
X79886890Y-97542676D02*
X79982128Y-97447438D01*
X79982128Y-97447438D02*
X80124985Y-97399819D01*
X80124985Y-97399819D02*
X80220223Y-97399819D01*
X80220223Y-97399819D02*
X80363080Y-97447438D01*
X80363080Y-97447438D02*
X80410699Y-97495057D01*
X80696414Y-97399819D02*
X81267842Y-97399819D01*
X80982128Y-98399819D02*
X80982128Y-97399819D01*
X82172604Y-98399819D02*
X81839271Y-97923628D01*
X81601176Y-98399819D02*
X81601176Y-97399819D01*
X81601176Y-97399819D02*
X81982128Y-97399819D01*
X81982128Y-97399819D02*
X82077366Y-97447438D01*
X82077366Y-97447438D02*
X82124985Y-97495057D01*
X82124985Y-97495057D02*
X82172604Y-97590295D01*
X82172604Y-97590295D02*
X82172604Y-97733152D01*
X82172604Y-97733152D02*
X82124985Y-97828390D01*
X82124985Y-97828390D02*
X82077366Y-97876009D01*
X82077366Y-97876009D02*
X81982128Y-97923628D01*
X81982128Y-97923628D02*
X81601176Y-97923628D01*
X83077366Y-98399819D02*
X82601176Y-98399819D01*
X82601176Y-98399819D02*
X82601176Y-97399819D01*
X84696414Y-98399819D02*
X84124986Y-98399819D01*
X84410700Y-98399819D02*
X84410700Y-97399819D01*
X84410700Y-97399819D02*
X84315462Y-97542676D01*
X84315462Y-97542676D02*
X84220224Y-97637914D01*
X84220224Y-97637914D02*
X84124986Y-97685533D01*
X85553557Y-97733152D02*
X85553557Y-98399819D01*
X85124986Y-97733152D02*
X85124986Y-98256961D01*
X85124986Y-98256961D02*
X85172605Y-98352200D01*
X85172605Y-98352200D02*
X85267843Y-98399819D01*
X85267843Y-98399819D02*
X85410700Y-98399819D01*
X85410700Y-98399819D02*
X85505938Y-98352200D01*
X85505938Y-98352200D02*
X85553557Y-98304580D01*
X100736414Y-97647438D02*
X100641176Y-97599819D01*
X100641176Y-97599819D02*
X100498319Y-97599819D01*
X100498319Y-97599819D02*
X100355462Y-97647438D01*
X100355462Y-97647438D02*
X100260224Y-97742676D01*
X100260224Y-97742676D02*
X100212605Y-97837914D01*
X100212605Y-97837914D02*
X100164986Y-98028390D01*
X100164986Y-98028390D02*
X100164986Y-98171247D01*
X100164986Y-98171247D02*
X100212605Y-98361723D01*
X100212605Y-98361723D02*
X100260224Y-98456961D01*
X100260224Y-98456961D02*
X100355462Y-98552200D01*
X100355462Y-98552200D02*
X100498319Y-98599819D01*
X100498319Y-98599819D02*
X100593557Y-98599819D01*
X100593557Y-98599819D02*
X100736414Y-98552200D01*
X100736414Y-98552200D02*
X100784033Y-98504580D01*
X100784033Y-98504580D02*
X100784033Y-98171247D01*
X100784033Y-98171247D02*
X100593557Y-98171247D01*
X101212605Y-97599819D02*
X101212605Y-98409342D01*
X101212605Y-98409342D02*
X101260224Y-98504580D01*
X101260224Y-98504580D02*
X101307843Y-98552200D01*
X101307843Y-98552200D02*
X101403081Y-98599819D01*
X101403081Y-98599819D02*
X101593557Y-98599819D01*
X101593557Y-98599819D02*
X101688795Y-98552200D01*
X101688795Y-98552200D02*
X101736414Y-98504580D01*
X101736414Y-98504580D02*
X101784033Y-98409342D01*
X101784033Y-98409342D02*
X101784033Y-97599819D01*
X102260224Y-98599819D02*
X102260224Y-97599819D01*
X104022128Y-98599819D02*
X103450700Y-98599819D01*
X103736414Y-98599819D02*
X103736414Y-97599819D01*
X103736414Y-97599819D02*
X103641176Y-97742676D01*
X103641176Y-97742676D02*
X103545938Y-97837914D01*
X103545938Y-97837914D02*
X103450700Y-97885533D01*
X104450700Y-98504580D02*
X104498319Y-98552200D01*
X104498319Y-98552200D02*
X104450700Y-98599819D01*
X104450700Y-98599819D02*
X104403081Y-98552200D01*
X104403081Y-98552200D02*
X104450700Y-98504580D01*
X104450700Y-98504580D02*
X104450700Y-98599819D01*
X104879271Y-97695057D02*
X104926890Y-97647438D01*
X104926890Y-97647438D02*
X105022128Y-97599819D01*
X105022128Y-97599819D02*
X105260223Y-97599819D01*
X105260223Y-97599819D02*
X105355461Y-97647438D01*
X105355461Y-97647438D02*
X105403080Y-97695057D01*
X105403080Y-97695057D02*
X105450699Y-97790295D01*
X105450699Y-97790295D02*
X105450699Y-97885533D01*
X105450699Y-97885533D02*
X105403080Y-98028390D01*
X105403080Y-98028390D02*
X104831652Y-98599819D01*
X104831652Y-98599819D02*
X105450699Y-98599819D01*
X106355461Y-97599819D02*
X105879271Y-97599819D01*
X105879271Y-97599819D02*
X105831652Y-98076009D01*
X105831652Y-98076009D02*
X105879271Y-98028390D01*
X105879271Y-98028390D02*
X105974509Y-97980771D01*
X105974509Y-97980771D02*
X106212604Y-97980771D01*
X106212604Y-97980771D02*
X106307842Y-98028390D01*
X106307842Y-98028390D02*
X106355461Y-98076009D01*
X106355461Y-98076009D02*
X106403080Y-98171247D01*
X106403080Y-98171247D02*
X106403080Y-98409342D01*
X106403080Y-98409342D02*
X106355461Y-98504580D01*
X106355461Y-98504580D02*
X106307842Y-98552200D01*
X106307842Y-98552200D02*
X106212604Y-98599819D01*
X106212604Y-98599819D02*
X105974509Y-98599819D01*
X105974509Y-98599819D02*
X105879271Y-98552200D01*
X105879271Y-98552200D02*
X105831652Y-98504580D01*
X107260223Y-97933152D02*
X107260223Y-98599819D01*
X106831652Y-97933152D02*
X106831652Y-98456961D01*
X106831652Y-98456961D02*
X106879271Y-98552200D01*
X106879271Y-98552200D02*
X106974509Y-98599819D01*
X106974509Y-98599819D02*
X107117366Y-98599819D01*
X107117366Y-98599819D02*
X107212604Y-98552200D01*
X107212604Y-98552200D02*
X107260223Y-98504580D01*
X86260223Y-92334580D02*
X86212604Y-92382200D01*
X86212604Y-92382200D02*
X86069747Y-92429819D01*
X86069747Y-92429819D02*
X85974509Y-92429819D01*
X85974509Y-92429819D02*
X85831652Y-92382200D01*
X85831652Y-92382200D02*
X85736414Y-92286961D01*
X85736414Y-92286961D02*
X85688795Y-92191723D01*
X85688795Y-92191723D02*
X85641176Y-92001247D01*
X85641176Y-92001247D02*
X85641176Y-91858390D01*
X85641176Y-91858390D02*
X85688795Y-91667914D01*
X85688795Y-91667914D02*
X85736414Y-91572676D01*
X85736414Y-91572676D02*
X85831652Y-91477438D01*
X85831652Y-91477438D02*
X85974509Y-91429819D01*
X85974509Y-91429819D02*
X86069747Y-91429819D01*
X86069747Y-91429819D02*
X86212604Y-91477438D01*
X86212604Y-91477438D02*
X86260223Y-91525057D01*
X86545938Y-91429819D02*
X87117366Y-91429819D01*
X86831652Y-92429819D02*
X86831652Y-91429819D01*
X88022128Y-92429819D02*
X87688795Y-91953628D01*
X87450700Y-92429819D02*
X87450700Y-91429819D01*
X87450700Y-91429819D02*
X87831652Y-91429819D01*
X87831652Y-91429819D02*
X87926890Y-91477438D01*
X87926890Y-91477438D02*
X87974509Y-91525057D01*
X87974509Y-91525057D02*
X88022128Y-91620295D01*
X88022128Y-91620295D02*
X88022128Y-91763152D01*
X88022128Y-91763152D02*
X87974509Y-91858390D01*
X87974509Y-91858390D02*
X87926890Y-91906009D01*
X87926890Y-91906009D02*
X87831652Y-91953628D01*
X87831652Y-91953628D02*
X87450700Y-91953628D01*
X88926890Y-92429819D02*
X88450700Y-92429819D01*
X88450700Y-92429819D02*
X88450700Y-91429819D01*
X90545938Y-92429819D02*
X89974510Y-92429819D01*
X90260224Y-92429819D02*
X90260224Y-91429819D01*
X90260224Y-91429819D02*
X90164986Y-91572676D01*
X90164986Y-91572676D02*
X90069748Y-91667914D01*
X90069748Y-91667914D02*
X89974510Y-91715533D01*
X90974510Y-92334580D02*
X91022129Y-92382200D01*
X91022129Y-92382200D02*
X90974510Y-92429819D01*
X90974510Y-92429819D02*
X90926891Y-92382200D01*
X90926891Y-92382200D02*
X90974510Y-92334580D01*
X90974510Y-92334580D02*
X90974510Y-92429819D01*
X91403081Y-91525057D02*
X91450700Y-91477438D01*
X91450700Y-91477438D02*
X91545938Y-91429819D01*
X91545938Y-91429819D02*
X91784033Y-91429819D01*
X91784033Y-91429819D02*
X91879271Y-91477438D01*
X91879271Y-91477438D02*
X91926890Y-91525057D01*
X91926890Y-91525057D02*
X91974509Y-91620295D01*
X91974509Y-91620295D02*
X91974509Y-91715533D01*
X91974509Y-91715533D02*
X91926890Y-91858390D01*
X91926890Y-91858390D02*
X91355462Y-92429819D01*
X91355462Y-92429819D02*
X91974509Y-92429819D01*
X92879271Y-91429819D02*
X92403081Y-91429819D01*
X92403081Y-91429819D02*
X92355462Y-91906009D01*
X92355462Y-91906009D02*
X92403081Y-91858390D01*
X92403081Y-91858390D02*
X92498319Y-91810771D01*
X92498319Y-91810771D02*
X92736414Y-91810771D01*
X92736414Y-91810771D02*
X92831652Y-91858390D01*
X92831652Y-91858390D02*
X92879271Y-91906009D01*
X92879271Y-91906009D02*
X92926890Y-92001247D01*
X92926890Y-92001247D02*
X92926890Y-92239342D01*
X92926890Y-92239342D02*
X92879271Y-92334580D01*
X92879271Y-92334580D02*
X92831652Y-92382200D01*
X92831652Y-92382200D02*
X92736414Y-92429819D01*
X92736414Y-92429819D02*
X92498319Y-92429819D01*
X92498319Y-92429819D02*
X92403081Y-92382200D01*
X92403081Y-92382200D02*
X92355462Y-92334580D01*
X93784033Y-91763152D02*
X93784033Y-92429819D01*
X93355462Y-91763152D02*
X93355462Y-92286961D01*
X93355462Y-92286961D02*
X93403081Y-92382200D01*
X93403081Y-92382200D02*
X93498319Y-92429819D01*
X93498319Y-92429819D02*
X93641176Y-92429819D01*
X93641176Y-92429819D02*
X93736414Y-92382200D01*
X93736414Y-92382200D02*
X93784033Y-92334580D01*
X254844508Y-98019819D02*
X254511175Y-97543628D01*
X254273080Y-98019819D02*
X254273080Y-97019819D01*
X254273080Y-97019819D02*
X254654032Y-97019819D01*
X254654032Y-97019819D02*
X254749270Y-97067438D01*
X254749270Y-97067438D02*
X254796889Y-97115057D01*
X254796889Y-97115057D02*
X254844508Y-97210295D01*
X254844508Y-97210295D02*
X254844508Y-97353152D01*
X254844508Y-97353152D02*
X254796889Y-97448390D01*
X254796889Y-97448390D02*
X254749270Y-97496009D01*
X254749270Y-97496009D02*
X254654032Y-97543628D01*
X254654032Y-97543628D02*
X254273080Y-97543628D01*
X256558794Y-98019819D02*
X255987366Y-98019819D01*
X256273080Y-98019819D02*
X256273080Y-97019819D01*
X256273080Y-97019819D02*
X256177842Y-97162676D01*
X256177842Y-97162676D02*
X256082604Y-97257914D01*
X256082604Y-97257914D02*
X255987366Y-97305533D01*
X257415937Y-97353152D02*
X257415937Y-98019819D01*
X256987366Y-97353152D02*
X256987366Y-97876961D01*
X256987366Y-97876961D02*
X257034985Y-97972200D01*
X257034985Y-97972200D02*
X257130223Y-98019819D01*
X257130223Y-98019819D02*
X257273080Y-98019819D01*
X257273080Y-98019819D02*
X257368318Y-97972200D01*
X257368318Y-97972200D02*
X257415937Y-97924580D01*
X258606414Y-97972200D02*
X258701652Y-98019819D01*
X258701652Y-98019819D02*
X258892128Y-98019819D01*
X258892128Y-98019819D02*
X258987366Y-97972200D01*
X258987366Y-97972200D02*
X259034985Y-97876961D01*
X259034985Y-97876961D02*
X259034985Y-97829342D01*
X259034985Y-97829342D02*
X258987366Y-97734104D01*
X258987366Y-97734104D02*
X258892128Y-97686485D01*
X258892128Y-97686485D02*
X258749271Y-97686485D01*
X258749271Y-97686485D02*
X258654033Y-97638866D01*
X258654033Y-97638866D02*
X258606414Y-97543628D01*
X258606414Y-97543628D02*
X258606414Y-97496009D01*
X258606414Y-97496009D02*
X258654033Y-97400771D01*
X258654033Y-97400771D02*
X258749271Y-97353152D01*
X258749271Y-97353152D02*
X258892128Y-97353152D01*
X258892128Y-97353152D02*
X258987366Y-97400771D01*
X259463557Y-97353152D02*
X259463557Y-98353152D01*
X259463557Y-97400771D02*
X259558795Y-97353152D01*
X259558795Y-97353152D02*
X259749271Y-97353152D01*
X259749271Y-97353152D02*
X259844509Y-97400771D01*
X259844509Y-97400771D02*
X259892128Y-97448390D01*
X259892128Y-97448390D02*
X259939747Y-97543628D01*
X259939747Y-97543628D02*
X259939747Y-97829342D01*
X259939747Y-97829342D02*
X259892128Y-97924580D01*
X259892128Y-97924580D02*
X259844509Y-97972200D01*
X259844509Y-97972200D02*
X259749271Y-98019819D01*
X259749271Y-98019819D02*
X259558795Y-98019819D01*
X259558795Y-98019819D02*
X259463557Y-97972200D01*
X260511176Y-98019819D02*
X260415938Y-97972200D01*
X260415938Y-97972200D02*
X260368319Y-97876961D01*
X260368319Y-97876961D02*
X260368319Y-97019819D01*
X260892129Y-98019819D02*
X260892129Y-97353152D01*
X260892129Y-97019819D02*
X260844510Y-97067438D01*
X260844510Y-97067438D02*
X260892129Y-97115057D01*
X260892129Y-97115057D02*
X260939748Y-97067438D01*
X260939748Y-97067438D02*
X260892129Y-97019819D01*
X260892129Y-97019819D02*
X260892129Y-97115057D01*
X261225462Y-97353152D02*
X261606414Y-97353152D01*
X261368319Y-97019819D02*
X261368319Y-97876961D01*
X261368319Y-97876961D02*
X261415938Y-97972200D01*
X261415938Y-97972200D02*
X261511176Y-98019819D01*
X261511176Y-98019819D02*
X261606414Y-98019819D01*
X262654034Y-97972200D02*
X262749272Y-98019819D01*
X262749272Y-98019819D02*
X262939748Y-98019819D01*
X262939748Y-98019819D02*
X263034986Y-97972200D01*
X263034986Y-97972200D02*
X263082605Y-97876961D01*
X263082605Y-97876961D02*
X263082605Y-97829342D01*
X263082605Y-97829342D02*
X263034986Y-97734104D01*
X263034986Y-97734104D02*
X262939748Y-97686485D01*
X262939748Y-97686485D02*
X262796891Y-97686485D01*
X262796891Y-97686485D02*
X262701653Y-97638866D01*
X262701653Y-97638866D02*
X262654034Y-97543628D01*
X262654034Y-97543628D02*
X262654034Y-97496009D01*
X262654034Y-97496009D02*
X262701653Y-97400771D01*
X262701653Y-97400771D02*
X262796891Y-97353152D01*
X262796891Y-97353152D02*
X262939748Y-97353152D01*
X262939748Y-97353152D02*
X263034986Y-97400771D01*
X263511177Y-98019819D02*
X263511177Y-97019819D01*
X263511177Y-97400771D02*
X263606415Y-97353152D01*
X263606415Y-97353152D02*
X263796891Y-97353152D01*
X263796891Y-97353152D02*
X263892129Y-97400771D01*
X263892129Y-97400771D02*
X263939748Y-97448390D01*
X263939748Y-97448390D02*
X263987367Y-97543628D01*
X263987367Y-97543628D02*
X263987367Y-97829342D01*
X263987367Y-97829342D02*
X263939748Y-97924580D01*
X263939748Y-97924580D02*
X263892129Y-97972200D01*
X263892129Y-97972200D02*
X263796891Y-98019819D01*
X263796891Y-98019819D02*
X263606415Y-98019819D01*
X263606415Y-98019819D02*
X263511177Y-97972200D01*
X219483557Y-98362200D02*
X219626414Y-98409819D01*
X219626414Y-98409819D02*
X219864509Y-98409819D01*
X219864509Y-98409819D02*
X219959747Y-98362200D01*
X219959747Y-98362200D02*
X220007366Y-98314580D01*
X220007366Y-98314580D02*
X220054985Y-98219342D01*
X220054985Y-98219342D02*
X220054985Y-98124104D01*
X220054985Y-98124104D02*
X220007366Y-98028866D01*
X220007366Y-98028866D02*
X219959747Y-97981247D01*
X219959747Y-97981247D02*
X219864509Y-97933628D01*
X219864509Y-97933628D02*
X219674033Y-97886009D01*
X219674033Y-97886009D02*
X219578795Y-97838390D01*
X219578795Y-97838390D02*
X219531176Y-97790771D01*
X219531176Y-97790771D02*
X219483557Y-97695533D01*
X219483557Y-97695533D02*
X219483557Y-97600295D01*
X219483557Y-97600295D02*
X219531176Y-97505057D01*
X219531176Y-97505057D02*
X219578795Y-97457438D01*
X219578795Y-97457438D02*
X219674033Y-97409819D01*
X219674033Y-97409819D02*
X219912128Y-97409819D01*
X219912128Y-97409819D02*
X220054985Y-97457438D01*
X221150224Y-97409819D02*
X221816890Y-97409819D01*
X221816890Y-97409819D02*
X221388319Y-98409819D01*
X222626414Y-97743152D02*
X222626414Y-98409819D01*
X222197843Y-97743152D02*
X222197843Y-98266961D01*
X222197843Y-98266961D02*
X222245462Y-98362200D01*
X222245462Y-98362200D02*
X222340700Y-98409819D01*
X222340700Y-98409819D02*
X222483557Y-98409819D01*
X222483557Y-98409819D02*
X222578795Y-98362200D01*
X222578795Y-98362200D02*
X222626414Y-98314580D01*
X223816891Y-97505057D02*
X223864510Y-97457438D01*
X223864510Y-97457438D02*
X223959748Y-97409819D01*
X223959748Y-97409819D02*
X224197843Y-97409819D01*
X224197843Y-97409819D02*
X224293081Y-97457438D01*
X224293081Y-97457438D02*
X224340700Y-97505057D01*
X224340700Y-97505057D02*
X224388319Y-97600295D01*
X224388319Y-97600295D02*
X224388319Y-97695533D01*
X224388319Y-97695533D02*
X224340700Y-97838390D01*
X224340700Y-97838390D02*
X223769272Y-98409819D01*
X223769272Y-98409819D02*
X224388319Y-98409819D01*
X224816891Y-98314580D02*
X224864510Y-98362200D01*
X224864510Y-98362200D02*
X224816891Y-98409819D01*
X224816891Y-98409819D02*
X224769272Y-98362200D01*
X224769272Y-98362200D02*
X224816891Y-98314580D01*
X224816891Y-98314580D02*
X224816891Y-98409819D01*
X225197843Y-97409819D02*
X225864509Y-97409819D01*
X225864509Y-97409819D02*
X225435938Y-98409819D01*
X226721652Y-97409819D02*
X226245462Y-97409819D01*
X226245462Y-97409819D02*
X226197843Y-97886009D01*
X226197843Y-97886009D02*
X226245462Y-97838390D01*
X226245462Y-97838390D02*
X226340700Y-97790771D01*
X226340700Y-97790771D02*
X226578795Y-97790771D01*
X226578795Y-97790771D02*
X226674033Y-97838390D01*
X226674033Y-97838390D02*
X226721652Y-97886009D01*
X226721652Y-97886009D02*
X226769271Y-97981247D01*
X226769271Y-97981247D02*
X226769271Y-98219342D01*
X226769271Y-98219342D02*
X226721652Y-98314580D01*
X226721652Y-98314580D02*
X226674033Y-98362200D01*
X226674033Y-98362200D02*
X226578795Y-98409819D01*
X226578795Y-98409819D02*
X226340700Y-98409819D01*
X226340700Y-98409819D02*
X226245462Y-98362200D01*
X226245462Y-98362200D02*
X226197843Y-98314580D01*
X110356890Y-91697438D02*
X110261652Y-91649819D01*
X110261652Y-91649819D02*
X110118795Y-91649819D01*
X110118795Y-91649819D02*
X109975938Y-91697438D01*
X109975938Y-91697438D02*
X109880700Y-91792676D01*
X109880700Y-91792676D02*
X109833081Y-91887914D01*
X109833081Y-91887914D02*
X109785462Y-92078390D01*
X109785462Y-92078390D02*
X109785462Y-92221247D01*
X109785462Y-92221247D02*
X109833081Y-92411723D01*
X109833081Y-92411723D02*
X109880700Y-92506961D01*
X109880700Y-92506961D02*
X109975938Y-92602200D01*
X109975938Y-92602200D02*
X110118795Y-92649819D01*
X110118795Y-92649819D02*
X110214033Y-92649819D01*
X110214033Y-92649819D02*
X110356890Y-92602200D01*
X110356890Y-92602200D02*
X110404509Y-92554580D01*
X110404509Y-92554580D02*
X110404509Y-92221247D01*
X110404509Y-92221247D02*
X110214033Y-92221247D01*
X110833081Y-91649819D02*
X110833081Y-92459342D01*
X110833081Y-92459342D02*
X110880700Y-92554580D01*
X110880700Y-92554580D02*
X110928319Y-92602200D01*
X110928319Y-92602200D02*
X111023557Y-92649819D01*
X111023557Y-92649819D02*
X111214033Y-92649819D01*
X111214033Y-92649819D02*
X111309271Y-92602200D01*
X111309271Y-92602200D02*
X111356890Y-92554580D01*
X111356890Y-92554580D02*
X111404509Y-92459342D01*
X111404509Y-92459342D02*
X111404509Y-91649819D01*
X111880700Y-92649819D02*
X111880700Y-91649819D01*
X113642604Y-92649819D02*
X113071176Y-92649819D01*
X113356890Y-92649819D02*
X113356890Y-91649819D01*
X113356890Y-91649819D02*
X113261652Y-91792676D01*
X113261652Y-91792676D02*
X113166414Y-91887914D01*
X113166414Y-91887914D02*
X113071176Y-91935533D01*
X114499747Y-91983152D02*
X114499747Y-92649819D01*
X114071176Y-91983152D02*
X114071176Y-92506961D01*
X114071176Y-92506961D02*
X114118795Y-92602200D01*
X114118795Y-92602200D02*
X114214033Y-92649819D01*
X114214033Y-92649819D02*
X114356890Y-92649819D01*
X114356890Y-92649819D02*
X114452128Y-92602200D01*
X114452128Y-92602200D02*
X114499747Y-92554580D01*
X302946414Y-91507438D02*
X302851176Y-91459819D01*
X302851176Y-91459819D02*
X302708319Y-91459819D01*
X302708319Y-91459819D02*
X302565462Y-91507438D01*
X302565462Y-91507438D02*
X302470224Y-91602676D01*
X302470224Y-91602676D02*
X302422605Y-91697914D01*
X302422605Y-91697914D02*
X302374986Y-91888390D01*
X302374986Y-91888390D02*
X302374986Y-92031247D01*
X302374986Y-92031247D02*
X302422605Y-92221723D01*
X302422605Y-92221723D02*
X302470224Y-92316961D01*
X302470224Y-92316961D02*
X302565462Y-92412200D01*
X302565462Y-92412200D02*
X302708319Y-92459819D01*
X302708319Y-92459819D02*
X302803557Y-92459819D01*
X302803557Y-92459819D02*
X302946414Y-92412200D01*
X302946414Y-92412200D02*
X302994033Y-92364580D01*
X302994033Y-92364580D02*
X302994033Y-92031247D01*
X302994033Y-92031247D02*
X302803557Y-92031247D01*
X303422605Y-91459819D02*
X303422605Y-92269342D01*
X303422605Y-92269342D02*
X303470224Y-92364580D01*
X303470224Y-92364580D02*
X303517843Y-92412200D01*
X303517843Y-92412200D02*
X303613081Y-92459819D01*
X303613081Y-92459819D02*
X303803557Y-92459819D01*
X303803557Y-92459819D02*
X303898795Y-92412200D01*
X303898795Y-92412200D02*
X303946414Y-92364580D01*
X303946414Y-92364580D02*
X303994033Y-92269342D01*
X303994033Y-92269342D02*
X303994033Y-91459819D01*
X304470224Y-92459819D02*
X304470224Y-91459819D01*
X306232128Y-92459819D02*
X305660700Y-92459819D01*
X305946414Y-92459819D02*
X305946414Y-91459819D01*
X305946414Y-91459819D02*
X305851176Y-91602676D01*
X305851176Y-91602676D02*
X305755938Y-91697914D01*
X305755938Y-91697914D02*
X305660700Y-91745533D01*
X306660700Y-92364580D02*
X306708319Y-92412200D01*
X306708319Y-92412200D02*
X306660700Y-92459819D01*
X306660700Y-92459819D02*
X306613081Y-92412200D01*
X306613081Y-92412200D02*
X306660700Y-92364580D01*
X306660700Y-92364580D02*
X306660700Y-92459819D01*
X307089271Y-91555057D02*
X307136890Y-91507438D01*
X307136890Y-91507438D02*
X307232128Y-91459819D01*
X307232128Y-91459819D02*
X307470223Y-91459819D01*
X307470223Y-91459819D02*
X307565461Y-91507438D01*
X307565461Y-91507438D02*
X307613080Y-91555057D01*
X307613080Y-91555057D02*
X307660699Y-91650295D01*
X307660699Y-91650295D02*
X307660699Y-91745533D01*
X307660699Y-91745533D02*
X307613080Y-91888390D01*
X307613080Y-91888390D02*
X307041652Y-92459819D01*
X307041652Y-92459819D02*
X307660699Y-92459819D01*
X308565461Y-91459819D02*
X308089271Y-91459819D01*
X308089271Y-91459819D02*
X308041652Y-91936009D01*
X308041652Y-91936009D02*
X308089271Y-91888390D01*
X308089271Y-91888390D02*
X308184509Y-91840771D01*
X308184509Y-91840771D02*
X308422604Y-91840771D01*
X308422604Y-91840771D02*
X308517842Y-91888390D01*
X308517842Y-91888390D02*
X308565461Y-91936009D01*
X308565461Y-91936009D02*
X308613080Y-92031247D01*
X308613080Y-92031247D02*
X308613080Y-92269342D01*
X308613080Y-92269342D02*
X308565461Y-92364580D01*
X308565461Y-92364580D02*
X308517842Y-92412200D01*
X308517842Y-92412200D02*
X308422604Y-92459819D01*
X308422604Y-92459819D02*
X308184509Y-92459819D01*
X308184509Y-92459819D02*
X308089271Y-92412200D01*
X308089271Y-92412200D02*
X308041652Y-92364580D01*
X309470223Y-91793152D02*
X309470223Y-92459819D01*
X309041652Y-91793152D02*
X309041652Y-92316961D01*
X309041652Y-92316961D02*
X309089271Y-92412200D01*
X309089271Y-92412200D02*
X309184509Y-92459819D01*
X309184509Y-92459819D02*
X309327366Y-92459819D01*
X309327366Y-92459819D02*
X309422604Y-92412200D01*
X309422604Y-92412200D02*
X309470223Y-92364580D01*
X271513080Y-98559819D02*
X271513080Y-98036009D01*
X271513080Y-98036009D02*
X271465461Y-97940771D01*
X271465461Y-97940771D02*
X271370223Y-97893152D01*
X271370223Y-97893152D02*
X271179747Y-97893152D01*
X271179747Y-97893152D02*
X271084509Y-97940771D01*
X271513080Y-98512200D02*
X271417842Y-98559819D01*
X271417842Y-98559819D02*
X271179747Y-98559819D01*
X271179747Y-98559819D02*
X271084509Y-98512200D01*
X271084509Y-98512200D02*
X271036890Y-98416961D01*
X271036890Y-98416961D02*
X271036890Y-98321723D01*
X271036890Y-98321723D02*
X271084509Y-98226485D01*
X271084509Y-98226485D02*
X271179747Y-98178866D01*
X271179747Y-98178866D02*
X271417842Y-98178866D01*
X271417842Y-98178866D02*
X271513080Y-98131247D01*
X272132128Y-98559819D02*
X272036890Y-98512200D01*
X272036890Y-98512200D02*
X271989271Y-98416961D01*
X271989271Y-98416961D02*
X271989271Y-97559819D01*
X272370224Y-97893152D02*
X272751176Y-97893152D01*
X272513081Y-97559819D02*
X272513081Y-98416961D01*
X272513081Y-98416961D02*
X272560700Y-98512200D01*
X272560700Y-98512200D02*
X272655938Y-98559819D01*
X272655938Y-98559819D02*
X272751176Y-98559819D01*
X274370224Y-98559819D02*
X273798796Y-98559819D01*
X274084510Y-98559819D02*
X274084510Y-97559819D01*
X274084510Y-97559819D02*
X273989272Y-97702676D01*
X273989272Y-97702676D02*
X273894034Y-97797914D01*
X273894034Y-97797914D02*
X273798796Y-97845533D01*
X274798796Y-98464580D02*
X274846415Y-98512200D01*
X274846415Y-98512200D02*
X274798796Y-98559819D01*
X274798796Y-98559819D02*
X274751177Y-98512200D01*
X274751177Y-98512200D02*
X274798796Y-98464580D01*
X274798796Y-98464580D02*
X274798796Y-98559819D01*
X275751176Y-97559819D02*
X275274986Y-97559819D01*
X275274986Y-97559819D02*
X275227367Y-98036009D01*
X275227367Y-98036009D02*
X275274986Y-97988390D01*
X275274986Y-97988390D02*
X275370224Y-97940771D01*
X275370224Y-97940771D02*
X275608319Y-97940771D01*
X275608319Y-97940771D02*
X275703557Y-97988390D01*
X275703557Y-97988390D02*
X275751176Y-98036009D01*
X275751176Y-98036009D02*
X275798795Y-98131247D01*
X275798795Y-98131247D02*
X275798795Y-98369342D01*
X275798795Y-98369342D02*
X275751176Y-98464580D01*
X275751176Y-98464580D02*
X275703557Y-98512200D01*
X275703557Y-98512200D02*
X275608319Y-98559819D01*
X275608319Y-98559819D02*
X275370224Y-98559819D01*
X275370224Y-98559819D02*
X275274986Y-98512200D01*
X275274986Y-98512200D02*
X275227367Y-98464580D01*
X276417843Y-97559819D02*
X276513081Y-97559819D01*
X276513081Y-97559819D02*
X276608319Y-97607438D01*
X276608319Y-97607438D02*
X276655938Y-97655057D01*
X276655938Y-97655057D02*
X276703557Y-97750295D01*
X276703557Y-97750295D02*
X276751176Y-97940771D01*
X276751176Y-97940771D02*
X276751176Y-98178866D01*
X276751176Y-98178866D02*
X276703557Y-98369342D01*
X276703557Y-98369342D02*
X276655938Y-98464580D01*
X276655938Y-98464580D02*
X276608319Y-98512200D01*
X276608319Y-98512200D02*
X276513081Y-98559819D01*
X276513081Y-98559819D02*
X276417843Y-98559819D01*
X276417843Y-98559819D02*
X276322605Y-98512200D01*
X276322605Y-98512200D02*
X276274986Y-98464580D01*
X276274986Y-98464580D02*
X276227367Y-98369342D01*
X276227367Y-98369342D02*
X276179748Y-98178866D01*
X276179748Y-98178866D02*
X276179748Y-97940771D01*
X276179748Y-97940771D02*
X276227367Y-97750295D01*
X276227367Y-97750295D02*
X276274986Y-97655057D01*
X276274986Y-97655057D02*
X276322605Y-97607438D01*
X276322605Y-97607438D02*
X276417843Y-97559819D01*
X277608319Y-97893152D02*
X277608319Y-98559819D01*
X277179748Y-97893152D02*
X277179748Y-98416961D01*
X277179748Y-98416961D02*
X277227367Y-98512200D01*
X277227367Y-98512200D02*
X277322605Y-98559819D01*
X277322605Y-98559819D02*
X277465462Y-98559819D01*
X277465462Y-98559819D02*
X277560700Y-98512200D01*
X277560700Y-98512200D02*
X277608319Y-98464580D01*
X296356890Y-97707438D02*
X296261652Y-97659819D01*
X296261652Y-97659819D02*
X296118795Y-97659819D01*
X296118795Y-97659819D02*
X295975938Y-97707438D01*
X295975938Y-97707438D02*
X295880700Y-97802676D01*
X295880700Y-97802676D02*
X295833081Y-97897914D01*
X295833081Y-97897914D02*
X295785462Y-98088390D01*
X295785462Y-98088390D02*
X295785462Y-98231247D01*
X295785462Y-98231247D02*
X295833081Y-98421723D01*
X295833081Y-98421723D02*
X295880700Y-98516961D01*
X295880700Y-98516961D02*
X295975938Y-98612200D01*
X295975938Y-98612200D02*
X296118795Y-98659819D01*
X296118795Y-98659819D02*
X296214033Y-98659819D01*
X296214033Y-98659819D02*
X296356890Y-98612200D01*
X296356890Y-98612200D02*
X296404509Y-98564580D01*
X296404509Y-98564580D02*
X296404509Y-98231247D01*
X296404509Y-98231247D02*
X296214033Y-98231247D01*
X296833081Y-97659819D02*
X296833081Y-98469342D01*
X296833081Y-98469342D02*
X296880700Y-98564580D01*
X296880700Y-98564580D02*
X296928319Y-98612200D01*
X296928319Y-98612200D02*
X297023557Y-98659819D01*
X297023557Y-98659819D02*
X297214033Y-98659819D01*
X297214033Y-98659819D02*
X297309271Y-98612200D01*
X297309271Y-98612200D02*
X297356890Y-98564580D01*
X297356890Y-98564580D02*
X297404509Y-98469342D01*
X297404509Y-98469342D02*
X297404509Y-97659819D01*
X297880700Y-98659819D02*
X297880700Y-97659819D01*
X299642604Y-98659819D02*
X299071176Y-98659819D01*
X299356890Y-98659819D02*
X299356890Y-97659819D01*
X299356890Y-97659819D02*
X299261652Y-97802676D01*
X299261652Y-97802676D02*
X299166414Y-97897914D01*
X299166414Y-97897914D02*
X299071176Y-97945533D01*
X300499747Y-97993152D02*
X300499747Y-98659819D01*
X300071176Y-97993152D02*
X300071176Y-98516961D01*
X300071176Y-98516961D02*
X300118795Y-98612200D01*
X300118795Y-98612200D02*
X300214033Y-98659819D01*
X300214033Y-98659819D02*
X300356890Y-98659819D01*
X300356890Y-98659819D02*
X300452128Y-98612200D01*
X300452128Y-98612200D02*
X300499747Y-98564580D01*
X142384508Y-98659819D02*
X141908318Y-98659819D01*
X141908318Y-98659819D02*
X141908318Y-97659819D01*
X144003556Y-98659819D02*
X143432128Y-98659819D01*
X143717842Y-98659819D02*
X143717842Y-97659819D01*
X143717842Y-97659819D02*
X143622604Y-97802676D01*
X143622604Y-97802676D02*
X143527366Y-97897914D01*
X143527366Y-97897914D02*
X143432128Y-97945533D01*
X144860699Y-97993152D02*
X144860699Y-98659819D01*
X144432128Y-97993152D02*
X144432128Y-98516961D01*
X144432128Y-98516961D02*
X144479747Y-98612200D01*
X144479747Y-98612200D02*
X144574985Y-98659819D01*
X144574985Y-98659819D02*
X144717842Y-98659819D01*
X144717842Y-98659819D02*
X144813080Y-98612200D01*
X144813080Y-98612200D02*
X144860699Y-98564580D01*
X146051176Y-98612200D02*
X146146414Y-98659819D01*
X146146414Y-98659819D02*
X146336890Y-98659819D01*
X146336890Y-98659819D02*
X146432128Y-98612200D01*
X146432128Y-98612200D02*
X146479747Y-98516961D01*
X146479747Y-98516961D02*
X146479747Y-98469342D01*
X146479747Y-98469342D02*
X146432128Y-98374104D01*
X146432128Y-98374104D02*
X146336890Y-98326485D01*
X146336890Y-98326485D02*
X146194033Y-98326485D01*
X146194033Y-98326485D02*
X146098795Y-98278866D01*
X146098795Y-98278866D02*
X146051176Y-98183628D01*
X146051176Y-98183628D02*
X146051176Y-98136009D01*
X146051176Y-98136009D02*
X146098795Y-98040771D01*
X146098795Y-98040771D02*
X146194033Y-97993152D01*
X146194033Y-97993152D02*
X146336890Y-97993152D01*
X146336890Y-97993152D02*
X146432128Y-98040771D01*
X146908319Y-97993152D02*
X146908319Y-98993152D01*
X146908319Y-98040771D02*
X147003557Y-97993152D01*
X147003557Y-97993152D02*
X147194033Y-97993152D01*
X147194033Y-97993152D02*
X147289271Y-98040771D01*
X147289271Y-98040771D02*
X147336890Y-98088390D01*
X147336890Y-98088390D02*
X147384509Y-98183628D01*
X147384509Y-98183628D02*
X147384509Y-98469342D01*
X147384509Y-98469342D02*
X147336890Y-98564580D01*
X147336890Y-98564580D02*
X147289271Y-98612200D01*
X147289271Y-98612200D02*
X147194033Y-98659819D01*
X147194033Y-98659819D02*
X147003557Y-98659819D01*
X147003557Y-98659819D02*
X146908319Y-98612200D01*
X147955938Y-98659819D02*
X147860700Y-98612200D01*
X147860700Y-98612200D02*
X147813081Y-98516961D01*
X147813081Y-98516961D02*
X147813081Y-97659819D01*
X148336891Y-98659819D02*
X148336891Y-97993152D01*
X148336891Y-97659819D02*
X148289272Y-97707438D01*
X148289272Y-97707438D02*
X148336891Y-97755057D01*
X148336891Y-97755057D02*
X148384510Y-97707438D01*
X148384510Y-97707438D02*
X148336891Y-97659819D01*
X148336891Y-97659819D02*
X148336891Y-97755057D01*
X148670224Y-97993152D02*
X149051176Y-97993152D01*
X148813081Y-97659819D02*
X148813081Y-98516961D01*
X148813081Y-98516961D02*
X148860700Y-98612200D01*
X148860700Y-98612200D02*
X148955938Y-98659819D01*
X148955938Y-98659819D02*
X149051176Y-98659819D01*
X150098796Y-98612200D02*
X150194034Y-98659819D01*
X150194034Y-98659819D02*
X150384510Y-98659819D01*
X150384510Y-98659819D02*
X150479748Y-98612200D01*
X150479748Y-98612200D02*
X150527367Y-98516961D01*
X150527367Y-98516961D02*
X150527367Y-98469342D01*
X150527367Y-98469342D02*
X150479748Y-98374104D01*
X150479748Y-98374104D02*
X150384510Y-98326485D01*
X150384510Y-98326485D02*
X150241653Y-98326485D01*
X150241653Y-98326485D02*
X150146415Y-98278866D01*
X150146415Y-98278866D02*
X150098796Y-98183628D01*
X150098796Y-98183628D02*
X150098796Y-98136009D01*
X150098796Y-98136009D02*
X150146415Y-98040771D01*
X150146415Y-98040771D02*
X150241653Y-97993152D01*
X150241653Y-97993152D02*
X150384510Y-97993152D01*
X150384510Y-97993152D02*
X150479748Y-98040771D01*
X150955939Y-98659819D02*
X150955939Y-97659819D01*
X150955939Y-98040771D02*
X151051177Y-97993152D01*
X151051177Y-97993152D02*
X151241653Y-97993152D01*
X151241653Y-97993152D02*
X151336891Y-98040771D01*
X151336891Y-98040771D02*
X151384510Y-98088390D01*
X151384510Y-98088390D02*
X151432129Y-98183628D01*
X151432129Y-98183628D02*
X151432129Y-98469342D01*
X151432129Y-98469342D02*
X151384510Y-98564580D01*
X151384510Y-98564580D02*
X151336891Y-98612200D01*
X151336891Y-98612200D02*
X151241653Y-98659819D01*
X151241653Y-98659819D02*
X151051177Y-98659819D01*
X151051177Y-98659819D02*
X150955939Y-98612200D01*
X279323556Y-92169819D02*
X279323556Y-91646009D01*
X279323556Y-91646009D02*
X279275937Y-91550771D01*
X279275937Y-91550771D02*
X279180699Y-91503152D01*
X279180699Y-91503152D02*
X278990223Y-91503152D01*
X278990223Y-91503152D02*
X278894985Y-91550771D01*
X279323556Y-92122200D02*
X279228318Y-92169819D01*
X279228318Y-92169819D02*
X278990223Y-92169819D01*
X278990223Y-92169819D02*
X278894985Y-92122200D01*
X278894985Y-92122200D02*
X278847366Y-92026961D01*
X278847366Y-92026961D02*
X278847366Y-91931723D01*
X278847366Y-91931723D02*
X278894985Y-91836485D01*
X278894985Y-91836485D02*
X278990223Y-91788866D01*
X278990223Y-91788866D02*
X279228318Y-91788866D01*
X279228318Y-91788866D02*
X279323556Y-91741247D01*
X279942604Y-92169819D02*
X279847366Y-92122200D01*
X279847366Y-92122200D02*
X279799747Y-92026961D01*
X279799747Y-92026961D02*
X279799747Y-91169819D01*
X280180700Y-91503152D02*
X280561652Y-91503152D01*
X280323557Y-91169819D02*
X280323557Y-92026961D01*
X280323557Y-92026961D02*
X280371176Y-92122200D01*
X280371176Y-92122200D02*
X280466414Y-92169819D01*
X280466414Y-92169819D02*
X280561652Y-92169819D01*
X282180700Y-92169819D02*
X281609272Y-92169819D01*
X281894986Y-92169819D02*
X281894986Y-91169819D01*
X281894986Y-91169819D02*
X281799748Y-91312676D01*
X281799748Y-91312676D02*
X281704510Y-91407914D01*
X281704510Y-91407914D02*
X281609272Y-91455533D01*
X283037843Y-91503152D02*
X283037843Y-92169819D01*
X282609272Y-91503152D02*
X282609272Y-92026961D01*
X282609272Y-92026961D02*
X282656891Y-92122200D01*
X282656891Y-92122200D02*
X282752129Y-92169819D01*
X282752129Y-92169819D02*
X282894986Y-92169819D01*
X282894986Y-92169819D02*
X282990224Y-92122200D01*
X282990224Y-92122200D02*
X283037843Y-92074580D01*
X162563557Y-98322200D02*
X162706414Y-98369819D01*
X162706414Y-98369819D02*
X162944509Y-98369819D01*
X162944509Y-98369819D02*
X163039747Y-98322200D01*
X163039747Y-98322200D02*
X163087366Y-98274580D01*
X163087366Y-98274580D02*
X163134985Y-98179342D01*
X163134985Y-98179342D02*
X163134985Y-98084104D01*
X163134985Y-98084104D02*
X163087366Y-97988866D01*
X163087366Y-97988866D02*
X163039747Y-97941247D01*
X163039747Y-97941247D02*
X162944509Y-97893628D01*
X162944509Y-97893628D02*
X162754033Y-97846009D01*
X162754033Y-97846009D02*
X162658795Y-97798390D01*
X162658795Y-97798390D02*
X162611176Y-97750771D01*
X162611176Y-97750771D02*
X162563557Y-97655533D01*
X162563557Y-97655533D02*
X162563557Y-97560295D01*
X162563557Y-97560295D02*
X162611176Y-97465057D01*
X162611176Y-97465057D02*
X162658795Y-97417438D01*
X162658795Y-97417438D02*
X162754033Y-97369819D01*
X162754033Y-97369819D02*
X162992128Y-97369819D01*
X162992128Y-97369819D02*
X163134985Y-97417438D01*
X164754033Y-97369819D02*
X164563557Y-97369819D01*
X164563557Y-97369819D02*
X164468319Y-97417438D01*
X164468319Y-97417438D02*
X164420700Y-97465057D01*
X164420700Y-97465057D02*
X164325462Y-97607914D01*
X164325462Y-97607914D02*
X164277843Y-97798390D01*
X164277843Y-97798390D02*
X164277843Y-98179342D01*
X164277843Y-98179342D02*
X164325462Y-98274580D01*
X164325462Y-98274580D02*
X164373081Y-98322200D01*
X164373081Y-98322200D02*
X164468319Y-98369819D01*
X164468319Y-98369819D02*
X164658795Y-98369819D01*
X164658795Y-98369819D02*
X164754033Y-98322200D01*
X164754033Y-98322200D02*
X164801652Y-98274580D01*
X164801652Y-98274580D02*
X164849271Y-98179342D01*
X164849271Y-98179342D02*
X164849271Y-97941247D01*
X164849271Y-97941247D02*
X164801652Y-97846009D01*
X164801652Y-97846009D02*
X164754033Y-97798390D01*
X164754033Y-97798390D02*
X164658795Y-97750771D01*
X164658795Y-97750771D02*
X164468319Y-97750771D01*
X164468319Y-97750771D02*
X164373081Y-97798390D01*
X164373081Y-97798390D02*
X164325462Y-97846009D01*
X164325462Y-97846009D02*
X164277843Y-97941247D01*
X165706414Y-97703152D02*
X165706414Y-98369819D01*
X165277843Y-97703152D02*
X165277843Y-98226961D01*
X165277843Y-98226961D02*
X165325462Y-98322200D01*
X165325462Y-98322200D02*
X165420700Y-98369819D01*
X165420700Y-98369819D02*
X165563557Y-98369819D01*
X165563557Y-98369819D02*
X165658795Y-98322200D01*
X165658795Y-98322200D02*
X165706414Y-98274580D01*
X166896891Y-97465057D02*
X166944510Y-97417438D01*
X166944510Y-97417438D02*
X167039748Y-97369819D01*
X167039748Y-97369819D02*
X167277843Y-97369819D01*
X167277843Y-97369819D02*
X167373081Y-97417438D01*
X167373081Y-97417438D02*
X167420700Y-97465057D01*
X167420700Y-97465057D02*
X167468319Y-97560295D01*
X167468319Y-97560295D02*
X167468319Y-97655533D01*
X167468319Y-97655533D02*
X167420700Y-97798390D01*
X167420700Y-97798390D02*
X166849272Y-98369819D01*
X166849272Y-98369819D02*
X167468319Y-98369819D01*
X167896891Y-98274580D02*
X167944510Y-98322200D01*
X167944510Y-98322200D02*
X167896891Y-98369819D01*
X167896891Y-98369819D02*
X167849272Y-98322200D01*
X167849272Y-98322200D02*
X167896891Y-98274580D01*
X167896891Y-98274580D02*
X167896891Y-98369819D01*
X168325462Y-97465057D02*
X168373081Y-97417438D01*
X168373081Y-97417438D02*
X168468319Y-97369819D01*
X168468319Y-97369819D02*
X168706414Y-97369819D01*
X168706414Y-97369819D02*
X168801652Y-97417438D01*
X168801652Y-97417438D02*
X168849271Y-97465057D01*
X168849271Y-97465057D02*
X168896890Y-97560295D01*
X168896890Y-97560295D02*
X168896890Y-97655533D01*
X168896890Y-97655533D02*
X168849271Y-97798390D01*
X168849271Y-97798390D02*
X168277843Y-98369819D01*
X168277843Y-98369819D02*
X168896890Y-98369819D01*
X169801652Y-97369819D02*
X169325462Y-97369819D01*
X169325462Y-97369819D02*
X169277843Y-97846009D01*
X169277843Y-97846009D02*
X169325462Y-97798390D01*
X169325462Y-97798390D02*
X169420700Y-97750771D01*
X169420700Y-97750771D02*
X169658795Y-97750771D01*
X169658795Y-97750771D02*
X169754033Y-97798390D01*
X169754033Y-97798390D02*
X169801652Y-97846009D01*
X169801652Y-97846009D02*
X169849271Y-97941247D01*
X169849271Y-97941247D02*
X169849271Y-98179342D01*
X169849271Y-98179342D02*
X169801652Y-98274580D01*
X169801652Y-98274580D02*
X169754033Y-98322200D01*
X169754033Y-98322200D02*
X169658795Y-98369819D01*
X169658795Y-98369819D02*
X169420700Y-98369819D01*
X169420700Y-98369819D02*
X169325462Y-98322200D01*
X169325462Y-98322200D02*
X169277843Y-98274580D01*
X322763079Y-92199819D02*
X322191651Y-92199819D01*
X322477365Y-92199819D02*
X322477365Y-91199819D01*
X322477365Y-91199819D02*
X322382127Y-91342676D01*
X322382127Y-91342676D02*
X322286889Y-91437914D01*
X322286889Y-91437914D02*
X322191651Y-91485533D01*
X323620222Y-91533152D02*
X323620222Y-92199819D01*
X323191651Y-91533152D02*
X323191651Y-92056961D01*
X323191651Y-92056961D02*
X323239270Y-92152200D01*
X323239270Y-92152200D02*
X323334508Y-92199819D01*
X323334508Y-92199819D02*
X323477365Y-92199819D01*
X323477365Y-92199819D02*
X323572603Y-92152200D01*
X323572603Y-92152200D02*
X323620222Y-92104580D01*
X325286889Y-92152200D02*
X325191651Y-92199819D01*
X325191651Y-92199819D02*
X325001175Y-92199819D01*
X325001175Y-92199819D02*
X324905937Y-92152200D01*
X324905937Y-92152200D02*
X324858318Y-92104580D01*
X324858318Y-92104580D02*
X324810699Y-92009342D01*
X324810699Y-92009342D02*
X324810699Y-91723628D01*
X324810699Y-91723628D02*
X324858318Y-91628390D01*
X324858318Y-91628390D02*
X324905937Y-91580771D01*
X324905937Y-91580771D02*
X325001175Y-91533152D01*
X325001175Y-91533152D02*
X325191651Y-91533152D01*
X325191651Y-91533152D02*
X325286889Y-91580771D01*
X325572604Y-91533152D02*
X325953556Y-91533152D01*
X325715461Y-91199819D02*
X325715461Y-92056961D01*
X325715461Y-92056961D02*
X325763080Y-92152200D01*
X325763080Y-92152200D02*
X325858318Y-92199819D01*
X325858318Y-92199819D02*
X325953556Y-92199819D01*
X326286890Y-92199819D02*
X326286890Y-91533152D01*
X326286890Y-91723628D02*
X326334509Y-91628390D01*
X326334509Y-91628390D02*
X326382128Y-91580771D01*
X326382128Y-91580771D02*
X326477366Y-91533152D01*
X326477366Y-91533152D02*
X326572604Y-91533152D01*
X327048795Y-92199819D02*
X326953557Y-92152200D01*
X326953557Y-92152200D02*
X326905938Y-92056961D01*
X326905938Y-92056961D02*
X326905938Y-91199819D01*
X132074508Y-92269819D02*
X131503080Y-92269819D01*
X131788794Y-92269819D02*
X131788794Y-91269819D01*
X131788794Y-91269819D02*
X131693556Y-91412676D01*
X131693556Y-91412676D02*
X131598318Y-91507914D01*
X131598318Y-91507914D02*
X131503080Y-91555533D01*
X132503080Y-92174580D02*
X132550699Y-92222200D01*
X132550699Y-92222200D02*
X132503080Y-92269819D01*
X132503080Y-92269819D02*
X132455461Y-92222200D01*
X132455461Y-92222200D02*
X132503080Y-92174580D01*
X132503080Y-92174580D02*
X132503080Y-92269819D01*
X133455460Y-91269819D02*
X132979270Y-91269819D01*
X132979270Y-91269819D02*
X132931651Y-91746009D01*
X132931651Y-91746009D02*
X132979270Y-91698390D01*
X132979270Y-91698390D02*
X133074508Y-91650771D01*
X133074508Y-91650771D02*
X133312603Y-91650771D01*
X133312603Y-91650771D02*
X133407841Y-91698390D01*
X133407841Y-91698390D02*
X133455460Y-91746009D01*
X133455460Y-91746009D02*
X133503079Y-91841247D01*
X133503079Y-91841247D02*
X133503079Y-92079342D01*
X133503079Y-92079342D02*
X133455460Y-92174580D01*
X133455460Y-92174580D02*
X133407841Y-92222200D01*
X133407841Y-92222200D02*
X133312603Y-92269819D01*
X133312603Y-92269819D02*
X133074508Y-92269819D01*
X133074508Y-92269819D02*
X132979270Y-92222200D01*
X132979270Y-92222200D02*
X132931651Y-92174580D01*
X134360222Y-91603152D02*
X134360222Y-92269819D01*
X133931651Y-91603152D02*
X133931651Y-92126961D01*
X133931651Y-92126961D02*
X133979270Y-92222200D01*
X133979270Y-92222200D02*
X134074508Y-92269819D01*
X134074508Y-92269819D02*
X134217365Y-92269819D01*
X134217365Y-92269819D02*
X134312603Y-92222200D01*
X134312603Y-92222200D02*
X134360222Y-92174580D01*
X136026889Y-92269819D02*
X136026889Y-91746009D01*
X136026889Y-91746009D02*
X135979270Y-91650771D01*
X135979270Y-91650771D02*
X135884032Y-91603152D01*
X135884032Y-91603152D02*
X135693556Y-91603152D01*
X135693556Y-91603152D02*
X135598318Y-91650771D01*
X136026889Y-92222200D02*
X135931651Y-92269819D01*
X135931651Y-92269819D02*
X135693556Y-92269819D01*
X135693556Y-92269819D02*
X135598318Y-92222200D01*
X135598318Y-92222200D02*
X135550699Y-92126961D01*
X135550699Y-92126961D02*
X135550699Y-92031723D01*
X135550699Y-92031723D02*
X135598318Y-91936485D01*
X135598318Y-91936485D02*
X135693556Y-91888866D01*
X135693556Y-91888866D02*
X135931651Y-91888866D01*
X135931651Y-91888866D02*
X136026889Y-91841247D01*
X136645937Y-92269819D02*
X136550699Y-92222200D01*
X136550699Y-92222200D02*
X136503080Y-92126961D01*
X136503080Y-92126961D02*
X136503080Y-91269819D01*
X136884033Y-91603152D02*
X137264985Y-91603152D01*
X137026890Y-91269819D02*
X137026890Y-92126961D01*
X137026890Y-92126961D02*
X137074509Y-92222200D01*
X137074509Y-92222200D02*
X137169747Y-92269819D01*
X137169747Y-92269819D02*
X137264985Y-92269819D01*
X202549523Y-91274819D02*
X203216189Y-91274819D01*
X203216189Y-91274819D02*
X202787618Y-92274819D01*
X204025713Y-91608152D02*
X204025713Y-92274819D01*
X203597142Y-91608152D02*
X203597142Y-92131961D01*
X203597142Y-92131961D02*
X203644761Y-92227200D01*
X203644761Y-92227200D02*
X203739999Y-92274819D01*
X203739999Y-92274819D02*
X203882856Y-92274819D01*
X203882856Y-92274819D02*
X203978094Y-92227200D01*
X203978094Y-92227200D02*
X204025713Y-92179580D01*
X206073333Y-92274819D02*
X206025714Y-92274819D01*
X206025714Y-92274819D02*
X205930475Y-92227200D01*
X205930475Y-92227200D02*
X205787618Y-92084342D01*
X205787618Y-92084342D02*
X205549523Y-91798628D01*
X205549523Y-91798628D02*
X205454285Y-91655771D01*
X205454285Y-91655771D02*
X205406666Y-91512914D01*
X205406666Y-91512914D02*
X205406666Y-91417676D01*
X205406666Y-91417676D02*
X205454285Y-91322438D01*
X205454285Y-91322438D02*
X205549523Y-91274819D01*
X205549523Y-91274819D02*
X205597142Y-91274819D01*
X205597142Y-91274819D02*
X205692380Y-91322438D01*
X205692380Y-91322438D02*
X205739999Y-91417676D01*
X205739999Y-91417676D02*
X205739999Y-91465295D01*
X205739999Y-91465295D02*
X205692380Y-91560533D01*
X205692380Y-91560533D02*
X205644761Y-91608152D01*
X205644761Y-91608152D02*
X205359047Y-91798628D01*
X205359047Y-91798628D02*
X205311428Y-91846247D01*
X205311428Y-91846247D02*
X205263809Y-91941485D01*
X205263809Y-91941485D02*
X205263809Y-92084342D01*
X205263809Y-92084342D02*
X205311428Y-92179580D01*
X205311428Y-92179580D02*
X205359047Y-92227200D01*
X205359047Y-92227200D02*
X205454285Y-92274819D01*
X205454285Y-92274819D02*
X205597142Y-92274819D01*
X205597142Y-92274819D02*
X205692380Y-92227200D01*
X205692380Y-92227200D02*
X205739999Y-92179580D01*
X205739999Y-92179580D02*
X205882856Y-91989104D01*
X205882856Y-91989104D02*
X205930475Y-91846247D01*
X205930475Y-91846247D02*
X205930475Y-91751009D01*
X207692380Y-92227200D02*
X207597142Y-92274819D01*
X207597142Y-92274819D02*
X207406666Y-92274819D01*
X207406666Y-92274819D02*
X207311428Y-92227200D01*
X207311428Y-92227200D02*
X207263809Y-92179580D01*
X207263809Y-92179580D02*
X207216190Y-92084342D01*
X207216190Y-92084342D02*
X207216190Y-91798628D01*
X207216190Y-91798628D02*
X207263809Y-91703390D01*
X207263809Y-91703390D02*
X207311428Y-91655771D01*
X207311428Y-91655771D02*
X207406666Y-91608152D01*
X207406666Y-91608152D02*
X207597142Y-91608152D01*
X207597142Y-91608152D02*
X207692380Y-91655771D01*
X208501904Y-92227200D02*
X208406666Y-92274819D01*
X208406666Y-92274819D02*
X208216190Y-92274819D01*
X208216190Y-92274819D02*
X208120952Y-92227200D01*
X208120952Y-92227200D02*
X208073333Y-92131961D01*
X208073333Y-92131961D02*
X208073333Y-91751009D01*
X208073333Y-91751009D02*
X208120952Y-91655771D01*
X208120952Y-91655771D02*
X208216190Y-91608152D01*
X208216190Y-91608152D02*
X208406666Y-91608152D01*
X208406666Y-91608152D02*
X208501904Y-91655771D01*
X208501904Y-91655771D02*
X208549523Y-91751009D01*
X208549523Y-91751009D02*
X208549523Y-91846247D01*
X208549523Y-91846247D02*
X208073333Y-91941485D01*
X208978095Y-91608152D02*
X208978095Y-92274819D01*
X208978095Y-91703390D02*
X209025714Y-91655771D01*
X209025714Y-91655771D02*
X209120952Y-91608152D01*
X209120952Y-91608152D02*
X209263809Y-91608152D01*
X209263809Y-91608152D02*
X209359047Y-91655771D01*
X209359047Y-91655771D02*
X209406666Y-91751009D01*
X209406666Y-91751009D02*
X209406666Y-92274819D01*
X209740000Y-91608152D02*
X210120952Y-91608152D01*
X209882857Y-91274819D02*
X209882857Y-92131961D01*
X209882857Y-92131961D02*
X209930476Y-92227200D01*
X209930476Y-92227200D02*
X210025714Y-92274819D01*
X210025714Y-92274819D02*
X210120952Y-92274819D01*
X210835238Y-92227200D02*
X210740000Y-92274819D01*
X210740000Y-92274819D02*
X210549524Y-92274819D01*
X210549524Y-92274819D02*
X210454286Y-92227200D01*
X210454286Y-92227200D02*
X210406667Y-92131961D01*
X210406667Y-92131961D02*
X210406667Y-91751009D01*
X210406667Y-91751009D02*
X210454286Y-91655771D01*
X210454286Y-91655771D02*
X210549524Y-91608152D01*
X210549524Y-91608152D02*
X210740000Y-91608152D01*
X210740000Y-91608152D02*
X210835238Y-91655771D01*
X210835238Y-91655771D02*
X210882857Y-91751009D01*
X210882857Y-91751009D02*
X210882857Y-91846247D01*
X210882857Y-91846247D02*
X210406667Y-91941485D01*
X211311429Y-92274819D02*
X211311429Y-91608152D01*
X211311429Y-91798628D02*
X211359048Y-91703390D01*
X211359048Y-91703390D02*
X211406667Y-91655771D01*
X211406667Y-91655771D02*
X211501905Y-91608152D01*
X211501905Y-91608152D02*
X211597143Y-91608152D01*
X212311429Y-92227200D02*
X212216191Y-92274819D01*
X212216191Y-92274819D02*
X212025715Y-92274819D01*
X212025715Y-92274819D02*
X211930477Y-92227200D01*
X211930477Y-92227200D02*
X211882858Y-92131961D01*
X211882858Y-92131961D02*
X211882858Y-91751009D01*
X211882858Y-91751009D02*
X211930477Y-91655771D01*
X211930477Y-91655771D02*
X212025715Y-91608152D01*
X212025715Y-91608152D02*
X212216191Y-91608152D01*
X212216191Y-91608152D02*
X212311429Y-91655771D01*
X212311429Y-91655771D02*
X212359048Y-91751009D01*
X212359048Y-91751009D02*
X212359048Y-91846247D01*
X212359048Y-91846247D02*
X211882858Y-91941485D01*
X213216191Y-92274819D02*
X213216191Y-91274819D01*
X213216191Y-92227200D02*
X213120953Y-92274819D01*
X213120953Y-92274819D02*
X212930477Y-92274819D01*
X212930477Y-92274819D02*
X212835239Y-92227200D01*
X212835239Y-92227200D02*
X212787620Y-92179580D01*
X212787620Y-92179580D02*
X212740001Y-92084342D01*
X212740001Y-92084342D02*
X212740001Y-91798628D01*
X212740001Y-91798628D02*
X212787620Y-91703390D01*
X212787620Y-91703390D02*
X212835239Y-91655771D01*
X212835239Y-91655771D02*
X212930477Y-91608152D01*
X212930477Y-91608152D02*
X213120953Y-91608152D01*
X213120953Y-91608152D02*
X213216191Y-91655771D01*
X214882858Y-91274819D02*
X214692382Y-91274819D01*
X214692382Y-91274819D02*
X214597144Y-91322438D01*
X214597144Y-91322438D02*
X214549525Y-91370057D01*
X214549525Y-91370057D02*
X214454287Y-91512914D01*
X214454287Y-91512914D02*
X214406668Y-91703390D01*
X214406668Y-91703390D02*
X214406668Y-92084342D01*
X214406668Y-92084342D02*
X214454287Y-92179580D01*
X214454287Y-92179580D02*
X214501906Y-92227200D01*
X214501906Y-92227200D02*
X214597144Y-92274819D01*
X214597144Y-92274819D02*
X214787620Y-92274819D01*
X214787620Y-92274819D02*
X214882858Y-92227200D01*
X214882858Y-92227200D02*
X214930477Y-92179580D01*
X214930477Y-92179580D02*
X214978096Y-92084342D01*
X214978096Y-92084342D02*
X214978096Y-91846247D01*
X214978096Y-91846247D02*
X214930477Y-91751009D01*
X214930477Y-91751009D02*
X214882858Y-91703390D01*
X214882858Y-91703390D02*
X214787620Y-91655771D01*
X214787620Y-91655771D02*
X214597144Y-91655771D01*
X214597144Y-91655771D02*
X214501906Y-91703390D01*
X214501906Y-91703390D02*
X214454287Y-91751009D01*
X214454287Y-91751009D02*
X214406668Y-91846247D01*
X215835239Y-91608152D02*
X215835239Y-92274819D01*
X215406668Y-91608152D02*
X215406668Y-92131961D01*
X215406668Y-92131961D02*
X215454287Y-92227200D01*
X215454287Y-92227200D02*
X215549525Y-92274819D01*
X215549525Y-92274819D02*
X215692382Y-92274819D01*
X215692382Y-92274819D02*
X215787620Y-92227200D01*
X215787620Y-92227200D02*
X215835239Y-92179580D01*
X177343557Y-92182200D02*
X177486414Y-92229819D01*
X177486414Y-92229819D02*
X177724509Y-92229819D01*
X177724509Y-92229819D02*
X177819747Y-92182200D01*
X177819747Y-92182200D02*
X177867366Y-92134580D01*
X177867366Y-92134580D02*
X177914985Y-92039342D01*
X177914985Y-92039342D02*
X177914985Y-91944104D01*
X177914985Y-91944104D02*
X177867366Y-91848866D01*
X177867366Y-91848866D02*
X177819747Y-91801247D01*
X177819747Y-91801247D02*
X177724509Y-91753628D01*
X177724509Y-91753628D02*
X177534033Y-91706009D01*
X177534033Y-91706009D02*
X177438795Y-91658390D01*
X177438795Y-91658390D02*
X177391176Y-91610771D01*
X177391176Y-91610771D02*
X177343557Y-91515533D01*
X177343557Y-91515533D02*
X177343557Y-91420295D01*
X177343557Y-91420295D02*
X177391176Y-91325057D01*
X177391176Y-91325057D02*
X177438795Y-91277438D01*
X177438795Y-91277438D02*
X177534033Y-91229819D01*
X177534033Y-91229819D02*
X177772128Y-91229819D01*
X177772128Y-91229819D02*
X177914985Y-91277438D01*
X179010224Y-91229819D02*
X179676890Y-91229819D01*
X179676890Y-91229819D02*
X179248319Y-92229819D01*
X180486414Y-91563152D02*
X180486414Y-92229819D01*
X180057843Y-91563152D02*
X180057843Y-92086961D01*
X180057843Y-92086961D02*
X180105462Y-92182200D01*
X180105462Y-92182200D02*
X180200700Y-92229819D01*
X180200700Y-92229819D02*
X180343557Y-92229819D01*
X180343557Y-92229819D02*
X180438795Y-92182200D01*
X180438795Y-92182200D02*
X180486414Y-92134580D01*
X181676891Y-91325057D02*
X181724510Y-91277438D01*
X181724510Y-91277438D02*
X181819748Y-91229819D01*
X181819748Y-91229819D02*
X182057843Y-91229819D01*
X182057843Y-91229819D02*
X182153081Y-91277438D01*
X182153081Y-91277438D02*
X182200700Y-91325057D01*
X182200700Y-91325057D02*
X182248319Y-91420295D01*
X182248319Y-91420295D02*
X182248319Y-91515533D01*
X182248319Y-91515533D02*
X182200700Y-91658390D01*
X182200700Y-91658390D02*
X181629272Y-92229819D01*
X181629272Y-92229819D02*
X182248319Y-92229819D01*
X182676891Y-92134580D02*
X182724510Y-92182200D01*
X182724510Y-92182200D02*
X182676891Y-92229819D01*
X182676891Y-92229819D02*
X182629272Y-92182200D01*
X182629272Y-92182200D02*
X182676891Y-92134580D01*
X182676891Y-92134580D02*
X182676891Y-92229819D01*
X183105462Y-91325057D02*
X183153081Y-91277438D01*
X183153081Y-91277438D02*
X183248319Y-91229819D01*
X183248319Y-91229819D02*
X183486414Y-91229819D01*
X183486414Y-91229819D02*
X183581652Y-91277438D01*
X183581652Y-91277438D02*
X183629271Y-91325057D01*
X183629271Y-91325057D02*
X183676890Y-91420295D01*
X183676890Y-91420295D02*
X183676890Y-91515533D01*
X183676890Y-91515533D02*
X183629271Y-91658390D01*
X183629271Y-91658390D02*
X183057843Y-92229819D01*
X183057843Y-92229819D02*
X183676890Y-92229819D01*
X184581652Y-91229819D02*
X184105462Y-91229819D01*
X184105462Y-91229819D02*
X184057843Y-91706009D01*
X184057843Y-91706009D02*
X184105462Y-91658390D01*
X184105462Y-91658390D02*
X184200700Y-91610771D01*
X184200700Y-91610771D02*
X184438795Y-91610771D01*
X184438795Y-91610771D02*
X184534033Y-91658390D01*
X184534033Y-91658390D02*
X184581652Y-91706009D01*
X184581652Y-91706009D02*
X184629271Y-91801247D01*
X184629271Y-91801247D02*
X184629271Y-92039342D01*
X184629271Y-92039342D02*
X184581652Y-92134580D01*
X184581652Y-92134580D02*
X184534033Y-92182200D01*
X184534033Y-92182200D02*
X184438795Y-92229819D01*
X184438795Y-92229819D02*
X184200700Y-92229819D01*
X184200700Y-92229819D02*
X184105462Y-92182200D01*
X184105462Y-92182200D02*
X184057843Y-92134580D01*
X126058794Y-98299819D02*
X125487366Y-98299819D01*
X125773080Y-98299819D02*
X125773080Y-97299819D01*
X125773080Y-97299819D02*
X125677842Y-97442676D01*
X125677842Y-97442676D02*
X125582604Y-97537914D01*
X125582604Y-97537914D02*
X125487366Y-97585533D01*
X126915937Y-97633152D02*
X126915937Y-98299819D01*
X126487366Y-97633152D02*
X126487366Y-98156961D01*
X126487366Y-98156961D02*
X126534985Y-98252200D01*
X126534985Y-98252200D02*
X126630223Y-98299819D01*
X126630223Y-98299819D02*
X126773080Y-98299819D01*
X126773080Y-98299819D02*
X126868318Y-98252200D01*
X126868318Y-98252200D02*
X126915937Y-98204580D01*
X128582604Y-98299819D02*
X128582604Y-97776009D01*
X128582604Y-97776009D02*
X128534985Y-97680771D01*
X128534985Y-97680771D02*
X128439747Y-97633152D01*
X128439747Y-97633152D02*
X128249271Y-97633152D01*
X128249271Y-97633152D02*
X128154033Y-97680771D01*
X128582604Y-98252200D02*
X128487366Y-98299819D01*
X128487366Y-98299819D02*
X128249271Y-98299819D01*
X128249271Y-98299819D02*
X128154033Y-98252200D01*
X128154033Y-98252200D02*
X128106414Y-98156961D01*
X128106414Y-98156961D02*
X128106414Y-98061723D01*
X128106414Y-98061723D02*
X128154033Y-97966485D01*
X128154033Y-97966485D02*
X128249271Y-97918866D01*
X128249271Y-97918866D02*
X128487366Y-97918866D01*
X128487366Y-97918866D02*
X128582604Y-97871247D01*
X129201652Y-98299819D02*
X129106414Y-98252200D01*
X129106414Y-98252200D02*
X129058795Y-98156961D01*
X129058795Y-98156961D02*
X129058795Y-97299819D01*
X129439748Y-97633152D02*
X129820700Y-97633152D01*
X129582605Y-97299819D02*
X129582605Y-98156961D01*
X129582605Y-98156961D02*
X129630224Y-98252200D01*
X129630224Y-98252200D02*
X129725462Y-98299819D01*
X129725462Y-98299819D02*
X129820700Y-98299819D01*
X194956413Y-98309819D02*
X194384985Y-98309819D01*
X194670699Y-98309819D02*
X194670699Y-97309819D01*
X194670699Y-97309819D02*
X194575461Y-97452676D01*
X194575461Y-97452676D02*
X194480223Y-97547914D01*
X194480223Y-97547914D02*
X194384985Y-97595533D01*
X195813556Y-97643152D02*
X195813556Y-98309819D01*
X195384985Y-97643152D02*
X195384985Y-98166961D01*
X195384985Y-98166961D02*
X195432604Y-98262200D01*
X195432604Y-98262200D02*
X195527842Y-98309819D01*
X195527842Y-98309819D02*
X195670699Y-98309819D01*
X195670699Y-98309819D02*
X195765937Y-98262200D01*
X195765937Y-98262200D02*
X195813556Y-98214580D01*
X197480223Y-97309819D02*
X197289747Y-97309819D01*
X197289747Y-97309819D02*
X197194509Y-97357438D01*
X197194509Y-97357438D02*
X197146890Y-97405057D01*
X197146890Y-97405057D02*
X197051652Y-97547914D01*
X197051652Y-97547914D02*
X197004033Y-97738390D01*
X197004033Y-97738390D02*
X197004033Y-98119342D01*
X197004033Y-98119342D02*
X197051652Y-98214580D01*
X197051652Y-98214580D02*
X197099271Y-98262200D01*
X197099271Y-98262200D02*
X197194509Y-98309819D01*
X197194509Y-98309819D02*
X197384985Y-98309819D01*
X197384985Y-98309819D02*
X197480223Y-98262200D01*
X197480223Y-98262200D02*
X197527842Y-98214580D01*
X197527842Y-98214580D02*
X197575461Y-98119342D01*
X197575461Y-98119342D02*
X197575461Y-97881247D01*
X197575461Y-97881247D02*
X197527842Y-97786009D01*
X197527842Y-97786009D02*
X197480223Y-97738390D01*
X197480223Y-97738390D02*
X197384985Y-97690771D01*
X197384985Y-97690771D02*
X197194509Y-97690771D01*
X197194509Y-97690771D02*
X197099271Y-97738390D01*
X197099271Y-97738390D02*
X197051652Y-97786009D01*
X197051652Y-97786009D02*
X197004033Y-97881247D01*
X198432604Y-97643152D02*
X198432604Y-98309819D01*
X198004033Y-97643152D02*
X198004033Y-98166961D01*
X198004033Y-98166961D02*
X198051652Y-98262200D01*
X198051652Y-98262200D02*
X198146890Y-98309819D01*
X198146890Y-98309819D02*
X198289747Y-98309819D01*
X198289747Y-98309819D02*
X198384985Y-98262200D01*
X198384985Y-98262200D02*
X198432604Y-98214580D01*
X199623081Y-98262200D02*
X199718319Y-98309819D01*
X199718319Y-98309819D02*
X199908795Y-98309819D01*
X199908795Y-98309819D02*
X200004033Y-98262200D01*
X200004033Y-98262200D02*
X200051652Y-98166961D01*
X200051652Y-98166961D02*
X200051652Y-98119342D01*
X200051652Y-98119342D02*
X200004033Y-98024104D01*
X200004033Y-98024104D02*
X199908795Y-97976485D01*
X199908795Y-97976485D02*
X199765938Y-97976485D01*
X199765938Y-97976485D02*
X199670700Y-97928866D01*
X199670700Y-97928866D02*
X199623081Y-97833628D01*
X199623081Y-97833628D02*
X199623081Y-97786009D01*
X199623081Y-97786009D02*
X199670700Y-97690771D01*
X199670700Y-97690771D02*
X199765938Y-97643152D01*
X199765938Y-97643152D02*
X199908795Y-97643152D01*
X199908795Y-97643152D02*
X200004033Y-97690771D01*
X200480224Y-97643152D02*
X200480224Y-98643152D01*
X200480224Y-97690771D02*
X200575462Y-97643152D01*
X200575462Y-97643152D02*
X200765938Y-97643152D01*
X200765938Y-97643152D02*
X200861176Y-97690771D01*
X200861176Y-97690771D02*
X200908795Y-97738390D01*
X200908795Y-97738390D02*
X200956414Y-97833628D01*
X200956414Y-97833628D02*
X200956414Y-98119342D01*
X200956414Y-98119342D02*
X200908795Y-98214580D01*
X200908795Y-98214580D02*
X200861176Y-98262200D01*
X200861176Y-98262200D02*
X200765938Y-98309819D01*
X200765938Y-98309819D02*
X200575462Y-98309819D01*
X200575462Y-98309819D02*
X200480224Y-98262200D01*
X201527843Y-98309819D02*
X201432605Y-98262200D01*
X201432605Y-98262200D02*
X201384986Y-98166961D01*
X201384986Y-98166961D02*
X201384986Y-97309819D01*
X201908796Y-98309819D02*
X201908796Y-97643152D01*
X201908796Y-97309819D02*
X201861177Y-97357438D01*
X201861177Y-97357438D02*
X201908796Y-97405057D01*
X201908796Y-97405057D02*
X201956415Y-97357438D01*
X201956415Y-97357438D02*
X201908796Y-97309819D01*
X201908796Y-97309819D02*
X201908796Y-97405057D01*
X202242129Y-97643152D02*
X202623081Y-97643152D01*
X202384986Y-97309819D02*
X202384986Y-98166961D01*
X202384986Y-98166961D02*
X202432605Y-98262200D01*
X202432605Y-98262200D02*
X202527843Y-98309819D01*
X202527843Y-98309819D02*
X202623081Y-98309819D01*
X233073557Y-98852200D02*
X233216414Y-98899819D01*
X233216414Y-98899819D02*
X233454509Y-98899819D01*
X233454509Y-98899819D02*
X233549747Y-98852200D01*
X233549747Y-98852200D02*
X233597366Y-98804580D01*
X233597366Y-98804580D02*
X233644985Y-98709342D01*
X233644985Y-98709342D02*
X233644985Y-98614104D01*
X233644985Y-98614104D02*
X233597366Y-98518866D01*
X233597366Y-98518866D02*
X233549747Y-98471247D01*
X233549747Y-98471247D02*
X233454509Y-98423628D01*
X233454509Y-98423628D02*
X233264033Y-98376009D01*
X233264033Y-98376009D02*
X233168795Y-98328390D01*
X233168795Y-98328390D02*
X233121176Y-98280771D01*
X233121176Y-98280771D02*
X233073557Y-98185533D01*
X233073557Y-98185533D02*
X233073557Y-98090295D01*
X233073557Y-98090295D02*
X233121176Y-97995057D01*
X233121176Y-97995057D02*
X233168795Y-97947438D01*
X233168795Y-97947438D02*
X233264033Y-97899819D01*
X233264033Y-97899819D02*
X233502128Y-97899819D01*
X233502128Y-97899819D02*
X233644985Y-97947438D01*
X235264033Y-97899819D02*
X235073557Y-97899819D01*
X235073557Y-97899819D02*
X234978319Y-97947438D01*
X234978319Y-97947438D02*
X234930700Y-97995057D01*
X234930700Y-97995057D02*
X234835462Y-98137914D01*
X234835462Y-98137914D02*
X234787843Y-98328390D01*
X234787843Y-98328390D02*
X234787843Y-98709342D01*
X234787843Y-98709342D02*
X234835462Y-98804580D01*
X234835462Y-98804580D02*
X234883081Y-98852200D01*
X234883081Y-98852200D02*
X234978319Y-98899819D01*
X234978319Y-98899819D02*
X235168795Y-98899819D01*
X235168795Y-98899819D02*
X235264033Y-98852200D01*
X235264033Y-98852200D02*
X235311652Y-98804580D01*
X235311652Y-98804580D02*
X235359271Y-98709342D01*
X235359271Y-98709342D02*
X235359271Y-98471247D01*
X235359271Y-98471247D02*
X235311652Y-98376009D01*
X235311652Y-98376009D02*
X235264033Y-98328390D01*
X235264033Y-98328390D02*
X235168795Y-98280771D01*
X235168795Y-98280771D02*
X234978319Y-98280771D01*
X234978319Y-98280771D02*
X234883081Y-98328390D01*
X234883081Y-98328390D02*
X234835462Y-98376009D01*
X234835462Y-98376009D02*
X234787843Y-98471247D01*
X236216414Y-98233152D02*
X236216414Y-98899819D01*
X235787843Y-98233152D02*
X235787843Y-98756961D01*
X235787843Y-98756961D02*
X235835462Y-98852200D01*
X235835462Y-98852200D02*
X235930700Y-98899819D01*
X235930700Y-98899819D02*
X236073557Y-98899819D01*
X236073557Y-98899819D02*
X236168795Y-98852200D01*
X236168795Y-98852200D02*
X236216414Y-98804580D01*
X237406891Y-97995057D02*
X237454510Y-97947438D01*
X237454510Y-97947438D02*
X237549748Y-97899819D01*
X237549748Y-97899819D02*
X237787843Y-97899819D01*
X237787843Y-97899819D02*
X237883081Y-97947438D01*
X237883081Y-97947438D02*
X237930700Y-97995057D01*
X237930700Y-97995057D02*
X237978319Y-98090295D01*
X237978319Y-98090295D02*
X237978319Y-98185533D01*
X237978319Y-98185533D02*
X237930700Y-98328390D01*
X237930700Y-98328390D02*
X237359272Y-98899819D01*
X237359272Y-98899819D02*
X237978319Y-98899819D01*
X238406891Y-98804580D02*
X238454510Y-98852200D01*
X238454510Y-98852200D02*
X238406891Y-98899819D01*
X238406891Y-98899819D02*
X238359272Y-98852200D01*
X238359272Y-98852200D02*
X238406891Y-98804580D01*
X238406891Y-98804580D02*
X238406891Y-98899819D01*
X238835462Y-97995057D02*
X238883081Y-97947438D01*
X238883081Y-97947438D02*
X238978319Y-97899819D01*
X238978319Y-97899819D02*
X239216414Y-97899819D01*
X239216414Y-97899819D02*
X239311652Y-97947438D01*
X239311652Y-97947438D02*
X239359271Y-97995057D01*
X239359271Y-97995057D02*
X239406890Y-98090295D01*
X239406890Y-98090295D02*
X239406890Y-98185533D01*
X239406890Y-98185533D02*
X239359271Y-98328390D01*
X239359271Y-98328390D02*
X238787843Y-98899819D01*
X238787843Y-98899819D02*
X239406890Y-98899819D01*
X240311652Y-97899819D02*
X239835462Y-97899819D01*
X239835462Y-97899819D02*
X239787843Y-98376009D01*
X239787843Y-98376009D02*
X239835462Y-98328390D01*
X239835462Y-98328390D02*
X239930700Y-98280771D01*
X239930700Y-98280771D02*
X240168795Y-98280771D01*
X240168795Y-98280771D02*
X240264033Y-98328390D01*
X240264033Y-98328390D02*
X240311652Y-98376009D01*
X240311652Y-98376009D02*
X240359271Y-98471247D01*
X240359271Y-98471247D02*
X240359271Y-98709342D01*
X240359271Y-98709342D02*
X240311652Y-98804580D01*
X240311652Y-98804580D02*
X240264033Y-98852200D01*
X240264033Y-98852200D02*
X240168795Y-98899819D01*
X240168795Y-98899819D02*
X239930700Y-98899819D01*
X239930700Y-98899819D02*
X239835462Y-98852200D01*
X239835462Y-98852200D02*
X239787843Y-98804580D01*
X316314984Y-98309819D02*
X315743556Y-98309819D01*
X316029270Y-98309819D02*
X316029270Y-97309819D01*
X316029270Y-97309819D02*
X315934032Y-97452676D01*
X315934032Y-97452676D02*
X315838794Y-97547914D01*
X315838794Y-97547914D02*
X315743556Y-97595533D01*
X316743556Y-98214580D02*
X316791175Y-98262200D01*
X316791175Y-98262200D02*
X316743556Y-98309819D01*
X316743556Y-98309819D02*
X316695937Y-98262200D01*
X316695937Y-98262200D02*
X316743556Y-98214580D01*
X316743556Y-98214580D02*
X316743556Y-98309819D01*
X317172127Y-97405057D02*
X317219746Y-97357438D01*
X317219746Y-97357438D02*
X317314984Y-97309819D01*
X317314984Y-97309819D02*
X317553079Y-97309819D01*
X317553079Y-97309819D02*
X317648317Y-97357438D01*
X317648317Y-97357438D02*
X317695936Y-97405057D01*
X317695936Y-97405057D02*
X317743555Y-97500295D01*
X317743555Y-97500295D02*
X317743555Y-97595533D01*
X317743555Y-97595533D02*
X317695936Y-97738390D01*
X317695936Y-97738390D02*
X317124508Y-98309819D01*
X317124508Y-98309819D02*
X317743555Y-98309819D01*
X318648317Y-97309819D02*
X318172127Y-97309819D01*
X318172127Y-97309819D02*
X318124508Y-97786009D01*
X318124508Y-97786009D02*
X318172127Y-97738390D01*
X318172127Y-97738390D02*
X318267365Y-97690771D01*
X318267365Y-97690771D02*
X318505460Y-97690771D01*
X318505460Y-97690771D02*
X318600698Y-97738390D01*
X318600698Y-97738390D02*
X318648317Y-97786009D01*
X318648317Y-97786009D02*
X318695936Y-97881247D01*
X318695936Y-97881247D02*
X318695936Y-98119342D01*
X318695936Y-98119342D02*
X318648317Y-98214580D01*
X318648317Y-98214580D02*
X318600698Y-98262200D01*
X318600698Y-98262200D02*
X318505460Y-98309819D01*
X318505460Y-98309819D02*
X318267365Y-98309819D01*
X318267365Y-98309819D02*
X318172127Y-98262200D01*
X318172127Y-98262200D02*
X318124508Y-98214580D01*
X320314984Y-98262200D02*
X320219746Y-98309819D01*
X320219746Y-98309819D02*
X320029270Y-98309819D01*
X320029270Y-98309819D02*
X319934032Y-98262200D01*
X319934032Y-98262200D02*
X319886413Y-98214580D01*
X319886413Y-98214580D02*
X319838794Y-98119342D01*
X319838794Y-98119342D02*
X319838794Y-97833628D01*
X319838794Y-97833628D02*
X319886413Y-97738390D01*
X319886413Y-97738390D02*
X319934032Y-97690771D01*
X319934032Y-97690771D02*
X320029270Y-97643152D01*
X320029270Y-97643152D02*
X320219746Y-97643152D01*
X320219746Y-97643152D02*
X320314984Y-97690771D01*
X320600699Y-97643152D02*
X320981651Y-97643152D01*
X320743556Y-97309819D02*
X320743556Y-98166961D01*
X320743556Y-98166961D02*
X320791175Y-98262200D01*
X320791175Y-98262200D02*
X320886413Y-98309819D01*
X320886413Y-98309819D02*
X320981651Y-98309819D01*
X321314985Y-98309819D02*
X321314985Y-97643152D01*
X321314985Y-97833628D02*
X321362604Y-97738390D01*
X321362604Y-97738390D02*
X321410223Y-97690771D01*
X321410223Y-97690771D02*
X321505461Y-97643152D01*
X321505461Y-97643152D02*
X321600699Y-97643152D01*
X322076890Y-98309819D02*
X321981652Y-98262200D01*
X321981652Y-98262200D02*
X321934033Y-98166961D01*
X321934033Y-98166961D02*
X321934033Y-97309819D01*
%LPC*%
D11*
%TO.C,MX32*%
X284836414Y-56615000D03*
D12*
X289916414Y-56615000D03*
D11*
X294996414Y-56615000D03*
%TD*%
%TO.C,MX57*%
X80048914Y-94715000D03*
D12*
X85128914Y-94715000D03*
D11*
X90208914Y-94715000D03*
%TD*%
%TO.C,MX14*%
X299123914Y-37565000D03*
D12*
X304203914Y-37565000D03*
D11*
X309283914Y-37565000D03*
%TD*%
%TO.C,MX41*%
X141961414Y-75665000D03*
D12*
X147041414Y-75665000D03*
D11*
X152121414Y-75665000D03*
%TD*%
%TO.C,MX31*%
X265786414Y-56615000D03*
D12*
X270866414Y-56615000D03*
D11*
X275946414Y-56615000D03*
%TD*%
%TO.C,MX29*%
X227686414Y-56615000D03*
D12*
X232766414Y-56615000D03*
D11*
X237846414Y-56615000D03*
%TD*%
%TO.C,MX26*%
X170536414Y-56615000D03*
D12*
X175616414Y-56615000D03*
D11*
X180696414Y-56615000D03*
%TD*%
%TO.C,MX25*%
X151486414Y-56615000D03*
D12*
X156566414Y-56615000D03*
D11*
X161646414Y-56615000D03*
%TD*%
%TO.C,MX64*%
X351511414Y-94715000D03*
D12*
X356591414Y-94715000D03*
D11*
X361671414Y-94715000D03*
%TD*%
%TO.C,MX58*%
X101480164Y-94715000D03*
D12*
X106560164Y-94715000D03*
D11*
X111640164Y-94715000D03*
%TD*%
%TO.C,MX10*%
X222923914Y-37565000D03*
D12*
X228003914Y-37565000D03*
D11*
X233083914Y-37565000D03*
%TD*%
D13*
%TO.C,S2*%
X368497664Y-101700000D03*
D12*
X368497664Y-86460000D03*
D13*
X344685164Y-101700000D03*
D12*
X344685164Y-86460000D03*
%TD*%
D11*
%TO.C,MX19*%
X380086414Y-37565000D03*
D12*
X385166414Y-37565000D03*
D11*
X390246414Y-37565000D03*
%TD*%
%TO.C,MX7*%
X165773914Y-37565000D03*
D12*
X170853914Y-37565000D03*
D11*
X175933914Y-37565000D03*
%TD*%
%TO.C,MX70*%
X82430164Y-94715000D03*
D12*
X87510164Y-94715000D03*
D11*
X92590164Y-94715000D03*
%TD*%
%TO.C,MX55*%
X37186414Y-94715000D03*
D12*
X42266414Y-94715000D03*
D11*
X47346414Y-94715000D03*
%TD*%
%TO.C,MX36*%
X380086414Y-56615000D03*
D12*
X385166414Y-56615000D03*
D11*
X390246414Y-56615000D03*
%TD*%
%TO.C,MX42*%
X161011414Y-75665000D03*
D12*
X166091414Y-75665000D03*
D11*
X171171414Y-75665000D03*
%TD*%
%TO.C,MX13*%
X280073914Y-37565000D03*
D12*
X285153914Y-37565000D03*
D11*
X290233914Y-37565000D03*
%TD*%
%TO.C,MX77*%
X256261414Y-94715000D03*
D12*
X261341414Y-94715000D03*
D11*
X266421414Y-94715000D03*
%TD*%
%TO.C,MX52*%
X341986414Y-75665000D03*
D12*
X347066414Y-75665000D03*
D11*
X352146414Y-75665000D03*
%TD*%
%TO.C,MX40*%
X122911414Y-75665000D03*
D12*
X127991414Y-75665000D03*
D11*
X133071414Y-75665000D03*
%TD*%
D13*
%TO.C,S10*%
X251816414Y-101700000D03*
D12*
X251816414Y-86460000D03*
D13*
X156566414Y-101700000D03*
D12*
X156566414Y-86460000D03*
%TD*%
D11*
%TO.C,MX28*%
X208636414Y-56615000D03*
D12*
X213716414Y-56615000D03*
D11*
X218796414Y-56615000D03*
%TD*%
%TO.C,MX76*%
X220542664Y-94715000D03*
D12*
X225622664Y-94715000D03*
D11*
X230702664Y-94715000D03*
%TD*%
%TO.C,MX11*%
X241973914Y-37565000D03*
D12*
X247053914Y-37565000D03*
D11*
X252133914Y-37565000D03*
%TD*%
%TO.C,MX21*%
X56236414Y-56615000D03*
D12*
X61316414Y-56615000D03*
D11*
X66396414Y-56615000D03*
%TD*%
%TO.C,MX27*%
X189586414Y-56615000D03*
D12*
X194666414Y-56615000D03*
D11*
X199746414Y-56615000D03*
%TD*%
D13*
%TO.C,S3*%
X299441414Y-68680000D03*
D12*
X299441414Y-83920000D03*
D13*
X323253914Y-68680000D03*
D12*
X323253914Y-83920000D03*
%TD*%
D11*
%TO.C,MX46*%
X237211414Y-75665000D03*
D12*
X242291414Y-75665000D03*
D11*
X247371414Y-75665000D03*
%TD*%
%TO.C,MX9*%
X203873914Y-37565000D03*
D12*
X208953914Y-37565000D03*
D11*
X214033914Y-37565000D03*
%TD*%
%TO.C,MX2*%
X56236414Y-37565000D03*
D12*
X61316414Y-37565000D03*
D11*
X66396414Y-37565000D03*
%TD*%
%TO.C,MX71*%
X103861414Y-94715000D03*
D12*
X108941414Y-94715000D03*
D11*
X114021414Y-94715000D03*
%TD*%
%TO.C,MX61*%
X296742664Y-94715000D03*
D12*
X301822664Y-94715000D03*
D11*
X306902664Y-94715000D03*
%TD*%
%TO.C,MX37*%
X37186414Y-75665000D03*
D12*
X42266414Y-75665000D03*
D11*
X47346414Y-75665000D03*
%TD*%
%TO.C,MX67*%
X270548914Y-94715000D03*
D12*
X275628914Y-94715000D03*
D11*
X280708914Y-94715000D03*
%TD*%
%TO.C,MX17*%
X341986414Y-37565000D03*
D12*
X347066414Y-37565000D03*
D11*
X352146414Y-37565000D03*
%TD*%
%TO.C,MX63*%
X341986414Y-94715000D03*
D12*
X347066414Y-94715000D03*
D11*
X352146414Y-94715000D03*
%TD*%
%TO.C,MX12*%
X261023914Y-37565000D03*
D12*
X266103914Y-37565000D03*
D11*
X271183914Y-37565000D03*
%TD*%
%TO.C,MX56*%
X56236414Y-94715000D03*
D12*
X61316414Y-94715000D03*
D11*
X66396414Y-94715000D03*
%TD*%
%TO.C,MX68*%
X294361414Y-94715000D03*
D12*
X299441414Y-94715000D03*
D11*
X304521414Y-94715000D03*
%TD*%
%TO.C,MX20*%
X37186414Y-56615000D03*
D12*
X42266414Y-56615000D03*
D11*
X47346414Y-56615000D03*
%TD*%
%TO.C,MX35*%
X361036414Y-56615000D03*
D12*
X366116414Y-56615000D03*
D11*
X371196414Y-56615000D03*
%TD*%
%TO.C,MX73*%
X141961414Y-94715000D03*
D12*
X147041414Y-94715000D03*
D11*
X152121414Y-94715000D03*
%TD*%
%TO.C,MX34*%
X341986414Y-56615000D03*
D12*
X347066414Y-56615000D03*
D11*
X352146414Y-56615000D03*
%TD*%
%TO.C,MX15*%
X308648914Y-37565000D03*
D12*
X313728914Y-37565000D03*
D11*
X318808914Y-37565000D03*
%TD*%
D13*
%TO.C,S9*%
X261341414Y-101700000D03*
D12*
X261341414Y-86460000D03*
D13*
X147041414Y-101700000D03*
D12*
X147041414Y-86460000D03*
%TD*%
D11*
%TO.C,MX53*%
X361036414Y-75665000D03*
D12*
X366116414Y-75665000D03*
D11*
X371196414Y-75665000D03*
%TD*%
%TO.C,MX60*%
X275311414Y-94715000D03*
D12*
X280391414Y-94715000D03*
D11*
X285471414Y-94715000D03*
%TD*%
%TO.C,MX78*%
X163392664Y-94715000D03*
D12*
X168472664Y-94715000D03*
D11*
X173552664Y-94715000D03*
%TD*%
D13*
%TO.C,S7*%
X85128914Y-68680000D03*
D12*
X85128914Y-83920000D03*
D13*
X108941414Y-68680000D03*
D12*
X108941414Y-83920000D03*
%TD*%
D11*
%TO.C,MX62*%
X318173914Y-94715000D03*
D12*
X323253914Y-94715000D03*
D11*
X328333914Y-94715000D03*
%TD*%
%TO.C,MX23*%
X113386414Y-56615000D03*
D12*
X118466414Y-56615000D03*
D11*
X123546414Y-56615000D03*
%TD*%
D13*
%TO.C,S5*%
X247053914Y-101700000D03*
D12*
X247053914Y-86460000D03*
D13*
X223241414Y-101700000D03*
D12*
X223241414Y-86460000D03*
%TD*%
D11*
%TO.C,MX72*%
X127673914Y-94715000D03*
D12*
X132753914Y-94715000D03*
D11*
X137833914Y-94715000D03*
%TD*%
%TO.C,MX45*%
X218161414Y-75665000D03*
D12*
X223241414Y-75665000D03*
D11*
X228321414Y-75665000D03*
%TD*%
%TO.C,MX43*%
X180061414Y-75665000D03*
D12*
X185141414Y-75665000D03*
D11*
X190221414Y-75665000D03*
%TD*%
%TO.C,MX47*%
X256261414Y-75665000D03*
D12*
X261341414Y-75665000D03*
D11*
X266421414Y-75665000D03*
%TD*%
%TO.C,MX54*%
X380086414Y-75665000D03*
D12*
X385166414Y-75665000D03*
D11*
X390246414Y-75665000D03*
%TD*%
%TO.C,MX75*%
X199111414Y-94715000D03*
D12*
X204191414Y-94715000D03*
D11*
X209271414Y-94715000D03*
%TD*%
D13*
%TO.C,S1*%
X301822664Y-30580000D03*
D12*
X301822664Y-45820000D03*
D13*
X325635164Y-30580000D03*
D12*
X325635164Y-45820000D03*
%TD*%
D11*
%TO.C,MX8*%
X184823914Y-37565000D03*
D12*
X189903914Y-37565000D03*
D11*
X194983914Y-37565000D03*
%TD*%
D13*
%TO.C,S11*%
X189903914Y-101700000D03*
D12*
X189903914Y-86460000D03*
D13*
X166091414Y-101700000D03*
D12*
X166091414Y-86460000D03*
%TD*%
D11*
%TO.C,MX44*%
X199111414Y-75665000D03*
D12*
X204191414Y-75665000D03*
D11*
X209271414Y-75665000D03*
%TD*%
D13*
%TO.C,S8*%
X237528914Y-101700000D03*
D12*
X237528914Y-86460000D03*
D13*
X213716414Y-101700000D03*
D12*
X213716414Y-86460000D03*
%TD*%
D11*
%TO.C,MX81*%
X82430164Y-56615000D03*
D12*
X87510164Y-56615000D03*
D11*
X92590164Y-56615000D03*
%TD*%
%TO.C,MX39*%
X91955164Y-75665000D03*
D12*
X97035164Y-75665000D03*
D11*
X102115164Y-75665000D03*
%TD*%
%TO.C,MX65*%
X361036414Y-94715000D03*
D12*
X366116414Y-94715000D03*
D11*
X371196414Y-94715000D03*
%TD*%
%TO.C,MX4*%
X108623914Y-37565000D03*
D12*
X113703914Y-37565000D03*
D11*
X118783914Y-37565000D03*
%TD*%
%TO.C,MX38*%
X56236414Y-75665000D03*
D12*
X61316414Y-75665000D03*
D11*
X66396414Y-75665000D03*
%TD*%
D13*
%TO.C,S12*%
X180378914Y-101700000D03*
D12*
X180378914Y-86460000D03*
D13*
X156566414Y-101700000D03*
D12*
X156566414Y-86460000D03*
%TD*%
D11*
%TO.C,MX48*%
X275311414Y-75665000D03*
D12*
X280391414Y-75665000D03*
D11*
X285471414Y-75665000D03*
%TD*%
%TO.C,MX5*%
X127673914Y-37565000D03*
D12*
X132753914Y-37565000D03*
D11*
X137833914Y-37565000D03*
%TD*%
%TO.C,MX66*%
X380086414Y-94715000D03*
D12*
X385166414Y-94715000D03*
D11*
X390246414Y-94715000D03*
%TD*%
%TO.C,MX6*%
X146723914Y-37565000D03*
D12*
X151803914Y-37565000D03*
D11*
X156883914Y-37565000D03*
%TD*%
%TO.C,MX74*%
X172917664Y-94715000D03*
D12*
X177997664Y-94715000D03*
D11*
X183077664Y-94715000D03*
%TD*%
%TO.C,MX16*%
X318173914Y-37565000D03*
D12*
X323253914Y-37565000D03*
D11*
X328333914Y-37565000D03*
%TD*%
%TO.C,MX22*%
X87192664Y-56615000D03*
D12*
X92272664Y-56615000D03*
D11*
X97352664Y-56615000D03*
%TD*%
%TO.C,MX59*%
X122911414Y-94715000D03*
D12*
X127991414Y-94715000D03*
D11*
X133071414Y-94715000D03*
%TD*%
%TO.C,MX30*%
X246736414Y-56615000D03*
D12*
X251816414Y-56615000D03*
D11*
X256896414Y-56615000D03*
%TD*%
%TO.C,MX18*%
X361036414Y-37565000D03*
D12*
X366116414Y-37565000D03*
D11*
X371196414Y-37565000D03*
%TD*%
%TO.C,MX79*%
X194348914Y-94715000D03*
D12*
X199428914Y-94715000D03*
D11*
X204508914Y-94715000D03*
%TD*%
%TO.C,MX50*%
X315792664Y-75665000D03*
D12*
X320872664Y-75665000D03*
D11*
X325952664Y-75665000D03*
%TD*%
%TO.C,MX51*%
X306267664Y-75665000D03*
D12*
X311347664Y-75665000D03*
D11*
X316427664Y-75665000D03*
%TD*%
%TO.C,MX80*%
X230067664Y-94715000D03*
D12*
X235147664Y-94715000D03*
D11*
X240227664Y-94715000D03*
%TD*%
%TO.C,MX33*%
X311030164Y-56615000D03*
D12*
X316110164Y-56615000D03*
D11*
X321190164Y-56615000D03*
%TD*%
%TO.C,MX1*%
X37186414Y-37565000D03*
D12*
X42266414Y-37565000D03*
D11*
X47346414Y-37565000D03*
%TD*%
%TO.C,MX3*%
X84811414Y-37565000D03*
D12*
X89891414Y-37565000D03*
D11*
X94971414Y-37565000D03*
%TD*%
%TO.C,MX24*%
X132436414Y-56615000D03*
D12*
X137516414Y-56615000D03*
D11*
X142596414Y-56615000D03*
%TD*%
%TO.C,MX69*%
X315792664Y-94715000D03*
D12*
X320872664Y-94715000D03*
D11*
X325952664Y-94715000D03*
%TD*%
%TO.C,MX49*%
X294361414Y-75665000D03*
D12*
X299441414Y-75665000D03*
D11*
X304521414Y-75665000D03*
%TD*%
%LPD*%
M02*
