%TF.GenerationSoftware,KiCad,Pcbnew,7.0.7*%
%TF.CreationDate,2024-05-20T20:21:32-06:00*%
%TF.ProjectId,spell,7370656c-6c2e-46b6-9963-61645f706362,rev?*%
%TF.SameCoordinates,Original*%
%TF.FileFunction,Other,Comment*%
%FSLAX46Y46*%
G04 Gerber Fmt 4.6, Leading zero omitted, Abs format (unit mm)*
G04 Created by KiCad (PCBNEW 7.0.7) date 2024-05-20 20:21:32*
%MOMM*%
%LPD*%
G01*
G04 APERTURE LIST*
%ADD10C,0.150000*%
G04 APERTURE END LIST*
D10*
X355853319Y-86137057D02*
X355900938Y-86089438D01*
X355900938Y-86089438D02*
X355996176Y-86041819D01*
X355996176Y-86041819D02*
X356234271Y-86041819D01*
X356234271Y-86041819D02*
X356329509Y-86089438D01*
X356329509Y-86089438D02*
X356377128Y-86137057D01*
X356377128Y-86137057D02*
X356424747Y-86232295D01*
X356424747Y-86232295D02*
X356424747Y-86327533D01*
X356424747Y-86327533D02*
X356377128Y-86470390D01*
X356377128Y-86470390D02*
X355805700Y-87041819D01*
X355805700Y-87041819D02*
X356424747Y-87041819D01*
X357281890Y-86375152D02*
X357281890Y-87041819D01*
X356853319Y-86375152D02*
X356853319Y-86898961D01*
X356853319Y-86898961D02*
X356900938Y-86994200D01*
X356900938Y-86994200D02*
X356996176Y-87041819D01*
X356996176Y-87041819D02*
X357139033Y-87041819D01*
X357139033Y-87041819D02*
X357234271Y-86994200D01*
X357234271Y-86994200D02*
X357281890Y-86946580D01*
X203929509Y-86041819D02*
X203739033Y-86041819D01*
X203739033Y-86041819D02*
X203643795Y-86089438D01*
X203643795Y-86089438D02*
X203596176Y-86137057D01*
X203596176Y-86137057D02*
X203500938Y-86279914D01*
X203500938Y-86279914D02*
X203453319Y-86470390D01*
X203453319Y-86470390D02*
X203453319Y-86851342D01*
X203453319Y-86851342D02*
X203500938Y-86946580D01*
X203500938Y-86946580D02*
X203548557Y-86994200D01*
X203548557Y-86994200D02*
X203643795Y-87041819D01*
X203643795Y-87041819D02*
X203834271Y-87041819D01*
X203834271Y-87041819D02*
X203929509Y-86994200D01*
X203929509Y-86994200D02*
X203977128Y-86946580D01*
X203977128Y-86946580D02*
X204024747Y-86851342D01*
X204024747Y-86851342D02*
X204024747Y-86613247D01*
X204024747Y-86613247D02*
X203977128Y-86518009D01*
X203977128Y-86518009D02*
X203929509Y-86470390D01*
X203929509Y-86470390D02*
X203834271Y-86422771D01*
X203834271Y-86422771D02*
X203643795Y-86422771D01*
X203643795Y-86422771D02*
X203548557Y-86470390D01*
X203548557Y-86470390D02*
X203500938Y-86518009D01*
X203500938Y-86518009D02*
X203453319Y-86613247D01*
X204881890Y-86375152D02*
X204881890Y-87041819D01*
X204453319Y-86375152D02*
X204453319Y-86898961D01*
X204453319Y-86898961D02*
X204500938Y-86994200D01*
X204500938Y-86994200D02*
X204596176Y-87041819D01*
X204596176Y-87041819D02*
X204739033Y-87041819D01*
X204739033Y-87041819D02*
X204834271Y-86994200D01*
X204834271Y-86994200D02*
X204881890Y-86946580D01*
X309871474Y-83343057D02*
X309919093Y-83295438D01*
X309919093Y-83295438D02*
X310014331Y-83247819D01*
X310014331Y-83247819D02*
X310252426Y-83247819D01*
X310252426Y-83247819D02*
X310347664Y-83295438D01*
X310347664Y-83295438D02*
X310395283Y-83343057D01*
X310395283Y-83343057D02*
X310442902Y-83438295D01*
X310442902Y-83438295D02*
X310442902Y-83533533D01*
X310442902Y-83533533D02*
X310395283Y-83676390D01*
X310395283Y-83676390D02*
X309823855Y-84247819D01*
X309823855Y-84247819D02*
X310442902Y-84247819D01*
X310871474Y-84152580D02*
X310919093Y-84200200D01*
X310919093Y-84200200D02*
X310871474Y-84247819D01*
X310871474Y-84247819D02*
X310823855Y-84200200D01*
X310823855Y-84200200D02*
X310871474Y-84152580D01*
X310871474Y-84152580D02*
X310871474Y-84247819D01*
X311300045Y-83343057D02*
X311347664Y-83295438D01*
X311347664Y-83295438D02*
X311442902Y-83247819D01*
X311442902Y-83247819D02*
X311680997Y-83247819D01*
X311680997Y-83247819D02*
X311776235Y-83295438D01*
X311776235Y-83295438D02*
X311823854Y-83343057D01*
X311823854Y-83343057D02*
X311871473Y-83438295D01*
X311871473Y-83438295D02*
X311871473Y-83533533D01*
X311871473Y-83533533D02*
X311823854Y-83676390D01*
X311823854Y-83676390D02*
X311252426Y-84247819D01*
X311252426Y-84247819D02*
X311871473Y-84247819D01*
X312776235Y-83247819D02*
X312300045Y-83247819D01*
X312300045Y-83247819D02*
X312252426Y-83724009D01*
X312252426Y-83724009D02*
X312300045Y-83676390D01*
X312300045Y-83676390D02*
X312395283Y-83628771D01*
X312395283Y-83628771D02*
X312633378Y-83628771D01*
X312633378Y-83628771D02*
X312728616Y-83676390D01*
X312728616Y-83676390D02*
X312776235Y-83724009D01*
X312776235Y-83724009D02*
X312823854Y-83819247D01*
X312823854Y-83819247D02*
X312823854Y-84057342D01*
X312823854Y-84057342D02*
X312776235Y-84152580D01*
X312776235Y-84152580D02*
X312728616Y-84200200D01*
X312728616Y-84200200D02*
X312633378Y-84247819D01*
X312633378Y-84247819D02*
X312395283Y-84247819D01*
X312395283Y-84247819D02*
X312300045Y-84200200D01*
X312300045Y-84200200D02*
X312252426Y-84152580D01*
X203405700Y-86041819D02*
X204072366Y-86041819D01*
X204072366Y-86041819D02*
X203643795Y-87041819D01*
X204881890Y-86375152D02*
X204881890Y-87041819D01*
X204453319Y-86375152D02*
X204453319Y-86898961D01*
X204453319Y-86898961D02*
X204500938Y-86994200D01*
X204500938Y-86994200D02*
X204596176Y-87041819D01*
X204596176Y-87041819D02*
X204739033Y-87041819D01*
X204739033Y-87041819D02*
X204834271Y-86994200D01*
X204834271Y-86994200D02*
X204881890Y-86946580D01*
X95558974Y-83343057D02*
X95606593Y-83295438D01*
X95606593Y-83295438D02*
X95701831Y-83247819D01*
X95701831Y-83247819D02*
X95939926Y-83247819D01*
X95939926Y-83247819D02*
X96035164Y-83295438D01*
X96035164Y-83295438D02*
X96082783Y-83343057D01*
X96082783Y-83343057D02*
X96130402Y-83438295D01*
X96130402Y-83438295D02*
X96130402Y-83533533D01*
X96130402Y-83533533D02*
X96082783Y-83676390D01*
X96082783Y-83676390D02*
X95511355Y-84247819D01*
X95511355Y-84247819D02*
X96130402Y-84247819D01*
X96558974Y-84152580D02*
X96606593Y-84200200D01*
X96606593Y-84200200D02*
X96558974Y-84247819D01*
X96558974Y-84247819D02*
X96511355Y-84200200D01*
X96511355Y-84200200D02*
X96558974Y-84152580D01*
X96558974Y-84152580D02*
X96558974Y-84247819D01*
X96987545Y-83343057D02*
X97035164Y-83295438D01*
X97035164Y-83295438D02*
X97130402Y-83247819D01*
X97130402Y-83247819D02*
X97368497Y-83247819D01*
X97368497Y-83247819D02*
X97463735Y-83295438D01*
X97463735Y-83295438D02*
X97511354Y-83343057D01*
X97511354Y-83343057D02*
X97558973Y-83438295D01*
X97558973Y-83438295D02*
X97558973Y-83533533D01*
X97558973Y-83533533D02*
X97511354Y-83676390D01*
X97511354Y-83676390D02*
X96939926Y-84247819D01*
X96939926Y-84247819D02*
X97558973Y-84247819D01*
X98463735Y-83247819D02*
X97987545Y-83247819D01*
X97987545Y-83247819D02*
X97939926Y-83724009D01*
X97939926Y-83724009D02*
X97987545Y-83676390D01*
X97987545Y-83676390D02*
X98082783Y-83628771D01*
X98082783Y-83628771D02*
X98320878Y-83628771D01*
X98320878Y-83628771D02*
X98416116Y-83676390D01*
X98416116Y-83676390D02*
X98463735Y-83724009D01*
X98463735Y-83724009D02*
X98511354Y-83819247D01*
X98511354Y-83819247D02*
X98511354Y-84057342D01*
X98511354Y-84057342D02*
X98463735Y-84152580D01*
X98463735Y-84152580D02*
X98416116Y-84200200D01*
X98416116Y-84200200D02*
X98320878Y-84247819D01*
X98320878Y-84247819D02*
X98082783Y-84247819D01*
X98082783Y-84247819D02*
X97987545Y-84200200D01*
X97987545Y-84200200D02*
X97939926Y-84152580D01*
X233671474Y-86137057D02*
X233719093Y-86089438D01*
X233719093Y-86089438D02*
X233814331Y-86041819D01*
X233814331Y-86041819D02*
X234052426Y-86041819D01*
X234052426Y-86041819D02*
X234147664Y-86089438D01*
X234147664Y-86089438D02*
X234195283Y-86137057D01*
X234195283Y-86137057D02*
X234242902Y-86232295D01*
X234242902Y-86232295D02*
X234242902Y-86327533D01*
X234242902Y-86327533D02*
X234195283Y-86470390D01*
X234195283Y-86470390D02*
X233623855Y-87041819D01*
X233623855Y-87041819D02*
X234242902Y-87041819D01*
X234671474Y-86946580D02*
X234719093Y-86994200D01*
X234719093Y-86994200D02*
X234671474Y-87041819D01*
X234671474Y-87041819D02*
X234623855Y-86994200D01*
X234623855Y-86994200D02*
X234671474Y-86946580D01*
X234671474Y-86946580D02*
X234671474Y-87041819D01*
X235052426Y-86041819D02*
X235719092Y-86041819D01*
X235719092Y-86041819D02*
X235290521Y-87041819D01*
X236576235Y-86041819D02*
X236100045Y-86041819D01*
X236100045Y-86041819D02*
X236052426Y-86518009D01*
X236052426Y-86518009D02*
X236100045Y-86470390D01*
X236100045Y-86470390D02*
X236195283Y-86422771D01*
X236195283Y-86422771D02*
X236433378Y-86422771D01*
X236433378Y-86422771D02*
X236528616Y-86470390D01*
X236528616Y-86470390D02*
X236576235Y-86518009D01*
X236576235Y-86518009D02*
X236623854Y-86613247D01*
X236623854Y-86613247D02*
X236623854Y-86851342D01*
X236623854Y-86851342D02*
X236576235Y-86946580D01*
X236576235Y-86946580D02*
X236528616Y-86994200D01*
X236528616Y-86994200D02*
X236433378Y-87041819D01*
X236433378Y-87041819D02*
X236195283Y-87041819D01*
X236195283Y-87041819D02*
X236100045Y-86994200D01*
X236100045Y-86994200D02*
X236052426Y-86946580D01*
X312990819Y-45243057D02*
X313038438Y-45195438D01*
X313038438Y-45195438D02*
X313133676Y-45147819D01*
X313133676Y-45147819D02*
X313371771Y-45147819D01*
X313371771Y-45147819D02*
X313467009Y-45195438D01*
X313467009Y-45195438D02*
X313514628Y-45243057D01*
X313514628Y-45243057D02*
X313562247Y-45338295D01*
X313562247Y-45338295D02*
X313562247Y-45433533D01*
X313562247Y-45433533D02*
X313514628Y-45576390D01*
X313514628Y-45576390D02*
X312943200Y-46147819D01*
X312943200Y-46147819D02*
X313562247Y-46147819D01*
X314419390Y-45481152D02*
X314419390Y-46147819D01*
X313990819Y-45481152D02*
X313990819Y-46004961D01*
X313990819Y-46004961D02*
X314038438Y-46100200D01*
X314038438Y-46100200D02*
X314133676Y-46147819D01*
X314133676Y-46147819D02*
X314276533Y-46147819D01*
X314276533Y-46147819D02*
X314371771Y-46100200D01*
X314371771Y-46100200D02*
X314419390Y-46052580D01*
X176521474Y-86137057D02*
X176569093Y-86089438D01*
X176569093Y-86089438D02*
X176664331Y-86041819D01*
X176664331Y-86041819D02*
X176902426Y-86041819D01*
X176902426Y-86041819D02*
X176997664Y-86089438D01*
X176997664Y-86089438D02*
X177045283Y-86137057D01*
X177045283Y-86137057D02*
X177092902Y-86232295D01*
X177092902Y-86232295D02*
X177092902Y-86327533D01*
X177092902Y-86327533D02*
X177045283Y-86470390D01*
X177045283Y-86470390D02*
X176473855Y-87041819D01*
X176473855Y-87041819D02*
X177092902Y-87041819D01*
X177521474Y-86946580D02*
X177569093Y-86994200D01*
X177569093Y-86994200D02*
X177521474Y-87041819D01*
X177521474Y-87041819D02*
X177473855Y-86994200D01*
X177473855Y-86994200D02*
X177521474Y-86946580D01*
X177521474Y-86946580D02*
X177521474Y-87041819D01*
X177950045Y-86137057D02*
X177997664Y-86089438D01*
X177997664Y-86089438D02*
X178092902Y-86041819D01*
X178092902Y-86041819D02*
X178330997Y-86041819D01*
X178330997Y-86041819D02*
X178426235Y-86089438D01*
X178426235Y-86089438D02*
X178473854Y-86137057D01*
X178473854Y-86137057D02*
X178521473Y-86232295D01*
X178521473Y-86232295D02*
X178521473Y-86327533D01*
X178521473Y-86327533D02*
X178473854Y-86470390D01*
X178473854Y-86470390D02*
X177902426Y-87041819D01*
X177902426Y-87041819D02*
X178521473Y-87041819D01*
X179426235Y-86041819D02*
X178950045Y-86041819D01*
X178950045Y-86041819D02*
X178902426Y-86518009D01*
X178902426Y-86518009D02*
X178950045Y-86470390D01*
X178950045Y-86470390D02*
X179045283Y-86422771D01*
X179045283Y-86422771D02*
X179283378Y-86422771D01*
X179283378Y-86422771D02*
X179378616Y-86470390D01*
X179378616Y-86470390D02*
X179426235Y-86518009D01*
X179426235Y-86518009D02*
X179473854Y-86613247D01*
X179473854Y-86613247D02*
X179473854Y-86851342D01*
X179473854Y-86851342D02*
X179426235Y-86946580D01*
X179426235Y-86946580D02*
X179378616Y-86994200D01*
X179378616Y-86994200D02*
X179283378Y-87041819D01*
X179283378Y-87041819D02*
X179045283Y-87041819D01*
X179045283Y-87041819D02*
X178950045Y-86994200D01*
X178950045Y-86994200D02*
X178902426Y-86946580D01*
X224146474Y-86137057D02*
X224194093Y-86089438D01*
X224194093Y-86089438D02*
X224289331Y-86041819D01*
X224289331Y-86041819D02*
X224527426Y-86041819D01*
X224527426Y-86041819D02*
X224622664Y-86089438D01*
X224622664Y-86089438D02*
X224670283Y-86137057D01*
X224670283Y-86137057D02*
X224717902Y-86232295D01*
X224717902Y-86232295D02*
X224717902Y-86327533D01*
X224717902Y-86327533D02*
X224670283Y-86470390D01*
X224670283Y-86470390D02*
X224098855Y-87041819D01*
X224098855Y-87041819D02*
X224717902Y-87041819D01*
X225146474Y-86946580D02*
X225194093Y-86994200D01*
X225194093Y-86994200D02*
X225146474Y-87041819D01*
X225146474Y-87041819D02*
X225098855Y-86994200D01*
X225098855Y-86994200D02*
X225146474Y-86946580D01*
X225146474Y-86946580D02*
X225146474Y-87041819D01*
X225527426Y-86041819D02*
X226194092Y-86041819D01*
X226194092Y-86041819D02*
X225765521Y-87041819D01*
X227051235Y-86041819D02*
X226575045Y-86041819D01*
X226575045Y-86041819D02*
X226527426Y-86518009D01*
X226527426Y-86518009D02*
X226575045Y-86470390D01*
X226575045Y-86470390D02*
X226670283Y-86422771D01*
X226670283Y-86422771D02*
X226908378Y-86422771D01*
X226908378Y-86422771D02*
X227003616Y-86470390D01*
X227003616Y-86470390D02*
X227051235Y-86518009D01*
X227051235Y-86518009D02*
X227098854Y-86613247D01*
X227098854Y-86613247D02*
X227098854Y-86851342D01*
X227098854Y-86851342D02*
X227051235Y-86946580D01*
X227051235Y-86946580D02*
X227003616Y-86994200D01*
X227003616Y-86994200D02*
X226908378Y-87041819D01*
X226908378Y-87041819D02*
X226670283Y-87041819D01*
X226670283Y-87041819D02*
X226575045Y-86994200D01*
X226575045Y-86994200D02*
X226527426Y-86946580D01*
X166996474Y-86137057D02*
X167044093Y-86089438D01*
X167044093Y-86089438D02*
X167139331Y-86041819D01*
X167139331Y-86041819D02*
X167377426Y-86041819D01*
X167377426Y-86041819D02*
X167472664Y-86089438D01*
X167472664Y-86089438D02*
X167520283Y-86137057D01*
X167520283Y-86137057D02*
X167567902Y-86232295D01*
X167567902Y-86232295D02*
X167567902Y-86327533D01*
X167567902Y-86327533D02*
X167520283Y-86470390D01*
X167520283Y-86470390D02*
X166948855Y-87041819D01*
X166948855Y-87041819D02*
X167567902Y-87041819D01*
X167996474Y-86946580D02*
X168044093Y-86994200D01*
X168044093Y-86994200D02*
X167996474Y-87041819D01*
X167996474Y-87041819D02*
X167948855Y-86994200D01*
X167948855Y-86994200D02*
X167996474Y-86946580D01*
X167996474Y-86946580D02*
X167996474Y-87041819D01*
X168425045Y-86137057D02*
X168472664Y-86089438D01*
X168472664Y-86089438D02*
X168567902Y-86041819D01*
X168567902Y-86041819D02*
X168805997Y-86041819D01*
X168805997Y-86041819D02*
X168901235Y-86089438D01*
X168901235Y-86089438D02*
X168948854Y-86137057D01*
X168948854Y-86137057D02*
X168996473Y-86232295D01*
X168996473Y-86232295D02*
X168996473Y-86327533D01*
X168996473Y-86327533D02*
X168948854Y-86470390D01*
X168948854Y-86470390D02*
X168377426Y-87041819D01*
X168377426Y-87041819D02*
X168996473Y-87041819D01*
X169901235Y-86041819D02*
X169425045Y-86041819D01*
X169425045Y-86041819D02*
X169377426Y-86518009D01*
X169377426Y-86518009D02*
X169425045Y-86470390D01*
X169425045Y-86470390D02*
X169520283Y-86422771D01*
X169520283Y-86422771D02*
X169758378Y-86422771D01*
X169758378Y-86422771D02*
X169853616Y-86470390D01*
X169853616Y-86470390D02*
X169901235Y-86518009D01*
X169901235Y-86518009D02*
X169948854Y-86613247D01*
X169948854Y-86613247D02*
X169948854Y-86851342D01*
X169948854Y-86851342D02*
X169901235Y-86946580D01*
X169901235Y-86946580D02*
X169853616Y-86994200D01*
X169853616Y-86994200D02*
X169758378Y-87041819D01*
X169758378Y-87041819D02*
X169520283Y-87041819D01*
X169520283Y-87041819D02*
X169425045Y-86994200D01*
X169425045Y-86994200D02*
X169377426Y-86946580D01*
M02*
