%TF.GenerationSoftware,KiCad,Pcbnew,7.0.7*%
%TF.CreationDate,2024-05-19T12:48:59-06:00*%
%TF.ProjectId,spell,7370656c-6c2e-46b6-9963-61645f706362,rev?*%
%TF.SameCoordinates,Original*%
%TF.FileFunction,Profile,NP*%
%FSLAX46Y46*%
G04 Gerber Fmt 4.6, Leading zero omitted, Abs format (unit mm)*
G04 Created by KiCad (PCBNEW 7.0.7) date 2024-05-19 12:48:59*
%MOMM*%
%LPD*%
G01*
G04 APERTURE LIST*
%TA.AperFunction,Profile*%
%ADD10C,0.200000*%
%TD*%
G04 APERTURE END LIST*
D10*
X127943913Y-103715011D02*
G75*
G03*
X128795384Y-103204116I-13J965011D01*
G01*
X217720374Y-29145887D02*
G75*
G03*
X216868914Y-28634999I-851474J-454113D01*
G01*
X298767433Y-103204122D02*
G75*
G03*
X299618914Y-103714999I851467J454122D01*
G01*
X224368914Y-28635012D02*
G75*
G03*
X223517444Y-29145881I-14J-964988D01*
G01*
X134592442Y-103204116D02*
G75*
G03*
X128795386Y-103204116I-2898528J-1545883D01*
G01*
X35366414Y-103714998D02*
X48106414Y-103715000D01*
X379456414Y-28635012D02*
G75*
G03*
X378604943Y-29145882I-14J-964988D01*
G01*
X194722642Y-28634999D02*
X213790185Y-28634999D01*
X128795385Y-29145880D02*
G75*
G03*
X134592443Y-29145880I2898529J1545879D01*
G01*
X392196414Y-103715014D02*
G75*
G03*
X394196414Y-101714998I-14J2000014D01*
G01*
X216868914Y-28634999D02*
X213790185Y-28634999D01*
X394196414Y-33508390D02*
X394196414Y-30634998D01*
X33366414Y-30634998D02*
X33366414Y-101714998D01*
X292970385Y-29145880D02*
G75*
G03*
X298767443Y-29145880I2898529J1545879D01*
G01*
X217720386Y-29145881D02*
G75*
G03*
X223517442Y-29145881I2898528J1545883D01*
G01*
X55606413Y-103714999D02*
X127943913Y-103714999D01*
X292970375Y-29145886D02*
G75*
G03*
X292118914Y-28634998I-851475J-454114D01*
G01*
X292118914Y-28634998D02*
X224368914Y-28634999D01*
X299618915Y-28635011D02*
G75*
G03*
X298767443Y-29145880I-15J-964989D01*
G01*
X298767442Y-103204116D02*
G75*
G03*
X292970386Y-103204116I-2898528J-1545883D01*
G01*
X371956414Y-28634999D02*
X299618915Y-28634998D01*
X128795374Y-29145886D02*
G75*
G03*
X127943913Y-28634999I-851474J-454114D01*
G01*
X378604943Y-103204117D02*
G75*
G03*
X372807885Y-103204117I-2898529J-1545879D01*
G01*
X392196414Y-28634998D02*
X379456414Y-28634999D01*
X35366414Y-28635014D02*
G75*
G03*
X33366414Y-30634998I-14J-1999986D01*
G01*
X372807875Y-29145888D02*
G75*
G03*
X371956414Y-28634999I-851475J-454112D01*
G01*
X394196414Y-101714998D02*
X394196413Y-41691607D01*
X54754933Y-103204122D02*
G75*
G03*
X55606413Y-103714999I851467J454122D01*
G01*
X127943913Y-28634999D02*
X55606413Y-28634999D01*
X394196414Y-33508390D02*
X394196413Y-41691607D01*
X135443914Y-103714998D02*
X292118914Y-103714998D01*
X372807886Y-29145882D02*
G75*
G03*
X378604942Y-29145882I2898528J1545883D01*
G01*
X299618914Y-103714999D02*
X371956414Y-103714999D01*
X379456414Y-103715000D02*
X392196414Y-103714998D01*
X134592434Y-103204121D02*
G75*
G03*
X135443914Y-103714998I851466J454121D01*
G01*
X54754943Y-103204117D02*
G75*
G03*
X48957885Y-103204117I-2898529J-1545879D01*
G01*
X48957875Y-29145888D02*
G75*
G03*
X48106414Y-28634999I-851475J-454112D01*
G01*
X394196402Y-30634998D02*
G75*
G03*
X392196414Y-28634998I-2000002J-2D01*
G01*
X135443914Y-28635011D02*
G75*
G03*
X134592443Y-29145880I-14J-964989D01*
G01*
X33366402Y-101714998D02*
G75*
G03*
X35366414Y-103714998I1999998J-2D01*
G01*
X55606413Y-28635012D02*
G75*
G03*
X54754943Y-29145882I-13J-964988D01*
G01*
X48957886Y-29145882D02*
G75*
G03*
X54754942Y-29145882I2898528J1545883D01*
G01*
X194722642Y-28634999D02*
X135443914Y-28634998D01*
X48106414Y-103715012D02*
G75*
G03*
X48957885Y-103204117I-14J965012D01*
G01*
X292118914Y-103715011D02*
G75*
G03*
X292970384Y-103204116I-14J965011D01*
G01*
X371956414Y-103715012D02*
G75*
G03*
X372807885Y-103204117I-14J965012D01*
G01*
X378604932Y-103204123D02*
G75*
G03*
X379456414Y-103715000I851468J454123D01*
G01*
X48106414Y-28634999D02*
X35366414Y-28634998D01*
M02*
