%TF.GenerationSoftware,KiCad,Pcbnew,7.0.7*%
%TF.CreationDate,2024-05-20T20:21:32-06:00*%
%TF.ProjectId,spell,7370656c-6c2e-46b6-9963-61645f706362,rev?*%
%TF.SameCoordinates,Original*%
%TF.FileFunction,Legend,Bot*%
%TF.FilePolarity,Positive*%
%FSLAX46Y46*%
G04 Gerber Fmt 4.6, Leading zero omitted, Abs format (unit mm)*
G04 Created by KiCad (PCBNEW 7.0.7) date 2024-05-20 20:21:32*
%MOMM*%
%LPD*%
G01*
G04 APERTURE LIST*
G04 Aperture macros list*
%AMRoundRect*
0 Rectangle with rounded corners*
0 $1 Rounding radius*
0 $2 $3 $4 $5 $6 $7 $8 $9 X,Y pos of 4 corners*
0 Add a 4 corners polygon primitive as box body*
4,1,4,$2,$3,$4,$5,$6,$7,$8,$9,$2,$3,0*
0 Add four circle primitives for the rounded corners*
1,1,$1+$1,$2,$3*
1,1,$1+$1,$4,$5*
1,1,$1+$1,$6,$7*
1,1,$1+$1,$8,$9*
0 Add four rect primitives between the rounded corners*
20,1,$1+$1,$2,$3,$4,$5,0*
20,1,$1+$1,$4,$5,$6,$7,0*
20,1,$1+$1,$6,$7,$8,$9,0*
20,1,$1+$1,$8,$9,$2,$3,0*%
G04 Aperture macros list end*
%ADD10C,0.150000*%
%ADD11C,0.120000*%
%ADD12C,1.750000*%
%ADD13C,3.987800*%
%ADD14C,2.300000*%
%ADD15C,3.048000*%
%ADD16RoundRect,0.225000X0.375000X-0.225000X0.375000X0.225000X-0.375000X0.225000X-0.375000X-0.225000X0*%
%ADD17RoundRect,0.225000X-0.375000X0.225000X-0.375000X-0.225000X0.375000X-0.225000X0.375000X0.225000X0*%
%ADD18RoundRect,0.140000X0.140000X0.170000X-0.140000X0.170000X-0.140000X-0.170000X0.140000X-0.170000X0*%
%ADD19R,1.000000X1.700000*%
%ADD20RoundRect,0.150000X0.512500X0.150000X-0.512500X0.150000X-0.512500X-0.150000X0.512500X-0.150000X0*%
%ADD21RoundRect,0.075000X0.075000X-0.662500X0.075000X0.662500X-0.075000X0.662500X-0.075000X-0.662500X0*%
%ADD22RoundRect,0.075000X0.662500X-0.075000X0.662500X0.075000X-0.662500X0.075000X-0.662500X-0.075000X0*%
%ADD23RoundRect,0.140000X-0.140000X-0.170000X0.140000X-0.170000X0.140000X0.170000X-0.140000X0.170000X0*%
%ADD24RoundRect,0.150000X0.625000X-0.150000X0.625000X0.150000X-0.625000X0.150000X-0.625000X-0.150000X0*%
%ADD25RoundRect,0.250000X0.650000X-0.350000X0.650000X0.350000X-0.650000X0.350000X-0.650000X-0.350000X0*%
%ADD26RoundRect,0.140000X0.170000X-0.140000X0.170000X0.140000X-0.170000X0.140000X-0.170000X-0.140000X0*%
%ADD27RoundRect,0.200000X0.200000X0.275000X-0.200000X0.275000X-0.200000X-0.275000X0.200000X-0.275000X0*%
G04 APERTURE END LIST*
D10*
X123361233Y-36880655D02*
X122361233Y-36880655D01*
X122361233Y-36880655D02*
X122361233Y-37118750D01*
X122361233Y-37118750D02*
X122408852Y-37261607D01*
X122408852Y-37261607D02*
X122504090Y-37356845D01*
X122504090Y-37356845D02*
X122599328Y-37404464D01*
X122599328Y-37404464D02*
X122789804Y-37452083D01*
X122789804Y-37452083D02*
X122932661Y-37452083D01*
X122932661Y-37452083D02*
X123123137Y-37404464D01*
X123123137Y-37404464D02*
X123218375Y-37356845D01*
X123218375Y-37356845D02*
X123313614Y-37261607D01*
X123313614Y-37261607D02*
X123361233Y-37118750D01*
X123361233Y-37118750D02*
X123361233Y-36880655D01*
X122694566Y-38309226D02*
X123361233Y-38309226D01*
X122313614Y-38071131D02*
X123027899Y-37833036D01*
X123027899Y-37833036D02*
X123027899Y-38452083D01*
X66121233Y-48360714D02*
X65121233Y-48360714D01*
X65121233Y-48360714D02*
X65121233Y-48598809D01*
X65121233Y-48598809D02*
X65168852Y-48741666D01*
X65168852Y-48741666D02*
X65264090Y-48836904D01*
X65264090Y-48836904D02*
X65359328Y-48884523D01*
X65359328Y-48884523D02*
X65549804Y-48932142D01*
X65549804Y-48932142D02*
X65692661Y-48932142D01*
X65692661Y-48932142D02*
X65883137Y-48884523D01*
X65883137Y-48884523D02*
X65978375Y-48836904D01*
X65978375Y-48836904D02*
X66073614Y-48741666D01*
X66073614Y-48741666D02*
X66121233Y-48598809D01*
X66121233Y-48598809D02*
X66121233Y-48360714D01*
X65216471Y-49313095D02*
X65168852Y-49360714D01*
X65168852Y-49360714D02*
X65121233Y-49455952D01*
X65121233Y-49455952D02*
X65121233Y-49694047D01*
X65121233Y-49694047D02*
X65168852Y-49789285D01*
X65168852Y-49789285D02*
X65216471Y-49836904D01*
X65216471Y-49836904D02*
X65311709Y-49884523D01*
X65311709Y-49884523D02*
X65406947Y-49884523D01*
X65406947Y-49884523D02*
X65549804Y-49836904D01*
X65549804Y-49836904D02*
X66121233Y-49265476D01*
X66121233Y-49265476D02*
X66121233Y-49884523D01*
X65121233Y-50503571D02*
X65121233Y-50598809D01*
X65121233Y-50598809D02*
X65168852Y-50694047D01*
X65168852Y-50694047D02*
X65216471Y-50741666D01*
X65216471Y-50741666D02*
X65311709Y-50789285D01*
X65311709Y-50789285D02*
X65502185Y-50836904D01*
X65502185Y-50836904D02*
X65740280Y-50836904D01*
X65740280Y-50836904D02*
X65930756Y-50789285D01*
X65930756Y-50789285D02*
X66025994Y-50741666D01*
X66025994Y-50741666D02*
X66073614Y-50694047D01*
X66073614Y-50694047D02*
X66121233Y-50598809D01*
X66121233Y-50598809D02*
X66121233Y-50503571D01*
X66121233Y-50503571D02*
X66073614Y-50408333D01*
X66073614Y-50408333D02*
X66025994Y-50360714D01*
X66025994Y-50360714D02*
X65930756Y-50313095D01*
X65930756Y-50313095D02*
X65740280Y-50265476D01*
X65740280Y-50265476D02*
X65502185Y-50265476D01*
X65502185Y-50265476D02*
X65311709Y-50313095D01*
X65311709Y-50313095D02*
X65216471Y-50360714D01*
X65216471Y-50360714D02*
X65168852Y-50408333D01*
X65168852Y-50408333D02*
X65121233Y-50503571D01*
X328089983Y-78419464D02*
X327089983Y-78419464D01*
X327089983Y-78419464D02*
X327089983Y-78657559D01*
X327089983Y-78657559D02*
X327137602Y-78800416D01*
X327137602Y-78800416D02*
X327232840Y-78895654D01*
X327232840Y-78895654D02*
X327328078Y-78943273D01*
X327328078Y-78943273D02*
X327518554Y-78990892D01*
X327518554Y-78990892D02*
X327661411Y-78990892D01*
X327661411Y-78990892D02*
X327851887Y-78943273D01*
X327851887Y-78943273D02*
X327947125Y-78895654D01*
X327947125Y-78895654D02*
X328042364Y-78800416D01*
X328042364Y-78800416D02*
X328089983Y-78657559D01*
X328089983Y-78657559D02*
X328089983Y-78419464D01*
X327423316Y-79848035D02*
X328089983Y-79848035D01*
X327042364Y-79609940D02*
X327756649Y-79371845D01*
X327756649Y-79371845D02*
X327756649Y-79990892D01*
X328089983Y-80419464D02*
X328089983Y-80609940D01*
X328089983Y-80609940D02*
X328042364Y-80705178D01*
X328042364Y-80705178D02*
X327994744Y-80752797D01*
X327994744Y-80752797D02*
X327851887Y-80848035D01*
X327851887Y-80848035D02*
X327661411Y-80895654D01*
X327661411Y-80895654D02*
X327280459Y-80895654D01*
X327280459Y-80895654D02*
X327185221Y-80848035D01*
X327185221Y-80848035D02*
X327137602Y-80800416D01*
X327137602Y-80800416D02*
X327089983Y-80705178D01*
X327089983Y-80705178D02*
X327089983Y-80514702D01*
X327089983Y-80514702D02*
X327137602Y-80419464D01*
X327137602Y-80419464D02*
X327185221Y-80371845D01*
X327185221Y-80371845D02*
X327280459Y-80324226D01*
X327280459Y-80324226D02*
X327518554Y-80324226D01*
X327518554Y-80324226D02*
X327613792Y-80371845D01*
X327613792Y-80371845D02*
X327661411Y-80419464D01*
X327661411Y-80419464D02*
X327709030Y-80514702D01*
X327709030Y-80514702D02*
X327709030Y-80705178D01*
X327709030Y-80705178D02*
X327661411Y-80800416D01*
X327661411Y-80800416D02*
X327613792Y-80848035D01*
X327613792Y-80848035D02*
X327518554Y-80895654D01*
X211408733Y-97469464D02*
X210408733Y-97469464D01*
X210408733Y-97469464D02*
X210408733Y-97707559D01*
X210408733Y-97707559D02*
X210456352Y-97850416D01*
X210456352Y-97850416D02*
X210551590Y-97945654D01*
X210551590Y-97945654D02*
X210646828Y-97993273D01*
X210646828Y-97993273D02*
X210837304Y-98040892D01*
X210837304Y-98040892D02*
X210980161Y-98040892D01*
X210980161Y-98040892D02*
X211170637Y-97993273D01*
X211170637Y-97993273D02*
X211265875Y-97945654D01*
X211265875Y-97945654D02*
X211361114Y-97850416D01*
X211361114Y-97850416D02*
X211408733Y-97707559D01*
X211408733Y-97707559D02*
X211408733Y-97469464D01*
X210408733Y-98898035D02*
X210408733Y-98707559D01*
X210408733Y-98707559D02*
X210456352Y-98612321D01*
X210456352Y-98612321D02*
X210503971Y-98564702D01*
X210503971Y-98564702D02*
X210646828Y-98469464D01*
X210646828Y-98469464D02*
X210837304Y-98421845D01*
X210837304Y-98421845D02*
X211218256Y-98421845D01*
X211218256Y-98421845D02*
X211313494Y-98469464D01*
X211313494Y-98469464D02*
X211361114Y-98517083D01*
X211361114Y-98517083D02*
X211408733Y-98612321D01*
X211408733Y-98612321D02*
X211408733Y-98802797D01*
X211408733Y-98802797D02*
X211361114Y-98898035D01*
X211361114Y-98898035D02*
X211313494Y-98945654D01*
X211313494Y-98945654D02*
X211218256Y-98993273D01*
X211218256Y-98993273D02*
X210980161Y-98993273D01*
X210980161Y-98993273D02*
X210884923Y-98945654D01*
X210884923Y-98945654D02*
X210837304Y-98898035D01*
X210837304Y-98898035D02*
X210789685Y-98802797D01*
X210789685Y-98802797D02*
X210789685Y-98612321D01*
X210789685Y-98612321D02*
X210837304Y-98517083D01*
X210837304Y-98517083D02*
X210884923Y-98469464D01*
X210884923Y-98469464D02*
X210980161Y-98421845D01*
X210408733Y-99326607D02*
X210408733Y-99993273D01*
X210408733Y-99993273D02*
X211408733Y-99564702D01*
X135208733Y-78419464D02*
X134208733Y-78419464D01*
X134208733Y-78419464D02*
X134208733Y-78657559D01*
X134208733Y-78657559D02*
X134256352Y-78800416D01*
X134256352Y-78800416D02*
X134351590Y-78895654D01*
X134351590Y-78895654D02*
X134446828Y-78943273D01*
X134446828Y-78943273D02*
X134637304Y-78990892D01*
X134637304Y-78990892D02*
X134780161Y-78990892D01*
X134780161Y-78990892D02*
X134970637Y-78943273D01*
X134970637Y-78943273D02*
X135065875Y-78895654D01*
X135065875Y-78895654D02*
X135161114Y-78800416D01*
X135161114Y-78800416D02*
X135208733Y-78657559D01*
X135208733Y-78657559D02*
X135208733Y-78419464D01*
X134208733Y-79324226D02*
X134208733Y-79943273D01*
X134208733Y-79943273D02*
X134589685Y-79609940D01*
X134589685Y-79609940D02*
X134589685Y-79752797D01*
X134589685Y-79752797D02*
X134637304Y-79848035D01*
X134637304Y-79848035D02*
X134684923Y-79895654D01*
X134684923Y-79895654D02*
X134780161Y-79943273D01*
X134780161Y-79943273D02*
X135018256Y-79943273D01*
X135018256Y-79943273D02*
X135113494Y-79895654D01*
X135113494Y-79895654D02*
X135161114Y-79848035D01*
X135161114Y-79848035D02*
X135208733Y-79752797D01*
X135208733Y-79752797D02*
X135208733Y-79467083D01*
X135208733Y-79467083D02*
X135161114Y-79371845D01*
X135161114Y-79371845D02*
X135113494Y-79324226D01*
X135208733Y-80419464D02*
X135208733Y-80609940D01*
X135208733Y-80609940D02*
X135161114Y-80705178D01*
X135161114Y-80705178D02*
X135113494Y-80752797D01*
X135113494Y-80752797D02*
X134970637Y-80848035D01*
X134970637Y-80848035D02*
X134780161Y-80895654D01*
X134780161Y-80895654D02*
X134399209Y-80895654D01*
X134399209Y-80895654D02*
X134303971Y-80848035D01*
X134303971Y-80848035D02*
X134256352Y-80800416D01*
X134256352Y-80800416D02*
X134208733Y-80705178D01*
X134208733Y-80705178D02*
X134208733Y-80514702D01*
X134208733Y-80514702D02*
X134256352Y-80419464D01*
X134256352Y-80419464D02*
X134303971Y-80371845D01*
X134303971Y-80371845D02*
X134399209Y-80324226D01*
X134399209Y-80324226D02*
X134637304Y-80324226D01*
X134637304Y-80324226D02*
X134732542Y-80371845D01*
X134732542Y-80371845D02*
X134780161Y-80419464D01*
X134780161Y-80419464D02*
X134827780Y-80514702D01*
X134827780Y-80514702D02*
X134827780Y-80705178D01*
X134827780Y-80705178D02*
X134780161Y-80800416D01*
X134780161Y-80800416D02*
X134732542Y-80848035D01*
X134732542Y-80848035D02*
X134637304Y-80895654D01*
X351871233Y-48360714D02*
X350871233Y-48360714D01*
X350871233Y-48360714D02*
X350871233Y-48598809D01*
X350871233Y-48598809D02*
X350918852Y-48741666D01*
X350918852Y-48741666D02*
X351014090Y-48836904D01*
X351014090Y-48836904D02*
X351109328Y-48884523D01*
X351109328Y-48884523D02*
X351299804Y-48932142D01*
X351299804Y-48932142D02*
X351442661Y-48932142D01*
X351442661Y-48932142D02*
X351633137Y-48884523D01*
X351633137Y-48884523D02*
X351728375Y-48836904D01*
X351728375Y-48836904D02*
X351823614Y-48741666D01*
X351823614Y-48741666D02*
X351871233Y-48598809D01*
X351871233Y-48598809D02*
X351871233Y-48360714D01*
X350871233Y-49265476D02*
X350871233Y-49884523D01*
X350871233Y-49884523D02*
X351252185Y-49551190D01*
X351252185Y-49551190D02*
X351252185Y-49694047D01*
X351252185Y-49694047D02*
X351299804Y-49789285D01*
X351299804Y-49789285D02*
X351347423Y-49836904D01*
X351347423Y-49836904D02*
X351442661Y-49884523D01*
X351442661Y-49884523D02*
X351680756Y-49884523D01*
X351680756Y-49884523D02*
X351775994Y-49836904D01*
X351775994Y-49836904D02*
X351823614Y-49789285D01*
X351823614Y-49789285D02*
X351871233Y-49694047D01*
X351871233Y-49694047D02*
X351871233Y-49408333D01*
X351871233Y-49408333D02*
X351823614Y-49313095D01*
X351823614Y-49313095D02*
X351775994Y-49265476D01*
X350871233Y-50217857D02*
X350871233Y-50836904D01*
X350871233Y-50836904D02*
X351252185Y-50503571D01*
X351252185Y-50503571D02*
X351252185Y-50646428D01*
X351252185Y-50646428D02*
X351299804Y-50741666D01*
X351299804Y-50741666D02*
X351347423Y-50789285D01*
X351347423Y-50789285D02*
X351442661Y-50836904D01*
X351442661Y-50836904D02*
X351680756Y-50836904D01*
X351680756Y-50836904D02*
X351775994Y-50789285D01*
X351775994Y-50789285D02*
X351823614Y-50741666D01*
X351823614Y-50741666D02*
X351871233Y-50646428D01*
X351871233Y-50646428D02*
X351871233Y-50360714D01*
X351871233Y-50360714D02*
X351823614Y-50265476D01*
X351823614Y-50265476D02*
X351775994Y-50217857D01*
X139971233Y-97469464D02*
X138971233Y-97469464D01*
X138971233Y-97469464D02*
X138971233Y-97707559D01*
X138971233Y-97707559D02*
X139018852Y-97850416D01*
X139018852Y-97850416D02*
X139114090Y-97945654D01*
X139114090Y-97945654D02*
X139209328Y-97993273D01*
X139209328Y-97993273D02*
X139399804Y-98040892D01*
X139399804Y-98040892D02*
X139542661Y-98040892D01*
X139542661Y-98040892D02*
X139733137Y-97993273D01*
X139733137Y-97993273D02*
X139828375Y-97945654D01*
X139828375Y-97945654D02*
X139923614Y-97850416D01*
X139923614Y-97850416D02*
X139971233Y-97707559D01*
X139971233Y-97707559D02*
X139971233Y-97469464D01*
X138971233Y-98945654D02*
X138971233Y-98469464D01*
X138971233Y-98469464D02*
X139447423Y-98421845D01*
X139447423Y-98421845D02*
X139399804Y-98469464D01*
X139399804Y-98469464D02*
X139352185Y-98564702D01*
X139352185Y-98564702D02*
X139352185Y-98802797D01*
X139352185Y-98802797D02*
X139399804Y-98898035D01*
X139399804Y-98898035D02*
X139447423Y-98945654D01*
X139447423Y-98945654D02*
X139542661Y-98993273D01*
X139542661Y-98993273D02*
X139780756Y-98993273D01*
X139780756Y-98993273D02*
X139875994Y-98945654D01*
X139875994Y-98945654D02*
X139923614Y-98898035D01*
X139923614Y-98898035D02*
X139971233Y-98802797D01*
X139971233Y-98802797D02*
X139971233Y-98564702D01*
X139971233Y-98564702D02*
X139923614Y-98469464D01*
X139923614Y-98469464D02*
X139875994Y-98421845D01*
X139399804Y-99564702D02*
X139352185Y-99469464D01*
X139352185Y-99469464D02*
X139304566Y-99421845D01*
X139304566Y-99421845D02*
X139209328Y-99374226D01*
X139209328Y-99374226D02*
X139161709Y-99374226D01*
X139161709Y-99374226D02*
X139066471Y-99421845D01*
X139066471Y-99421845D02*
X139018852Y-99469464D01*
X139018852Y-99469464D02*
X138971233Y-99564702D01*
X138971233Y-99564702D02*
X138971233Y-99755178D01*
X138971233Y-99755178D02*
X139018852Y-99850416D01*
X139018852Y-99850416D02*
X139066471Y-99898035D01*
X139066471Y-99898035D02*
X139161709Y-99945654D01*
X139161709Y-99945654D02*
X139209328Y-99945654D01*
X139209328Y-99945654D02*
X139304566Y-99898035D01*
X139304566Y-99898035D02*
X139352185Y-99850416D01*
X139352185Y-99850416D02*
X139399804Y-99755178D01*
X139399804Y-99755178D02*
X139399804Y-99564702D01*
X139399804Y-99564702D02*
X139447423Y-99469464D01*
X139447423Y-99469464D02*
X139495042Y-99421845D01*
X139495042Y-99421845D02*
X139590280Y-99374226D01*
X139590280Y-99374226D02*
X139780756Y-99374226D01*
X139780756Y-99374226D02*
X139875994Y-99421845D01*
X139875994Y-99421845D02*
X139923614Y-99469464D01*
X139923614Y-99469464D02*
X139971233Y-99564702D01*
X139971233Y-99564702D02*
X139971233Y-99755178D01*
X139971233Y-99755178D02*
X139923614Y-99850416D01*
X139923614Y-99850416D02*
X139875994Y-99898035D01*
X139875994Y-99898035D02*
X139780756Y-99945654D01*
X139780756Y-99945654D02*
X139590280Y-99945654D01*
X139590280Y-99945654D02*
X139495042Y-99898035D01*
X139495042Y-99898035D02*
X139447423Y-99850416D01*
X139447423Y-99850416D02*
X139399804Y-99755178D01*
X306658733Y-78419464D02*
X305658733Y-78419464D01*
X305658733Y-78419464D02*
X305658733Y-78657559D01*
X305658733Y-78657559D02*
X305706352Y-78800416D01*
X305706352Y-78800416D02*
X305801590Y-78895654D01*
X305801590Y-78895654D02*
X305896828Y-78943273D01*
X305896828Y-78943273D02*
X306087304Y-78990892D01*
X306087304Y-78990892D02*
X306230161Y-78990892D01*
X306230161Y-78990892D02*
X306420637Y-78943273D01*
X306420637Y-78943273D02*
X306515875Y-78895654D01*
X306515875Y-78895654D02*
X306611114Y-78800416D01*
X306611114Y-78800416D02*
X306658733Y-78657559D01*
X306658733Y-78657559D02*
X306658733Y-78419464D01*
X305992066Y-79848035D02*
X306658733Y-79848035D01*
X305611114Y-79609940D02*
X306325399Y-79371845D01*
X306325399Y-79371845D02*
X306325399Y-79990892D01*
X306087304Y-80514702D02*
X306039685Y-80419464D01*
X306039685Y-80419464D02*
X305992066Y-80371845D01*
X305992066Y-80371845D02*
X305896828Y-80324226D01*
X305896828Y-80324226D02*
X305849209Y-80324226D01*
X305849209Y-80324226D02*
X305753971Y-80371845D01*
X305753971Y-80371845D02*
X305706352Y-80419464D01*
X305706352Y-80419464D02*
X305658733Y-80514702D01*
X305658733Y-80514702D02*
X305658733Y-80705178D01*
X305658733Y-80705178D02*
X305706352Y-80800416D01*
X305706352Y-80800416D02*
X305753971Y-80848035D01*
X305753971Y-80848035D02*
X305849209Y-80895654D01*
X305849209Y-80895654D02*
X305896828Y-80895654D01*
X305896828Y-80895654D02*
X305992066Y-80848035D01*
X305992066Y-80848035D02*
X306039685Y-80800416D01*
X306039685Y-80800416D02*
X306087304Y-80705178D01*
X306087304Y-80705178D02*
X306087304Y-80514702D01*
X306087304Y-80514702D02*
X306134923Y-80419464D01*
X306134923Y-80419464D02*
X306182542Y-80371845D01*
X306182542Y-80371845D02*
X306277780Y-80324226D01*
X306277780Y-80324226D02*
X306468256Y-80324226D01*
X306468256Y-80324226D02*
X306563494Y-80371845D01*
X306563494Y-80371845D02*
X306611114Y-80419464D01*
X306611114Y-80419464D02*
X306658733Y-80514702D01*
X306658733Y-80514702D02*
X306658733Y-80705178D01*
X306658733Y-80705178D02*
X306611114Y-80800416D01*
X306611114Y-80800416D02*
X306563494Y-80848035D01*
X306563494Y-80848035D02*
X306468256Y-80895654D01*
X306468256Y-80895654D02*
X306277780Y-80895654D01*
X306277780Y-80895654D02*
X306182542Y-80848035D01*
X306182542Y-80848035D02*
X306134923Y-80800416D01*
X306134923Y-80800416D02*
X306087304Y-80705178D01*
X104252483Y-78419464D02*
X103252483Y-78419464D01*
X103252483Y-78419464D02*
X103252483Y-78657559D01*
X103252483Y-78657559D02*
X103300102Y-78800416D01*
X103300102Y-78800416D02*
X103395340Y-78895654D01*
X103395340Y-78895654D02*
X103490578Y-78943273D01*
X103490578Y-78943273D02*
X103681054Y-78990892D01*
X103681054Y-78990892D02*
X103823911Y-78990892D01*
X103823911Y-78990892D02*
X104014387Y-78943273D01*
X104014387Y-78943273D02*
X104109625Y-78895654D01*
X104109625Y-78895654D02*
X104204864Y-78800416D01*
X104204864Y-78800416D02*
X104252483Y-78657559D01*
X104252483Y-78657559D02*
X104252483Y-78419464D01*
X103252483Y-79324226D02*
X103252483Y-79943273D01*
X103252483Y-79943273D02*
X103633435Y-79609940D01*
X103633435Y-79609940D02*
X103633435Y-79752797D01*
X103633435Y-79752797D02*
X103681054Y-79848035D01*
X103681054Y-79848035D02*
X103728673Y-79895654D01*
X103728673Y-79895654D02*
X103823911Y-79943273D01*
X103823911Y-79943273D02*
X104062006Y-79943273D01*
X104062006Y-79943273D02*
X104157244Y-79895654D01*
X104157244Y-79895654D02*
X104204864Y-79848035D01*
X104204864Y-79848035D02*
X104252483Y-79752797D01*
X104252483Y-79752797D02*
X104252483Y-79467083D01*
X104252483Y-79467083D02*
X104204864Y-79371845D01*
X104204864Y-79371845D02*
X104157244Y-79324226D01*
X103681054Y-80514702D02*
X103633435Y-80419464D01*
X103633435Y-80419464D02*
X103585816Y-80371845D01*
X103585816Y-80371845D02*
X103490578Y-80324226D01*
X103490578Y-80324226D02*
X103442959Y-80324226D01*
X103442959Y-80324226D02*
X103347721Y-80371845D01*
X103347721Y-80371845D02*
X103300102Y-80419464D01*
X103300102Y-80419464D02*
X103252483Y-80514702D01*
X103252483Y-80514702D02*
X103252483Y-80705178D01*
X103252483Y-80705178D02*
X103300102Y-80800416D01*
X103300102Y-80800416D02*
X103347721Y-80848035D01*
X103347721Y-80848035D02*
X103442959Y-80895654D01*
X103442959Y-80895654D02*
X103490578Y-80895654D01*
X103490578Y-80895654D02*
X103585816Y-80848035D01*
X103585816Y-80848035D02*
X103633435Y-80800416D01*
X103633435Y-80800416D02*
X103681054Y-80705178D01*
X103681054Y-80705178D02*
X103681054Y-80514702D01*
X103681054Y-80514702D02*
X103728673Y-80419464D01*
X103728673Y-80419464D02*
X103776292Y-80371845D01*
X103776292Y-80371845D02*
X103871530Y-80324226D01*
X103871530Y-80324226D02*
X104062006Y-80324226D01*
X104062006Y-80324226D02*
X104157244Y-80371845D01*
X104157244Y-80371845D02*
X104204864Y-80419464D01*
X104204864Y-80419464D02*
X104252483Y-80514702D01*
X104252483Y-80514702D02*
X104252483Y-80705178D01*
X104252483Y-80705178D02*
X104204864Y-80800416D01*
X104204864Y-80800416D02*
X104157244Y-80848035D01*
X104157244Y-80848035D02*
X104062006Y-80895654D01*
X104062006Y-80895654D02*
X103871530Y-80895654D01*
X103871530Y-80895654D02*
X103776292Y-80848035D01*
X103776292Y-80848035D02*
X103728673Y-80800416D01*
X103728673Y-80800416D02*
X103681054Y-80705178D01*
X199471233Y-48360714D02*
X198471233Y-48360714D01*
X198471233Y-48360714D02*
X198471233Y-48598809D01*
X198471233Y-48598809D02*
X198518852Y-48741666D01*
X198518852Y-48741666D02*
X198614090Y-48836904D01*
X198614090Y-48836904D02*
X198709328Y-48884523D01*
X198709328Y-48884523D02*
X198899804Y-48932142D01*
X198899804Y-48932142D02*
X199042661Y-48932142D01*
X199042661Y-48932142D02*
X199233137Y-48884523D01*
X199233137Y-48884523D02*
X199328375Y-48836904D01*
X199328375Y-48836904D02*
X199423614Y-48741666D01*
X199423614Y-48741666D02*
X199471233Y-48598809D01*
X199471233Y-48598809D02*
X199471233Y-48360714D01*
X198566471Y-49313095D02*
X198518852Y-49360714D01*
X198518852Y-49360714D02*
X198471233Y-49455952D01*
X198471233Y-49455952D02*
X198471233Y-49694047D01*
X198471233Y-49694047D02*
X198518852Y-49789285D01*
X198518852Y-49789285D02*
X198566471Y-49836904D01*
X198566471Y-49836904D02*
X198661709Y-49884523D01*
X198661709Y-49884523D02*
X198756947Y-49884523D01*
X198756947Y-49884523D02*
X198899804Y-49836904D01*
X198899804Y-49836904D02*
X199471233Y-49265476D01*
X199471233Y-49265476D02*
X199471233Y-49884523D01*
X198471233Y-50741666D02*
X198471233Y-50551190D01*
X198471233Y-50551190D02*
X198518852Y-50455952D01*
X198518852Y-50455952D02*
X198566471Y-50408333D01*
X198566471Y-50408333D02*
X198709328Y-50313095D01*
X198709328Y-50313095D02*
X198899804Y-50265476D01*
X198899804Y-50265476D02*
X199280756Y-50265476D01*
X199280756Y-50265476D02*
X199375994Y-50313095D01*
X199375994Y-50313095D02*
X199423614Y-50360714D01*
X199423614Y-50360714D02*
X199471233Y-50455952D01*
X199471233Y-50455952D02*
X199471233Y-50646428D01*
X199471233Y-50646428D02*
X199423614Y-50741666D01*
X199423614Y-50741666D02*
X199375994Y-50789285D01*
X199375994Y-50789285D02*
X199280756Y-50836904D01*
X199280756Y-50836904D02*
X199042661Y-50836904D01*
X199042661Y-50836904D02*
X198947423Y-50789285D01*
X198947423Y-50789285D02*
X198899804Y-50741666D01*
X198899804Y-50741666D02*
X198852185Y-50646428D01*
X198852185Y-50646428D02*
X198852185Y-50455952D01*
X198852185Y-50455952D02*
X198899804Y-50360714D01*
X198899804Y-50360714D02*
X198947423Y-50313095D01*
X198947423Y-50313095D02*
X199042661Y-50265476D01*
X309039983Y-97469464D02*
X308039983Y-97469464D01*
X308039983Y-97469464D02*
X308039983Y-97707559D01*
X308039983Y-97707559D02*
X308087602Y-97850416D01*
X308087602Y-97850416D02*
X308182840Y-97945654D01*
X308182840Y-97945654D02*
X308278078Y-97993273D01*
X308278078Y-97993273D02*
X308468554Y-98040892D01*
X308468554Y-98040892D02*
X308611411Y-98040892D01*
X308611411Y-98040892D02*
X308801887Y-97993273D01*
X308801887Y-97993273D02*
X308897125Y-97945654D01*
X308897125Y-97945654D02*
X308992364Y-97850416D01*
X308992364Y-97850416D02*
X309039983Y-97707559D01*
X309039983Y-97707559D02*
X309039983Y-97469464D01*
X308039983Y-98898035D02*
X308039983Y-98707559D01*
X308039983Y-98707559D02*
X308087602Y-98612321D01*
X308087602Y-98612321D02*
X308135221Y-98564702D01*
X308135221Y-98564702D02*
X308278078Y-98469464D01*
X308278078Y-98469464D02*
X308468554Y-98421845D01*
X308468554Y-98421845D02*
X308849506Y-98421845D01*
X308849506Y-98421845D02*
X308944744Y-98469464D01*
X308944744Y-98469464D02*
X308992364Y-98517083D01*
X308992364Y-98517083D02*
X309039983Y-98612321D01*
X309039983Y-98612321D02*
X309039983Y-98802797D01*
X309039983Y-98802797D02*
X308992364Y-98898035D01*
X308992364Y-98898035D02*
X308944744Y-98945654D01*
X308944744Y-98945654D02*
X308849506Y-98993273D01*
X308849506Y-98993273D02*
X308611411Y-98993273D01*
X308611411Y-98993273D02*
X308516173Y-98945654D01*
X308516173Y-98945654D02*
X308468554Y-98898035D01*
X308468554Y-98898035D02*
X308420935Y-98802797D01*
X308420935Y-98802797D02*
X308420935Y-98612321D01*
X308420935Y-98612321D02*
X308468554Y-98517083D01*
X308468554Y-98517083D02*
X308516173Y-98469464D01*
X308516173Y-98469464D02*
X308611411Y-98421845D01*
X308039983Y-99612321D02*
X308039983Y-99707559D01*
X308039983Y-99707559D02*
X308087602Y-99802797D01*
X308087602Y-99802797D02*
X308135221Y-99850416D01*
X308135221Y-99850416D02*
X308230459Y-99898035D01*
X308230459Y-99898035D02*
X308420935Y-99945654D01*
X308420935Y-99945654D02*
X308659030Y-99945654D01*
X308659030Y-99945654D02*
X308849506Y-99898035D01*
X308849506Y-99898035D02*
X308944744Y-99850416D01*
X308944744Y-99850416D02*
X308992364Y-99802797D01*
X308992364Y-99802797D02*
X309039983Y-99707559D01*
X309039983Y-99707559D02*
X309039983Y-99612321D01*
X309039983Y-99612321D02*
X308992364Y-99517083D01*
X308992364Y-99517083D02*
X308944744Y-99469464D01*
X308944744Y-99469464D02*
X308849506Y-99421845D01*
X308849506Y-99421845D02*
X308659030Y-99374226D01*
X308659030Y-99374226D02*
X308420935Y-99374226D01*
X308420935Y-99374226D02*
X308230459Y-99421845D01*
X308230459Y-99421845D02*
X308135221Y-99469464D01*
X308135221Y-99469464D02*
X308087602Y-99517083D01*
X308087602Y-99517083D02*
X308039983Y-99612321D01*
X249508733Y-78419464D02*
X248508733Y-78419464D01*
X248508733Y-78419464D02*
X248508733Y-78657559D01*
X248508733Y-78657559D02*
X248556352Y-78800416D01*
X248556352Y-78800416D02*
X248651590Y-78895654D01*
X248651590Y-78895654D02*
X248746828Y-78943273D01*
X248746828Y-78943273D02*
X248937304Y-78990892D01*
X248937304Y-78990892D02*
X249080161Y-78990892D01*
X249080161Y-78990892D02*
X249270637Y-78943273D01*
X249270637Y-78943273D02*
X249365875Y-78895654D01*
X249365875Y-78895654D02*
X249461114Y-78800416D01*
X249461114Y-78800416D02*
X249508733Y-78657559D01*
X249508733Y-78657559D02*
X249508733Y-78419464D01*
X248842066Y-79848035D02*
X249508733Y-79848035D01*
X248461114Y-79609940D02*
X249175399Y-79371845D01*
X249175399Y-79371845D02*
X249175399Y-79990892D01*
X248508733Y-80848035D02*
X248508733Y-80371845D01*
X248508733Y-80371845D02*
X248984923Y-80324226D01*
X248984923Y-80324226D02*
X248937304Y-80371845D01*
X248937304Y-80371845D02*
X248889685Y-80467083D01*
X248889685Y-80467083D02*
X248889685Y-80705178D01*
X248889685Y-80705178D02*
X248937304Y-80800416D01*
X248937304Y-80800416D02*
X248984923Y-80848035D01*
X248984923Y-80848035D02*
X249080161Y-80895654D01*
X249080161Y-80895654D02*
X249318256Y-80895654D01*
X249318256Y-80895654D02*
X249413494Y-80848035D01*
X249413494Y-80848035D02*
X249461114Y-80800416D01*
X249461114Y-80800416D02*
X249508733Y-80705178D01*
X249508733Y-80705178D02*
X249508733Y-80467083D01*
X249508733Y-80467083D02*
X249461114Y-80371845D01*
X249461114Y-80371845D02*
X249413494Y-80324226D01*
X268558733Y-78419464D02*
X267558733Y-78419464D01*
X267558733Y-78419464D02*
X267558733Y-78657559D01*
X267558733Y-78657559D02*
X267606352Y-78800416D01*
X267606352Y-78800416D02*
X267701590Y-78895654D01*
X267701590Y-78895654D02*
X267796828Y-78943273D01*
X267796828Y-78943273D02*
X267987304Y-78990892D01*
X267987304Y-78990892D02*
X268130161Y-78990892D01*
X268130161Y-78990892D02*
X268320637Y-78943273D01*
X268320637Y-78943273D02*
X268415875Y-78895654D01*
X268415875Y-78895654D02*
X268511114Y-78800416D01*
X268511114Y-78800416D02*
X268558733Y-78657559D01*
X268558733Y-78657559D02*
X268558733Y-78419464D01*
X267892066Y-79848035D02*
X268558733Y-79848035D01*
X267511114Y-79609940D02*
X268225399Y-79371845D01*
X268225399Y-79371845D02*
X268225399Y-79990892D01*
X267558733Y-80800416D02*
X267558733Y-80609940D01*
X267558733Y-80609940D02*
X267606352Y-80514702D01*
X267606352Y-80514702D02*
X267653971Y-80467083D01*
X267653971Y-80467083D02*
X267796828Y-80371845D01*
X267796828Y-80371845D02*
X267987304Y-80324226D01*
X267987304Y-80324226D02*
X268368256Y-80324226D01*
X268368256Y-80324226D02*
X268463494Y-80371845D01*
X268463494Y-80371845D02*
X268511114Y-80419464D01*
X268511114Y-80419464D02*
X268558733Y-80514702D01*
X268558733Y-80514702D02*
X268558733Y-80705178D01*
X268558733Y-80705178D02*
X268511114Y-80800416D01*
X268511114Y-80800416D02*
X268463494Y-80848035D01*
X268463494Y-80848035D02*
X268368256Y-80895654D01*
X268368256Y-80895654D02*
X268130161Y-80895654D01*
X268130161Y-80895654D02*
X268034923Y-80848035D01*
X268034923Y-80848035D02*
X267987304Y-80800416D01*
X267987304Y-80800416D02*
X267939685Y-80705178D01*
X267939685Y-80705178D02*
X267939685Y-80514702D01*
X267939685Y-80514702D02*
X267987304Y-80419464D01*
X267987304Y-80419464D02*
X268034923Y-80371845D01*
X268034923Y-80371845D02*
X268130161Y-80324226D01*
X338886666Y-55429580D02*
X338934285Y-55477200D01*
X338934285Y-55477200D02*
X339077142Y-55524819D01*
X339077142Y-55524819D02*
X339172380Y-55524819D01*
X339172380Y-55524819D02*
X339315237Y-55477200D01*
X339315237Y-55477200D02*
X339410475Y-55381961D01*
X339410475Y-55381961D02*
X339458094Y-55286723D01*
X339458094Y-55286723D02*
X339505713Y-55096247D01*
X339505713Y-55096247D02*
X339505713Y-54953390D01*
X339505713Y-54953390D02*
X339458094Y-54762914D01*
X339458094Y-54762914D02*
X339410475Y-54667676D01*
X339410475Y-54667676D02*
X339315237Y-54572438D01*
X339315237Y-54572438D02*
X339172380Y-54524819D01*
X339172380Y-54524819D02*
X339077142Y-54524819D01*
X339077142Y-54524819D02*
X338934285Y-54572438D01*
X338934285Y-54572438D02*
X338886666Y-54620057D01*
X338029523Y-54858152D02*
X338029523Y-55524819D01*
X338267618Y-54477200D02*
X338505713Y-55191485D01*
X338505713Y-55191485D02*
X337886666Y-55191485D01*
X373333733Y-78419464D02*
X372333733Y-78419464D01*
X372333733Y-78419464D02*
X372333733Y-78657559D01*
X372333733Y-78657559D02*
X372381352Y-78800416D01*
X372381352Y-78800416D02*
X372476590Y-78895654D01*
X372476590Y-78895654D02*
X372571828Y-78943273D01*
X372571828Y-78943273D02*
X372762304Y-78990892D01*
X372762304Y-78990892D02*
X372905161Y-78990892D01*
X372905161Y-78990892D02*
X373095637Y-78943273D01*
X373095637Y-78943273D02*
X373190875Y-78895654D01*
X373190875Y-78895654D02*
X373286114Y-78800416D01*
X373286114Y-78800416D02*
X373333733Y-78657559D01*
X373333733Y-78657559D02*
X373333733Y-78419464D01*
X372333733Y-79895654D02*
X372333733Y-79419464D01*
X372333733Y-79419464D02*
X372809923Y-79371845D01*
X372809923Y-79371845D02*
X372762304Y-79419464D01*
X372762304Y-79419464D02*
X372714685Y-79514702D01*
X372714685Y-79514702D02*
X372714685Y-79752797D01*
X372714685Y-79752797D02*
X372762304Y-79848035D01*
X372762304Y-79848035D02*
X372809923Y-79895654D01*
X372809923Y-79895654D02*
X372905161Y-79943273D01*
X372905161Y-79943273D02*
X373143256Y-79943273D01*
X373143256Y-79943273D02*
X373238494Y-79895654D01*
X373238494Y-79895654D02*
X373286114Y-79848035D01*
X373286114Y-79848035D02*
X373333733Y-79752797D01*
X373333733Y-79752797D02*
X373333733Y-79514702D01*
X373333733Y-79514702D02*
X373286114Y-79419464D01*
X373286114Y-79419464D02*
X373238494Y-79371845D01*
X372428971Y-80324226D02*
X372381352Y-80371845D01*
X372381352Y-80371845D02*
X372333733Y-80467083D01*
X372333733Y-80467083D02*
X372333733Y-80705178D01*
X372333733Y-80705178D02*
X372381352Y-80800416D01*
X372381352Y-80800416D02*
X372428971Y-80848035D01*
X372428971Y-80848035D02*
X372524209Y-80895654D01*
X372524209Y-80895654D02*
X372619447Y-80895654D01*
X372619447Y-80895654D02*
X372762304Y-80848035D01*
X372762304Y-80848035D02*
X373333733Y-80276607D01*
X373333733Y-80276607D02*
X373333733Y-80895654D01*
X382661069Y-78419464D02*
X381661069Y-78419464D01*
X381661069Y-78419464D02*
X381661069Y-78657559D01*
X381661069Y-78657559D02*
X381708688Y-78800416D01*
X381708688Y-78800416D02*
X381803926Y-78895654D01*
X381803926Y-78895654D02*
X381899164Y-78943273D01*
X381899164Y-78943273D02*
X382089640Y-78990892D01*
X382089640Y-78990892D02*
X382232497Y-78990892D01*
X382232497Y-78990892D02*
X382422973Y-78943273D01*
X382422973Y-78943273D02*
X382518211Y-78895654D01*
X382518211Y-78895654D02*
X382613450Y-78800416D01*
X382613450Y-78800416D02*
X382661069Y-78657559D01*
X382661069Y-78657559D02*
X382661069Y-78419464D01*
X381661069Y-79895654D02*
X381661069Y-79419464D01*
X381661069Y-79419464D02*
X382137259Y-79371845D01*
X382137259Y-79371845D02*
X382089640Y-79419464D01*
X382089640Y-79419464D02*
X382042021Y-79514702D01*
X382042021Y-79514702D02*
X382042021Y-79752797D01*
X382042021Y-79752797D02*
X382089640Y-79848035D01*
X382089640Y-79848035D02*
X382137259Y-79895654D01*
X382137259Y-79895654D02*
X382232497Y-79943273D01*
X382232497Y-79943273D02*
X382470592Y-79943273D01*
X382470592Y-79943273D02*
X382565830Y-79895654D01*
X382565830Y-79895654D02*
X382613450Y-79848035D01*
X382613450Y-79848035D02*
X382661069Y-79752797D01*
X382661069Y-79752797D02*
X382661069Y-79514702D01*
X382661069Y-79514702D02*
X382613450Y-79419464D01*
X382613450Y-79419464D02*
X382565830Y-79371845D01*
X381661069Y-80276607D02*
X381661069Y-80895654D01*
X381661069Y-80895654D02*
X382042021Y-80562321D01*
X382042021Y-80562321D02*
X382042021Y-80705178D01*
X382042021Y-80705178D02*
X382089640Y-80800416D01*
X382089640Y-80800416D02*
X382137259Y-80848035D01*
X382137259Y-80848035D02*
X382232497Y-80895654D01*
X382232497Y-80895654D02*
X382470592Y-80895654D01*
X382470592Y-80895654D02*
X382565830Y-80848035D01*
X382565830Y-80848035D02*
X382613450Y-80800416D01*
X382613450Y-80800416D02*
X382661069Y-80705178D01*
X382661069Y-80705178D02*
X382661069Y-80419464D01*
X382661069Y-80419464D02*
X382613450Y-80324226D01*
X382613450Y-80324226D02*
X382565830Y-80276607D01*
X334002302Y-74649515D02*
X334049921Y-74792372D01*
X334049921Y-74792372D02*
X334049921Y-75030467D01*
X334049921Y-75030467D02*
X334002302Y-75125705D01*
X334002302Y-75125705D02*
X333954682Y-75173324D01*
X333954682Y-75173324D02*
X333859444Y-75220943D01*
X333859444Y-75220943D02*
X333764206Y-75220943D01*
X333764206Y-75220943D02*
X333668968Y-75173324D01*
X333668968Y-75173324D02*
X333621349Y-75125705D01*
X333621349Y-75125705D02*
X333573730Y-75030467D01*
X333573730Y-75030467D02*
X333526111Y-74839991D01*
X333526111Y-74839991D02*
X333478492Y-74744753D01*
X333478492Y-74744753D02*
X333430873Y-74697134D01*
X333430873Y-74697134D02*
X333335635Y-74649515D01*
X333335635Y-74649515D02*
X333240397Y-74649515D01*
X333240397Y-74649515D02*
X333145159Y-74697134D01*
X333145159Y-74697134D02*
X333097540Y-74744753D01*
X333097540Y-74744753D02*
X333049921Y-74839991D01*
X333049921Y-74839991D02*
X333049921Y-75078086D01*
X333049921Y-75078086D02*
X333097540Y-75220943D01*
X333049921Y-75554277D02*
X334049921Y-75792372D01*
X334049921Y-75792372D02*
X333335635Y-75982848D01*
X333335635Y-75982848D02*
X334049921Y-76173324D01*
X334049921Y-76173324D02*
X333049921Y-76411420D01*
X333145159Y-76744753D02*
X333097540Y-76792372D01*
X333097540Y-76792372D02*
X333049921Y-76887610D01*
X333049921Y-76887610D02*
X333049921Y-77125705D01*
X333049921Y-77125705D02*
X333097540Y-77220943D01*
X333097540Y-77220943D02*
X333145159Y-77268562D01*
X333145159Y-77268562D02*
X333240397Y-77316181D01*
X333240397Y-77316181D02*
X333335635Y-77316181D01*
X333335635Y-77316181D02*
X333478492Y-77268562D01*
X333478492Y-77268562D02*
X334049921Y-76697134D01*
X334049921Y-76697134D02*
X334049921Y-77316181D01*
X338831904Y-49764819D02*
X338831904Y-50574342D01*
X338831904Y-50574342D02*
X338784285Y-50669580D01*
X338784285Y-50669580D02*
X338736666Y-50717200D01*
X338736666Y-50717200D02*
X338641428Y-50764819D01*
X338641428Y-50764819D02*
X338450952Y-50764819D01*
X338450952Y-50764819D02*
X338355714Y-50717200D01*
X338355714Y-50717200D02*
X338308095Y-50669580D01*
X338308095Y-50669580D02*
X338260476Y-50574342D01*
X338260476Y-50574342D02*
X338260476Y-49764819D01*
X337831904Y-49860057D02*
X337784285Y-49812438D01*
X337784285Y-49812438D02*
X337689047Y-49764819D01*
X337689047Y-49764819D02*
X337450952Y-49764819D01*
X337450952Y-49764819D02*
X337355714Y-49812438D01*
X337355714Y-49812438D02*
X337308095Y-49860057D01*
X337308095Y-49860057D02*
X337260476Y-49955295D01*
X337260476Y-49955295D02*
X337260476Y-50050533D01*
X337260476Y-50050533D02*
X337308095Y-50193390D01*
X337308095Y-50193390D02*
X337879523Y-50764819D01*
X337879523Y-50764819D02*
X337260476Y-50764819D01*
X256711233Y-36404464D02*
X255711233Y-36404464D01*
X255711233Y-36404464D02*
X255711233Y-36642559D01*
X255711233Y-36642559D02*
X255758852Y-36785416D01*
X255758852Y-36785416D02*
X255854090Y-36880654D01*
X255854090Y-36880654D02*
X255949328Y-36928273D01*
X255949328Y-36928273D02*
X256139804Y-36975892D01*
X256139804Y-36975892D02*
X256282661Y-36975892D01*
X256282661Y-36975892D02*
X256473137Y-36928273D01*
X256473137Y-36928273D02*
X256568375Y-36880654D01*
X256568375Y-36880654D02*
X256663614Y-36785416D01*
X256663614Y-36785416D02*
X256711233Y-36642559D01*
X256711233Y-36642559D02*
X256711233Y-36404464D01*
X256711233Y-37928273D02*
X256711233Y-37356845D01*
X256711233Y-37642559D02*
X255711233Y-37642559D01*
X255711233Y-37642559D02*
X255854090Y-37547321D01*
X255854090Y-37547321D02*
X255949328Y-37452083D01*
X255949328Y-37452083D02*
X255996947Y-37356845D01*
X256711233Y-38880654D02*
X256711233Y-38309226D01*
X256711233Y-38594940D02*
X255711233Y-38594940D01*
X255711233Y-38594940D02*
X255854090Y-38499702D01*
X255854090Y-38499702D02*
X255949328Y-38404464D01*
X255949328Y-38404464D02*
X255996947Y-38309226D01*
X328117550Y-58366492D02*
X328165169Y-58414112D01*
X328165169Y-58414112D02*
X328308026Y-58461731D01*
X328308026Y-58461731D02*
X328403264Y-58461731D01*
X328403264Y-58461731D02*
X328546121Y-58414112D01*
X328546121Y-58414112D02*
X328641359Y-58318873D01*
X328641359Y-58318873D02*
X328688978Y-58223635D01*
X328688978Y-58223635D02*
X328736597Y-58033159D01*
X328736597Y-58033159D02*
X328736597Y-57890302D01*
X328736597Y-57890302D02*
X328688978Y-57699826D01*
X328688978Y-57699826D02*
X328641359Y-57604588D01*
X328641359Y-57604588D02*
X328546121Y-57509350D01*
X328546121Y-57509350D02*
X328403264Y-57461731D01*
X328403264Y-57461731D02*
X328308026Y-57461731D01*
X328308026Y-57461731D02*
X328165169Y-57509350D01*
X328165169Y-57509350D02*
X328117550Y-57556969D01*
X327641359Y-58461731D02*
X327450883Y-58461731D01*
X327450883Y-58461731D02*
X327355645Y-58414112D01*
X327355645Y-58414112D02*
X327308026Y-58366492D01*
X327308026Y-58366492D02*
X327212788Y-58223635D01*
X327212788Y-58223635D02*
X327165169Y-58033159D01*
X327165169Y-58033159D02*
X327165169Y-57652207D01*
X327165169Y-57652207D02*
X327212788Y-57556969D01*
X327212788Y-57556969D02*
X327260407Y-57509350D01*
X327260407Y-57509350D02*
X327355645Y-57461731D01*
X327355645Y-57461731D02*
X327546121Y-57461731D01*
X327546121Y-57461731D02*
X327641359Y-57509350D01*
X327641359Y-57509350D02*
X327688978Y-57556969D01*
X327688978Y-57556969D02*
X327736597Y-57652207D01*
X327736597Y-57652207D02*
X327736597Y-57890302D01*
X327736597Y-57890302D02*
X327688978Y-57985540D01*
X327688978Y-57985540D02*
X327641359Y-58033159D01*
X327641359Y-58033159D02*
X327546121Y-58080778D01*
X327546121Y-58080778D02*
X327355645Y-58080778D01*
X327355645Y-58080778D02*
X327260407Y-58033159D01*
X327260407Y-58033159D02*
X327212788Y-57985540D01*
X327212788Y-57985540D02*
X327165169Y-57890302D01*
X51923733Y-36880655D02*
X50923733Y-36880655D01*
X50923733Y-36880655D02*
X50923733Y-37118750D01*
X50923733Y-37118750D02*
X50971352Y-37261607D01*
X50971352Y-37261607D02*
X51066590Y-37356845D01*
X51066590Y-37356845D02*
X51161828Y-37404464D01*
X51161828Y-37404464D02*
X51352304Y-37452083D01*
X51352304Y-37452083D02*
X51495161Y-37452083D01*
X51495161Y-37452083D02*
X51685637Y-37404464D01*
X51685637Y-37404464D02*
X51780875Y-37356845D01*
X51780875Y-37356845D02*
X51876114Y-37261607D01*
X51876114Y-37261607D02*
X51923733Y-37118750D01*
X51923733Y-37118750D02*
X51923733Y-36880655D01*
X51923733Y-38404464D02*
X51923733Y-37833036D01*
X51923733Y-38118750D02*
X50923733Y-38118750D01*
X50923733Y-38118750D02*
X51066590Y-38023512D01*
X51066590Y-38023512D02*
X51161828Y-37928274D01*
X51161828Y-37928274D02*
X51209447Y-37833036D01*
X320914983Y-48360714D02*
X319914983Y-48360714D01*
X319914983Y-48360714D02*
X319914983Y-48598809D01*
X319914983Y-48598809D02*
X319962602Y-48741666D01*
X319962602Y-48741666D02*
X320057840Y-48836904D01*
X320057840Y-48836904D02*
X320153078Y-48884523D01*
X320153078Y-48884523D02*
X320343554Y-48932142D01*
X320343554Y-48932142D02*
X320486411Y-48932142D01*
X320486411Y-48932142D02*
X320676887Y-48884523D01*
X320676887Y-48884523D02*
X320772125Y-48836904D01*
X320772125Y-48836904D02*
X320867364Y-48741666D01*
X320867364Y-48741666D02*
X320914983Y-48598809D01*
X320914983Y-48598809D02*
X320914983Y-48360714D01*
X319914983Y-49265476D02*
X319914983Y-49884523D01*
X319914983Y-49884523D02*
X320295935Y-49551190D01*
X320295935Y-49551190D02*
X320295935Y-49694047D01*
X320295935Y-49694047D02*
X320343554Y-49789285D01*
X320343554Y-49789285D02*
X320391173Y-49836904D01*
X320391173Y-49836904D02*
X320486411Y-49884523D01*
X320486411Y-49884523D02*
X320724506Y-49884523D01*
X320724506Y-49884523D02*
X320819744Y-49836904D01*
X320819744Y-49836904D02*
X320867364Y-49789285D01*
X320867364Y-49789285D02*
X320914983Y-49694047D01*
X320914983Y-49694047D02*
X320914983Y-49408333D01*
X320914983Y-49408333D02*
X320867364Y-49313095D01*
X320867364Y-49313095D02*
X320819744Y-49265476D01*
X320010221Y-50265476D02*
X319962602Y-50313095D01*
X319962602Y-50313095D02*
X319914983Y-50408333D01*
X319914983Y-50408333D02*
X319914983Y-50646428D01*
X319914983Y-50646428D02*
X319962602Y-50741666D01*
X319962602Y-50741666D02*
X320010221Y-50789285D01*
X320010221Y-50789285D02*
X320105459Y-50836904D01*
X320105459Y-50836904D02*
X320200697Y-50836904D01*
X320200697Y-50836904D02*
X320343554Y-50789285D01*
X320343554Y-50789285D02*
X320914983Y-50217857D01*
X320914983Y-50217857D02*
X320914983Y-50836904D01*
X294811233Y-36404464D02*
X293811233Y-36404464D01*
X293811233Y-36404464D02*
X293811233Y-36642559D01*
X293811233Y-36642559D02*
X293858852Y-36785416D01*
X293858852Y-36785416D02*
X293954090Y-36880654D01*
X293954090Y-36880654D02*
X294049328Y-36928273D01*
X294049328Y-36928273D02*
X294239804Y-36975892D01*
X294239804Y-36975892D02*
X294382661Y-36975892D01*
X294382661Y-36975892D02*
X294573137Y-36928273D01*
X294573137Y-36928273D02*
X294668375Y-36880654D01*
X294668375Y-36880654D02*
X294763614Y-36785416D01*
X294763614Y-36785416D02*
X294811233Y-36642559D01*
X294811233Y-36642559D02*
X294811233Y-36404464D01*
X294811233Y-37928273D02*
X294811233Y-37356845D01*
X294811233Y-37642559D02*
X293811233Y-37642559D01*
X293811233Y-37642559D02*
X293954090Y-37547321D01*
X293954090Y-37547321D02*
X294049328Y-37452083D01*
X294049328Y-37452083D02*
X294096947Y-37356845D01*
X293811233Y-38261607D02*
X293811233Y-38880654D01*
X293811233Y-38880654D02*
X294192185Y-38547321D01*
X294192185Y-38547321D02*
X294192185Y-38690178D01*
X294192185Y-38690178D02*
X294239804Y-38785416D01*
X294239804Y-38785416D02*
X294287423Y-38833035D01*
X294287423Y-38833035D02*
X294382661Y-38880654D01*
X294382661Y-38880654D02*
X294620756Y-38880654D01*
X294620756Y-38880654D02*
X294715994Y-38833035D01*
X294715994Y-38833035D02*
X294763614Y-38785416D01*
X294763614Y-38785416D02*
X294811233Y-38690178D01*
X294811233Y-38690178D02*
X294811233Y-38404464D01*
X294811233Y-38404464D02*
X294763614Y-38309226D01*
X294763614Y-38309226D02*
X294715994Y-38261607D01*
X370921233Y-48360714D02*
X369921233Y-48360714D01*
X369921233Y-48360714D02*
X369921233Y-48598809D01*
X369921233Y-48598809D02*
X369968852Y-48741666D01*
X369968852Y-48741666D02*
X370064090Y-48836904D01*
X370064090Y-48836904D02*
X370159328Y-48884523D01*
X370159328Y-48884523D02*
X370349804Y-48932142D01*
X370349804Y-48932142D02*
X370492661Y-48932142D01*
X370492661Y-48932142D02*
X370683137Y-48884523D01*
X370683137Y-48884523D02*
X370778375Y-48836904D01*
X370778375Y-48836904D02*
X370873614Y-48741666D01*
X370873614Y-48741666D02*
X370921233Y-48598809D01*
X370921233Y-48598809D02*
X370921233Y-48360714D01*
X369921233Y-49265476D02*
X369921233Y-49884523D01*
X369921233Y-49884523D02*
X370302185Y-49551190D01*
X370302185Y-49551190D02*
X370302185Y-49694047D01*
X370302185Y-49694047D02*
X370349804Y-49789285D01*
X370349804Y-49789285D02*
X370397423Y-49836904D01*
X370397423Y-49836904D02*
X370492661Y-49884523D01*
X370492661Y-49884523D02*
X370730756Y-49884523D01*
X370730756Y-49884523D02*
X370825994Y-49836904D01*
X370825994Y-49836904D02*
X370873614Y-49789285D01*
X370873614Y-49789285D02*
X370921233Y-49694047D01*
X370921233Y-49694047D02*
X370921233Y-49408333D01*
X370921233Y-49408333D02*
X370873614Y-49313095D01*
X370873614Y-49313095D02*
X370825994Y-49265476D01*
X370254566Y-50741666D02*
X370921233Y-50741666D01*
X369873614Y-50503571D02*
X370587899Y-50265476D01*
X370587899Y-50265476D02*
X370587899Y-50884523D01*
X192358733Y-78419464D02*
X191358733Y-78419464D01*
X191358733Y-78419464D02*
X191358733Y-78657559D01*
X191358733Y-78657559D02*
X191406352Y-78800416D01*
X191406352Y-78800416D02*
X191501590Y-78895654D01*
X191501590Y-78895654D02*
X191596828Y-78943273D01*
X191596828Y-78943273D02*
X191787304Y-78990892D01*
X191787304Y-78990892D02*
X191930161Y-78990892D01*
X191930161Y-78990892D02*
X192120637Y-78943273D01*
X192120637Y-78943273D02*
X192215875Y-78895654D01*
X192215875Y-78895654D02*
X192311114Y-78800416D01*
X192311114Y-78800416D02*
X192358733Y-78657559D01*
X192358733Y-78657559D02*
X192358733Y-78419464D01*
X191692066Y-79848035D02*
X192358733Y-79848035D01*
X191311114Y-79609940D02*
X192025399Y-79371845D01*
X192025399Y-79371845D02*
X192025399Y-79990892D01*
X191453971Y-80324226D02*
X191406352Y-80371845D01*
X191406352Y-80371845D02*
X191358733Y-80467083D01*
X191358733Y-80467083D02*
X191358733Y-80705178D01*
X191358733Y-80705178D02*
X191406352Y-80800416D01*
X191406352Y-80800416D02*
X191453971Y-80848035D01*
X191453971Y-80848035D02*
X191549209Y-80895654D01*
X191549209Y-80895654D02*
X191644447Y-80895654D01*
X191644447Y-80895654D02*
X191787304Y-80848035D01*
X191787304Y-80848035D02*
X192358733Y-80276607D01*
X192358733Y-80276607D02*
X192358733Y-80895654D01*
X341507200Y-83716667D02*
X341554819Y-83859524D01*
X341554819Y-83859524D02*
X341554819Y-84097619D01*
X341554819Y-84097619D02*
X341507200Y-84192857D01*
X341507200Y-84192857D02*
X341459580Y-84240476D01*
X341459580Y-84240476D02*
X341364342Y-84288095D01*
X341364342Y-84288095D02*
X341269104Y-84288095D01*
X341269104Y-84288095D02*
X341173866Y-84240476D01*
X341173866Y-84240476D02*
X341126247Y-84192857D01*
X341126247Y-84192857D02*
X341078628Y-84097619D01*
X341078628Y-84097619D02*
X341031009Y-83907143D01*
X341031009Y-83907143D02*
X340983390Y-83811905D01*
X340983390Y-83811905D02*
X340935771Y-83764286D01*
X340935771Y-83764286D02*
X340840533Y-83716667D01*
X340840533Y-83716667D02*
X340745295Y-83716667D01*
X340745295Y-83716667D02*
X340650057Y-83764286D01*
X340650057Y-83764286D02*
X340602438Y-83811905D01*
X340602438Y-83811905D02*
X340554819Y-83907143D01*
X340554819Y-83907143D02*
X340554819Y-84145238D01*
X340554819Y-84145238D02*
X340602438Y-84288095D01*
X340554819Y-84621429D02*
X341554819Y-84859524D01*
X341554819Y-84859524D02*
X340840533Y-85050000D01*
X340840533Y-85050000D02*
X341554819Y-85240476D01*
X341554819Y-85240476D02*
X340554819Y-85478572D01*
X341554819Y-86383333D02*
X341554819Y-85811905D01*
X341554819Y-86097619D02*
X340554819Y-86097619D01*
X340554819Y-86097619D02*
X340697676Y-86002381D01*
X340697676Y-86002381D02*
X340792914Y-85907143D01*
X340792914Y-85907143D02*
X340840533Y-85811905D01*
X94727483Y-97469464D02*
X93727483Y-97469464D01*
X93727483Y-97469464D02*
X93727483Y-97707559D01*
X93727483Y-97707559D02*
X93775102Y-97850416D01*
X93775102Y-97850416D02*
X93870340Y-97945654D01*
X93870340Y-97945654D02*
X93965578Y-97993273D01*
X93965578Y-97993273D02*
X94156054Y-98040892D01*
X94156054Y-98040892D02*
X94298911Y-98040892D01*
X94298911Y-98040892D02*
X94489387Y-97993273D01*
X94489387Y-97993273D02*
X94584625Y-97945654D01*
X94584625Y-97945654D02*
X94679864Y-97850416D01*
X94679864Y-97850416D02*
X94727483Y-97707559D01*
X94727483Y-97707559D02*
X94727483Y-97469464D01*
X93727483Y-98945654D02*
X93727483Y-98469464D01*
X93727483Y-98469464D02*
X94203673Y-98421845D01*
X94203673Y-98421845D02*
X94156054Y-98469464D01*
X94156054Y-98469464D02*
X94108435Y-98564702D01*
X94108435Y-98564702D02*
X94108435Y-98802797D01*
X94108435Y-98802797D02*
X94156054Y-98898035D01*
X94156054Y-98898035D02*
X94203673Y-98945654D01*
X94203673Y-98945654D02*
X94298911Y-98993273D01*
X94298911Y-98993273D02*
X94537006Y-98993273D01*
X94537006Y-98993273D02*
X94632244Y-98945654D01*
X94632244Y-98945654D02*
X94679864Y-98898035D01*
X94679864Y-98898035D02*
X94727483Y-98802797D01*
X94727483Y-98802797D02*
X94727483Y-98564702D01*
X94727483Y-98564702D02*
X94679864Y-98469464D01*
X94679864Y-98469464D02*
X94632244Y-98421845D01*
X93727483Y-99850416D02*
X93727483Y-99659940D01*
X93727483Y-99659940D02*
X93775102Y-99564702D01*
X93775102Y-99564702D02*
X93822721Y-99517083D01*
X93822721Y-99517083D02*
X93965578Y-99421845D01*
X93965578Y-99421845D02*
X94156054Y-99374226D01*
X94156054Y-99374226D02*
X94537006Y-99374226D01*
X94537006Y-99374226D02*
X94632244Y-99421845D01*
X94632244Y-99421845D02*
X94679864Y-99469464D01*
X94679864Y-99469464D02*
X94727483Y-99564702D01*
X94727483Y-99564702D02*
X94727483Y-99755178D01*
X94727483Y-99755178D02*
X94679864Y-99850416D01*
X94679864Y-99850416D02*
X94632244Y-99898035D01*
X94632244Y-99898035D02*
X94537006Y-99945654D01*
X94537006Y-99945654D02*
X94298911Y-99945654D01*
X94298911Y-99945654D02*
X94203673Y-99898035D01*
X94203673Y-99898035D02*
X94156054Y-99850416D01*
X94156054Y-99850416D02*
X94108435Y-99755178D01*
X94108435Y-99755178D02*
X94108435Y-99564702D01*
X94108435Y-99564702D02*
X94156054Y-99469464D01*
X94156054Y-99469464D02*
X94203673Y-99421845D01*
X94203673Y-99421845D02*
X94298911Y-99374226D01*
X123271233Y-48360714D02*
X122271233Y-48360714D01*
X122271233Y-48360714D02*
X122271233Y-48598809D01*
X122271233Y-48598809D02*
X122318852Y-48741666D01*
X122318852Y-48741666D02*
X122414090Y-48836904D01*
X122414090Y-48836904D02*
X122509328Y-48884523D01*
X122509328Y-48884523D02*
X122699804Y-48932142D01*
X122699804Y-48932142D02*
X122842661Y-48932142D01*
X122842661Y-48932142D02*
X123033137Y-48884523D01*
X123033137Y-48884523D02*
X123128375Y-48836904D01*
X123128375Y-48836904D02*
X123223614Y-48741666D01*
X123223614Y-48741666D02*
X123271233Y-48598809D01*
X123271233Y-48598809D02*
X123271233Y-48360714D01*
X122366471Y-49313095D02*
X122318852Y-49360714D01*
X122318852Y-49360714D02*
X122271233Y-49455952D01*
X122271233Y-49455952D02*
X122271233Y-49694047D01*
X122271233Y-49694047D02*
X122318852Y-49789285D01*
X122318852Y-49789285D02*
X122366471Y-49836904D01*
X122366471Y-49836904D02*
X122461709Y-49884523D01*
X122461709Y-49884523D02*
X122556947Y-49884523D01*
X122556947Y-49884523D02*
X122699804Y-49836904D01*
X122699804Y-49836904D02*
X123271233Y-49265476D01*
X123271233Y-49265476D02*
X123271233Y-49884523D01*
X122366471Y-50265476D02*
X122318852Y-50313095D01*
X122318852Y-50313095D02*
X122271233Y-50408333D01*
X122271233Y-50408333D02*
X122271233Y-50646428D01*
X122271233Y-50646428D02*
X122318852Y-50741666D01*
X122318852Y-50741666D02*
X122366471Y-50789285D01*
X122366471Y-50789285D02*
X122461709Y-50836904D01*
X122461709Y-50836904D02*
X122556947Y-50836904D01*
X122556947Y-50836904D02*
X122699804Y-50789285D01*
X122699804Y-50789285D02*
X123271233Y-50217857D01*
X123271233Y-50217857D02*
X123271233Y-50836904D01*
X232046233Y-97469464D02*
X231046233Y-97469464D01*
X231046233Y-97469464D02*
X231046233Y-97707559D01*
X231046233Y-97707559D02*
X231093852Y-97850416D01*
X231093852Y-97850416D02*
X231189090Y-97945654D01*
X231189090Y-97945654D02*
X231284328Y-97993273D01*
X231284328Y-97993273D02*
X231474804Y-98040892D01*
X231474804Y-98040892D02*
X231617661Y-98040892D01*
X231617661Y-98040892D02*
X231808137Y-97993273D01*
X231808137Y-97993273D02*
X231903375Y-97945654D01*
X231903375Y-97945654D02*
X231998614Y-97850416D01*
X231998614Y-97850416D02*
X232046233Y-97707559D01*
X232046233Y-97707559D02*
X232046233Y-97469464D01*
X231046233Y-98898035D02*
X231046233Y-98707559D01*
X231046233Y-98707559D02*
X231093852Y-98612321D01*
X231093852Y-98612321D02*
X231141471Y-98564702D01*
X231141471Y-98564702D02*
X231284328Y-98469464D01*
X231284328Y-98469464D02*
X231474804Y-98421845D01*
X231474804Y-98421845D02*
X231855756Y-98421845D01*
X231855756Y-98421845D02*
X231950994Y-98469464D01*
X231950994Y-98469464D02*
X231998614Y-98517083D01*
X231998614Y-98517083D02*
X232046233Y-98612321D01*
X232046233Y-98612321D02*
X232046233Y-98802797D01*
X232046233Y-98802797D02*
X231998614Y-98898035D01*
X231998614Y-98898035D02*
X231950994Y-98945654D01*
X231950994Y-98945654D02*
X231855756Y-98993273D01*
X231855756Y-98993273D02*
X231617661Y-98993273D01*
X231617661Y-98993273D02*
X231522423Y-98945654D01*
X231522423Y-98945654D02*
X231474804Y-98898035D01*
X231474804Y-98898035D02*
X231427185Y-98802797D01*
X231427185Y-98802797D02*
X231427185Y-98612321D01*
X231427185Y-98612321D02*
X231474804Y-98517083D01*
X231474804Y-98517083D02*
X231522423Y-98469464D01*
X231522423Y-98469464D02*
X231617661Y-98421845D01*
X231474804Y-99564702D02*
X231427185Y-99469464D01*
X231427185Y-99469464D02*
X231379566Y-99421845D01*
X231379566Y-99421845D02*
X231284328Y-99374226D01*
X231284328Y-99374226D02*
X231236709Y-99374226D01*
X231236709Y-99374226D02*
X231141471Y-99421845D01*
X231141471Y-99421845D02*
X231093852Y-99469464D01*
X231093852Y-99469464D02*
X231046233Y-99564702D01*
X231046233Y-99564702D02*
X231046233Y-99755178D01*
X231046233Y-99755178D02*
X231093852Y-99850416D01*
X231093852Y-99850416D02*
X231141471Y-99898035D01*
X231141471Y-99898035D02*
X231236709Y-99945654D01*
X231236709Y-99945654D02*
X231284328Y-99945654D01*
X231284328Y-99945654D02*
X231379566Y-99898035D01*
X231379566Y-99898035D02*
X231427185Y-99850416D01*
X231427185Y-99850416D02*
X231474804Y-99755178D01*
X231474804Y-99755178D02*
X231474804Y-99564702D01*
X231474804Y-99564702D02*
X231522423Y-99469464D01*
X231522423Y-99469464D02*
X231570042Y-99421845D01*
X231570042Y-99421845D02*
X231665280Y-99374226D01*
X231665280Y-99374226D02*
X231855756Y-99374226D01*
X231855756Y-99374226D02*
X231950994Y-99421845D01*
X231950994Y-99421845D02*
X231998614Y-99469464D01*
X231998614Y-99469464D02*
X232046233Y-99564702D01*
X232046233Y-99564702D02*
X232046233Y-99755178D01*
X232046233Y-99755178D02*
X231998614Y-99850416D01*
X231998614Y-99850416D02*
X231950994Y-99898035D01*
X231950994Y-99898035D02*
X231855756Y-99945654D01*
X231855756Y-99945654D02*
X231665280Y-99945654D01*
X231665280Y-99945654D02*
X231570042Y-99898035D01*
X231570042Y-99898035D02*
X231522423Y-99850416D01*
X231522423Y-99850416D02*
X231474804Y-99755178D01*
X287608733Y-97469464D02*
X286608733Y-97469464D01*
X286608733Y-97469464D02*
X286608733Y-97707559D01*
X286608733Y-97707559D02*
X286656352Y-97850416D01*
X286656352Y-97850416D02*
X286751590Y-97945654D01*
X286751590Y-97945654D02*
X286846828Y-97993273D01*
X286846828Y-97993273D02*
X287037304Y-98040892D01*
X287037304Y-98040892D02*
X287180161Y-98040892D01*
X287180161Y-98040892D02*
X287370637Y-97993273D01*
X287370637Y-97993273D02*
X287465875Y-97945654D01*
X287465875Y-97945654D02*
X287561114Y-97850416D01*
X287561114Y-97850416D02*
X287608733Y-97707559D01*
X287608733Y-97707559D02*
X287608733Y-97469464D01*
X286608733Y-98945654D02*
X286608733Y-98469464D01*
X286608733Y-98469464D02*
X287084923Y-98421845D01*
X287084923Y-98421845D02*
X287037304Y-98469464D01*
X287037304Y-98469464D02*
X286989685Y-98564702D01*
X286989685Y-98564702D02*
X286989685Y-98802797D01*
X286989685Y-98802797D02*
X287037304Y-98898035D01*
X287037304Y-98898035D02*
X287084923Y-98945654D01*
X287084923Y-98945654D02*
X287180161Y-98993273D01*
X287180161Y-98993273D02*
X287418256Y-98993273D01*
X287418256Y-98993273D02*
X287513494Y-98945654D01*
X287513494Y-98945654D02*
X287561114Y-98898035D01*
X287561114Y-98898035D02*
X287608733Y-98802797D01*
X287608733Y-98802797D02*
X287608733Y-98564702D01*
X287608733Y-98564702D02*
X287561114Y-98469464D01*
X287561114Y-98469464D02*
X287513494Y-98421845D01*
X287608733Y-99469464D02*
X287608733Y-99659940D01*
X287608733Y-99659940D02*
X287561114Y-99755178D01*
X287561114Y-99755178D02*
X287513494Y-99802797D01*
X287513494Y-99802797D02*
X287370637Y-99898035D01*
X287370637Y-99898035D02*
X287180161Y-99945654D01*
X287180161Y-99945654D02*
X286799209Y-99945654D01*
X286799209Y-99945654D02*
X286703971Y-99898035D01*
X286703971Y-99898035D02*
X286656352Y-99850416D01*
X286656352Y-99850416D02*
X286608733Y-99755178D01*
X286608733Y-99755178D02*
X286608733Y-99564702D01*
X286608733Y-99564702D02*
X286656352Y-99469464D01*
X286656352Y-99469464D02*
X286703971Y-99421845D01*
X286703971Y-99421845D02*
X286799209Y-99374226D01*
X286799209Y-99374226D02*
X287037304Y-99374226D01*
X287037304Y-99374226D02*
X287132542Y-99421845D01*
X287132542Y-99421845D02*
X287180161Y-99469464D01*
X287180161Y-99469464D02*
X287227780Y-99564702D01*
X287227780Y-99564702D02*
X287227780Y-99755178D01*
X287227780Y-99755178D02*
X287180161Y-99850416D01*
X287180161Y-99850416D02*
X287132542Y-99898035D01*
X287132542Y-99898035D02*
X287037304Y-99945654D01*
X218611233Y-36880655D02*
X217611233Y-36880655D01*
X217611233Y-36880655D02*
X217611233Y-37118750D01*
X217611233Y-37118750D02*
X217658852Y-37261607D01*
X217658852Y-37261607D02*
X217754090Y-37356845D01*
X217754090Y-37356845D02*
X217849328Y-37404464D01*
X217849328Y-37404464D02*
X218039804Y-37452083D01*
X218039804Y-37452083D02*
X218182661Y-37452083D01*
X218182661Y-37452083D02*
X218373137Y-37404464D01*
X218373137Y-37404464D02*
X218468375Y-37356845D01*
X218468375Y-37356845D02*
X218563614Y-37261607D01*
X218563614Y-37261607D02*
X218611233Y-37118750D01*
X218611233Y-37118750D02*
X218611233Y-36880655D01*
X218611233Y-37928274D02*
X218611233Y-38118750D01*
X218611233Y-38118750D02*
X218563614Y-38213988D01*
X218563614Y-38213988D02*
X218515994Y-38261607D01*
X218515994Y-38261607D02*
X218373137Y-38356845D01*
X218373137Y-38356845D02*
X218182661Y-38404464D01*
X218182661Y-38404464D02*
X217801709Y-38404464D01*
X217801709Y-38404464D02*
X217706471Y-38356845D01*
X217706471Y-38356845D02*
X217658852Y-38309226D01*
X217658852Y-38309226D02*
X217611233Y-38213988D01*
X217611233Y-38213988D02*
X217611233Y-38023512D01*
X217611233Y-38023512D02*
X217658852Y-37928274D01*
X217658852Y-37928274D02*
X217706471Y-37880655D01*
X217706471Y-37880655D02*
X217801709Y-37833036D01*
X217801709Y-37833036D02*
X218039804Y-37833036D01*
X218039804Y-37833036D02*
X218135042Y-37880655D01*
X218135042Y-37880655D02*
X218182661Y-37928274D01*
X218182661Y-37928274D02*
X218230280Y-38023512D01*
X218230280Y-38023512D02*
X218230280Y-38213988D01*
X218230280Y-38213988D02*
X218182661Y-38309226D01*
X218182661Y-38309226D02*
X218135042Y-38356845D01*
X218135042Y-38356845D02*
X218039804Y-38404464D01*
X161371233Y-48360714D02*
X160371233Y-48360714D01*
X160371233Y-48360714D02*
X160371233Y-48598809D01*
X160371233Y-48598809D02*
X160418852Y-48741666D01*
X160418852Y-48741666D02*
X160514090Y-48836904D01*
X160514090Y-48836904D02*
X160609328Y-48884523D01*
X160609328Y-48884523D02*
X160799804Y-48932142D01*
X160799804Y-48932142D02*
X160942661Y-48932142D01*
X160942661Y-48932142D02*
X161133137Y-48884523D01*
X161133137Y-48884523D02*
X161228375Y-48836904D01*
X161228375Y-48836904D02*
X161323614Y-48741666D01*
X161323614Y-48741666D02*
X161371233Y-48598809D01*
X161371233Y-48598809D02*
X161371233Y-48360714D01*
X160466471Y-49313095D02*
X160418852Y-49360714D01*
X160418852Y-49360714D02*
X160371233Y-49455952D01*
X160371233Y-49455952D02*
X160371233Y-49694047D01*
X160371233Y-49694047D02*
X160418852Y-49789285D01*
X160418852Y-49789285D02*
X160466471Y-49836904D01*
X160466471Y-49836904D02*
X160561709Y-49884523D01*
X160561709Y-49884523D02*
X160656947Y-49884523D01*
X160656947Y-49884523D02*
X160799804Y-49836904D01*
X160799804Y-49836904D02*
X161371233Y-49265476D01*
X161371233Y-49265476D02*
X161371233Y-49884523D01*
X160704566Y-50741666D02*
X161371233Y-50741666D01*
X160323614Y-50503571D02*
X161037899Y-50265476D01*
X161037899Y-50265476D02*
X161037899Y-50884523D01*
X99548733Y-36880655D02*
X98548733Y-36880655D01*
X98548733Y-36880655D02*
X98548733Y-37118750D01*
X98548733Y-37118750D02*
X98596352Y-37261607D01*
X98596352Y-37261607D02*
X98691590Y-37356845D01*
X98691590Y-37356845D02*
X98786828Y-37404464D01*
X98786828Y-37404464D02*
X98977304Y-37452083D01*
X98977304Y-37452083D02*
X99120161Y-37452083D01*
X99120161Y-37452083D02*
X99310637Y-37404464D01*
X99310637Y-37404464D02*
X99405875Y-37356845D01*
X99405875Y-37356845D02*
X99501114Y-37261607D01*
X99501114Y-37261607D02*
X99548733Y-37118750D01*
X99548733Y-37118750D02*
X99548733Y-36880655D01*
X98548733Y-37785417D02*
X98548733Y-38404464D01*
X98548733Y-38404464D02*
X98929685Y-38071131D01*
X98929685Y-38071131D02*
X98929685Y-38213988D01*
X98929685Y-38213988D02*
X98977304Y-38309226D01*
X98977304Y-38309226D02*
X99024923Y-38356845D01*
X99024923Y-38356845D02*
X99120161Y-38404464D01*
X99120161Y-38404464D02*
X99358256Y-38404464D01*
X99358256Y-38404464D02*
X99453494Y-38356845D01*
X99453494Y-38356845D02*
X99501114Y-38309226D01*
X99501114Y-38309226D02*
X99548733Y-38213988D01*
X99548733Y-38213988D02*
X99548733Y-37928274D01*
X99548733Y-37928274D02*
X99501114Y-37833036D01*
X99501114Y-37833036D02*
X99453494Y-37785417D01*
X356723733Y-36404464D02*
X355723733Y-36404464D01*
X355723733Y-36404464D02*
X355723733Y-36642559D01*
X355723733Y-36642559D02*
X355771352Y-36785416D01*
X355771352Y-36785416D02*
X355866590Y-36880654D01*
X355866590Y-36880654D02*
X355961828Y-36928273D01*
X355961828Y-36928273D02*
X356152304Y-36975892D01*
X356152304Y-36975892D02*
X356295161Y-36975892D01*
X356295161Y-36975892D02*
X356485637Y-36928273D01*
X356485637Y-36928273D02*
X356580875Y-36880654D01*
X356580875Y-36880654D02*
X356676114Y-36785416D01*
X356676114Y-36785416D02*
X356723733Y-36642559D01*
X356723733Y-36642559D02*
X356723733Y-36404464D01*
X356723733Y-37928273D02*
X356723733Y-37356845D01*
X356723733Y-37642559D02*
X355723733Y-37642559D01*
X355723733Y-37642559D02*
X355866590Y-37547321D01*
X355866590Y-37547321D02*
X355961828Y-37452083D01*
X355961828Y-37452083D02*
X356009447Y-37356845D01*
X355723733Y-38785416D02*
X355723733Y-38594940D01*
X355723733Y-38594940D02*
X355771352Y-38499702D01*
X355771352Y-38499702D02*
X355818971Y-38452083D01*
X355818971Y-38452083D02*
X355961828Y-38356845D01*
X355961828Y-38356845D02*
X356152304Y-38309226D01*
X356152304Y-38309226D02*
X356533256Y-38309226D01*
X356533256Y-38309226D02*
X356628494Y-38356845D01*
X356628494Y-38356845D02*
X356676114Y-38404464D01*
X356676114Y-38404464D02*
X356723733Y-38499702D01*
X356723733Y-38499702D02*
X356723733Y-38690178D01*
X356723733Y-38690178D02*
X356676114Y-38785416D01*
X356676114Y-38785416D02*
X356628494Y-38833035D01*
X356628494Y-38833035D02*
X356533256Y-38880654D01*
X356533256Y-38880654D02*
X356295161Y-38880654D01*
X356295161Y-38880654D02*
X356199923Y-38833035D01*
X356199923Y-38833035D02*
X356152304Y-38785416D01*
X356152304Y-38785416D02*
X356104685Y-38690178D01*
X356104685Y-38690178D02*
X356104685Y-38499702D01*
X356104685Y-38499702D02*
X356152304Y-38404464D01*
X356152304Y-38404464D02*
X356199923Y-38356845D01*
X356199923Y-38356845D02*
X356295161Y-38309226D01*
X375773733Y-36404464D02*
X374773733Y-36404464D01*
X374773733Y-36404464D02*
X374773733Y-36642559D01*
X374773733Y-36642559D02*
X374821352Y-36785416D01*
X374821352Y-36785416D02*
X374916590Y-36880654D01*
X374916590Y-36880654D02*
X375011828Y-36928273D01*
X375011828Y-36928273D02*
X375202304Y-36975892D01*
X375202304Y-36975892D02*
X375345161Y-36975892D01*
X375345161Y-36975892D02*
X375535637Y-36928273D01*
X375535637Y-36928273D02*
X375630875Y-36880654D01*
X375630875Y-36880654D02*
X375726114Y-36785416D01*
X375726114Y-36785416D02*
X375773733Y-36642559D01*
X375773733Y-36642559D02*
X375773733Y-36404464D01*
X375773733Y-37928273D02*
X375773733Y-37356845D01*
X375773733Y-37642559D02*
X374773733Y-37642559D01*
X374773733Y-37642559D02*
X374916590Y-37547321D01*
X374916590Y-37547321D02*
X375011828Y-37452083D01*
X375011828Y-37452083D02*
X375059447Y-37356845D01*
X374773733Y-38261607D02*
X374773733Y-38928273D01*
X374773733Y-38928273D02*
X375773733Y-38499702D01*
X237661233Y-36404464D02*
X236661233Y-36404464D01*
X236661233Y-36404464D02*
X236661233Y-36642559D01*
X236661233Y-36642559D02*
X236708852Y-36785416D01*
X236708852Y-36785416D02*
X236804090Y-36880654D01*
X236804090Y-36880654D02*
X236899328Y-36928273D01*
X236899328Y-36928273D02*
X237089804Y-36975892D01*
X237089804Y-36975892D02*
X237232661Y-36975892D01*
X237232661Y-36975892D02*
X237423137Y-36928273D01*
X237423137Y-36928273D02*
X237518375Y-36880654D01*
X237518375Y-36880654D02*
X237613614Y-36785416D01*
X237613614Y-36785416D02*
X237661233Y-36642559D01*
X237661233Y-36642559D02*
X237661233Y-36404464D01*
X237661233Y-37928273D02*
X237661233Y-37356845D01*
X237661233Y-37642559D02*
X236661233Y-37642559D01*
X236661233Y-37642559D02*
X236804090Y-37547321D01*
X236804090Y-37547321D02*
X236899328Y-37452083D01*
X236899328Y-37452083D02*
X236946947Y-37356845D01*
X236661233Y-38547321D02*
X236661233Y-38642559D01*
X236661233Y-38642559D02*
X236708852Y-38737797D01*
X236708852Y-38737797D02*
X236756471Y-38785416D01*
X236756471Y-38785416D02*
X236851709Y-38833035D01*
X236851709Y-38833035D02*
X237042185Y-38880654D01*
X237042185Y-38880654D02*
X237280280Y-38880654D01*
X237280280Y-38880654D02*
X237470756Y-38833035D01*
X237470756Y-38833035D02*
X237565994Y-38785416D01*
X237565994Y-38785416D02*
X237613614Y-38737797D01*
X237613614Y-38737797D02*
X237661233Y-38642559D01*
X237661233Y-38642559D02*
X237661233Y-38547321D01*
X237661233Y-38547321D02*
X237613614Y-38452083D01*
X237613614Y-38452083D02*
X237565994Y-38404464D01*
X237565994Y-38404464D02*
X237470756Y-38356845D01*
X237470756Y-38356845D02*
X237280280Y-38309226D01*
X237280280Y-38309226D02*
X237042185Y-38309226D01*
X237042185Y-38309226D02*
X236851709Y-38356845D01*
X236851709Y-38356845D02*
X236756471Y-38404464D01*
X236756471Y-38404464D02*
X236708852Y-38452083D01*
X236708852Y-38452083D02*
X236661233Y-38547321D01*
X154258733Y-78481964D02*
X153258733Y-78481964D01*
X153258733Y-78481964D02*
X153258733Y-78720059D01*
X153258733Y-78720059D02*
X153306352Y-78862916D01*
X153306352Y-78862916D02*
X153401590Y-78958154D01*
X153401590Y-78958154D02*
X153496828Y-79005773D01*
X153496828Y-79005773D02*
X153687304Y-79053392D01*
X153687304Y-79053392D02*
X153830161Y-79053392D01*
X153830161Y-79053392D02*
X154020637Y-79005773D01*
X154020637Y-79005773D02*
X154115875Y-78958154D01*
X154115875Y-78958154D02*
X154211114Y-78862916D01*
X154211114Y-78862916D02*
X154258733Y-78720059D01*
X154258733Y-78720059D02*
X154258733Y-78481964D01*
X153592066Y-79910535D02*
X154258733Y-79910535D01*
X153211114Y-79672440D02*
X153925399Y-79434345D01*
X153925399Y-79434345D02*
X153925399Y-80053392D01*
X153258733Y-80624821D02*
X153258733Y-80720059D01*
X153258733Y-80720059D02*
X153306352Y-80815297D01*
X153306352Y-80815297D02*
X153353971Y-80862916D01*
X153353971Y-80862916D02*
X153449209Y-80910535D01*
X153449209Y-80910535D02*
X153639685Y-80958154D01*
X153639685Y-80958154D02*
X153877780Y-80958154D01*
X153877780Y-80958154D02*
X154068256Y-80910535D01*
X154068256Y-80910535D02*
X154163494Y-80862916D01*
X154163494Y-80862916D02*
X154211114Y-80815297D01*
X154211114Y-80815297D02*
X154258733Y-80720059D01*
X154258733Y-80720059D02*
X154258733Y-80624821D01*
X154258733Y-80624821D02*
X154211114Y-80529583D01*
X154211114Y-80529583D02*
X154163494Y-80481964D01*
X154163494Y-80481964D02*
X154068256Y-80434345D01*
X154068256Y-80434345D02*
X153877780Y-80386726D01*
X153877780Y-80386726D02*
X153639685Y-80386726D01*
X153639685Y-80386726D02*
X153449209Y-80434345D01*
X153449209Y-80434345D02*
X153353971Y-80481964D01*
X153353971Y-80481964D02*
X153306352Y-80529583D01*
X153306352Y-80529583D02*
X153258733Y-80624821D01*
X173308733Y-78419464D02*
X172308733Y-78419464D01*
X172308733Y-78419464D02*
X172308733Y-78657559D01*
X172308733Y-78657559D02*
X172356352Y-78800416D01*
X172356352Y-78800416D02*
X172451590Y-78895654D01*
X172451590Y-78895654D02*
X172546828Y-78943273D01*
X172546828Y-78943273D02*
X172737304Y-78990892D01*
X172737304Y-78990892D02*
X172880161Y-78990892D01*
X172880161Y-78990892D02*
X173070637Y-78943273D01*
X173070637Y-78943273D02*
X173165875Y-78895654D01*
X173165875Y-78895654D02*
X173261114Y-78800416D01*
X173261114Y-78800416D02*
X173308733Y-78657559D01*
X173308733Y-78657559D02*
X173308733Y-78419464D01*
X172642066Y-79848035D02*
X173308733Y-79848035D01*
X172261114Y-79609940D02*
X172975399Y-79371845D01*
X172975399Y-79371845D02*
X172975399Y-79990892D01*
X173308733Y-80895654D02*
X173308733Y-80324226D01*
X173308733Y-80609940D02*
X172308733Y-80609940D01*
X172308733Y-80609940D02*
X172451590Y-80514702D01*
X172451590Y-80514702D02*
X172546828Y-80419464D01*
X172546828Y-80419464D02*
X172594447Y-80324226D01*
X199561233Y-36880655D02*
X198561233Y-36880655D01*
X198561233Y-36880655D02*
X198561233Y-37118750D01*
X198561233Y-37118750D02*
X198608852Y-37261607D01*
X198608852Y-37261607D02*
X198704090Y-37356845D01*
X198704090Y-37356845D02*
X198799328Y-37404464D01*
X198799328Y-37404464D02*
X198989804Y-37452083D01*
X198989804Y-37452083D02*
X199132661Y-37452083D01*
X199132661Y-37452083D02*
X199323137Y-37404464D01*
X199323137Y-37404464D02*
X199418375Y-37356845D01*
X199418375Y-37356845D02*
X199513614Y-37261607D01*
X199513614Y-37261607D02*
X199561233Y-37118750D01*
X199561233Y-37118750D02*
X199561233Y-36880655D01*
X198989804Y-38023512D02*
X198942185Y-37928274D01*
X198942185Y-37928274D02*
X198894566Y-37880655D01*
X198894566Y-37880655D02*
X198799328Y-37833036D01*
X198799328Y-37833036D02*
X198751709Y-37833036D01*
X198751709Y-37833036D02*
X198656471Y-37880655D01*
X198656471Y-37880655D02*
X198608852Y-37928274D01*
X198608852Y-37928274D02*
X198561233Y-38023512D01*
X198561233Y-38023512D02*
X198561233Y-38213988D01*
X198561233Y-38213988D02*
X198608852Y-38309226D01*
X198608852Y-38309226D02*
X198656471Y-38356845D01*
X198656471Y-38356845D02*
X198751709Y-38404464D01*
X198751709Y-38404464D02*
X198799328Y-38404464D01*
X198799328Y-38404464D02*
X198894566Y-38356845D01*
X198894566Y-38356845D02*
X198942185Y-38309226D01*
X198942185Y-38309226D02*
X198989804Y-38213988D01*
X198989804Y-38213988D02*
X198989804Y-38023512D01*
X198989804Y-38023512D02*
X199037423Y-37928274D01*
X199037423Y-37928274D02*
X199085042Y-37880655D01*
X199085042Y-37880655D02*
X199180280Y-37833036D01*
X199180280Y-37833036D02*
X199370756Y-37833036D01*
X199370756Y-37833036D02*
X199465994Y-37880655D01*
X199465994Y-37880655D02*
X199513614Y-37928274D01*
X199513614Y-37928274D02*
X199561233Y-38023512D01*
X199561233Y-38023512D02*
X199561233Y-38213988D01*
X199561233Y-38213988D02*
X199513614Y-38309226D01*
X199513614Y-38309226D02*
X199465994Y-38356845D01*
X199465994Y-38356845D02*
X199370756Y-38404464D01*
X199370756Y-38404464D02*
X199180280Y-38404464D01*
X199180280Y-38404464D02*
X199085042Y-38356845D01*
X199085042Y-38356845D02*
X199037423Y-38309226D01*
X199037423Y-38309226D02*
X198989804Y-38213988D01*
X161461233Y-36880655D02*
X160461233Y-36880655D01*
X160461233Y-36880655D02*
X160461233Y-37118750D01*
X160461233Y-37118750D02*
X160508852Y-37261607D01*
X160508852Y-37261607D02*
X160604090Y-37356845D01*
X160604090Y-37356845D02*
X160699328Y-37404464D01*
X160699328Y-37404464D02*
X160889804Y-37452083D01*
X160889804Y-37452083D02*
X161032661Y-37452083D01*
X161032661Y-37452083D02*
X161223137Y-37404464D01*
X161223137Y-37404464D02*
X161318375Y-37356845D01*
X161318375Y-37356845D02*
X161413614Y-37261607D01*
X161413614Y-37261607D02*
X161461233Y-37118750D01*
X161461233Y-37118750D02*
X161461233Y-36880655D01*
X160461233Y-38309226D02*
X160461233Y-38118750D01*
X160461233Y-38118750D02*
X160508852Y-38023512D01*
X160508852Y-38023512D02*
X160556471Y-37975893D01*
X160556471Y-37975893D02*
X160699328Y-37880655D01*
X160699328Y-37880655D02*
X160889804Y-37833036D01*
X160889804Y-37833036D02*
X161270756Y-37833036D01*
X161270756Y-37833036D02*
X161365994Y-37880655D01*
X161365994Y-37880655D02*
X161413614Y-37928274D01*
X161413614Y-37928274D02*
X161461233Y-38023512D01*
X161461233Y-38023512D02*
X161461233Y-38213988D01*
X161461233Y-38213988D02*
X161413614Y-38309226D01*
X161413614Y-38309226D02*
X161365994Y-38356845D01*
X161365994Y-38356845D02*
X161270756Y-38404464D01*
X161270756Y-38404464D02*
X161032661Y-38404464D01*
X161032661Y-38404464D02*
X160937423Y-38356845D01*
X160937423Y-38356845D02*
X160889804Y-38309226D01*
X160889804Y-38309226D02*
X160842185Y-38213988D01*
X160842185Y-38213988D02*
X160842185Y-38023512D01*
X160842185Y-38023512D02*
X160889804Y-37928274D01*
X160889804Y-37928274D02*
X160937423Y-37880655D01*
X160937423Y-37880655D02*
X161032661Y-37833036D01*
X339299919Y-62743442D02*
X340109442Y-62743442D01*
X340109442Y-62743442D02*
X340204680Y-62791061D01*
X340204680Y-62791061D02*
X340252300Y-62838680D01*
X340252300Y-62838680D02*
X340299919Y-62933918D01*
X340299919Y-62933918D02*
X340299919Y-63124394D01*
X340299919Y-63124394D02*
X340252300Y-63219632D01*
X340252300Y-63219632D02*
X340204680Y-63267251D01*
X340204680Y-63267251D02*
X340109442Y-63314870D01*
X340109442Y-63314870D02*
X339299919Y-63314870D01*
X340299919Y-64314870D02*
X340299919Y-63743442D01*
X340299919Y-64029156D02*
X339299919Y-64029156D01*
X339299919Y-64029156D02*
X339442776Y-63933918D01*
X339442776Y-63933918D02*
X339538014Y-63838680D01*
X339538014Y-63838680D02*
X339585633Y-63743442D01*
X335326707Y-71709538D02*
X335374326Y-71757158D01*
X335374326Y-71757158D02*
X335517183Y-71804777D01*
X335517183Y-71804777D02*
X335612421Y-71804777D01*
X335612421Y-71804777D02*
X335755278Y-71757158D01*
X335755278Y-71757158D02*
X335850516Y-71661919D01*
X335850516Y-71661919D02*
X335898135Y-71566681D01*
X335898135Y-71566681D02*
X335945754Y-71376205D01*
X335945754Y-71376205D02*
X335945754Y-71233348D01*
X335945754Y-71233348D02*
X335898135Y-71042872D01*
X335898135Y-71042872D02*
X335850516Y-70947634D01*
X335850516Y-70947634D02*
X335755278Y-70852396D01*
X335755278Y-70852396D02*
X335612421Y-70804777D01*
X335612421Y-70804777D02*
X335517183Y-70804777D01*
X335517183Y-70804777D02*
X335374326Y-70852396D01*
X335374326Y-70852396D02*
X335326707Y-70900015D01*
X334374326Y-71804777D02*
X334945754Y-71804777D01*
X334660040Y-71804777D02*
X334660040Y-70804777D01*
X334660040Y-70804777D02*
X334755278Y-70947634D01*
X334755278Y-70947634D02*
X334850516Y-71042872D01*
X334850516Y-71042872D02*
X334945754Y-71090491D01*
X70973733Y-36880655D02*
X69973733Y-36880655D01*
X69973733Y-36880655D02*
X69973733Y-37118750D01*
X69973733Y-37118750D02*
X70021352Y-37261607D01*
X70021352Y-37261607D02*
X70116590Y-37356845D01*
X70116590Y-37356845D02*
X70211828Y-37404464D01*
X70211828Y-37404464D02*
X70402304Y-37452083D01*
X70402304Y-37452083D02*
X70545161Y-37452083D01*
X70545161Y-37452083D02*
X70735637Y-37404464D01*
X70735637Y-37404464D02*
X70830875Y-37356845D01*
X70830875Y-37356845D02*
X70926114Y-37261607D01*
X70926114Y-37261607D02*
X70973733Y-37118750D01*
X70973733Y-37118750D02*
X70973733Y-36880655D01*
X70068971Y-37833036D02*
X70021352Y-37880655D01*
X70021352Y-37880655D02*
X69973733Y-37975893D01*
X69973733Y-37975893D02*
X69973733Y-38213988D01*
X69973733Y-38213988D02*
X70021352Y-38309226D01*
X70021352Y-38309226D02*
X70068971Y-38356845D01*
X70068971Y-38356845D02*
X70164209Y-38404464D01*
X70164209Y-38404464D02*
X70259447Y-38404464D01*
X70259447Y-38404464D02*
X70402304Y-38356845D01*
X70402304Y-38356845D02*
X70973733Y-37785417D01*
X70973733Y-37785417D02*
X70973733Y-38404464D01*
X328146668Y-59469581D02*
X328194287Y-59517201D01*
X328194287Y-59517201D02*
X328337144Y-59564820D01*
X328337144Y-59564820D02*
X328432382Y-59564820D01*
X328432382Y-59564820D02*
X328575239Y-59517201D01*
X328575239Y-59517201D02*
X328670477Y-59421962D01*
X328670477Y-59421962D02*
X328718096Y-59326724D01*
X328718096Y-59326724D02*
X328765715Y-59136248D01*
X328765715Y-59136248D02*
X328765715Y-58993391D01*
X328765715Y-58993391D02*
X328718096Y-58802915D01*
X328718096Y-58802915D02*
X328670477Y-58707677D01*
X328670477Y-58707677D02*
X328575239Y-58612439D01*
X328575239Y-58612439D02*
X328432382Y-58564820D01*
X328432382Y-58564820D02*
X328337144Y-58564820D01*
X328337144Y-58564820D02*
X328194287Y-58612439D01*
X328194287Y-58612439D02*
X328146668Y-58660058D01*
X327575239Y-58993391D02*
X327670477Y-58945772D01*
X327670477Y-58945772D02*
X327718096Y-58898153D01*
X327718096Y-58898153D02*
X327765715Y-58802915D01*
X327765715Y-58802915D02*
X327765715Y-58755296D01*
X327765715Y-58755296D02*
X327718096Y-58660058D01*
X327718096Y-58660058D02*
X327670477Y-58612439D01*
X327670477Y-58612439D02*
X327575239Y-58564820D01*
X327575239Y-58564820D02*
X327384763Y-58564820D01*
X327384763Y-58564820D02*
X327289525Y-58612439D01*
X327289525Y-58612439D02*
X327241906Y-58660058D01*
X327241906Y-58660058D02*
X327194287Y-58755296D01*
X327194287Y-58755296D02*
X327194287Y-58802915D01*
X327194287Y-58802915D02*
X327241906Y-58898153D01*
X327241906Y-58898153D02*
X327289525Y-58945772D01*
X327289525Y-58945772D02*
X327384763Y-58993391D01*
X327384763Y-58993391D02*
X327575239Y-58993391D01*
X327575239Y-58993391D02*
X327670477Y-59041010D01*
X327670477Y-59041010D02*
X327718096Y-59088629D01*
X327718096Y-59088629D02*
X327765715Y-59183867D01*
X327765715Y-59183867D02*
X327765715Y-59374343D01*
X327765715Y-59374343D02*
X327718096Y-59469581D01*
X327718096Y-59469581D02*
X327670477Y-59517201D01*
X327670477Y-59517201D02*
X327575239Y-59564820D01*
X327575239Y-59564820D02*
X327384763Y-59564820D01*
X327384763Y-59564820D02*
X327289525Y-59517201D01*
X327289525Y-59517201D02*
X327241906Y-59469581D01*
X327241906Y-59469581D02*
X327194287Y-59374343D01*
X327194287Y-59374343D02*
X327194287Y-59183867D01*
X327194287Y-59183867D02*
X327241906Y-59088629D01*
X327241906Y-59088629D02*
X327289525Y-59041010D01*
X327289525Y-59041010D02*
X327384763Y-58993391D01*
X97077483Y-48360714D02*
X96077483Y-48360714D01*
X96077483Y-48360714D02*
X96077483Y-48598809D01*
X96077483Y-48598809D02*
X96125102Y-48741666D01*
X96125102Y-48741666D02*
X96220340Y-48836904D01*
X96220340Y-48836904D02*
X96315578Y-48884523D01*
X96315578Y-48884523D02*
X96506054Y-48932142D01*
X96506054Y-48932142D02*
X96648911Y-48932142D01*
X96648911Y-48932142D02*
X96839387Y-48884523D01*
X96839387Y-48884523D02*
X96934625Y-48836904D01*
X96934625Y-48836904D02*
X97029864Y-48741666D01*
X97029864Y-48741666D02*
X97077483Y-48598809D01*
X97077483Y-48598809D02*
X97077483Y-48360714D01*
X96172721Y-49313095D02*
X96125102Y-49360714D01*
X96125102Y-49360714D02*
X96077483Y-49455952D01*
X96077483Y-49455952D02*
X96077483Y-49694047D01*
X96077483Y-49694047D02*
X96125102Y-49789285D01*
X96125102Y-49789285D02*
X96172721Y-49836904D01*
X96172721Y-49836904D02*
X96267959Y-49884523D01*
X96267959Y-49884523D02*
X96363197Y-49884523D01*
X96363197Y-49884523D02*
X96506054Y-49836904D01*
X96506054Y-49836904D02*
X97077483Y-49265476D01*
X97077483Y-49265476D02*
X97077483Y-49884523D01*
X97077483Y-50836904D02*
X97077483Y-50265476D01*
X97077483Y-50551190D02*
X96077483Y-50551190D01*
X96077483Y-50551190D02*
X96220340Y-50455952D01*
X96220340Y-50455952D02*
X96315578Y-50360714D01*
X96315578Y-50360714D02*
X96363197Y-50265476D01*
X256621233Y-48360714D02*
X255621233Y-48360714D01*
X255621233Y-48360714D02*
X255621233Y-48598809D01*
X255621233Y-48598809D02*
X255668852Y-48741666D01*
X255668852Y-48741666D02*
X255764090Y-48836904D01*
X255764090Y-48836904D02*
X255859328Y-48884523D01*
X255859328Y-48884523D02*
X256049804Y-48932142D01*
X256049804Y-48932142D02*
X256192661Y-48932142D01*
X256192661Y-48932142D02*
X256383137Y-48884523D01*
X256383137Y-48884523D02*
X256478375Y-48836904D01*
X256478375Y-48836904D02*
X256573614Y-48741666D01*
X256573614Y-48741666D02*
X256621233Y-48598809D01*
X256621233Y-48598809D02*
X256621233Y-48360714D01*
X255716471Y-49313095D02*
X255668852Y-49360714D01*
X255668852Y-49360714D02*
X255621233Y-49455952D01*
X255621233Y-49455952D02*
X255621233Y-49694047D01*
X255621233Y-49694047D02*
X255668852Y-49789285D01*
X255668852Y-49789285D02*
X255716471Y-49836904D01*
X255716471Y-49836904D02*
X255811709Y-49884523D01*
X255811709Y-49884523D02*
X255906947Y-49884523D01*
X255906947Y-49884523D02*
X256049804Y-49836904D01*
X256049804Y-49836904D02*
X256621233Y-49265476D01*
X256621233Y-49265476D02*
X256621233Y-49884523D01*
X256621233Y-50360714D02*
X256621233Y-50551190D01*
X256621233Y-50551190D02*
X256573614Y-50646428D01*
X256573614Y-50646428D02*
X256525994Y-50694047D01*
X256525994Y-50694047D02*
X256383137Y-50789285D01*
X256383137Y-50789285D02*
X256192661Y-50836904D01*
X256192661Y-50836904D02*
X255811709Y-50836904D01*
X255811709Y-50836904D02*
X255716471Y-50789285D01*
X255716471Y-50789285D02*
X255668852Y-50741666D01*
X255668852Y-50741666D02*
X255621233Y-50646428D01*
X255621233Y-50646428D02*
X255621233Y-50455952D01*
X255621233Y-50455952D02*
X255668852Y-50360714D01*
X255668852Y-50360714D02*
X255716471Y-50313095D01*
X255716471Y-50313095D02*
X255811709Y-50265476D01*
X255811709Y-50265476D02*
X256049804Y-50265476D01*
X256049804Y-50265476D02*
X256145042Y-50313095D01*
X256145042Y-50313095D02*
X256192661Y-50360714D01*
X256192661Y-50360714D02*
X256240280Y-50455952D01*
X256240280Y-50455952D02*
X256240280Y-50646428D01*
X256240280Y-50646428D02*
X256192661Y-50741666D01*
X256192661Y-50741666D02*
X256145042Y-50789285D01*
X256145042Y-50789285D02*
X256049804Y-50836904D01*
X309833733Y-40319464D02*
X308833733Y-40319464D01*
X308833733Y-40319464D02*
X308833733Y-40557559D01*
X308833733Y-40557559D02*
X308881352Y-40700416D01*
X308881352Y-40700416D02*
X308976590Y-40795654D01*
X308976590Y-40795654D02*
X309071828Y-40843273D01*
X309071828Y-40843273D02*
X309262304Y-40890892D01*
X309262304Y-40890892D02*
X309405161Y-40890892D01*
X309405161Y-40890892D02*
X309595637Y-40843273D01*
X309595637Y-40843273D02*
X309690875Y-40795654D01*
X309690875Y-40795654D02*
X309786114Y-40700416D01*
X309786114Y-40700416D02*
X309833733Y-40557559D01*
X309833733Y-40557559D02*
X309833733Y-40319464D01*
X309833733Y-41843273D02*
X309833733Y-41271845D01*
X309833733Y-41557559D02*
X308833733Y-41557559D01*
X308833733Y-41557559D02*
X308976590Y-41462321D01*
X308976590Y-41462321D02*
X309071828Y-41367083D01*
X309071828Y-41367083D02*
X309119447Y-41271845D01*
X309167066Y-42700416D02*
X309833733Y-42700416D01*
X308786114Y-42462321D02*
X309500399Y-42224226D01*
X309500399Y-42224226D02*
X309500399Y-42843273D01*
X49483733Y-78419464D02*
X48483733Y-78419464D01*
X48483733Y-78419464D02*
X48483733Y-78657559D01*
X48483733Y-78657559D02*
X48531352Y-78800416D01*
X48531352Y-78800416D02*
X48626590Y-78895654D01*
X48626590Y-78895654D02*
X48721828Y-78943273D01*
X48721828Y-78943273D02*
X48912304Y-78990892D01*
X48912304Y-78990892D02*
X49055161Y-78990892D01*
X49055161Y-78990892D02*
X49245637Y-78943273D01*
X49245637Y-78943273D02*
X49340875Y-78895654D01*
X49340875Y-78895654D02*
X49436114Y-78800416D01*
X49436114Y-78800416D02*
X49483733Y-78657559D01*
X49483733Y-78657559D02*
X49483733Y-78419464D01*
X48483733Y-79324226D02*
X48483733Y-79943273D01*
X48483733Y-79943273D02*
X48864685Y-79609940D01*
X48864685Y-79609940D02*
X48864685Y-79752797D01*
X48864685Y-79752797D02*
X48912304Y-79848035D01*
X48912304Y-79848035D02*
X48959923Y-79895654D01*
X48959923Y-79895654D02*
X49055161Y-79943273D01*
X49055161Y-79943273D02*
X49293256Y-79943273D01*
X49293256Y-79943273D02*
X49388494Y-79895654D01*
X49388494Y-79895654D02*
X49436114Y-79848035D01*
X49436114Y-79848035D02*
X49483733Y-79752797D01*
X49483733Y-79752797D02*
X49483733Y-79467083D01*
X49483733Y-79467083D02*
X49436114Y-79371845D01*
X49436114Y-79371845D02*
X49388494Y-79324226D01*
X48483733Y-80800416D02*
X48483733Y-80609940D01*
X48483733Y-80609940D02*
X48531352Y-80514702D01*
X48531352Y-80514702D02*
X48578971Y-80467083D01*
X48578971Y-80467083D02*
X48721828Y-80371845D01*
X48721828Y-80371845D02*
X48912304Y-80324226D01*
X48912304Y-80324226D02*
X49293256Y-80324226D01*
X49293256Y-80324226D02*
X49388494Y-80371845D01*
X49388494Y-80371845D02*
X49436114Y-80419464D01*
X49436114Y-80419464D02*
X49483733Y-80514702D01*
X49483733Y-80514702D02*
X49483733Y-80705178D01*
X49483733Y-80705178D02*
X49436114Y-80800416D01*
X49436114Y-80800416D02*
X49388494Y-80848035D01*
X49388494Y-80848035D02*
X49293256Y-80895654D01*
X49293256Y-80895654D02*
X49055161Y-80895654D01*
X49055161Y-80895654D02*
X48959923Y-80848035D01*
X48959923Y-80848035D02*
X48912304Y-80800416D01*
X48912304Y-80800416D02*
X48864685Y-80705178D01*
X48864685Y-80705178D02*
X48864685Y-80514702D01*
X48864685Y-80514702D02*
X48912304Y-80419464D01*
X48912304Y-80419464D02*
X48959923Y-80371845D01*
X48959923Y-80371845D02*
X49055161Y-80324226D01*
X338886668Y-56504380D02*
X338934287Y-56552000D01*
X338934287Y-56552000D02*
X339077144Y-56599619D01*
X339077144Y-56599619D02*
X339172382Y-56599619D01*
X339172382Y-56599619D02*
X339315239Y-56552000D01*
X339315239Y-56552000D02*
X339410477Y-56456761D01*
X339410477Y-56456761D02*
X339458096Y-56361523D01*
X339458096Y-56361523D02*
X339505715Y-56171047D01*
X339505715Y-56171047D02*
X339505715Y-56028190D01*
X339505715Y-56028190D02*
X339458096Y-55837714D01*
X339458096Y-55837714D02*
X339410477Y-55742476D01*
X339410477Y-55742476D02*
X339315239Y-55647238D01*
X339315239Y-55647238D02*
X339172382Y-55599619D01*
X339172382Y-55599619D02*
X339077144Y-55599619D01*
X339077144Y-55599619D02*
X338934287Y-55647238D01*
X338934287Y-55647238D02*
X338886668Y-55694857D01*
X338553334Y-55599619D02*
X337886668Y-55599619D01*
X337886668Y-55599619D02*
X338315239Y-56599619D01*
X142321233Y-48360714D02*
X141321233Y-48360714D01*
X141321233Y-48360714D02*
X141321233Y-48598809D01*
X141321233Y-48598809D02*
X141368852Y-48741666D01*
X141368852Y-48741666D02*
X141464090Y-48836904D01*
X141464090Y-48836904D02*
X141559328Y-48884523D01*
X141559328Y-48884523D02*
X141749804Y-48932142D01*
X141749804Y-48932142D02*
X141892661Y-48932142D01*
X141892661Y-48932142D02*
X142083137Y-48884523D01*
X142083137Y-48884523D02*
X142178375Y-48836904D01*
X142178375Y-48836904D02*
X142273614Y-48741666D01*
X142273614Y-48741666D02*
X142321233Y-48598809D01*
X142321233Y-48598809D02*
X142321233Y-48360714D01*
X141416471Y-49313095D02*
X141368852Y-49360714D01*
X141368852Y-49360714D02*
X141321233Y-49455952D01*
X141321233Y-49455952D02*
X141321233Y-49694047D01*
X141321233Y-49694047D02*
X141368852Y-49789285D01*
X141368852Y-49789285D02*
X141416471Y-49836904D01*
X141416471Y-49836904D02*
X141511709Y-49884523D01*
X141511709Y-49884523D02*
X141606947Y-49884523D01*
X141606947Y-49884523D02*
X141749804Y-49836904D01*
X141749804Y-49836904D02*
X142321233Y-49265476D01*
X142321233Y-49265476D02*
X142321233Y-49884523D01*
X141321233Y-50217857D02*
X141321233Y-50836904D01*
X141321233Y-50836904D02*
X141702185Y-50503571D01*
X141702185Y-50503571D02*
X141702185Y-50646428D01*
X141702185Y-50646428D02*
X141749804Y-50741666D01*
X141749804Y-50741666D02*
X141797423Y-50789285D01*
X141797423Y-50789285D02*
X141892661Y-50836904D01*
X141892661Y-50836904D02*
X142130756Y-50836904D01*
X142130756Y-50836904D02*
X142225994Y-50789285D01*
X142225994Y-50789285D02*
X142273614Y-50741666D01*
X142273614Y-50741666D02*
X142321233Y-50646428D01*
X142321233Y-50646428D02*
X142321233Y-50360714D01*
X142321233Y-50360714D02*
X142273614Y-50265476D01*
X142273614Y-50265476D02*
X142225994Y-50217857D01*
X174896233Y-97469464D02*
X173896233Y-97469464D01*
X173896233Y-97469464D02*
X173896233Y-97707559D01*
X173896233Y-97707559D02*
X173943852Y-97850416D01*
X173943852Y-97850416D02*
X174039090Y-97945654D01*
X174039090Y-97945654D02*
X174134328Y-97993273D01*
X174134328Y-97993273D02*
X174324804Y-98040892D01*
X174324804Y-98040892D02*
X174467661Y-98040892D01*
X174467661Y-98040892D02*
X174658137Y-97993273D01*
X174658137Y-97993273D02*
X174753375Y-97945654D01*
X174753375Y-97945654D02*
X174848614Y-97850416D01*
X174848614Y-97850416D02*
X174896233Y-97707559D01*
X174896233Y-97707559D02*
X174896233Y-97469464D01*
X173896233Y-98898035D02*
X173896233Y-98707559D01*
X173896233Y-98707559D02*
X173943852Y-98612321D01*
X173943852Y-98612321D02*
X173991471Y-98564702D01*
X173991471Y-98564702D02*
X174134328Y-98469464D01*
X174134328Y-98469464D02*
X174324804Y-98421845D01*
X174324804Y-98421845D02*
X174705756Y-98421845D01*
X174705756Y-98421845D02*
X174800994Y-98469464D01*
X174800994Y-98469464D02*
X174848614Y-98517083D01*
X174848614Y-98517083D02*
X174896233Y-98612321D01*
X174896233Y-98612321D02*
X174896233Y-98802797D01*
X174896233Y-98802797D02*
X174848614Y-98898035D01*
X174848614Y-98898035D02*
X174800994Y-98945654D01*
X174800994Y-98945654D02*
X174705756Y-98993273D01*
X174705756Y-98993273D02*
X174467661Y-98993273D01*
X174467661Y-98993273D02*
X174372423Y-98945654D01*
X174372423Y-98945654D02*
X174324804Y-98898035D01*
X174324804Y-98898035D02*
X174277185Y-98802797D01*
X174277185Y-98802797D02*
X174277185Y-98612321D01*
X174277185Y-98612321D02*
X174324804Y-98517083D01*
X174324804Y-98517083D02*
X174372423Y-98469464D01*
X174372423Y-98469464D02*
X174467661Y-98421845D01*
X173896233Y-99850416D02*
X173896233Y-99659940D01*
X173896233Y-99659940D02*
X173943852Y-99564702D01*
X173943852Y-99564702D02*
X173991471Y-99517083D01*
X173991471Y-99517083D02*
X174134328Y-99421845D01*
X174134328Y-99421845D02*
X174324804Y-99374226D01*
X174324804Y-99374226D02*
X174705756Y-99374226D01*
X174705756Y-99374226D02*
X174800994Y-99421845D01*
X174800994Y-99421845D02*
X174848614Y-99469464D01*
X174848614Y-99469464D02*
X174896233Y-99564702D01*
X174896233Y-99564702D02*
X174896233Y-99755178D01*
X174896233Y-99755178D02*
X174848614Y-99850416D01*
X174848614Y-99850416D02*
X174800994Y-99898035D01*
X174800994Y-99898035D02*
X174705756Y-99945654D01*
X174705756Y-99945654D02*
X174467661Y-99945654D01*
X174467661Y-99945654D02*
X174372423Y-99898035D01*
X174372423Y-99898035D02*
X174324804Y-99850416D01*
X174324804Y-99850416D02*
X174277185Y-99755178D01*
X174277185Y-99755178D02*
X174277185Y-99564702D01*
X174277185Y-99564702D02*
X174324804Y-99469464D01*
X174324804Y-99469464D02*
X174372423Y-99421845D01*
X174372423Y-99421845D02*
X174467661Y-99374226D01*
X218521233Y-48360714D02*
X217521233Y-48360714D01*
X217521233Y-48360714D02*
X217521233Y-48598809D01*
X217521233Y-48598809D02*
X217568852Y-48741666D01*
X217568852Y-48741666D02*
X217664090Y-48836904D01*
X217664090Y-48836904D02*
X217759328Y-48884523D01*
X217759328Y-48884523D02*
X217949804Y-48932142D01*
X217949804Y-48932142D02*
X218092661Y-48932142D01*
X218092661Y-48932142D02*
X218283137Y-48884523D01*
X218283137Y-48884523D02*
X218378375Y-48836904D01*
X218378375Y-48836904D02*
X218473614Y-48741666D01*
X218473614Y-48741666D02*
X218521233Y-48598809D01*
X218521233Y-48598809D02*
X218521233Y-48360714D01*
X217616471Y-49313095D02*
X217568852Y-49360714D01*
X217568852Y-49360714D02*
X217521233Y-49455952D01*
X217521233Y-49455952D02*
X217521233Y-49694047D01*
X217521233Y-49694047D02*
X217568852Y-49789285D01*
X217568852Y-49789285D02*
X217616471Y-49836904D01*
X217616471Y-49836904D02*
X217711709Y-49884523D01*
X217711709Y-49884523D02*
X217806947Y-49884523D01*
X217806947Y-49884523D02*
X217949804Y-49836904D01*
X217949804Y-49836904D02*
X218521233Y-49265476D01*
X218521233Y-49265476D02*
X218521233Y-49884523D01*
X217521233Y-50217857D02*
X217521233Y-50884523D01*
X217521233Y-50884523D02*
X218521233Y-50455952D01*
X333076666Y-71738064D02*
X333124285Y-71785684D01*
X333124285Y-71785684D02*
X333267142Y-71833303D01*
X333267142Y-71833303D02*
X333362380Y-71833303D01*
X333362380Y-71833303D02*
X333505237Y-71785684D01*
X333505237Y-71785684D02*
X333600475Y-71690445D01*
X333600475Y-71690445D02*
X333648094Y-71595207D01*
X333648094Y-71595207D02*
X333695713Y-71404731D01*
X333695713Y-71404731D02*
X333695713Y-71261874D01*
X333695713Y-71261874D02*
X333648094Y-71071398D01*
X333648094Y-71071398D02*
X333600475Y-70976160D01*
X333600475Y-70976160D02*
X333505237Y-70880922D01*
X333505237Y-70880922D02*
X333362380Y-70833303D01*
X333362380Y-70833303D02*
X333267142Y-70833303D01*
X333267142Y-70833303D02*
X333124285Y-70880922D01*
X333124285Y-70880922D02*
X333076666Y-70928541D01*
X332219523Y-70833303D02*
X332409999Y-70833303D01*
X332409999Y-70833303D02*
X332505237Y-70880922D01*
X332505237Y-70880922D02*
X332552856Y-70928541D01*
X332552856Y-70928541D02*
X332648094Y-71071398D01*
X332648094Y-71071398D02*
X332695713Y-71261874D01*
X332695713Y-71261874D02*
X332695713Y-71642826D01*
X332695713Y-71642826D02*
X332648094Y-71738064D01*
X332648094Y-71738064D02*
X332600475Y-71785684D01*
X332600475Y-71785684D02*
X332505237Y-71833303D01*
X332505237Y-71833303D02*
X332314761Y-71833303D01*
X332314761Y-71833303D02*
X332219523Y-71785684D01*
X332219523Y-71785684D02*
X332171904Y-71738064D01*
X332171904Y-71738064D02*
X332124285Y-71642826D01*
X332124285Y-71642826D02*
X332124285Y-71404731D01*
X332124285Y-71404731D02*
X332171904Y-71309493D01*
X332171904Y-71309493D02*
X332219523Y-71261874D01*
X332219523Y-71261874D02*
X332314761Y-71214255D01*
X332314761Y-71214255D02*
X332505237Y-71214255D01*
X332505237Y-71214255D02*
X332600475Y-71261874D01*
X332600475Y-71261874D02*
X332648094Y-71309493D01*
X332648094Y-71309493D02*
X332695713Y-71404731D01*
X376021233Y-95623214D02*
X375021233Y-95623214D01*
X375021233Y-95623214D02*
X375021233Y-95861309D01*
X375021233Y-95861309D02*
X375068852Y-96004166D01*
X375068852Y-96004166D02*
X375164090Y-96099404D01*
X375164090Y-96099404D02*
X375259328Y-96147023D01*
X375259328Y-96147023D02*
X375449804Y-96194642D01*
X375449804Y-96194642D02*
X375592661Y-96194642D01*
X375592661Y-96194642D02*
X375783137Y-96147023D01*
X375783137Y-96147023D02*
X375878375Y-96099404D01*
X375878375Y-96099404D02*
X375973614Y-96004166D01*
X375973614Y-96004166D02*
X376021233Y-95861309D01*
X376021233Y-95861309D02*
X376021233Y-95623214D01*
X375021233Y-97051785D02*
X375021233Y-96861309D01*
X375021233Y-96861309D02*
X375068852Y-96766071D01*
X375068852Y-96766071D02*
X375116471Y-96718452D01*
X375116471Y-96718452D02*
X375259328Y-96623214D01*
X375259328Y-96623214D02*
X375449804Y-96575595D01*
X375449804Y-96575595D02*
X375830756Y-96575595D01*
X375830756Y-96575595D02*
X375925994Y-96623214D01*
X375925994Y-96623214D02*
X375973614Y-96670833D01*
X375973614Y-96670833D02*
X376021233Y-96766071D01*
X376021233Y-96766071D02*
X376021233Y-96956547D01*
X376021233Y-96956547D02*
X375973614Y-97051785D01*
X375973614Y-97051785D02*
X375925994Y-97099404D01*
X375925994Y-97099404D02*
X375830756Y-97147023D01*
X375830756Y-97147023D02*
X375592661Y-97147023D01*
X375592661Y-97147023D02*
X375497423Y-97099404D01*
X375497423Y-97099404D02*
X375449804Y-97051785D01*
X375449804Y-97051785D02*
X375402185Y-96956547D01*
X375402185Y-96956547D02*
X375402185Y-96766071D01*
X375402185Y-96766071D02*
X375449804Y-96670833D01*
X375449804Y-96670833D02*
X375497423Y-96623214D01*
X375497423Y-96623214D02*
X375592661Y-96575595D01*
X375021233Y-97480357D02*
X375021233Y-98099404D01*
X375021233Y-98099404D02*
X375402185Y-97766071D01*
X375402185Y-97766071D02*
X375402185Y-97908928D01*
X375402185Y-97908928D02*
X375449804Y-98004166D01*
X375449804Y-98004166D02*
X375497423Y-98051785D01*
X375497423Y-98051785D02*
X375592661Y-98099404D01*
X375592661Y-98099404D02*
X375830756Y-98099404D01*
X375830756Y-98099404D02*
X375925994Y-98051785D01*
X375925994Y-98051785D02*
X375973614Y-98004166D01*
X375973614Y-98004166D02*
X376021233Y-97908928D01*
X376021233Y-97908928D02*
X376021233Y-97623214D01*
X376021233Y-97623214D02*
X375973614Y-97527976D01*
X375973614Y-97527976D02*
X375925994Y-97480357D01*
X268558733Y-97469464D02*
X267558733Y-97469464D01*
X267558733Y-97469464D02*
X267558733Y-97707559D01*
X267558733Y-97707559D02*
X267606352Y-97850416D01*
X267606352Y-97850416D02*
X267701590Y-97945654D01*
X267701590Y-97945654D02*
X267796828Y-97993273D01*
X267796828Y-97993273D02*
X267987304Y-98040892D01*
X267987304Y-98040892D02*
X268130161Y-98040892D01*
X268130161Y-98040892D02*
X268320637Y-97993273D01*
X268320637Y-97993273D02*
X268415875Y-97945654D01*
X268415875Y-97945654D02*
X268511114Y-97850416D01*
X268511114Y-97850416D02*
X268558733Y-97707559D01*
X268558733Y-97707559D02*
X268558733Y-97469464D01*
X267558733Y-98898035D02*
X267558733Y-98707559D01*
X267558733Y-98707559D02*
X267606352Y-98612321D01*
X267606352Y-98612321D02*
X267653971Y-98564702D01*
X267653971Y-98564702D02*
X267796828Y-98469464D01*
X267796828Y-98469464D02*
X267987304Y-98421845D01*
X267987304Y-98421845D02*
X268368256Y-98421845D01*
X268368256Y-98421845D02*
X268463494Y-98469464D01*
X268463494Y-98469464D02*
X268511114Y-98517083D01*
X268511114Y-98517083D02*
X268558733Y-98612321D01*
X268558733Y-98612321D02*
X268558733Y-98802797D01*
X268558733Y-98802797D02*
X268511114Y-98898035D01*
X268511114Y-98898035D02*
X268463494Y-98945654D01*
X268463494Y-98945654D02*
X268368256Y-98993273D01*
X268368256Y-98993273D02*
X268130161Y-98993273D01*
X268130161Y-98993273D02*
X268034923Y-98945654D01*
X268034923Y-98945654D02*
X267987304Y-98898035D01*
X267987304Y-98898035D02*
X267939685Y-98802797D01*
X267939685Y-98802797D02*
X267939685Y-98612321D01*
X267939685Y-98612321D02*
X267987304Y-98517083D01*
X267987304Y-98517083D02*
X268034923Y-98469464D01*
X268034923Y-98469464D02*
X268130161Y-98421845D01*
X268558733Y-99469464D02*
X268558733Y-99659940D01*
X268558733Y-99659940D02*
X268511114Y-99755178D01*
X268511114Y-99755178D02*
X268463494Y-99802797D01*
X268463494Y-99802797D02*
X268320637Y-99898035D01*
X268320637Y-99898035D02*
X268130161Y-99945654D01*
X268130161Y-99945654D02*
X267749209Y-99945654D01*
X267749209Y-99945654D02*
X267653971Y-99898035D01*
X267653971Y-99898035D02*
X267606352Y-99850416D01*
X267606352Y-99850416D02*
X267558733Y-99755178D01*
X267558733Y-99755178D02*
X267558733Y-99564702D01*
X267558733Y-99564702D02*
X267606352Y-99469464D01*
X267606352Y-99469464D02*
X267653971Y-99421845D01*
X267653971Y-99421845D02*
X267749209Y-99374226D01*
X267749209Y-99374226D02*
X267987304Y-99374226D01*
X267987304Y-99374226D02*
X268082542Y-99421845D01*
X268082542Y-99421845D02*
X268130161Y-99469464D01*
X268130161Y-99469464D02*
X268177780Y-99564702D01*
X268177780Y-99564702D02*
X268177780Y-99755178D01*
X268177780Y-99755178D02*
X268130161Y-99850416D01*
X268130161Y-99850416D02*
X268082542Y-99898035D01*
X268082542Y-99898035D02*
X267987304Y-99945654D01*
X294721233Y-48360714D02*
X293721233Y-48360714D01*
X293721233Y-48360714D02*
X293721233Y-48598809D01*
X293721233Y-48598809D02*
X293768852Y-48741666D01*
X293768852Y-48741666D02*
X293864090Y-48836904D01*
X293864090Y-48836904D02*
X293959328Y-48884523D01*
X293959328Y-48884523D02*
X294149804Y-48932142D01*
X294149804Y-48932142D02*
X294292661Y-48932142D01*
X294292661Y-48932142D02*
X294483137Y-48884523D01*
X294483137Y-48884523D02*
X294578375Y-48836904D01*
X294578375Y-48836904D02*
X294673614Y-48741666D01*
X294673614Y-48741666D02*
X294721233Y-48598809D01*
X294721233Y-48598809D02*
X294721233Y-48360714D01*
X293721233Y-49265476D02*
X293721233Y-49884523D01*
X293721233Y-49884523D02*
X294102185Y-49551190D01*
X294102185Y-49551190D02*
X294102185Y-49694047D01*
X294102185Y-49694047D02*
X294149804Y-49789285D01*
X294149804Y-49789285D02*
X294197423Y-49836904D01*
X294197423Y-49836904D02*
X294292661Y-49884523D01*
X294292661Y-49884523D02*
X294530756Y-49884523D01*
X294530756Y-49884523D02*
X294625994Y-49836904D01*
X294625994Y-49836904D02*
X294673614Y-49789285D01*
X294673614Y-49789285D02*
X294721233Y-49694047D01*
X294721233Y-49694047D02*
X294721233Y-49408333D01*
X294721233Y-49408333D02*
X294673614Y-49313095D01*
X294673614Y-49313095D02*
X294625994Y-49265476D01*
X294721233Y-50836904D02*
X294721233Y-50265476D01*
X294721233Y-50551190D02*
X293721233Y-50551190D01*
X293721233Y-50551190D02*
X293864090Y-50455952D01*
X293864090Y-50455952D02*
X293959328Y-50360714D01*
X293959328Y-50360714D02*
X294006947Y-50265476D01*
X337076666Y-51929580D02*
X337124285Y-51977200D01*
X337124285Y-51977200D02*
X337267142Y-52024819D01*
X337267142Y-52024819D02*
X337362380Y-52024819D01*
X337362380Y-52024819D02*
X337505237Y-51977200D01*
X337505237Y-51977200D02*
X337600475Y-51881961D01*
X337600475Y-51881961D02*
X337648094Y-51786723D01*
X337648094Y-51786723D02*
X337695713Y-51596247D01*
X337695713Y-51596247D02*
X337695713Y-51453390D01*
X337695713Y-51453390D02*
X337648094Y-51262914D01*
X337648094Y-51262914D02*
X337600475Y-51167676D01*
X337600475Y-51167676D02*
X337505237Y-51072438D01*
X337505237Y-51072438D02*
X337362380Y-51024819D01*
X337362380Y-51024819D02*
X337267142Y-51024819D01*
X337267142Y-51024819D02*
X337124285Y-51072438D01*
X337124285Y-51072438D02*
X337076666Y-51120057D01*
X336695713Y-51120057D02*
X336648094Y-51072438D01*
X336648094Y-51072438D02*
X336552856Y-51024819D01*
X336552856Y-51024819D02*
X336314761Y-51024819D01*
X336314761Y-51024819D02*
X336219523Y-51072438D01*
X336219523Y-51072438D02*
X336171904Y-51120057D01*
X336171904Y-51120057D02*
X336124285Y-51215295D01*
X336124285Y-51215295D02*
X336124285Y-51310533D01*
X336124285Y-51310533D02*
X336171904Y-51453390D01*
X336171904Y-51453390D02*
X336743332Y-52024819D01*
X336743332Y-52024819D02*
X336124285Y-52024819D01*
X354283733Y-78419464D02*
X353283733Y-78419464D01*
X353283733Y-78419464D02*
X353283733Y-78657559D01*
X353283733Y-78657559D02*
X353331352Y-78800416D01*
X353331352Y-78800416D02*
X353426590Y-78895654D01*
X353426590Y-78895654D02*
X353521828Y-78943273D01*
X353521828Y-78943273D02*
X353712304Y-78990892D01*
X353712304Y-78990892D02*
X353855161Y-78990892D01*
X353855161Y-78990892D02*
X354045637Y-78943273D01*
X354045637Y-78943273D02*
X354140875Y-78895654D01*
X354140875Y-78895654D02*
X354236114Y-78800416D01*
X354236114Y-78800416D02*
X354283733Y-78657559D01*
X354283733Y-78657559D02*
X354283733Y-78419464D01*
X353283733Y-79895654D02*
X353283733Y-79419464D01*
X353283733Y-79419464D02*
X353759923Y-79371845D01*
X353759923Y-79371845D02*
X353712304Y-79419464D01*
X353712304Y-79419464D02*
X353664685Y-79514702D01*
X353664685Y-79514702D02*
X353664685Y-79752797D01*
X353664685Y-79752797D02*
X353712304Y-79848035D01*
X353712304Y-79848035D02*
X353759923Y-79895654D01*
X353759923Y-79895654D02*
X353855161Y-79943273D01*
X353855161Y-79943273D02*
X354093256Y-79943273D01*
X354093256Y-79943273D02*
X354188494Y-79895654D01*
X354188494Y-79895654D02*
X354236114Y-79848035D01*
X354236114Y-79848035D02*
X354283733Y-79752797D01*
X354283733Y-79752797D02*
X354283733Y-79514702D01*
X354283733Y-79514702D02*
X354236114Y-79419464D01*
X354236114Y-79419464D02*
X354188494Y-79371845D01*
X354283733Y-80895654D02*
X354283733Y-80324226D01*
X354283733Y-80609940D02*
X353283733Y-80609940D01*
X353283733Y-80609940D02*
X353426590Y-80514702D01*
X353426590Y-80514702D02*
X353521828Y-80419464D01*
X353521828Y-80419464D02*
X353569447Y-80324226D01*
X142411233Y-36880655D02*
X141411233Y-36880655D01*
X141411233Y-36880655D02*
X141411233Y-37118750D01*
X141411233Y-37118750D02*
X141458852Y-37261607D01*
X141458852Y-37261607D02*
X141554090Y-37356845D01*
X141554090Y-37356845D02*
X141649328Y-37404464D01*
X141649328Y-37404464D02*
X141839804Y-37452083D01*
X141839804Y-37452083D02*
X141982661Y-37452083D01*
X141982661Y-37452083D02*
X142173137Y-37404464D01*
X142173137Y-37404464D02*
X142268375Y-37356845D01*
X142268375Y-37356845D02*
X142363614Y-37261607D01*
X142363614Y-37261607D02*
X142411233Y-37118750D01*
X142411233Y-37118750D02*
X142411233Y-36880655D01*
X141411233Y-38356845D02*
X141411233Y-37880655D01*
X141411233Y-37880655D02*
X141887423Y-37833036D01*
X141887423Y-37833036D02*
X141839804Y-37880655D01*
X141839804Y-37880655D02*
X141792185Y-37975893D01*
X141792185Y-37975893D02*
X141792185Y-38213988D01*
X141792185Y-38213988D02*
X141839804Y-38309226D01*
X141839804Y-38309226D02*
X141887423Y-38356845D01*
X141887423Y-38356845D02*
X141982661Y-38404464D01*
X141982661Y-38404464D02*
X142220756Y-38404464D01*
X142220756Y-38404464D02*
X142315994Y-38356845D01*
X142315994Y-38356845D02*
X142363614Y-38309226D01*
X142363614Y-38309226D02*
X142411233Y-38213988D01*
X142411233Y-38213988D02*
X142411233Y-37975893D01*
X142411233Y-37975893D02*
X142363614Y-37880655D01*
X142363614Y-37880655D02*
X142315994Y-37833036D01*
X381836069Y-48360714D02*
X380836069Y-48360714D01*
X380836069Y-48360714D02*
X380836069Y-48598809D01*
X380836069Y-48598809D02*
X380883688Y-48741666D01*
X380883688Y-48741666D02*
X380978926Y-48836904D01*
X380978926Y-48836904D02*
X381074164Y-48884523D01*
X381074164Y-48884523D02*
X381264640Y-48932142D01*
X381264640Y-48932142D02*
X381407497Y-48932142D01*
X381407497Y-48932142D02*
X381597973Y-48884523D01*
X381597973Y-48884523D02*
X381693211Y-48836904D01*
X381693211Y-48836904D02*
X381788450Y-48741666D01*
X381788450Y-48741666D02*
X381836069Y-48598809D01*
X381836069Y-48598809D02*
X381836069Y-48360714D01*
X380836069Y-49265476D02*
X380836069Y-49884523D01*
X380836069Y-49884523D02*
X381217021Y-49551190D01*
X381217021Y-49551190D02*
X381217021Y-49694047D01*
X381217021Y-49694047D02*
X381264640Y-49789285D01*
X381264640Y-49789285D02*
X381312259Y-49836904D01*
X381312259Y-49836904D02*
X381407497Y-49884523D01*
X381407497Y-49884523D02*
X381645592Y-49884523D01*
X381645592Y-49884523D02*
X381740830Y-49836904D01*
X381740830Y-49836904D02*
X381788450Y-49789285D01*
X381788450Y-49789285D02*
X381836069Y-49694047D01*
X381836069Y-49694047D02*
X381836069Y-49408333D01*
X381836069Y-49408333D02*
X381788450Y-49313095D01*
X381788450Y-49313095D02*
X381740830Y-49265476D01*
X380836069Y-50789285D02*
X380836069Y-50313095D01*
X380836069Y-50313095D02*
X381312259Y-50265476D01*
X381312259Y-50265476D02*
X381264640Y-50313095D01*
X381264640Y-50313095D02*
X381217021Y-50408333D01*
X381217021Y-50408333D02*
X381217021Y-50646428D01*
X381217021Y-50646428D02*
X381264640Y-50741666D01*
X381264640Y-50741666D02*
X381312259Y-50789285D01*
X381312259Y-50789285D02*
X381407497Y-50836904D01*
X381407497Y-50836904D02*
X381645592Y-50836904D01*
X381645592Y-50836904D02*
X381740830Y-50789285D01*
X381740830Y-50789285D02*
X381788450Y-50741666D01*
X381788450Y-50741666D02*
X381836069Y-50646428D01*
X381836069Y-50646428D02*
X381836069Y-50408333D01*
X381836069Y-50408333D02*
X381788450Y-50313095D01*
X381788450Y-50313095D02*
X381740830Y-50265476D01*
X49483733Y-97469464D02*
X48483733Y-97469464D01*
X48483733Y-97469464D02*
X48483733Y-97707559D01*
X48483733Y-97707559D02*
X48531352Y-97850416D01*
X48531352Y-97850416D02*
X48626590Y-97945654D01*
X48626590Y-97945654D02*
X48721828Y-97993273D01*
X48721828Y-97993273D02*
X48912304Y-98040892D01*
X48912304Y-98040892D02*
X49055161Y-98040892D01*
X49055161Y-98040892D02*
X49245637Y-97993273D01*
X49245637Y-97993273D02*
X49340875Y-97945654D01*
X49340875Y-97945654D02*
X49436114Y-97850416D01*
X49436114Y-97850416D02*
X49483733Y-97707559D01*
X49483733Y-97707559D02*
X49483733Y-97469464D01*
X48483733Y-98945654D02*
X48483733Y-98469464D01*
X48483733Y-98469464D02*
X48959923Y-98421845D01*
X48959923Y-98421845D02*
X48912304Y-98469464D01*
X48912304Y-98469464D02*
X48864685Y-98564702D01*
X48864685Y-98564702D02*
X48864685Y-98802797D01*
X48864685Y-98802797D02*
X48912304Y-98898035D01*
X48912304Y-98898035D02*
X48959923Y-98945654D01*
X48959923Y-98945654D02*
X49055161Y-98993273D01*
X49055161Y-98993273D02*
X49293256Y-98993273D01*
X49293256Y-98993273D02*
X49388494Y-98945654D01*
X49388494Y-98945654D02*
X49436114Y-98898035D01*
X49436114Y-98898035D02*
X49483733Y-98802797D01*
X49483733Y-98802797D02*
X49483733Y-98564702D01*
X49483733Y-98564702D02*
X49436114Y-98469464D01*
X49436114Y-98469464D02*
X49388494Y-98421845D01*
X48817066Y-99850416D02*
X49483733Y-99850416D01*
X48436114Y-99612321D02*
X49150399Y-99374226D01*
X49150399Y-99374226D02*
X49150399Y-99993273D01*
X48171233Y-48360714D02*
X47171233Y-48360714D01*
X47171233Y-48360714D02*
X47171233Y-48598809D01*
X47171233Y-48598809D02*
X47218852Y-48741666D01*
X47218852Y-48741666D02*
X47314090Y-48836904D01*
X47314090Y-48836904D02*
X47409328Y-48884523D01*
X47409328Y-48884523D02*
X47599804Y-48932142D01*
X47599804Y-48932142D02*
X47742661Y-48932142D01*
X47742661Y-48932142D02*
X47933137Y-48884523D01*
X47933137Y-48884523D02*
X48028375Y-48836904D01*
X48028375Y-48836904D02*
X48123614Y-48741666D01*
X48123614Y-48741666D02*
X48171233Y-48598809D01*
X48171233Y-48598809D02*
X48171233Y-48360714D01*
X48171233Y-49884523D02*
X48171233Y-49313095D01*
X48171233Y-49598809D02*
X47171233Y-49598809D01*
X47171233Y-49598809D02*
X47314090Y-49503571D01*
X47314090Y-49503571D02*
X47409328Y-49408333D01*
X47409328Y-49408333D02*
X47456947Y-49313095D01*
X48171233Y-50360714D02*
X48171233Y-50551190D01*
X48171233Y-50551190D02*
X48123614Y-50646428D01*
X48123614Y-50646428D02*
X48075994Y-50694047D01*
X48075994Y-50694047D02*
X47933137Y-50789285D01*
X47933137Y-50789285D02*
X47742661Y-50836904D01*
X47742661Y-50836904D02*
X47361709Y-50836904D01*
X47361709Y-50836904D02*
X47266471Y-50789285D01*
X47266471Y-50789285D02*
X47218852Y-50741666D01*
X47218852Y-50741666D02*
X47171233Y-50646428D01*
X47171233Y-50646428D02*
X47171233Y-50455952D01*
X47171233Y-50455952D02*
X47218852Y-50360714D01*
X47218852Y-50360714D02*
X47266471Y-50313095D01*
X47266471Y-50313095D02*
X47361709Y-50265476D01*
X47361709Y-50265476D02*
X47599804Y-50265476D01*
X47599804Y-50265476D02*
X47695042Y-50313095D01*
X47695042Y-50313095D02*
X47742661Y-50360714D01*
X47742661Y-50360714D02*
X47790280Y-50455952D01*
X47790280Y-50455952D02*
X47790280Y-50646428D01*
X47790280Y-50646428D02*
X47742661Y-50741666D01*
X47742661Y-50741666D02*
X47695042Y-50789285D01*
X47695042Y-50789285D02*
X47599804Y-50836904D01*
X211408733Y-78419464D02*
X210408733Y-78419464D01*
X210408733Y-78419464D02*
X210408733Y-78657559D01*
X210408733Y-78657559D02*
X210456352Y-78800416D01*
X210456352Y-78800416D02*
X210551590Y-78895654D01*
X210551590Y-78895654D02*
X210646828Y-78943273D01*
X210646828Y-78943273D02*
X210837304Y-78990892D01*
X210837304Y-78990892D02*
X210980161Y-78990892D01*
X210980161Y-78990892D02*
X211170637Y-78943273D01*
X211170637Y-78943273D02*
X211265875Y-78895654D01*
X211265875Y-78895654D02*
X211361114Y-78800416D01*
X211361114Y-78800416D02*
X211408733Y-78657559D01*
X211408733Y-78657559D02*
X211408733Y-78419464D01*
X210742066Y-79848035D02*
X211408733Y-79848035D01*
X210361114Y-79609940D02*
X211075399Y-79371845D01*
X211075399Y-79371845D02*
X211075399Y-79990892D01*
X210408733Y-80276607D02*
X210408733Y-80895654D01*
X210408733Y-80895654D02*
X210789685Y-80562321D01*
X210789685Y-80562321D02*
X210789685Y-80705178D01*
X210789685Y-80705178D02*
X210837304Y-80800416D01*
X210837304Y-80800416D02*
X210884923Y-80848035D01*
X210884923Y-80848035D02*
X210980161Y-80895654D01*
X210980161Y-80895654D02*
X211218256Y-80895654D01*
X211218256Y-80895654D02*
X211313494Y-80848035D01*
X211313494Y-80848035D02*
X211361114Y-80800416D01*
X211361114Y-80800416D02*
X211408733Y-80705178D01*
X211408733Y-80705178D02*
X211408733Y-80419464D01*
X211408733Y-80419464D02*
X211361114Y-80324226D01*
X211361114Y-80324226D02*
X211313494Y-80276607D01*
X275761233Y-36404464D02*
X274761233Y-36404464D01*
X274761233Y-36404464D02*
X274761233Y-36642559D01*
X274761233Y-36642559D02*
X274808852Y-36785416D01*
X274808852Y-36785416D02*
X274904090Y-36880654D01*
X274904090Y-36880654D02*
X274999328Y-36928273D01*
X274999328Y-36928273D02*
X275189804Y-36975892D01*
X275189804Y-36975892D02*
X275332661Y-36975892D01*
X275332661Y-36975892D02*
X275523137Y-36928273D01*
X275523137Y-36928273D02*
X275618375Y-36880654D01*
X275618375Y-36880654D02*
X275713614Y-36785416D01*
X275713614Y-36785416D02*
X275761233Y-36642559D01*
X275761233Y-36642559D02*
X275761233Y-36404464D01*
X275761233Y-37928273D02*
X275761233Y-37356845D01*
X275761233Y-37642559D02*
X274761233Y-37642559D01*
X274761233Y-37642559D02*
X274904090Y-37547321D01*
X274904090Y-37547321D02*
X274999328Y-37452083D01*
X274999328Y-37452083D02*
X275046947Y-37356845D01*
X274856471Y-38309226D02*
X274808852Y-38356845D01*
X274808852Y-38356845D02*
X274761233Y-38452083D01*
X274761233Y-38452083D02*
X274761233Y-38690178D01*
X274761233Y-38690178D02*
X274808852Y-38785416D01*
X274808852Y-38785416D02*
X274856471Y-38833035D01*
X274856471Y-38833035D02*
X274951709Y-38880654D01*
X274951709Y-38880654D02*
X275046947Y-38880654D01*
X275046947Y-38880654D02*
X275189804Y-38833035D01*
X275189804Y-38833035D02*
X275761233Y-38261607D01*
X275761233Y-38261607D02*
X275761233Y-38880654D01*
X330471233Y-40319464D02*
X329471233Y-40319464D01*
X329471233Y-40319464D02*
X329471233Y-40557559D01*
X329471233Y-40557559D02*
X329518852Y-40700416D01*
X329518852Y-40700416D02*
X329614090Y-40795654D01*
X329614090Y-40795654D02*
X329709328Y-40843273D01*
X329709328Y-40843273D02*
X329899804Y-40890892D01*
X329899804Y-40890892D02*
X330042661Y-40890892D01*
X330042661Y-40890892D02*
X330233137Y-40843273D01*
X330233137Y-40843273D02*
X330328375Y-40795654D01*
X330328375Y-40795654D02*
X330423614Y-40700416D01*
X330423614Y-40700416D02*
X330471233Y-40557559D01*
X330471233Y-40557559D02*
X330471233Y-40319464D01*
X330471233Y-41843273D02*
X330471233Y-41271845D01*
X330471233Y-41557559D02*
X329471233Y-41557559D01*
X329471233Y-41557559D02*
X329614090Y-41462321D01*
X329614090Y-41462321D02*
X329709328Y-41367083D01*
X329709328Y-41367083D02*
X329756947Y-41271845D01*
X329471233Y-42748035D02*
X329471233Y-42271845D01*
X329471233Y-42271845D02*
X329947423Y-42224226D01*
X329947423Y-42224226D02*
X329899804Y-42271845D01*
X329899804Y-42271845D02*
X329852185Y-42367083D01*
X329852185Y-42367083D02*
X329852185Y-42605178D01*
X329852185Y-42605178D02*
X329899804Y-42700416D01*
X329899804Y-42700416D02*
X329947423Y-42748035D01*
X329947423Y-42748035D02*
X330042661Y-42795654D01*
X330042661Y-42795654D02*
X330280756Y-42795654D01*
X330280756Y-42795654D02*
X330375994Y-42748035D01*
X330375994Y-42748035D02*
X330423614Y-42700416D01*
X330423614Y-42700416D02*
X330471233Y-42605178D01*
X330471233Y-42605178D02*
X330471233Y-42367083D01*
X330471233Y-42367083D02*
X330423614Y-42271845D01*
X330423614Y-42271845D02*
X330375994Y-42224226D01*
X330471233Y-97469464D02*
X329471233Y-97469464D01*
X329471233Y-97469464D02*
X329471233Y-97707559D01*
X329471233Y-97707559D02*
X329518852Y-97850416D01*
X329518852Y-97850416D02*
X329614090Y-97945654D01*
X329614090Y-97945654D02*
X329709328Y-97993273D01*
X329709328Y-97993273D02*
X329899804Y-98040892D01*
X329899804Y-98040892D02*
X330042661Y-98040892D01*
X330042661Y-98040892D02*
X330233137Y-97993273D01*
X330233137Y-97993273D02*
X330328375Y-97945654D01*
X330328375Y-97945654D02*
X330423614Y-97850416D01*
X330423614Y-97850416D02*
X330471233Y-97707559D01*
X330471233Y-97707559D02*
X330471233Y-97469464D01*
X329471233Y-98898035D02*
X329471233Y-98707559D01*
X329471233Y-98707559D02*
X329518852Y-98612321D01*
X329518852Y-98612321D02*
X329566471Y-98564702D01*
X329566471Y-98564702D02*
X329709328Y-98469464D01*
X329709328Y-98469464D02*
X329899804Y-98421845D01*
X329899804Y-98421845D02*
X330280756Y-98421845D01*
X330280756Y-98421845D02*
X330375994Y-98469464D01*
X330375994Y-98469464D02*
X330423614Y-98517083D01*
X330423614Y-98517083D02*
X330471233Y-98612321D01*
X330471233Y-98612321D02*
X330471233Y-98802797D01*
X330471233Y-98802797D02*
X330423614Y-98898035D01*
X330423614Y-98898035D02*
X330375994Y-98945654D01*
X330375994Y-98945654D02*
X330280756Y-98993273D01*
X330280756Y-98993273D02*
X330042661Y-98993273D01*
X330042661Y-98993273D02*
X329947423Y-98945654D01*
X329947423Y-98945654D02*
X329899804Y-98898035D01*
X329899804Y-98898035D02*
X329852185Y-98802797D01*
X329852185Y-98802797D02*
X329852185Y-98612321D01*
X329852185Y-98612321D02*
X329899804Y-98517083D01*
X329899804Y-98517083D02*
X329947423Y-98469464D01*
X329947423Y-98469464D02*
X330042661Y-98421845D01*
X330471233Y-99945654D02*
X330471233Y-99374226D01*
X330471233Y-99659940D02*
X329471233Y-99659940D01*
X329471233Y-99659940D02*
X329614090Y-99564702D01*
X329614090Y-99564702D02*
X329709328Y-99469464D01*
X329709328Y-99469464D02*
X329756947Y-99374226D01*
X333076994Y-72916921D02*
X333124613Y-72964541D01*
X333124613Y-72964541D02*
X333267470Y-73012160D01*
X333267470Y-73012160D02*
X333362708Y-73012160D01*
X333362708Y-73012160D02*
X333505565Y-72964541D01*
X333505565Y-72964541D02*
X333600803Y-72869302D01*
X333600803Y-72869302D02*
X333648422Y-72774064D01*
X333648422Y-72774064D02*
X333696041Y-72583588D01*
X333696041Y-72583588D02*
X333696041Y-72440731D01*
X333696041Y-72440731D02*
X333648422Y-72250255D01*
X333648422Y-72250255D02*
X333600803Y-72155017D01*
X333600803Y-72155017D02*
X333505565Y-72059779D01*
X333505565Y-72059779D02*
X333362708Y-72012160D01*
X333362708Y-72012160D02*
X333267470Y-72012160D01*
X333267470Y-72012160D02*
X333124613Y-72059779D01*
X333124613Y-72059779D02*
X333076994Y-72107398D01*
X332743660Y-72012160D02*
X332124613Y-72012160D01*
X332124613Y-72012160D02*
X332457946Y-72393112D01*
X332457946Y-72393112D02*
X332315089Y-72393112D01*
X332315089Y-72393112D02*
X332219851Y-72440731D01*
X332219851Y-72440731D02*
X332172232Y-72488350D01*
X332172232Y-72488350D02*
X332124613Y-72583588D01*
X332124613Y-72583588D02*
X332124613Y-72821683D01*
X332124613Y-72821683D02*
X332172232Y-72916921D01*
X332172232Y-72916921D02*
X332219851Y-72964541D01*
X332219851Y-72964541D02*
X332315089Y-73012160D01*
X332315089Y-73012160D02*
X332600803Y-73012160D01*
X332600803Y-73012160D02*
X332696041Y-72964541D01*
X332696041Y-72964541D02*
X332743660Y-72916921D01*
X237571233Y-48360714D02*
X236571233Y-48360714D01*
X236571233Y-48360714D02*
X236571233Y-48598809D01*
X236571233Y-48598809D02*
X236618852Y-48741666D01*
X236618852Y-48741666D02*
X236714090Y-48836904D01*
X236714090Y-48836904D02*
X236809328Y-48884523D01*
X236809328Y-48884523D02*
X236999804Y-48932142D01*
X236999804Y-48932142D02*
X237142661Y-48932142D01*
X237142661Y-48932142D02*
X237333137Y-48884523D01*
X237333137Y-48884523D02*
X237428375Y-48836904D01*
X237428375Y-48836904D02*
X237523614Y-48741666D01*
X237523614Y-48741666D02*
X237571233Y-48598809D01*
X237571233Y-48598809D02*
X237571233Y-48360714D01*
X236666471Y-49313095D02*
X236618852Y-49360714D01*
X236618852Y-49360714D02*
X236571233Y-49455952D01*
X236571233Y-49455952D02*
X236571233Y-49694047D01*
X236571233Y-49694047D02*
X236618852Y-49789285D01*
X236618852Y-49789285D02*
X236666471Y-49836904D01*
X236666471Y-49836904D02*
X236761709Y-49884523D01*
X236761709Y-49884523D02*
X236856947Y-49884523D01*
X236856947Y-49884523D02*
X236999804Y-49836904D01*
X236999804Y-49836904D02*
X237571233Y-49265476D01*
X237571233Y-49265476D02*
X237571233Y-49884523D01*
X236999804Y-50455952D02*
X236952185Y-50360714D01*
X236952185Y-50360714D02*
X236904566Y-50313095D01*
X236904566Y-50313095D02*
X236809328Y-50265476D01*
X236809328Y-50265476D02*
X236761709Y-50265476D01*
X236761709Y-50265476D02*
X236666471Y-50313095D01*
X236666471Y-50313095D02*
X236618852Y-50360714D01*
X236618852Y-50360714D02*
X236571233Y-50455952D01*
X236571233Y-50455952D02*
X236571233Y-50646428D01*
X236571233Y-50646428D02*
X236618852Y-50741666D01*
X236618852Y-50741666D02*
X236666471Y-50789285D01*
X236666471Y-50789285D02*
X236761709Y-50836904D01*
X236761709Y-50836904D02*
X236809328Y-50836904D01*
X236809328Y-50836904D02*
X236904566Y-50789285D01*
X236904566Y-50789285D02*
X236952185Y-50741666D01*
X236952185Y-50741666D02*
X236999804Y-50646428D01*
X236999804Y-50646428D02*
X236999804Y-50455952D01*
X236999804Y-50455952D02*
X237047423Y-50360714D01*
X237047423Y-50360714D02*
X237095042Y-50313095D01*
X237095042Y-50313095D02*
X237190280Y-50265476D01*
X237190280Y-50265476D02*
X237380756Y-50265476D01*
X237380756Y-50265476D02*
X237475994Y-50313095D01*
X237475994Y-50313095D02*
X237523614Y-50360714D01*
X237523614Y-50360714D02*
X237571233Y-50455952D01*
X237571233Y-50455952D02*
X237571233Y-50646428D01*
X237571233Y-50646428D02*
X237523614Y-50741666D01*
X237523614Y-50741666D02*
X237475994Y-50789285D01*
X237475994Y-50789285D02*
X237380756Y-50836904D01*
X237380756Y-50836904D02*
X237190280Y-50836904D01*
X237190280Y-50836904D02*
X237095042Y-50789285D01*
X237095042Y-50789285D02*
X237047423Y-50741666D01*
X237047423Y-50741666D02*
X236999804Y-50646428D01*
X68533733Y-97469464D02*
X67533733Y-97469464D01*
X67533733Y-97469464D02*
X67533733Y-97707559D01*
X67533733Y-97707559D02*
X67581352Y-97850416D01*
X67581352Y-97850416D02*
X67676590Y-97945654D01*
X67676590Y-97945654D02*
X67771828Y-97993273D01*
X67771828Y-97993273D02*
X67962304Y-98040892D01*
X67962304Y-98040892D02*
X68105161Y-98040892D01*
X68105161Y-98040892D02*
X68295637Y-97993273D01*
X68295637Y-97993273D02*
X68390875Y-97945654D01*
X68390875Y-97945654D02*
X68486114Y-97850416D01*
X68486114Y-97850416D02*
X68533733Y-97707559D01*
X68533733Y-97707559D02*
X68533733Y-97469464D01*
X67533733Y-98945654D02*
X67533733Y-98469464D01*
X67533733Y-98469464D02*
X68009923Y-98421845D01*
X68009923Y-98421845D02*
X67962304Y-98469464D01*
X67962304Y-98469464D02*
X67914685Y-98564702D01*
X67914685Y-98564702D02*
X67914685Y-98802797D01*
X67914685Y-98802797D02*
X67962304Y-98898035D01*
X67962304Y-98898035D02*
X68009923Y-98945654D01*
X68009923Y-98945654D02*
X68105161Y-98993273D01*
X68105161Y-98993273D02*
X68343256Y-98993273D01*
X68343256Y-98993273D02*
X68438494Y-98945654D01*
X68438494Y-98945654D02*
X68486114Y-98898035D01*
X68486114Y-98898035D02*
X68533733Y-98802797D01*
X68533733Y-98802797D02*
X68533733Y-98564702D01*
X68533733Y-98564702D02*
X68486114Y-98469464D01*
X68486114Y-98469464D02*
X68438494Y-98421845D01*
X67533733Y-99898035D02*
X67533733Y-99421845D01*
X67533733Y-99421845D02*
X68009923Y-99374226D01*
X68009923Y-99374226D02*
X67962304Y-99421845D01*
X67962304Y-99421845D02*
X67914685Y-99517083D01*
X67914685Y-99517083D02*
X67914685Y-99755178D01*
X67914685Y-99755178D02*
X67962304Y-99850416D01*
X67962304Y-99850416D02*
X68009923Y-99898035D01*
X68009923Y-99898035D02*
X68105161Y-99945654D01*
X68105161Y-99945654D02*
X68343256Y-99945654D01*
X68343256Y-99945654D02*
X68438494Y-99898035D01*
X68438494Y-99898035D02*
X68486114Y-99850416D01*
X68486114Y-99850416D02*
X68533733Y-99755178D01*
X68533733Y-99755178D02*
X68533733Y-99517083D01*
X68533733Y-99517083D02*
X68486114Y-99421845D01*
X68486114Y-99421845D02*
X68438494Y-99374226D01*
X342057481Y-66131234D02*
X342105101Y-66083615D01*
X342105101Y-66083615D02*
X342152720Y-65940758D01*
X342152720Y-65940758D02*
X342152720Y-65845520D01*
X342152720Y-65845520D02*
X342105101Y-65702663D01*
X342105101Y-65702663D02*
X342009862Y-65607425D01*
X342009862Y-65607425D02*
X341914624Y-65559806D01*
X341914624Y-65559806D02*
X341724148Y-65512187D01*
X341724148Y-65512187D02*
X341581291Y-65512187D01*
X341581291Y-65512187D02*
X341390815Y-65559806D01*
X341390815Y-65559806D02*
X341295577Y-65607425D01*
X341295577Y-65607425D02*
X341200339Y-65702663D01*
X341200339Y-65702663D02*
X341152720Y-65845520D01*
X341152720Y-65845520D02*
X341152720Y-65940758D01*
X341152720Y-65940758D02*
X341200339Y-66083615D01*
X341200339Y-66083615D02*
X341247958Y-66131234D01*
X341152720Y-67035996D02*
X341152720Y-66559806D01*
X341152720Y-66559806D02*
X341628910Y-66512187D01*
X341628910Y-66512187D02*
X341581291Y-66559806D01*
X341581291Y-66559806D02*
X341533672Y-66655044D01*
X341533672Y-66655044D02*
X341533672Y-66893139D01*
X341533672Y-66893139D02*
X341581291Y-66988377D01*
X341581291Y-66988377D02*
X341628910Y-67035996D01*
X341628910Y-67035996D02*
X341724148Y-67083615D01*
X341724148Y-67083615D02*
X341962243Y-67083615D01*
X341962243Y-67083615D02*
X342057481Y-67035996D01*
X342057481Y-67035996D02*
X342105101Y-66988377D01*
X342105101Y-66988377D02*
X342152720Y-66893139D01*
X342152720Y-66893139D02*
X342152720Y-66655044D01*
X342152720Y-66655044D02*
X342105101Y-66559806D01*
X342105101Y-66559806D02*
X342057481Y-66512187D01*
X339251707Y-67489777D02*
X339585040Y-67013586D01*
X339823135Y-67489777D02*
X339823135Y-66489777D01*
X339823135Y-66489777D02*
X339442183Y-66489777D01*
X339442183Y-66489777D02*
X339346945Y-66537396D01*
X339346945Y-66537396D02*
X339299326Y-66585015D01*
X339299326Y-66585015D02*
X339251707Y-66680253D01*
X339251707Y-66680253D02*
X339251707Y-66823110D01*
X339251707Y-66823110D02*
X339299326Y-66918348D01*
X339299326Y-66918348D02*
X339346945Y-66965967D01*
X339346945Y-66965967D02*
X339442183Y-67013586D01*
X339442183Y-67013586D02*
X339823135Y-67013586D01*
X338299326Y-67489777D02*
X338870754Y-67489777D01*
X338585040Y-67489777D02*
X338585040Y-66489777D01*
X338585040Y-66489777D02*
X338680278Y-66632634D01*
X338680278Y-66632634D02*
X338775516Y-66727872D01*
X338775516Y-66727872D02*
X338870754Y-66775491D01*
X68533733Y-78419464D02*
X67533733Y-78419464D01*
X67533733Y-78419464D02*
X67533733Y-78657559D01*
X67533733Y-78657559D02*
X67581352Y-78800416D01*
X67581352Y-78800416D02*
X67676590Y-78895654D01*
X67676590Y-78895654D02*
X67771828Y-78943273D01*
X67771828Y-78943273D02*
X67962304Y-78990892D01*
X67962304Y-78990892D02*
X68105161Y-78990892D01*
X68105161Y-78990892D02*
X68295637Y-78943273D01*
X68295637Y-78943273D02*
X68390875Y-78895654D01*
X68390875Y-78895654D02*
X68486114Y-78800416D01*
X68486114Y-78800416D02*
X68533733Y-78657559D01*
X68533733Y-78657559D02*
X68533733Y-78419464D01*
X67533733Y-79324226D02*
X67533733Y-79943273D01*
X67533733Y-79943273D02*
X67914685Y-79609940D01*
X67914685Y-79609940D02*
X67914685Y-79752797D01*
X67914685Y-79752797D02*
X67962304Y-79848035D01*
X67962304Y-79848035D02*
X68009923Y-79895654D01*
X68009923Y-79895654D02*
X68105161Y-79943273D01*
X68105161Y-79943273D02*
X68343256Y-79943273D01*
X68343256Y-79943273D02*
X68438494Y-79895654D01*
X68438494Y-79895654D02*
X68486114Y-79848035D01*
X68486114Y-79848035D02*
X68533733Y-79752797D01*
X68533733Y-79752797D02*
X68533733Y-79467083D01*
X68533733Y-79467083D02*
X68486114Y-79371845D01*
X68486114Y-79371845D02*
X68438494Y-79324226D01*
X67533733Y-80276607D02*
X67533733Y-80943273D01*
X67533733Y-80943273D02*
X68533733Y-80514702D01*
X275671233Y-48360714D02*
X274671233Y-48360714D01*
X274671233Y-48360714D02*
X274671233Y-48598809D01*
X274671233Y-48598809D02*
X274718852Y-48741666D01*
X274718852Y-48741666D02*
X274814090Y-48836904D01*
X274814090Y-48836904D02*
X274909328Y-48884523D01*
X274909328Y-48884523D02*
X275099804Y-48932142D01*
X275099804Y-48932142D02*
X275242661Y-48932142D01*
X275242661Y-48932142D02*
X275433137Y-48884523D01*
X275433137Y-48884523D02*
X275528375Y-48836904D01*
X275528375Y-48836904D02*
X275623614Y-48741666D01*
X275623614Y-48741666D02*
X275671233Y-48598809D01*
X275671233Y-48598809D02*
X275671233Y-48360714D01*
X274671233Y-49265476D02*
X274671233Y-49884523D01*
X274671233Y-49884523D02*
X275052185Y-49551190D01*
X275052185Y-49551190D02*
X275052185Y-49694047D01*
X275052185Y-49694047D02*
X275099804Y-49789285D01*
X275099804Y-49789285D02*
X275147423Y-49836904D01*
X275147423Y-49836904D02*
X275242661Y-49884523D01*
X275242661Y-49884523D02*
X275480756Y-49884523D01*
X275480756Y-49884523D02*
X275575994Y-49836904D01*
X275575994Y-49836904D02*
X275623614Y-49789285D01*
X275623614Y-49789285D02*
X275671233Y-49694047D01*
X275671233Y-49694047D02*
X275671233Y-49408333D01*
X275671233Y-49408333D02*
X275623614Y-49313095D01*
X275623614Y-49313095D02*
X275575994Y-49265476D01*
X274671233Y-50503571D02*
X274671233Y-50598809D01*
X274671233Y-50598809D02*
X274718852Y-50694047D01*
X274718852Y-50694047D02*
X274766471Y-50741666D01*
X274766471Y-50741666D02*
X274861709Y-50789285D01*
X274861709Y-50789285D02*
X275052185Y-50836904D01*
X275052185Y-50836904D02*
X275290280Y-50836904D01*
X275290280Y-50836904D02*
X275480756Y-50789285D01*
X275480756Y-50789285D02*
X275575994Y-50741666D01*
X275575994Y-50741666D02*
X275623614Y-50694047D01*
X275623614Y-50694047D02*
X275671233Y-50598809D01*
X275671233Y-50598809D02*
X275671233Y-50503571D01*
X275671233Y-50503571D02*
X275623614Y-50408333D01*
X275623614Y-50408333D02*
X275575994Y-50360714D01*
X275575994Y-50360714D02*
X275480756Y-50313095D01*
X275480756Y-50313095D02*
X275290280Y-50265476D01*
X275290280Y-50265476D02*
X275052185Y-50265476D01*
X275052185Y-50265476D02*
X274861709Y-50313095D01*
X274861709Y-50313095D02*
X274766471Y-50360714D01*
X274766471Y-50360714D02*
X274718852Y-50408333D01*
X274718852Y-50408333D02*
X274671233Y-50503571D01*
X389445535Y-41117319D02*
X389445535Y-40117319D01*
X389445535Y-40117319D02*
X389207440Y-40117319D01*
X389207440Y-40117319D02*
X389064583Y-40164938D01*
X389064583Y-40164938D02*
X388969345Y-40260176D01*
X388969345Y-40260176D02*
X388921726Y-40355414D01*
X388921726Y-40355414D02*
X388874107Y-40545890D01*
X388874107Y-40545890D02*
X388874107Y-40688747D01*
X388874107Y-40688747D02*
X388921726Y-40879223D01*
X388921726Y-40879223D02*
X388969345Y-40974461D01*
X388969345Y-40974461D02*
X389064583Y-41069700D01*
X389064583Y-41069700D02*
X389207440Y-41117319D01*
X389207440Y-41117319D02*
X389445535Y-41117319D01*
X387921726Y-41117319D02*
X388493154Y-41117319D01*
X388207440Y-41117319D02*
X388207440Y-40117319D01*
X388207440Y-40117319D02*
X388302678Y-40260176D01*
X388302678Y-40260176D02*
X388397916Y-40355414D01*
X388397916Y-40355414D02*
X388493154Y-40403033D01*
X387350297Y-40545890D02*
X387445535Y-40498271D01*
X387445535Y-40498271D02*
X387493154Y-40450652D01*
X387493154Y-40450652D02*
X387540773Y-40355414D01*
X387540773Y-40355414D02*
X387540773Y-40307795D01*
X387540773Y-40307795D02*
X387493154Y-40212557D01*
X387493154Y-40212557D02*
X387445535Y-40164938D01*
X387445535Y-40164938D02*
X387350297Y-40117319D01*
X387350297Y-40117319D02*
X387159821Y-40117319D01*
X387159821Y-40117319D02*
X387064583Y-40164938D01*
X387064583Y-40164938D02*
X387016964Y-40212557D01*
X387016964Y-40212557D02*
X386969345Y-40307795D01*
X386969345Y-40307795D02*
X386969345Y-40355414D01*
X386969345Y-40355414D02*
X387016964Y-40450652D01*
X387016964Y-40450652D02*
X387064583Y-40498271D01*
X387064583Y-40498271D02*
X387159821Y-40545890D01*
X387159821Y-40545890D02*
X387350297Y-40545890D01*
X387350297Y-40545890D02*
X387445535Y-40593509D01*
X387445535Y-40593509D02*
X387493154Y-40641128D01*
X387493154Y-40641128D02*
X387540773Y-40736366D01*
X387540773Y-40736366D02*
X387540773Y-40926842D01*
X387540773Y-40926842D02*
X387493154Y-41022080D01*
X387493154Y-41022080D02*
X387445535Y-41069700D01*
X387445535Y-41069700D02*
X387350297Y-41117319D01*
X387350297Y-41117319D02*
X387159821Y-41117319D01*
X387159821Y-41117319D02*
X387064583Y-41069700D01*
X387064583Y-41069700D02*
X387016964Y-41022080D01*
X387016964Y-41022080D02*
X386969345Y-40926842D01*
X386969345Y-40926842D02*
X386969345Y-40736366D01*
X386969345Y-40736366D02*
X387016964Y-40641128D01*
X387016964Y-40641128D02*
X387064583Y-40593509D01*
X387064583Y-40593509D02*
X387159821Y-40545890D01*
X230458733Y-78419464D02*
X229458733Y-78419464D01*
X229458733Y-78419464D02*
X229458733Y-78657559D01*
X229458733Y-78657559D02*
X229506352Y-78800416D01*
X229506352Y-78800416D02*
X229601590Y-78895654D01*
X229601590Y-78895654D02*
X229696828Y-78943273D01*
X229696828Y-78943273D02*
X229887304Y-78990892D01*
X229887304Y-78990892D02*
X230030161Y-78990892D01*
X230030161Y-78990892D02*
X230220637Y-78943273D01*
X230220637Y-78943273D02*
X230315875Y-78895654D01*
X230315875Y-78895654D02*
X230411114Y-78800416D01*
X230411114Y-78800416D02*
X230458733Y-78657559D01*
X230458733Y-78657559D02*
X230458733Y-78419464D01*
X229792066Y-79848035D02*
X230458733Y-79848035D01*
X229411114Y-79609940D02*
X230125399Y-79371845D01*
X230125399Y-79371845D02*
X230125399Y-79990892D01*
X229792066Y-80800416D02*
X230458733Y-80800416D01*
X229411114Y-80562321D02*
X230125399Y-80324226D01*
X230125399Y-80324226D02*
X230125399Y-80943273D01*
X180421233Y-48360714D02*
X179421233Y-48360714D01*
X179421233Y-48360714D02*
X179421233Y-48598809D01*
X179421233Y-48598809D02*
X179468852Y-48741666D01*
X179468852Y-48741666D02*
X179564090Y-48836904D01*
X179564090Y-48836904D02*
X179659328Y-48884523D01*
X179659328Y-48884523D02*
X179849804Y-48932142D01*
X179849804Y-48932142D02*
X179992661Y-48932142D01*
X179992661Y-48932142D02*
X180183137Y-48884523D01*
X180183137Y-48884523D02*
X180278375Y-48836904D01*
X180278375Y-48836904D02*
X180373614Y-48741666D01*
X180373614Y-48741666D02*
X180421233Y-48598809D01*
X180421233Y-48598809D02*
X180421233Y-48360714D01*
X179516471Y-49313095D02*
X179468852Y-49360714D01*
X179468852Y-49360714D02*
X179421233Y-49455952D01*
X179421233Y-49455952D02*
X179421233Y-49694047D01*
X179421233Y-49694047D02*
X179468852Y-49789285D01*
X179468852Y-49789285D02*
X179516471Y-49836904D01*
X179516471Y-49836904D02*
X179611709Y-49884523D01*
X179611709Y-49884523D02*
X179706947Y-49884523D01*
X179706947Y-49884523D02*
X179849804Y-49836904D01*
X179849804Y-49836904D02*
X180421233Y-49265476D01*
X180421233Y-49265476D02*
X180421233Y-49884523D01*
X179421233Y-50789285D02*
X179421233Y-50313095D01*
X179421233Y-50313095D02*
X179897423Y-50265476D01*
X179897423Y-50265476D02*
X179849804Y-50313095D01*
X179849804Y-50313095D02*
X179802185Y-50408333D01*
X179802185Y-50408333D02*
X179802185Y-50646428D01*
X179802185Y-50646428D02*
X179849804Y-50741666D01*
X179849804Y-50741666D02*
X179897423Y-50789285D01*
X179897423Y-50789285D02*
X179992661Y-50836904D01*
X179992661Y-50836904D02*
X180230756Y-50836904D01*
X180230756Y-50836904D02*
X180325994Y-50789285D01*
X180325994Y-50789285D02*
X180373614Y-50741666D01*
X180373614Y-50741666D02*
X180421233Y-50646428D01*
X180421233Y-50646428D02*
X180421233Y-50408333D01*
X180421233Y-50408333D02*
X180373614Y-50313095D01*
X180373614Y-50313095D02*
X180325994Y-50265476D01*
X116158733Y-97469464D02*
X115158733Y-97469464D01*
X115158733Y-97469464D02*
X115158733Y-97707559D01*
X115158733Y-97707559D02*
X115206352Y-97850416D01*
X115206352Y-97850416D02*
X115301590Y-97945654D01*
X115301590Y-97945654D02*
X115396828Y-97993273D01*
X115396828Y-97993273D02*
X115587304Y-98040892D01*
X115587304Y-98040892D02*
X115730161Y-98040892D01*
X115730161Y-98040892D02*
X115920637Y-97993273D01*
X115920637Y-97993273D02*
X116015875Y-97945654D01*
X116015875Y-97945654D02*
X116111114Y-97850416D01*
X116111114Y-97850416D02*
X116158733Y-97707559D01*
X116158733Y-97707559D02*
X116158733Y-97469464D01*
X115158733Y-98945654D02*
X115158733Y-98469464D01*
X115158733Y-98469464D02*
X115634923Y-98421845D01*
X115634923Y-98421845D02*
X115587304Y-98469464D01*
X115587304Y-98469464D02*
X115539685Y-98564702D01*
X115539685Y-98564702D02*
X115539685Y-98802797D01*
X115539685Y-98802797D02*
X115587304Y-98898035D01*
X115587304Y-98898035D02*
X115634923Y-98945654D01*
X115634923Y-98945654D02*
X115730161Y-98993273D01*
X115730161Y-98993273D02*
X115968256Y-98993273D01*
X115968256Y-98993273D02*
X116063494Y-98945654D01*
X116063494Y-98945654D02*
X116111114Y-98898035D01*
X116111114Y-98898035D02*
X116158733Y-98802797D01*
X116158733Y-98802797D02*
X116158733Y-98564702D01*
X116158733Y-98564702D02*
X116111114Y-98469464D01*
X116111114Y-98469464D02*
X116063494Y-98421845D01*
X115158733Y-99326607D02*
X115158733Y-99993273D01*
X115158733Y-99993273D02*
X116158733Y-99564702D01*
X339390562Y-54281312D02*
X339438181Y-54328932D01*
X339438181Y-54328932D02*
X339581038Y-54376551D01*
X339581038Y-54376551D02*
X339676276Y-54376551D01*
X339676276Y-54376551D02*
X339819133Y-54328932D01*
X339819133Y-54328932D02*
X339914371Y-54233693D01*
X339914371Y-54233693D02*
X339961990Y-54138455D01*
X339961990Y-54138455D02*
X340009609Y-53947979D01*
X340009609Y-53947979D02*
X340009609Y-53805122D01*
X340009609Y-53805122D02*
X339961990Y-53614646D01*
X339961990Y-53614646D02*
X339914371Y-53519408D01*
X339914371Y-53519408D02*
X339819133Y-53424170D01*
X339819133Y-53424170D02*
X339676276Y-53376551D01*
X339676276Y-53376551D02*
X339581038Y-53376551D01*
X339581038Y-53376551D02*
X339438181Y-53424170D01*
X339438181Y-53424170D02*
X339390562Y-53471789D01*
X338438181Y-54376551D02*
X339009609Y-54376551D01*
X338723895Y-54376551D02*
X338723895Y-53376551D01*
X338723895Y-53376551D02*
X338819133Y-53519408D01*
X338819133Y-53519408D02*
X338914371Y-53614646D01*
X338914371Y-53614646D02*
X339009609Y-53662265D01*
X337819133Y-53376551D02*
X337723895Y-53376551D01*
X337723895Y-53376551D02*
X337628657Y-53424170D01*
X337628657Y-53424170D02*
X337581038Y-53471789D01*
X337581038Y-53471789D02*
X337533419Y-53567027D01*
X337533419Y-53567027D02*
X337485800Y-53757503D01*
X337485800Y-53757503D02*
X337485800Y-53995598D01*
X337485800Y-53995598D02*
X337533419Y-54186074D01*
X337533419Y-54186074D02*
X337581038Y-54281312D01*
X337581038Y-54281312D02*
X337628657Y-54328932D01*
X337628657Y-54328932D02*
X337723895Y-54376551D01*
X337723895Y-54376551D02*
X337819133Y-54376551D01*
X337819133Y-54376551D02*
X337914371Y-54328932D01*
X337914371Y-54328932D02*
X337961990Y-54281312D01*
X337961990Y-54281312D02*
X338009609Y-54186074D01*
X338009609Y-54186074D02*
X338057228Y-53995598D01*
X338057228Y-53995598D02*
X338057228Y-53757503D01*
X338057228Y-53757503D02*
X338009609Y-53567027D01*
X338009609Y-53567027D02*
X337961990Y-53471789D01*
X337961990Y-53471789D02*
X337914371Y-53424170D01*
X337914371Y-53424170D02*
X337819133Y-53376551D01*
X380279819Y-95623214D02*
X379279819Y-95623214D01*
X379279819Y-95623214D02*
X379279819Y-95861309D01*
X379279819Y-95861309D02*
X379327438Y-96004166D01*
X379327438Y-96004166D02*
X379422676Y-96099404D01*
X379422676Y-96099404D02*
X379517914Y-96147023D01*
X379517914Y-96147023D02*
X379708390Y-96194642D01*
X379708390Y-96194642D02*
X379851247Y-96194642D01*
X379851247Y-96194642D02*
X380041723Y-96147023D01*
X380041723Y-96147023D02*
X380136961Y-96099404D01*
X380136961Y-96099404D02*
X380232200Y-96004166D01*
X380232200Y-96004166D02*
X380279819Y-95861309D01*
X380279819Y-95861309D02*
X380279819Y-95623214D01*
X379279819Y-97051785D02*
X379279819Y-96861309D01*
X379279819Y-96861309D02*
X379327438Y-96766071D01*
X379327438Y-96766071D02*
X379375057Y-96718452D01*
X379375057Y-96718452D02*
X379517914Y-96623214D01*
X379517914Y-96623214D02*
X379708390Y-96575595D01*
X379708390Y-96575595D02*
X380089342Y-96575595D01*
X380089342Y-96575595D02*
X380184580Y-96623214D01*
X380184580Y-96623214D02*
X380232200Y-96670833D01*
X380232200Y-96670833D02*
X380279819Y-96766071D01*
X380279819Y-96766071D02*
X380279819Y-96956547D01*
X380279819Y-96956547D02*
X380232200Y-97051785D01*
X380232200Y-97051785D02*
X380184580Y-97099404D01*
X380184580Y-97099404D02*
X380089342Y-97147023D01*
X380089342Y-97147023D02*
X379851247Y-97147023D01*
X379851247Y-97147023D02*
X379756009Y-97099404D01*
X379756009Y-97099404D02*
X379708390Y-97051785D01*
X379708390Y-97051785D02*
X379660771Y-96956547D01*
X379660771Y-96956547D02*
X379660771Y-96766071D01*
X379660771Y-96766071D02*
X379708390Y-96670833D01*
X379708390Y-96670833D02*
X379756009Y-96623214D01*
X379756009Y-96623214D02*
X379851247Y-96575595D01*
X379613152Y-98004166D02*
X380279819Y-98004166D01*
X379232200Y-97766071D02*
X379946485Y-97527976D01*
X379946485Y-97527976D02*
X379946485Y-98147023D01*
X353489983Y-97469464D02*
X352489983Y-97469464D01*
X352489983Y-97469464D02*
X352489983Y-97707559D01*
X352489983Y-97707559D02*
X352537602Y-97850416D01*
X352537602Y-97850416D02*
X352632840Y-97945654D01*
X352632840Y-97945654D02*
X352728078Y-97993273D01*
X352728078Y-97993273D02*
X352918554Y-98040892D01*
X352918554Y-98040892D02*
X353061411Y-98040892D01*
X353061411Y-98040892D02*
X353251887Y-97993273D01*
X353251887Y-97993273D02*
X353347125Y-97945654D01*
X353347125Y-97945654D02*
X353442364Y-97850416D01*
X353442364Y-97850416D02*
X353489983Y-97707559D01*
X353489983Y-97707559D02*
X353489983Y-97469464D01*
X352489983Y-98898035D02*
X352489983Y-98707559D01*
X352489983Y-98707559D02*
X352537602Y-98612321D01*
X352537602Y-98612321D02*
X352585221Y-98564702D01*
X352585221Y-98564702D02*
X352728078Y-98469464D01*
X352728078Y-98469464D02*
X352918554Y-98421845D01*
X352918554Y-98421845D02*
X353299506Y-98421845D01*
X353299506Y-98421845D02*
X353394744Y-98469464D01*
X353394744Y-98469464D02*
X353442364Y-98517083D01*
X353442364Y-98517083D02*
X353489983Y-98612321D01*
X353489983Y-98612321D02*
X353489983Y-98802797D01*
X353489983Y-98802797D02*
X353442364Y-98898035D01*
X353442364Y-98898035D02*
X353394744Y-98945654D01*
X353394744Y-98945654D02*
X353299506Y-98993273D01*
X353299506Y-98993273D02*
X353061411Y-98993273D01*
X353061411Y-98993273D02*
X352966173Y-98945654D01*
X352966173Y-98945654D02*
X352918554Y-98898035D01*
X352918554Y-98898035D02*
X352870935Y-98802797D01*
X352870935Y-98802797D02*
X352870935Y-98612321D01*
X352870935Y-98612321D02*
X352918554Y-98517083D01*
X352918554Y-98517083D02*
X352966173Y-98469464D01*
X352966173Y-98469464D02*
X353061411Y-98421845D01*
X352585221Y-99374226D02*
X352537602Y-99421845D01*
X352537602Y-99421845D02*
X352489983Y-99517083D01*
X352489983Y-99517083D02*
X352489983Y-99755178D01*
X352489983Y-99755178D02*
X352537602Y-99850416D01*
X352537602Y-99850416D02*
X352585221Y-99898035D01*
X352585221Y-99898035D02*
X352680459Y-99945654D01*
X352680459Y-99945654D02*
X352775697Y-99945654D01*
X352775697Y-99945654D02*
X352918554Y-99898035D01*
X352918554Y-99898035D02*
X353489983Y-99326607D01*
X353489983Y-99326607D02*
X353489983Y-99945654D01*
X180511233Y-36880655D02*
X179511233Y-36880655D01*
X179511233Y-36880655D02*
X179511233Y-37118750D01*
X179511233Y-37118750D02*
X179558852Y-37261607D01*
X179558852Y-37261607D02*
X179654090Y-37356845D01*
X179654090Y-37356845D02*
X179749328Y-37404464D01*
X179749328Y-37404464D02*
X179939804Y-37452083D01*
X179939804Y-37452083D02*
X180082661Y-37452083D01*
X180082661Y-37452083D02*
X180273137Y-37404464D01*
X180273137Y-37404464D02*
X180368375Y-37356845D01*
X180368375Y-37356845D02*
X180463614Y-37261607D01*
X180463614Y-37261607D02*
X180511233Y-37118750D01*
X180511233Y-37118750D02*
X180511233Y-36880655D01*
X179511233Y-37785417D02*
X179511233Y-38452083D01*
X179511233Y-38452083D02*
X180511233Y-38023512D01*
X287608733Y-78419464D02*
X286608733Y-78419464D01*
X286608733Y-78419464D02*
X286608733Y-78657559D01*
X286608733Y-78657559D02*
X286656352Y-78800416D01*
X286656352Y-78800416D02*
X286751590Y-78895654D01*
X286751590Y-78895654D02*
X286846828Y-78943273D01*
X286846828Y-78943273D02*
X287037304Y-78990892D01*
X287037304Y-78990892D02*
X287180161Y-78990892D01*
X287180161Y-78990892D02*
X287370637Y-78943273D01*
X287370637Y-78943273D02*
X287465875Y-78895654D01*
X287465875Y-78895654D02*
X287561114Y-78800416D01*
X287561114Y-78800416D02*
X287608733Y-78657559D01*
X287608733Y-78657559D02*
X287608733Y-78419464D01*
X286942066Y-79848035D02*
X287608733Y-79848035D01*
X286561114Y-79609940D02*
X287275399Y-79371845D01*
X287275399Y-79371845D02*
X287275399Y-79990892D01*
X286608733Y-80276607D02*
X286608733Y-80943273D01*
X286608733Y-80943273D02*
X287608733Y-80514702D01*
X154258733Y-97469464D02*
X153258733Y-97469464D01*
X153258733Y-97469464D02*
X153258733Y-97707559D01*
X153258733Y-97707559D02*
X153306352Y-97850416D01*
X153306352Y-97850416D02*
X153401590Y-97945654D01*
X153401590Y-97945654D02*
X153496828Y-97993273D01*
X153496828Y-97993273D02*
X153687304Y-98040892D01*
X153687304Y-98040892D02*
X153830161Y-98040892D01*
X153830161Y-98040892D02*
X154020637Y-97993273D01*
X154020637Y-97993273D02*
X154115875Y-97945654D01*
X154115875Y-97945654D02*
X154211114Y-97850416D01*
X154211114Y-97850416D02*
X154258733Y-97707559D01*
X154258733Y-97707559D02*
X154258733Y-97469464D01*
X153258733Y-98898035D02*
X153258733Y-98707559D01*
X153258733Y-98707559D02*
X153306352Y-98612321D01*
X153306352Y-98612321D02*
X153353971Y-98564702D01*
X153353971Y-98564702D02*
X153496828Y-98469464D01*
X153496828Y-98469464D02*
X153687304Y-98421845D01*
X153687304Y-98421845D02*
X154068256Y-98421845D01*
X154068256Y-98421845D02*
X154163494Y-98469464D01*
X154163494Y-98469464D02*
X154211114Y-98517083D01*
X154211114Y-98517083D02*
X154258733Y-98612321D01*
X154258733Y-98612321D02*
X154258733Y-98802797D01*
X154258733Y-98802797D02*
X154211114Y-98898035D01*
X154211114Y-98898035D02*
X154163494Y-98945654D01*
X154163494Y-98945654D02*
X154068256Y-98993273D01*
X154068256Y-98993273D02*
X153830161Y-98993273D01*
X153830161Y-98993273D02*
X153734923Y-98945654D01*
X153734923Y-98945654D02*
X153687304Y-98898035D01*
X153687304Y-98898035D02*
X153639685Y-98802797D01*
X153639685Y-98802797D02*
X153639685Y-98612321D01*
X153639685Y-98612321D02*
X153687304Y-98517083D01*
X153687304Y-98517083D02*
X153734923Y-98469464D01*
X153734923Y-98469464D02*
X153830161Y-98421845D01*
X153258733Y-99898035D02*
X153258733Y-99421845D01*
X153258733Y-99421845D02*
X153734923Y-99374226D01*
X153734923Y-99374226D02*
X153687304Y-99421845D01*
X153687304Y-99421845D02*
X153639685Y-99517083D01*
X153639685Y-99517083D02*
X153639685Y-99755178D01*
X153639685Y-99755178D02*
X153687304Y-99850416D01*
X153687304Y-99850416D02*
X153734923Y-99898035D01*
X153734923Y-99898035D02*
X153830161Y-99945654D01*
X153830161Y-99945654D02*
X154068256Y-99945654D01*
X154068256Y-99945654D02*
X154163494Y-99898035D01*
X154163494Y-99898035D02*
X154211114Y-99850416D01*
X154211114Y-99850416D02*
X154258733Y-99755178D01*
X154258733Y-99755178D02*
X154258733Y-99517083D01*
X154258733Y-99517083D02*
X154211114Y-99421845D01*
X154211114Y-99421845D02*
X154163494Y-99374226D01*
D11*
%TO.C,D4*%
X119906414Y-39978750D02*
X119906414Y-35968750D01*
X121906414Y-39978750D02*
X119906414Y-39978750D01*
X121906414Y-39978750D02*
X121906414Y-35968750D01*
%TO.C,D20*%
X68666414Y-47215000D02*
X68666414Y-51225000D01*
X66666414Y-47215000D02*
X68666414Y-47215000D01*
X66666414Y-47215000D02*
X66666414Y-51225000D01*
%TO.C,D49*%
X324635164Y-81993750D02*
X324635164Y-77983750D01*
X326635164Y-81993750D02*
X324635164Y-81993750D01*
X326635164Y-81993750D02*
X326635164Y-77983750D01*
%TO.C,D67*%
X207953914Y-101043750D02*
X207953914Y-97033750D01*
X209953914Y-101043750D02*
X207953914Y-101043750D01*
X209953914Y-101043750D02*
X209953914Y-97033750D01*
%TO.C,D39*%
X131753914Y-81993750D02*
X131753914Y-77983750D01*
X133753914Y-81993750D02*
X131753914Y-81993750D01*
X133753914Y-81993750D02*
X133753914Y-77983750D01*
%TO.C,D33*%
X354416414Y-47215000D02*
X354416414Y-51225000D01*
X352416414Y-47215000D02*
X354416414Y-47215000D01*
X352416414Y-47215000D02*
X352416414Y-51225000D01*
%TO.C,D58*%
X136516414Y-101043750D02*
X136516414Y-97033750D01*
X138516414Y-101043750D02*
X136516414Y-101043750D01*
X138516414Y-101043750D02*
X138516414Y-97033750D01*
%TO.C,D48*%
X303203914Y-81993750D02*
X303203914Y-77983750D01*
X305203914Y-81993750D02*
X303203914Y-81993750D01*
X305203914Y-81993750D02*
X305203914Y-77983750D01*
%TO.C,D38*%
X100797664Y-81993750D02*
X100797664Y-77983750D01*
X102797664Y-81993750D02*
X100797664Y-81993750D01*
X102797664Y-81993750D02*
X102797664Y-77983750D01*
%TO.C,D26*%
X202016414Y-47215000D02*
X202016414Y-51225000D01*
X200016414Y-47215000D02*
X202016414Y-47215000D01*
X200016414Y-47215000D02*
X200016414Y-51225000D01*
%TO.C,D60*%
X305585164Y-101043750D02*
X305585164Y-97033750D01*
X307585164Y-101043750D02*
X305585164Y-101043750D01*
X307585164Y-101043750D02*
X307585164Y-97033750D01*
%TO.C,D45*%
X246053914Y-81993750D02*
X246053914Y-77983750D01*
X248053914Y-81993750D02*
X246053914Y-81993750D01*
X248053914Y-81993750D02*
X248053914Y-77983750D01*
%TO.C,D46*%
X265103914Y-81993750D02*
X265103914Y-77983750D01*
X267103914Y-81993750D02*
X265103914Y-81993750D01*
X267103914Y-81993750D02*
X267103914Y-77983750D01*
%TO.C,C4*%
X338827836Y-56590000D02*
X338612164Y-56590000D01*
X338827836Y-55870000D02*
X338612164Y-55870000D01*
%TO.C,D52*%
X369878914Y-81993750D02*
X369878914Y-77983750D01*
X371878914Y-81993750D02*
X369878914Y-81993750D01*
X371878914Y-81993750D02*
X371878914Y-77983750D01*
%TO.C,D53*%
X379206250Y-81993750D02*
X379206250Y-77983750D01*
X381206250Y-81993750D02*
X379206250Y-81993750D01*
X381206250Y-81993750D02*
X381206250Y-77983750D01*
%TO.C,SW2*%
X336345102Y-73232848D02*
X338345102Y-73232848D01*
X339645102Y-74282848D02*
X340095102Y-74732848D01*
X335045102Y-74282848D02*
X334595102Y-74732848D01*
X340095102Y-74732848D02*
X340095102Y-77232848D01*
X334595102Y-74732848D02*
X334595102Y-77232848D01*
X339645102Y-77682848D02*
X340095102Y-77232848D01*
X335045102Y-77682848D02*
X334595102Y-77232848D01*
X336345102Y-78732848D02*
X338345102Y-78732848D01*
%TO.C,U2*%
X338070000Y-54270000D02*
X338870000Y-54270000D01*
X338070000Y-54270000D02*
X337270000Y-54270000D01*
X338070000Y-51150000D02*
X339870000Y-51150000D01*
X338070000Y-51150000D02*
X337270000Y-51150000D01*
%TO.C,D11*%
X253256414Y-39978750D02*
X253256414Y-35968750D01*
X255256414Y-39978750D02*
X253256414Y-39978750D01*
X255256414Y-39978750D02*
X255256414Y-35968750D01*
%TO.C,C9*%
X328058720Y-59526912D02*
X327843048Y-59526912D01*
X328058720Y-58806912D02*
X327843048Y-58806912D01*
%TO.C,D1*%
X48468914Y-39978750D02*
X48468914Y-35968750D01*
X50468914Y-39978750D02*
X48468914Y-39978750D01*
X50468914Y-39978750D02*
X50468914Y-35968750D01*
%TO.C,D32*%
X323460164Y-47215000D02*
X323460164Y-51225000D01*
X321460164Y-47215000D02*
X323460164Y-47215000D01*
X321460164Y-47215000D02*
X321460164Y-51225000D01*
%TO.C,D13*%
X291356414Y-39978750D02*
X291356414Y-35968750D01*
X293356414Y-39978750D02*
X291356414Y-39978750D01*
X293356414Y-39978750D02*
X293356414Y-35968750D01*
%TO.C,D34*%
X373466414Y-47215000D02*
X373466414Y-51225000D01*
X371466414Y-47215000D02*
X373466414Y-47215000D01*
X371466414Y-47215000D02*
X371466414Y-51225000D01*
%TO.C,D42*%
X188903914Y-81993750D02*
X188903914Y-77983750D01*
X190903914Y-81993750D02*
X188903914Y-81993750D01*
X190903914Y-81993750D02*
X190903914Y-77983750D01*
%TO.C,SW1*%
X338350000Y-87800000D02*
X336350000Y-87800000D01*
X335050000Y-86750000D02*
X334600000Y-86300000D01*
X339650000Y-86750000D02*
X340100000Y-86300000D01*
X334600000Y-86300000D02*
X334600000Y-83800000D01*
X340100000Y-86300000D02*
X340100000Y-83800000D01*
X335050000Y-83350000D02*
X334600000Y-83800000D01*
X339650000Y-83350000D02*
X340100000Y-83800000D01*
X338350000Y-82300000D02*
X336350000Y-82300000D01*
%TO.C,D56*%
X91272664Y-101043750D02*
X91272664Y-97033750D01*
X93272664Y-101043750D02*
X91272664Y-101043750D01*
X93272664Y-101043750D02*
X93272664Y-97033750D01*
%TO.C,D22*%
X125816414Y-47215000D02*
X125816414Y-51225000D01*
X123816414Y-47215000D02*
X125816414Y-47215000D01*
X123816414Y-47215000D02*
X123816414Y-51225000D01*
%TO.C,D68*%
X228591414Y-101043750D02*
X228591414Y-97033750D01*
X230591414Y-101043750D02*
X228591414Y-101043750D01*
X230591414Y-101043750D02*
X230591414Y-97033750D01*
%TO.C,D59*%
X284153914Y-101043750D02*
X284153914Y-97033750D01*
X286153914Y-101043750D02*
X284153914Y-101043750D01*
X286153914Y-101043750D02*
X286153914Y-97033750D01*
%TO.C,D9*%
X215156414Y-39978750D02*
X215156414Y-35968750D01*
X217156414Y-39978750D02*
X215156414Y-39978750D01*
X217156414Y-39978750D02*
X217156414Y-35968750D01*
%TO.C,D24*%
X163916414Y-47215000D02*
X163916414Y-51225000D01*
X161916414Y-47215000D02*
X163916414Y-47215000D01*
X161916414Y-47215000D02*
X161916414Y-51225000D01*
%TO.C,D3*%
X96093914Y-39978750D02*
X96093914Y-35968750D01*
X98093914Y-39978750D02*
X96093914Y-39978750D01*
X98093914Y-39978750D02*
X98093914Y-35968750D01*
%TO.C,D16*%
X353268914Y-39978750D02*
X353268914Y-35968750D01*
X355268914Y-39978750D02*
X353268914Y-39978750D01*
X355268914Y-39978750D02*
X355268914Y-35968750D01*
%TO.C,D17*%
X372318914Y-39978750D02*
X372318914Y-35968750D01*
X374318914Y-39978750D02*
X372318914Y-39978750D01*
X374318914Y-39978750D02*
X374318914Y-35968750D01*
%TO.C,D10*%
X234206414Y-39978750D02*
X234206414Y-35968750D01*
X236206414Y-39978750D02*
X234206414Y-39978750D01*
X236206414Y-39978750D02*
X236206414Y-35968750D01*
%TO.C,D40*%
X150803914Y-82056250D02*
X150803914Y-78046250D01*
X152803914Y-82056250D02*
X150803914Y-82056250D01*
X152803914Y-82056250D02*
X152803914Y-78046250D01*
%TO.C,D41*%
X169853914Y-81993750D02*
X169853914Y-77983750D01*
X171853914Y-81993750D02*
X169853914Y-81993750D01*
X171853914Y-81993750D02*
X171853914Y-77983750D01*
%TO.C,D8*%
X196106414Y-39978750D02*
X196106414Y-35968750D01*
X198106414Y-39978750D02*
X196106414Y-39978750D01*
X198106414Y-39978750D02*
X198106414Y-35968750D01*
%TO.C,D6*%
X158006414Y-39978750D02*
X158006414Y-35968750D01*
X160006414Y-39978750D02*
X158006414Y-39978750D01*
X160006414Y-39978750D02*
X160006414Y-35968750D01*
%TO.C,U1*%
X330485100Y-67555348D02*
X330935100Y-67555348D01*
X337255100Y-67555348D02*
X337255100Y-68845348D01*
X337705100Y-67555348D02*
X337255100Y-67555348D01*
X330485100Y-67105348D02*
X330485100Y-67555348D01*
X337705100Y-67105348D02*
X337705100Y-67555348D01*
X330485100Y-60785348D02*
X330485100Y-60335348D01*
X337705100Y-60785348D02*
X337705100Y-60335348D01*
X330485100Y-60335348D02*
X330935100Y-60335348D01*
X337705100Y-60335348D02*
X337255100Y-60335348D01*
%TO.C,C1*%
X335052205Y-69829958D02*
X335267877Y-69829958D01*
X335052205Y-70549958D02*
X335267877Y-70549958D01*
%TO.C,D2*%
X67518914Y-39978750D02*
X67518914Y-35968750D01*
X69518914Y-39978750D02*
X67518914Y-39978750D01*
X69518914Y-39978750D02*
X69518914Y-35968750D01*
%TO.C,C8*%
X328087838Y-60630001D02*
X327872166Y-60630001D01*
X328087838Y-59910001D02*
X327872166Y-59910001D01*
%TO.C,D21*%
X99622664Y-47215000D02*
X99622664Y-51225000D01*
X97622664Y-47215000D02*
X99622664Y-47215000D01*
X97622664Y-47215000D02*
X97622664Y-51225000D01*
%TO.C,D29*%
X259166414Y-47215000D02*
X259166414Y-51225000D01*
X257166414Y-47215000D02*
X259166414Y-47215000D01*
X257166414Y-47215000D02*
X257166414Y-51225000D01*
%TO.C,D14*%
X306378914Y-43893750D02*
X306378914Y-39883750D01*
X308378914Y-43893750D02*
X306378914Y-43893750D01*
X308378914Y-43893750D02*
X308378914Y-39883750D01*
%TO.C,D36*%
X46028914Y-81993750D02*
X46028914Y-77983750D01*
X48028914Y-81993750D02*
X46028914Y-81993750D01*
X48028914Y-81993750D02*
X48028914Y-77983750D01*
%TO.C,C7*%
X338827838Y-57664800D02*
X338612166Y-57664800D01*
X338827838Y-56944800D02*
X338612166Y-56944800D01*
%TO.C,D23*%
X144866414Y-47215000D02*
X144866414Y-51225000D01*
X142866414Y-47215000D02*
X144866414Y-47215000D01*
X142866414Y-47215000D02*
X142866414Y-51225000D01*
%TO.C,D66*%
X171441414Y-101043750D02*
X171441414Y-97033750D01*
X173441414Y-101043750D02*
X171441414Y-101043750D01*
X173441414Y-101043750D02*
X173441414Y-97033750D01*
%TO.C,D27*%
X221066414Y-47215000D02*
X221066414Y-51225000D01*
X219066414Y-47215000D02*
X221066414Y-47215000D01*
X219066414Y-47215000D02*
X219066414Y-51225000D01*
%TO.C,C6*%
X332802164Y-69858484D02*
X333017836Y-69858484D01*
X332802164Y-70578484D02*
X333017836Y-70578484D01*
%TO.C,D63*%
X372566414Y-99197500D02*
X372566414Y-95187500D01*
X374566414Y-99197500D02*
X372566414Y-99197500D01*
X374566414Y-99197500D02*
X374566414Y-95187500D01*
%TO.C,D69*%
X265103914Y-101043750D02*
X265103914Y-97033750D01*
X267103914Y-101043750D02*
X265103914Y-101043750D01*
X267103914Y-101043750D02*
X267103914Y-97033750D01*
%TO.C,D31*%
X297266414Y-47215000D02*
X297266414Y-51225000D01*
X295266414Y-47215000D02*
X297266414Y-47215000D01*
X295266414Y-47215000D02*
X295266414Y-51225000D01*
%TO.C,C2*%
X336802164Y-50050000D02*
X337017836Y-50050000D01*
X336802164Y-50770000D02*
X337017836Y-50770000D01*
%TO.C,D51*%
X350828914Y-81993750D02*
X350828914Y-77983750D01*
X352828914Y-81993750D02*
X350828914Y-81993750D01*
X352828914Y-81993750D02*
X352828914Y-77983750D01*
%TO.C,J1*%
X330985000Y-56360000D02*
X333485000Y-56360000D01*
X333485000Y-56360000D02*
X333485000Y-55310000D01*
X333485000Y-55310000D02*
X334475000Y-55310000D01*
X329015000Y-55190000D02*
X329015000Y-51310000D01*
X330985000Y-50140000D02*
X333485000Y-50140000D01*
X333485000Y-50140000D02*
X333485000Y-51190000D01*
%TO.C,D5*%
X138956414Y-39978750D02*
X138956414Y-35968750D01*
X140956414Y-39978750D02*
X138956414Y-39978750D01*
X140956414Y-39978750D02*
X140956414Y-35968750D01*
%TO.C,D35*%
X384381250Y-47215000D02*
X384381250Y-51225000D01*
X382381250Y-47215000D02*
X384381250Y-47215000D01*
X382381250Y-47215000D02*
X382381250Y-51225000D01*
%TO.C,D54*%
X46028914Y-101043750D02*
X46028914Y-97033750D01*
X48028914Y-101043750D02*
X46028914Y-101043750D01*
X48028914Y-101043750D02*
X48028914Y-97033750D01*
%TO.C,D19*%
X49616414Y-47215000D02*
X49616414Y-51225000D01*
X47616414Y-47215000D02*
X49616414Y-47215000D01*
X47616414Y-47215000D02*
X47616414Y-51225000D01*
%TO.C,D43*%
X207953914Y-81993750D02*
X207953914Y-77983750D01*
X209953914Y-81993750D02*
X207953914Y-81993750D01*
X209953914Y-81993750D02*
X209953914Y-77983750D01*
%TO.C,D12*%
X272306414Y-39978750D02*
X272306414Y-35968750D01*
X274306414Y-39978750D02*
X272306414Y-39978750D01*
X274306414Y-39978750D02*
X274306414Y-35968750D01*
%TO.C,D15*%
X327016414Y-43893750D02*
X327016414Y-39883750D01*
X329016414Y-43893750D02*
X327016414Y-43893750D01*
X329016414Y-43893750D02*
X329016414Y-39883750D01*
%TO.C,D61*%
X327016414Y-101043750D02*
X327016414Y-97033750D01*
X329016414Y-101043750D02*
X327016414Y-101043750D01*
X329016414Y-101043750D02*
X329016414Y-97033750D01*
%TO.C,C3*%
X332802492Y-71037341D02*
X333018164Y-71037341D01*
X332802492Y-71757341D02*
X333018164Y-71757341D01*
%TO.C,D28*%
X240116414Y-47215000D02*
X240116414Y-51225000D01*
X238116414Y-47215000D02*
X240116414Y-47215000D01*
X238116414Y-47215000D02*
X238116414Y-51225000D01*
%TO.C,D55*%
X65078914Y-101043750D02*
X65078914Y-97033750D01*
X67078914Y-101043750D02*
X65078914Y-101043750D01*
X67078914Y-101043750D02*
X67078914Y-97033750D01*
%TO.C,C5*%
X340177901Y-66405737D02*
X340177901Y-66190065D01*
X340897901Y-66405737D02*
X340897901Y-66190065D01*
%TO.C,R1*%
X339322299Y-68987458D02*
X338847783Y-68987458D01*
X339322299Y-67942458D02*
X338847783Y-67942458D01*
%TO.C,D37*%
X65078914Y-81993750D02*
X65078914Y-77983750D01*
X67078914Y-81993750D02*
X65078914Y-81993750D01*
X67078914Y-81993750D02*
X67078914Y-77983750D01*
%TO.C,D30*%
X278216414Y-47215000D02*
X278216414Y-51225000D01*
X276216414Y-47215000D02*
X278216414Y-47215000D01*
X276216414Y-47215000D02*
X276216414Y-51225000D01*
%TO.C,D18*%
X387143750Y-39666250D02*
X387143750Y-35656250D01*
X389143750Y-39666250D02*
X387143750Y-39666250D01*
X389143750Y-39666250D02*
X389143750Y-35656250D01*
%TO.C,D44*%
X227003914Y-81993750D02*
X227003914Y-77983750D01*
X229003914Y-81993750D02*
X227003914Y-81993750D01*
X229003914Y-81993750D02*
X229003914Y-77983750D01*
%TO.C,D25*%
X182966414Y-47215000D02*
X182966414Y-51225000D01*
X180966414Y-47215000D02*
X182966414Y-47215000D01*
X180966414Y-47215000D02*
X180966414Y-51225000D01*
%TO.C,D57*%
X112703914Y-101043750D02*
X112703914Y-97033750D01*
X114703914Y-101043750D02*
X112703914Y-101043750D01*
X114703914Y-101043750D02*
X114703914Y-97033750D01*
%TO.C,C10*%
X338855541Y-55441732D02*
X338639869Y-55441732D01*
X338855541Y-54721732D02*
X338639869Y-54721732D01*
%TO.C,D64*%
X376825000Y-99197500D02*
X376825000Y-95187500D01*
X378825000Y-99197500D02*
X376825000Y-99197500D01*
X378825000Y-99197500D02*
X378825000Y-95187500D01*
%TO.C,D62*%
X350035164Y-101043750D02*
X350035164Y-97033750D01*
X352035164Y-101043750D02*
X350035164Y-101043750D01*
X352035164Y-101043750D02*
X352035164Y-97033750D01*
%TO.C,D7*%
X177056414Y-39978750D02*
X177056414Y-35968750D01*
X179056414Y-39978750D02*
X177056414Y-39978750D01*
X179056414Y-39978750D02*
X179056414Y-35968750D01*
%TO.C,D47*%
X284153914Y-81993750D02*
X284153914Y-77983750D01*
X286153914Y-81993750D02*
X284153914Y-81993750D01*
X286153914Y-81993750D02*
X286153914Y-77983750D01*
%TO.C,D65*%
X150803914Y-101043750D02*
X150803914Y-97033750D01*
X152803914Y-101043750D02*
X150803914Y-101043750D01*
X152803914Y-101043750D02*
X152803914Y-97033750D01*
%TD*%
%LPC*%
D12*
%TO.C,MX32*%
X284836414Y-56615000D03*
D13*
X289916414Y-56615000D03*
D12*
X294996414Y-56615000D03*
D14*
X286106414Y-54075000D03*
X292456414Y-51535000D03*
%TD*%
D12*
%TO.C,MX57*%
X80048914Y-94715000D03*
D13*
X85128914Y-94715000D03*
D12*
X90208914Y-94715000D03*
D14*
X81318914Y-92175000D03*
X87668914Y-89635000D03*
%TD*%
D12*
%TO.C,MX14*%
X299123914Y-37565000D03*
D13*
X304203914Y-37565000D03*
D12*
X309283914Y-37565000D03*
D14*
X300393914Y-35025000D03*
X306743914Y-32485000D03*
%TD*%
D12*
%TO.C,MX41*%
X141961414Y-75665000D03*
D13*
X147041414Y-75665000D03*
D12*
X152121414Y-75665000D03*
D14*
X143231414Y-73125000D03*
X149581414Y-70585000D03*
%TD*%
D12*
%TO.C,MX31*%
X265786414Y-56615000D03*
D13*
X270866414Y-56615000D03*
D12*
X275946414Y-56615000D03*
D14*
X267056414Y-54075000D03*
X273406414Y-51535000D03*
%TD*%
D12*
%TO.C,MX29*%
X227686414Y-56615000D03*
D13*
X232766414Y-56615000D03*
D12*
X237846414Y-56615000D03*
D14*
X228956414Y-54075000D03*
X235306414Y-51535000D03*
%TD*%
D12*
%TO.C,MX26*%
X170536414Y-56615000D03*
D13*
X175616414Y-56615000D03*
D12*
X180696414Y-56615000D03*
D14*
X171806414Y-54075000D03*
X178156414Y-51535000D03*
%TD*%
D12*
%TO.C,MX25*%
X151486414Y-56615000D03*
D13*
X156566414Y-56615000D03*
D12*
X161646414Y-56615000D03*
D14*
X152756414Y-54075000D03*
X159106414Y-51535000D03*
%TD*%
D12*
%TO.C,MX64*%
X351511414Y-94715000D03*
D13*
X356591414Y-94715000D03*
D12*
X361671414Y-94715000D03*
D14*
X352781414Y-92175000D03*
X359131414Y-89635000D03*
%TD*%
D12*
%TO.C,MX58*%
X101480164Y-94715000D03*
D13*
X106560164Y-94715000D03*
D12*
X111640164Y-94715000D03*
D14*
X102750164Y-92175000D03*
X109100164Y-89635000D03*
%TD*%
D12*
%TO.C,MX10*%
X222923914Y-37565000D03*
D13*
X228003914Y-37565000D03*
D12*
X233083914Y-37565000D03*
D14*
X224193914Y-35025000D03*
X230543914Y-32485000D03*
%TD*%
D15*
%TO.C,S2*%
X368497664Y-101700000D03*
D13*
X368497664Y-86460000D03*
D15*
X344685164Y-101700000D03*
D13*
X344685164Y-86460000D03*
%TD*%
D12*
%TO.C,MX19*%
X380086414Y-37565000D03*
D13*
X385166414Y-37565000D03*
D12*
X390246414Y-37565000D03*
D14*
X381356414Y-35025000D03*
X387706414Y-32485000D03*
%TD*%
D12*
%TO.C,MX7*%
X165773914Y-37565000D03*
D13*
X170853914Y-37565000D03*
D12*
X175933914Y-37565000D03*
D14*
X167043914Y-35025000D03*
X173393914Y-32485000D03*
%TD*%
D12*
%TO.C,MX70*%
X82430164Y-94715000D03*
D13*
X87510164Y-94715000D03*
D12*
X92590164Y-94715000D03*
D14*
X83700164Y-92175000D03*
X90050164Y-89635000D03*
%TD*%
D12*
%TO.C,MX55*%
X37186414Y-94715000D03*
D13*
X42266414Y-94715000D03*
D12*
X47346414Y-94715000D03*
D14*
X38456414Y-92175000D03*
X44806414Y-89635000D03*
%TD*%
D12*
%TO.C,MX36*%
X380086414Y-56615000D03*
D13*
X385166414Y-56615000D03*
D12*
X390246414Y-56615000D03*
D14*
X381356414Y-54075000D03*
X387706414Y-51535000D03*
%TD*%
D12*
%TO.C,MX42*%
X161011414Y-75665000D03*
D13*
X166091414Y-75665000D03*
D12*
X171171414Y-75665000D03*
D14*
X162281414Y-73125000D03*
X168631414Y-70585000D03*
%TD*%
D12*
%TO.C,MX13*%
X280073914Y-37565000D03*
D13*
X285153914Y-37565000D03*
D12*
X290233914Y-37565000D03*
D14*
X281343914Y-35025000D03*
X287693914Y-32485000D03*
%TD*%
D12*
%TO.C,MX77*%
X256261414Y-94715000D03*
D13*
X261341414Y-94715000D03*
D12*
X266421414Y-94715000D03*
D14*
X257531414Y-92175000D03*
X263881414Y-89635000D03*
%TD*%
D12*
%TO.C,MX52*%
X341986414Y-75665000D03*
D13*
X347066414Y-75665000D03*
D12*
X352146414Y-75665000D03*
D14*
X343256414Y-73125000D03*
X349606414Y-70585000D03*
%TD*%
D12*
%TO.C,MX40*%
X122911414Y-75665000D03*
D13*
X127991414Y-75665000D03*
D12*
X133071414Y-75665000D03*
D14*
X124181414Y-73125000D03*
X130531414Y-70585000D03*
%TD*%
D15*
%TO.C,S10*%
X251816414Y-101700000D03*
D13*
X251816414Y-86460000D03*
D15*
X156566414Y-101700000D03*
D13*
X156566414Y-86460000D03*
%TD*%
D12*
%TO.C,MX28*%
X208636414Y-56615000D03*
D13*
X213716414Y-56615000D03*
D12*
X218796414Y-56615000D03*
D14*
X209906414Y-54075000D03*
X216256414Y-51535000D03*
%TD*%
D12*
%TO.C,MX76*%
X220542664Y-94715000D03*
D13*
X225622664Y-94715000D03*
D12*
X230702664Y-94715000D03*
D14*
X221812664Y-92175000D03*
X228162664Y-89635000D03*
%TD*%
D12*
%TO.C,MX11*%
X241973914Y-37565000D03*
D13*
X247053914Y-37565000D03*
D12*
X252133914Y-37565000D03*
D14*
X243243914Y-35025000D03*
X249593914Y-32485000D03*
%TD*%
D12*
%TO.C,MX21*%
X56236414Y-56615000D03*
D13*
X61316414Y-56615000D03*
D12*
X66396414Y-56615000D03*
D14*
X57506414Y-54075000D03*
X63856414Y-51535000D03*
%TD*%
D12*
%TO.C,MX27*%
X189586414Y-56615000D03*
D13*
X194666414Y-56615000D03*
D12*
X199746414Y-56615000D03*
D14*
X190856414Y-54075000D03*
X197206414Y-51535000D03*
%TD*%
D15*
%TO.C,S3*%
X299441414Y-68680000D03*
D13*
X299441414Y-83920000D03*
D15*
X323253914Y-68680000D03*
D13*
X323253914Y-83920000D03*
%TD*%
D12*
%TO.C,MX46*%
X237211414Y-75665000D03*
D13*
X242291414Y-75665000D03*
D12*
X247371414Y-75665000D03*
D14*
X238481414Y-73125000D03*
X244831414Y-70585000D03*
%TD*%
D12*
%TO.C,MX9*%
X203873914Y-37565000D03*
D13*
X208953914Y-37565000D03*
D12*
X214033914Y-37565000D03*
D14*
X205143914Y-35025000D03*
X211493914Y-32485000D03*
%TD*%
D12*
%TO.C,MX2*%
X56236414Y-37565000D03*
D13*
X61316414Y-37565000D03*
D12*
X66396414Y-37565000D03*
D14*
X57506414Y-35025000D03*
X63856414Y-32485000D03*
%TD*%
D12*
%TO.C,MX71*%
X103861414Y-94715000D03*
D13*
X108941414Y-94715000D03*
D12*
X114021414Y-94715000D03*
D14*
X105131414Y-92175000D03*
X111481414Y-89635000D03*
%TD*%
D12*
%TO.C,MX61*%
X296742664Y-94715000D03*
D13*
X301822664Y-94715000D03*
D12*
X306902664Y-94715000D03*
D14*
X298012664Y-92175000D03*
X304362664Y-89635000D03*
%TD*%
D12*
%TO.C,MX37*%
X37186414Y-75665000D03*
D13*
X42266414Y-75665000D03*
D12*
X47346414Y-75665000D03*
D14*
X38456414Y-73125000D03*
X44806414Y-70585000D03*
%TD*%
D12*
%TO.C,MX67*%
X270548914Y-94715000D03*
D13*
X275628914Y-94715000D03*
D12*
X280708914Y-94715000D03*
D14*
X271818914Y-92175000D03*
X278168914Y-89635000D03*
%TD*%
D12*
%TO.C,MX17*%
X341986414Y-37565000D03*
D13*
X347066414Y-37565000D03*
D12*
X352146414Y-37565000D03*
D14*
X343256414Y-35025000D03*
X349606414Y-32485000D03*
%TD*%
D12*
%TO.C,MX63*%
X341986414Y-94715000D03*
D13*
X347066414Y-94715000D03*
D12*
X352146414Y-94715000D03*
D14*
X343256414Y-92175000D03*
X349606414Y-89635000D03*
%TD*%
D12*
%TO.C,MX12*%
X261023914Y-37565000D03*
D13*
X266103914Y-37565000D03*
D12*
X271183914Y-37565000D03*
D14*
X262293914Y-35025000D03*
X268643914Y-32485000D03*
%TD*%
D12*
%TO.C,MX56*%
X56236414Y-94715000D03*
D13*
X61316414Y-94715000D03*
D12*
X66396414Y-94715000D03*
D14*
X57506414Y-92175000D03*
X63856414Y-89635000D03*
%TD*%
D12*
%TO.C,MX68*%
X294361414Y-94715000D03*
D13*
X299441414Y-94715000D03*
D12*
X304521414Y-94715000D03*
D14*
X295631414Y-92175000D03*
X301981414Y-89635000D03*
%TD*%
D12*
%TO.C,MX20*%
X37186414Y-56615000D03*
D13*
X42266414Y-56615000D03*
D12*
X47346414Y-56615000D03*
D14*
X38456414Y-54075000D03*
X44806414Y-51535000D03*
%TD*%
D12*
%TO.C,MX35*%
X361036414Y-56615000D03*
D13*
X366116414Y-56615000D03*
D12*
X371196414Y-56615000D03*
D14*
X362306414Y-54075000D03*
X368656414Y-51535000D03*
%TD*%
D12*
%TO.C,MX73*%
X141961414Y-94715000D03*
D13*
X147041414Y-94715000D03*
D12*
X152121414Y-94715000D03*
D14*
X143231414Y-92175000D03*
X149581414Y-89635000D03*
%TD*%
D12*
%TO.C,MX34*%
X341986414Y-56615000D03*
D13*
X347066414Y-56615000D03*
D12*
X352146414Y-56615000D03*
D14*
X343256414Y-54075000D03*
X349606414Y-51535000D03*
%TD*%
D12*
%TO.C,MX15*%
X308648914Y-37565000D03*
D13*
X313728914Y-37565000D03*
D12*
X318808914Y-37565000D03*
D14*
X309918914Y-35025000D03*
X316268914Y-32485000D03*
%TD*%
D15*
%TO.C,S9*%
X261341414Y-101700000D03*
D13*
X261341414Y-86460000D03*
D15*
X147041414Y-101700000D03*
D13*
X147041414Y-86460000D03*
%TD*%
D12*
%TO.C,MX53*%
X361036414Y-75665000D03*
D13*
X366116414Y-75665000D03*
D12*
X371196414Y-75665000D03*
D14*
X362306414Y-73125000D03*
X368656414Y-70585000D03*
%TD*%
D12*
%TO.C,MX60*%
X275311414Y-94715000D03*
D13*
X280391414Y-94715000D03*
D12*
X285471414Y-94715000D03*
D14*
X276581414Y-92175000D03*
X282931414Y-89635000D03*
%TD*%
D12*
%TO.C,MX78*%
X163392664Y-94715000D03*
D13*
X168472664Y-94715000D03*
D12*
X173552664Y-94715000D03*
D14*
X164662664Y-92175000D03*
X171012664Y-89635000D03*
%TD*%
D15*
%TO.C,S7*%
X85128914Y-68680000D03*
D13*
X85128914Y-83920000D03*
D15*
X108941414Y-68680000D03*
D13*
X108941414Y-83920000D03*
%TD*%
D12*
%TO.C,MX62*%
X318173914Y-94715000D03*
D13*
X323253914Y-94715000D03*
D12*
X328333914Y-94715000D03*
D14*
X319443914Y-92175000D03*
X325793914Y-89635000D03*
%TD*%
D12*
%TO.C,MX23*%
X113386414Y-56615000D03*
D13*
X118466414Y-56615000D03*
D12*
X123546414Y-56615000D03*
D14*
X114656414Y-54075000D03*
X121006414Y-51535000D03*
%TD*%
D15*
%TO.C,S5*%
X247053914Y-101700000D03*
D13*
X247053914Y-86460000D03*
D15*
X223241414Y-101700000D03*
D13*
X223241414Y-86460000D03*
%TD*%
D12*
%TO.C,MX72*%
X127673914Y-94715000D03*
D13*
X132753914Y-94715000D03*
D12*
X137833914Y-94715000D03*
D14*
X128943914Y-92175000D03*
X135293914Y-89635000D03*
%TD*%
D12*
%TO.C,MX45*%
X218161414Y-75665000D03*
D13*
X223241414Y-75665000D03*
D12*
X228321414Y-75665000D03*
D14*
X219431414Y-73125000D03*
X225781414Y-70585000D03*
%TD*%
D12*
%TO.C,MX43*%
X180061414Y-75665000D03*
D13*
X185141414Y-75665000D03*
D12*
X190221414Y-75665000D03*
D14*
X181331414Y-73125000D03*
X187681414Y-70585000D03*
%TD*%
D12*
%TO.C,MX47*%
X256261414Y-75665000D03*
D13*
X261341414Y-75665000D03*
D12*
X266421414Y-75665000D03*
D14*
X257531414Y-73125000D03*
X263881414Y-70585000D03*
%TD*%
D12*
%TO.C,MX54*%
X380086414Y-75665000D03*
D13*
X385166414Y-75665000D03*
D12*
X390246414Y-75665000D03*
D14*
X381356414Y-73125000D03*
X387706414Y-70585000D03*
%TD*%
D12*
%TO.C,MX75*%
X199111414Y-94715000D03*
D13*
X204191414Y-94715000D03*
D12*
X209271414Y-94715000D03*
D14*
X200381414Y-92175000D03*
X206731414Y-89635000D03*
%TD*%
D15*
%TO.C,S1*%
X301822664Y-30580000D03*
D13*
X301822664Y-45820000D03*
D15*
X325635164Y-30580000D03*
D13*
X325635164Y-45820000D03*
%TD*%
D12*
%TO.C,MX8*%
X184823914Y-37565000D03*
D13*
X189903914Y-37565000D03*
D12*
X194983914Y-37565000D03*
D14*
X186093914Y-35025000D03*
X192443914Y-32485000D03*
%TD*%
D15*
%TO.C,S11*%
X189903914Y-101700000D03*
D13*
X189903914Y-86460000D03*
D15*
X166091414Y-101700000D03*
D13*
X166091414Y-86460000D03*
%TD*%
D12*
%TO.C,MX44*%
X199111414Y-75665000D03*
D13*
X204191414Y-75665000D03*
D12*
X209271414Y-75665000D03*
D14*
X200381414Y-73125000D03*
X206731414Y-70585000D03*
%TD*%
D15*
%TO.C,S8*%
X237528914Y-101700000D03*
D13*
X237528914Y-86460000D03*
D15*
X213716414Y-101700000D03*
D13*
X213716414Y-86460000D03*
%TD*%
D12*
%TO.C,MX81*%
X82430164Y-56615000D03*
D13*
X87510164Y-56615000D03*
D12*
X92590164Y-56615000D03*
D14*
X83700164Y-54075000D03*
X90050164Y-51535000D03*
%TD*%
D12*
%TO.C,MX39*%
X91955164Y-75665000D03*
D13*
X97035164Y-75665000D03*
D12*
X102115164Y-75665000D03*
D14*
X93225164Y-73125000D03*
X99575164Y-70585000D03*
%TD*%
D12*
%TO.C,MX65*%
X361036414Y-94715000D03*
D13*
X366116414Y-94715000D03*
D12*
X371196414Y-94715000D03*
D14*
X362306414Y-92175000D03*
X368656414Y-89635000D03*
%TD*%
D12*
%TO.C,MX4*%
X108623914Y-37565000D03*
D13*
X113703914Y-37565000D03*
D12*
X118783914Y-37565000D03*
D14*
X109893914Y-35025000D03*
X116243914Y-32485000D03*
%TD*%
D12*
%TO.C,MX38*%
X56236414Y-75665000D03*
D13*
X61316414Y-75665000D03*
D12*
X66396414Y-75665000D03*
D14*
X57506414Y-73125000D03*
X63856414Y-70585000D03*
%TD*%
D15*
%TO.C,S12*%
X180378914Y-101700000D03*
D13*
X180378914Y-86460000D03*
D15*
X156566414Y-101700000D03*
D13*
X156566414Y-86460000D03*
%TD*%
D12*
%TO.C,MX48*%
X275311414Y-75665000D03*
D13*
X280391414Y-75665000D03*
D12*
X285471414Y-75665000D03*
D14*
X276581414Y-73125000D03*
X282931414Y-70585000D03*
%TD*%
D12*
%TO.C,MX5*%
X127673914Y-37565000D03*
D13*
X132753914Y-37565000D03*
D12*
X137833914Y-37565000D03*
D14*
X128943914Y-35025000D03*
X135293914Y-32485000D03*
%TD*%
D12*
%TO.C,MX66*%
X380086414Y-94715000D03*
D13*
X385166414Y-94715000D03*
D12*
X390246414Y-94715000D03*
D14*
X381356414Y-92175000D03*
X387706414Y-89635000D03*
%TD*%
D12*
%TO.C,MX6*%
X146723914Y-37565000D03*
D13*
X151803914Y-37565000D03*
D12*
X156883914Y-37565000D03*
D14*
X147993914Y-35025000D03*
X154343914Y-32485000D03*
%TD*%
D12*
%TO.C,MX74*%
X172917664Y-94715000D03*
D13*
X177997664Y-94715000D03*
D12*
X183077664Y-94715000D03*
D14*
X174187664Y-92175000D03*
X180537664Y-89635000D03*
%TD*%
D12*
%TO.C,MX16*%
X318173914Y-37565000D03*
D13*
X323253914Y-37565000D03*
D12*
X328333914Y-37565000D03*
D14*
X319443914Y-35025000D03*
X325793914Y-32485000D03*
%TD*%
D12*
%TO.C,MX22*%
X87192664Y-56615000D03*
D13*
X92272664Y-56615000D03*
D12*
X97352664Y-56615000D03*
D14*
X88462664Y-54075000D03*
X94812664Y-51535000D03*
%TD*%
D12*
%TO.C,MX59*%
X122911414Y-94715000D03*
D13*
X127991414Y-94715000D03*
D12*
X133071414Y-94715000D03*
D14*
X124181414Y-92175000D03*
X130531414Y-89635000D03*
%TD*%
D12*
%TO.C,MX30*%
X246736414Y-56615000D03*
D13*
X251816414Y-56615000D03*
D12*
X256896414Y-56615000D03*
D14*
X248006414Y-54075000D03*
X254356414Y-51535000D03*
%TD*%
D12*
%TO.C,MX18*%
X361036414Y-37565000D03*
D13*
X366116414Y-37565000D03*
D12*
X371196414Y-37565000D03*
D14*
X362306414Y-35025000D03*
X368656414Y-32485000D03*
%TD*%
D12*
%TO.C,MX79*%
X194348914Y-94715000D03*
D13*
X199428914Y-94715000D03*
D12*
X204508914Y-94715000D03*
D14*
X195618914Y-92175000D03*
X201968914Y-89635000D03*
%TD*%
D12*
%TO.C,MX50*%
X315792664Y-75665000D03*
D13*
X320872664Y-75665000D03*
D12*
X325952664Y-75665000D03*
D14*
X317062664Y-73125000D03*
X323412664Y-70585000D03*
%TD*%
D12*
%TO.C,MX51*%
X306267664Y-75665000D03*
D13*
X311347664Y-75665000D03*
D12*
X316427664Y-75665000D03*
D14*
X307537664Y-73125000D03*
X313887664Y-70585000D03*
%TD*%
D12*
%TO.C,MX80*%
X230067664Y-94715000D03*
D13*
X235147664Y-94715000D03*
D12*
X240227664Y-94715000D03*
D14*
X231337664Y-92175000D03*
X237687664Y-89635000D03*
%TD*%
D12*
%TO.C,MX33*%
X311030164Y-56615000D03*
D13*
X316110164Y-56615000D03*
D12*
X321190164Y-56615000D03*
D14*
X312300164Y-54075000D03*
X318650164Y-51535000D03*
%TD*%
D12*
%TO.C,MX1*%
X37186414Y-37565000D03*
D13*
X42266414Y-37565000D03*
D12*
X47346414Y-37565000D03*
D14*
X38456414Y-35025000D03*
X44806414Y-32485000D03*
%TD*%
D12*
%TO.C,MX3*%
X84811414Y-37565000D03*
D13*
X89891414Y-37565000D03*
D12*
X94971414Y-37565000D03*
D14*
X86081414Y-35025000D03*
X92431414Y-32485000D03*
%TD*%
D12*
%TO.C,MX24*%
X132436414Y-56615000D03*
D13*
X137516414Y-56615000D03*
D12*
X142596414Y-56615000D03*
D14*
X133706414Y-54075000D03*
X140056414Y-51535000D03*
%TD*%
D12*
%TO.C,MX69*%
X315792664Y-94715000D03*
D13*
X320872664Y-94715000D03*
D12*
X325952664Y-94715000D03*
D14*
X317062664Y-92175000D03*
X323412664Y-89635000D03*
%TD*%
D12*
%TO.C,MX49*%
X294361414Y-75665000D03*
D13*
X299441414Y-75665000D03*
D12*
X304521414Y-75665000D03*
D14*
X295631414Y-73125000D03*
X301981414Y-70585000D03*
%TD*%
D16*
%TO.C,D4*%
X120906414Y-39268750D03*
X120906414Y-35968750D03*
%TD*%
D17*
%TO.C,D20*%
X67666414Y-47925000D03*
X67666414Y-51225000D03*
%TD*%
D16*
%TO.C,D49*%
X325635164Y-81283750D03*
X325635164Y-77983750D03*
%TD*%
%TO.C,D67*%
X208953914Y-100333750D03*
X208953914Y-97033750D03*
%TD*%
%TO.C,D39*%
X132753914Y-81283750D03*
X132753914Y-77983750D03*
%TD*%
D17*
%TO.C,D33*%
X353416414Y-47925000D03*
X353416414Y-51225000D03*
%TD*%
D16*
%TO.C,D58*%
X137516414Y-100333750D03*
X137516414Y-97033750D03*
%TD*%
%TO.C,D48*%
X304203914Y-81283750D03*
X304203914Y-77983750D03*
%TD*%
%TO.C,D38*%
X101797664Y-81283750D03*
X101797664Y-77983750D03*
%TD*%
D17*
%TO.C,D26*%
X201016414Y-47925000D03*
X201016414Y-51225000D03*
%TD*%
D16*
%TO.C,D60*%
X306585164Y-100333750D03*
X306585164Y-97033750D03*
%TD*%
%TO.C,D45*%
X247053914Y-81283750D03*
X247053914Y-77983750D03*
%TD*%
%TO.C,D46*%
X266103914Y-81283750D03*
X266103914Y-77983750D03*
%TD*%
D18*
%TO.C,C4*%
X339200000Y-56230000D03*
X338240000Y-56230000D03*
%TD*%
D16*
%TO.C,D52*%
X370878914Y-81283750D03*
X370878914Y-77983750D03*
%TD*%
%TO.C,D53*%
X380206250Y-81283750D03*
X380206250Y-77983750D03*
%TD*%
D19*
%TO.C,SW2*%
X335445102Y-72832848D03*
X335445102Y-79132848D03*
X339245102Y-72832848D03*
X339245102Y-79132848D03*
%TD*%
D20*
%TO.C,U2*%
X339207500Y-51760000D03*
X339207500Y-53660000D03*
X336932500Y-52710000D03*
%TD*%
D16*
%TO.C,D11*%
X254256414Y-39268750D03*
X254256414Y-35968750D03*
%TD*%
D18*
%TO.C,C9*%
X328430884Y-59166912D03*
X327470884Y-59166912D03*
%TD*%
D16*
%TO.C,D1*%
X49468914Y-39268750D03*
X49468914Y-35968750D03*
%TD*%
D17*
%TO.C,D32*%
X322460164Y-47925000D03*
X322460164Y-51225000D03*
%TD*%
D16*
%TO.C,D13*%
X292356414Y-39268750D03*
X292356414Y-35968750D03*
%TD*%
D17*
%TO.C,D34*%
X372466414Y-47925000D03*
X372466414Y-51225000D03*
%TD*%
D16*
%TO.C,D42*%
X189903914Y-81283750D03*
X189903914Y-77983750D03*
%TD*%
D19*
%TO.C,SW1*%
X339250000Y-88200000D03*
X339250000Y-81900000D03*
X335450000Y-88200000D03*
X335450000Y-81900000D03*
%TD*%
D16*
%TO.C,D56*%
X92272664Y-100333750D03*
X92272664Y-97033750D03*
%TD*%
D17*
%TO.C,D22*%
X124816414Y-47925000D03*
X124816414Y-51225000D03*
%TD*%
D16*
%TO.C,D68*%
X229591414Y-100333750D03*
X229591414Y-97033750D03*
%TD*%
%TO.C,D59*%
X285153914Y-100333750D03*
X285153914Y-97033750D03*
%TD*%
%TO.C,D9*%
X216156414Y-39268750D03*
X216156414Y-35968750D03*
%TD*%
D17*
%TO.C,D24*%
X162916414Y-47925000D03*
X162916414Y-51225000D03*
%TD*%
D16*
%TO.C,D3*%
X97093914Y-39268750D03*
X97093914Y-35968750D03*
%TD*%
%TO.C,D16*%
X354268914Y-39268750D03*
X354268914Y-35968750D03*
%TD*%
%TO.C,D17*%
X373318914Y-39268750D03*
X373318914Y-35968750D03*
%TD*%
%TO.C,D10*%
X235206414Y-39268750D03*
X235206414Y-35968750D03*
%TD*%
%TO.C,D40*%
X151803914Y-81346250D03*
X151803914Y-78046250D03*
%TD*%
%TO.C,D41*%
X170853914Y-81283750D03*
X170853914Y-77983750D03*
%TD*%
%TO.C,D8*%
X197106414Y-39268750D03*
X197106414Y-35968750D03*
%TD*%
%TO.C,D6*%
X159006414Y-39268750D03*
X159006414Y-35968750D03*
%TD*%
D21*
%TO.C,U1*%
X336845100Y-68107848D03*
X336345100Y-68107848D03*
X335845100Y-68107848D03*
X335345100Y-68107848D03*
X334845100Y-68107848D03*
X334345100Y-68107848D03*
X333845100Y-68107848D03*
X333345100Y-68107848D03*
X332845100Y-68107848D03*
X332345100Y-68107848D03*
X331845100Y-68107848D03*
X331345100Y-68107848D03*
D22*
X329932600Y-66695348D03*
X329932600Y-66195348D03*
X329932600Y-65695348D03*
X329932600Y-65195348D03*
X329932600Y-64695348D03*
X329932600Y-64195348D03*
X329932600Y-63695348D03*
X329932600Y-63195348D03*
X329932600Y-62695348D03*
X329932600Y-62195348D03*
X329932600Y-61695348D03*
X329932600Y-61195348D03*
D21*
X331345100Y-59782848D03*
X331845100Y-59782848D03*
X332345100Y-59782848D03*
X332845100Y-59782848D03*
X333345100Y-59782848D03*
X333845100Y-59782848D03*
X334345100Y-59782848D03*
X334845100Y-59782848D03*
X335345100Y-59782848D03*
X335845100Y-59782848D03*
X336345100Y-59782848D03*
X336845100Y-59782848D03*
D22*
X338257600Y-61195348D03*
X338257600Y-61695348D03*
X338257600Y-62195348D03*
X338257600Y-62695348D03*
X338257600Y-63195348D03*
X338257600Y-63695348D03*
X338257600Y-64195348D03*
X338257600Y-64695348D03*
X338257600Y-65195348D03*
X338257600Y-65695348D03*
X338257600Y-66195348D03*
X338257600Y-66695348D03*
%TD*%
D23*
%TO.C,C1*%
X334680041Y-70189958D03*
X335640041Y-70189958D03*
%TD*%
D16*
%TO.C,D2*%
X68518914Y-39268750D03*
X68518914Y-35968750D03*
%TD*%
D18*
%TO.C,C8*%
X328460002Y-60270001D03*
X327500002Y-60270001D03*
%TD*%
D17*
%TO.C,D21*%
X98622664Y-47925000D03*
X98622664Y-51225000D03*
%TD*%
%TO.C,D29*%
X258166414Y-47925000D03*
X258166414Y-51225000D03*
%TD*%
D16*
%TO.C,D14*%
X307378914Y-43183750D03*
X307378914Y-39883750D03*
%TD*%
%TO.C,D36*%
X47028914Y-81283750D03*
X47028914Y-77983750D03*
%TD*%
D18*
%TO.C,C7*%
X339200002Y-57304800D03*
X338240002Y-57304800D03*
%TD*%
D17*
%TO.C,D23*%
X143866414Y-47925000D03*
X143866414Y-51225000D03*
%TD*%
D16*
%TO.C,D66*%
X172441414Y-100333750D03*
X172441414Y-97033750D03*
%TD*%
D17*
%TO.C,D27*%
X220066414Y-47925000D03*
X220066414Y-51225000D03*
%TD*%
D23*
%TO.C,C6*%
X332430000Y-70218484D03*
X333390000Y-70218484D03*
%TD*%
D16*
%TO.C,D63*%
X373566414Y-98487500D03*
X373566414Y-95187500D03*
%TD*%
%TO.C,D69*%
X266103914Y-100333750D03*
X266103914Y-97033750D03*
%TD*%
D17*
%TO.C,D31*%
X296266414Y-47925000D03*
X296266414Y-51225000D03*
%TD*%
D23*
%TO.C,C2*%
X336430000Y-50410000D03*
X337390000Y-50410000D03*
%TD*%
D16*
%TO.C,D51*%
X351828914Y-81283750D03*
X351828914Y-77983750D03*
%TD*%
D24*
%TO.C,J1*%
X333700000Y-54750000D03*
X333700000Y-53750000D03*
X333700000Y-52750000D03*
X333700000Y-51750000D03*
D25*
X329825000Y-56050000D03*
X329825000Y-50450000D03*
%TD*%
D16*
%TO.C,D5*%
X139956414Y-39268750D03*
X139956414Y-35968750D03*
%TD*%
D17*
%TO.C,D35*%
X383381250Y-47925000D03*
X383381250Y-51225000D03*
%TD*%
D16*
%TO.C,D54*%
X47028914Y-100333750D03*
X47028914Y-97033750D03*
%TD*%
D17*
%TO.C,D19*%
X48616414Y-47925000D03*
X48616414Y-51225000D03*
%TD*%
D16*
%TO.C,D43*%
X208953914Y-81283750D03*
X208953914Y-77983750D03*
%TD*%
%TO.C,D12*%
X273306414Y-39268750D03*
X273306414Y-35968750D03*
%TD*%
%TO.C,D15*%
X328016414Y-43183750D03*
X328016414Y-39883750D03*
%TD*%
%TO.C,D61*%
X328016414Y-100333750D03*
X328016414Y-97033750D03*
%TD*%
D23*
%TO.C,C3*%
X332430328Y-71397341D03*
X333390328Y-71397341D03*
%TD*%
D17*
%TO.C,D28*%
X239116414Y-47925000D03*
X239116414Y-51225000D03*
%TD*%
D16*
%TO.C,D55*%
X66078914Y-100333750D03*
X66078914Y-97033750D03*
%TD*%
D26*
%TO.C,C5*%
X340537901Y-66777901D03*
X340537901Y-65817901D03*
%TD*%
D27*
%TO.C,R1*%
X339910041Y-68464958D03*
X338260041Y-68464958D03*
%TD*%
D16*
%TO.C,D37*%
X66078914Y-81283750D03*
X66078914Y-77983750D03*
%TD*%
D17*
%TO.C,D30*%
X277216414Y-47925000D03*
X277216414Y-51225000D03*
%TD*%
D16*
%TO.C,D18*%
X388143750Y-38956250D03*
X388143750Y-35656250D03*
%TD*%
%TO.C,D44*%
X228003914Y-81283750D03*
X228003914Y-77983750D03*
%TD*%
D17*
%TO.C,D25*%
X181966414Y-47925000D03*
X181966414Y-51225000D03*
%TD*%
D16*
%TO.C,D57*%
X113703914Y-100333750D03*
X113703914Y-97033750D03*
%TD*%
D18*
%TO.C,C10*%
X339227705Y-55081732D03*
X338267705Y-55081732D03*
%TD*%
D16*
%TO.C,D64*%
X377825000Y-98487500D03*
X377825000Y-95187500D03*
%TD*%
%TO.C,D62*%
X351035164Y-100333750D03*
X351035164Y-97033750D03*
%TD*%
%TO.C,D7*%
X178056414Y-39268750D03*
X178056414Y-35968750D03*
%TD*%
%TO.C,D47*%
X285153914Y-81283750D03*
X285153914Y-77983750D03*
%TD*%
%TO.C,D65*%
X151803914Y-100333750D03*
X151803914Y-97033750D03*
%TD*%
%LPD*%
M02*
