M48
; DRILL file {KiCad 7.0.7} date Mon May 20 20:21:32 2024
; FORMAT={-:-/ absolute / inch / decimal}
; #@! TF.CreationDate,2024-05-20T20:21:32-06:00
; #@! TF.GenerationSoftware,Kicad,Pcbnew,7.0.7
; #@! TF.FileFunction,NonPlated,1,2,NPTH
FMAT,2
INCH
; #@! TA.AperFunction,NonPlated,NPTH,ComponentDrill
T1C0.0689
; #@! TA.AperFunction,NonPlated,NPTH,ComponentDrill
T2C0.1200
; #@! TA.AperFunction,NonPlated,NPTH,ComponentDrill
T3C0.1570
%
G90
G05
T1
X1.464Y-1.4789
X1.464Y-2.2289
X1.464Y-2.9789
X1.464Y-3.7289
X1.864Y-1.4789
X1.864Y-2.2289
X1.864Y-2.9789
X1.864Y-3.7289
X2.214Y-1.4789
X2.214Y-2.2289
X2.214Y-2.9789
X2.214Y-3.7289
X2.614Y-1.4789
X2.614Y-2.2289
X2.614Y-2.9789
X2.614Y-3.7289
X3.1515Y-3.7289
X3.2453Y-2.2289
X3.2453Y-3.7289
X3.339Y-1.4789
X3.4328Y-2.2289
X3.5515Y-3.7289
X3.6203Y-2.9789
X3.6453Y-2.2289
X3.6453Y-3.7289
X3.739Y-1.4789
X3.8328Y-2.2289
X3.9953Y-3.7289
X4.0203Y-2.9789
X4.089Y-3.7289
X4.2765Y-1.4789
X4.3953Y-3.7289
X4.464Y-2.2289
X4.489Y-3.7289
X4.6765Y-1.4789
X4.839Y-2.9789
X4.839Y-3.7289
X4.864Y-2.2289
X5.0265Y-1.4789
X5.0265Y-3.7289
X5.214Y-2.2289
X5.239Y-2.9789
X5.239Y-3.7289
X5.4265Y-1.4789
X5.4265Y-3.7289
X5.589Y-2.9789
X5.589Y-3.7289
X5.614Y-2.2289
X5.7765Y-1.4789
X5.964Y-2.2289
X5.989Y-2.9789
X5.989Y-3.7289
X6.1765Y-1.4789
X6.339Y-2.9789
X6.364Y-2.2289
X6.4328Y-3.7289
X6.5265Y-1.4789
X6.714Y-2.2289
X6.739Y-2.9789
X6.8078Y-3.7289
X6.8328Y-3.7289
X6.9265Y-1.4789
X7.089Y-2.9789
X7.114Y-2.2289
X7.2078Y-3.7289
X7.2765Y-1.4789
X7.464Y-2.2289
X7.489Y-2.9789
X7.6515Y-3.7289
X7.6765Y-1.4789
X7.839Y-2.9789
X7.839Y-3.7289
X7.864Y-2.2289
X8.0265Y-1.4789
X8.0515Y-3.7289
X8.214Y-2.2289
X8.239Y-2.9789
X8.239Y-3.7289
X8.4265Y-1.4789
X8.589Y-2.9789
X8.614Y-2.2289
X8.6828Y-3.7289
X8.7765Y-1.4789
X8.964Y-2.2289
X8.989Y-2.9789
X9.0578Y-3.7289
X9.0828Y-3.7289
X9.1765Y-1.4789
X9.339Y-2.9789
X9.364Y-2.2289
X9.4578Y-3.7289
X9.5265Y-1.4789
X9.714Y-2.2289
X9.739Y-2.9789
X9.9265Y-1.4789
X10.089Y-2.9789
X10.089Y-3.7289
X10.114Y-2.2289
X10.2765Y-1.4789
X10.464Y-2.2289
X10.489Y-2.9789
X10.489Y-3.7289
X10.6515Y-3.7289
X10.6765Y-1.4789
X10.839Y-2.9789
X10.839Y-3.7289
X10.864Y-2.2289
X11.0265Y-1.4789
X11.0515Y-3.7289
X11.214Y-2.2289
X11.239Y-2.9789
X11.239Y-3.7289
X11.4265Y-1.4789
X11.589Y-2.9789
X11.589Y-3.7289
X11.614Y-2.2289
X11.6828Y-3.7289
X11.7765Y-1.4789
X11.989Y-2.9789
X11.989Y-3.7289
X12.0578Y-2.9789
X12.0828Y-3.7289
X12.1515Y-1.4789
X12.1765Y-1.4789
X12.2453Y-2.2289
X12.4328Y-2.9789
X12.4328Y-3.7289
X12.4578Y-2.9789
X12.5265Y-1.4789
X12.5265Y-3.7289
X12.5515Y-1.4789
X12.6453Y-2.2289
X12.8328Y-2.9789
X12.8328Y-3.7289
X12.9265Y-1.4789
X12.9265Y-3.7289
X13.464Y-1.4789
X13.464Y-2.2289
X13.464Y-2.9789
X13.464Y-3.7289
X13.839Y-3.7289
X13.864Y-1.4789
X13.864Y-2.2289
X13.864Y-2.9789
X13.864Y-3.7289
X14.214Y-1.4789
X14.214Y-2.2289
X14.214Y-2.9789
X14.214Y-3.7289
X14.239Y-3.7289
X14.614Y-1.4789
X14.614Y-2.2289
X14.614Y-2.9789
X14.614Y-3.7289
X14.964Y-1.4789
X14.964Y-2.2289
X14.964Y-2.9789
X14.964Y-3.7289
X15.364Y-1.4789
X15.364Y-2.2289
X15.364Y-2.9789
X15.364Y-3.7289
T2
X3.3515Y-2.7039
X4.289Y-2.7039
X5.789Y-4.0039
X6.164Y-4.0039
X6.164Y-4.0039
X6.539Y-4.0039
X7.1015Y-4.0039
X7.4765Y-4.0039
X8.414Y-4.0039
X8.789Y-4.0039
X9.3515Y-4.0039
X9.7265Y-4.0039
X9.914Y-4.0039
X10.289Y-4.0039
X11.789Y-2.7039
X11.8828Y-1.2039
X12.7265Y-2.7039
X12.8203Y-1.2039
X13.5703Y-4.0039
X14.5078Y-4.0039
T3
X1.664Y-1.4789
X1.664Y-2.2289
X1.664Y-2.9789
X1.664Y-3.7289
X2.414Y-1.4789
X2.414Y-2.2289
X2.414Y-2.9789
X2.414Y-3.7289
X3.3515Y-3.3039
X3.3515Y-3.7289
X3.4453Y-2.2289
X3.4453Y-3.7289
X3.539Y-1.4789
X3.6328Y-2.2289
X3.8203Y-2.9789
X4.1953Y-3.7289
X4.289Y-3.3039
X4.289Y-3.7289
X4.4765Y-1.4789
X4.664Y-2.2289
X5.039Y-2.9789
X5.039Y-3.7289
X5.2265Y-1.4789
X5.2265Y-3.7289
X5.414Y-2.2289
X5.789Y-2.9789
X5.789Y-3.4039
X5.789Y-3.7289
X5.9765Y-1.4789
X6.164Y-2.2289
X6.164Y-3.4039
X6.164Y-3.4039
X6.539Y-2.9789
X6.539Y-3.4039
X6.6328Y-3.7289
X6.7265Y-1.4789
X6.914Y-2.2289
X7.0078Y-3.7289
X7.1015Y-3.4039
X7.289Y-2.9789
X7.4765Y-1.4789
X7.4765Y-3.4039
X7.664Y-2.2289
X7.8515Y-3.7289
X8.039Y-2.9789
X8.039Y-3.7289
X8.2265Y-1.4789
X8.414Y-2.2289
X8.414Y-3.4039
X8.789Y-2.9789
X8.789Y-3.4039
X8.8828Y-3.7289
X8.9765Y-1.4789
X9.164Y-2.2289
X9.2578Y-3.7289
X9.3515Y-3.4039
X9.539Y-2.9789
X9.7265Y-1.4789
X9.7265Y-3.4039
X9.914Y-2.2289
X9.914Y-3.4039
X10.289Y-2.9789
X10.289Y-3.4039
X10.289Y-3.7289
X10.4765Y-1.4789
X10.664Y-2.2289
X10.8515Y-3.7289
X11.039Y-2.9789
X11.039Y-3.7289
X11.2265Y-1.4789
X11.414Y-2.2289
X11.789Y-2.9789
X11.789Y-3.3039
X11.789Y-3.7289
X11.8828Y-1.8039
X11.8828Y-3.7289
X11.9765Y-1.4789
X12.2578Y-2.9789
X12.3515Y-1.4789
X12.4453Y-2.2289
X12.6328Y-2.9789
X12.6328Y-3.7289
X12.7265Y-1.4789
X12.7265Y-3.3039
X12.7265Y-3.7289
X12.8203Y-1.8039
X13.5703Y-3.4039
X13.664Y-1.4789
X13.664Y-2.2289
X13.664Y-2.9789
X13.664Y-3.7289
X14.039Y-3.7289
X14.414Y-1.4789
X14.414Y-2.2289
X14.414Y-2.9789
X14.414Y-3.7289
X14.5078Y-3.4039
X15.164Y-1.4789
X15.164Y-2.2289
X15.164Y-2.9789
X15.164Y-3.7289
T0
M30
