%TF.GenerationSoftware,KiCad,Pcbnew,7.0.7*%
%TF.CreationDate,2024-05-19T12:48:59-06:00*%
%TF.ProjectId,spell,7370656c-6c2e-46b6-9963-61645f706362,rev?*%
%TF.SameCoordinates,Original*%
%TF.FileFunction,Paste,Bot*%
%TF.FilePolarity,Positive*%
%FSLAX46Y46*%
G04 Gerber Fmt 4.6, Leading zero omitted, Abs format (unit mm)*
G04 Created by KiCad (PCBNEW 7.0.7) date 2024-05-19 12:48:59*
%MOMM*%
%LPD*%
G01*
G04 APERTURE LIST*
G04 Aperture macros list*
%AMRoundRect*
0 Rectangle with rounded corners*
0 $1 Rounding radius*
0 $2 $3 $4 $5 $6 $7 $8 $9 X,Y pos of 4 corners*
0 Add a 4 corners polygon primitive as box body*
4,1,4,$2,$3,$4,$5,$6,$7,$8,$9,$2,$3,0*
0 Add four circle primitives for the rounded corners*
1,1,$1+$1,$2,$3*
1,1,$1+$1,$4,$5*
1,1,$1+$1,$6,$7*
1,1,$1+$1,$8,$9*
0 Add four rect primitives between the rounded corners*
20,1,$1+$1,$2,$3,$4,$5,0*
20,1,$1+$1,$4,$5,$6,$7,0*
20,1,$1+$1,$6,$7,$8,$9,0*
20,1,$1+$1,$8,$9,$2,$3,0*%
G04 Aperture macros list end*
%ADD10RoundRect,0.225000X0.375000X-0.225000X0.375000X0.225000X-0.375000X0.225000X-0.375000X-0.225000X0*%
%ADD11RoundRect,0.225000X-0.375000X0.225000X-0.375000X-0.225000X0.375000X-0.225000X0.375000X0.225000X0*%
%ADD12RoundRect,0.140000X0.140000X0.170000X-0.140000X0.170000X-0.140000X-0.170000X0.140000X-0.170000X0*%
%ADD13R,1.000000X1.700000*%
%ADD14RoundRect,0.150000X0.512500X0.150000X-0.512500X0.150000X-0.512500X-0.150000X0.512500X-0.150000X0*%
%ADD15RoundRect,0.075000X0.075000X-0.662500X0.075000X0.662500X-0.075000X0.662500X-0.075000X-0.662500X0*%
%ADD16RoundRect,0.075000X0.662500X-0.075000X0.662500X0.075000X-0.662500X0.075000X-0.662500X-0.075000X0*%
%ADD17RoundRect,0.140000X-0.140000X-0.170000X0.140000X-0.170000X0.140000X0.170000X-0.140000X0.170000X0*%
%ADD18RoundRect,0.150000X0.625000X-0.150000X0.625000X0.150000X-0.625000X0.150000X-0.625000X-0.150000X0*%
%ADD19RoundRect,0.250000X0.650000X-0.350000X0.650000X0.350000X-0.650000X0.350000X-0.650000X-0.350000X0*%
%ADD20RoundRect,0.140000X0.170000X-0.140000X0.170000X0.140000X-0.170000X0.140000X-0.170000X-0.140000X0*%
%ADD21RoundRect,0.200000X0.200000X0.275000X-0.200000X0.275000X-0.200000X-0.275000X0.200000X-0.275000X0*%
G04 APERTURE END LIST*
D10*
%TO.C,D4*%
X120906414Y-39268750D03*
X120906414Y-35968750D03*
%TD*%
D11*
%TO.C,D20*%
X67666414Y-47925000D03*
X67666414Y-51225000D03*
%TD*%
D10*
%TO.C,D49*%
X325635164Y-81283750D03*
X325635164Y-77983750D03*
%TD*%
%TO.C,D67*%
X208953914Y-100333750D03*
X208953914Y-97033750D03*
%TD*%
%TO.C,D39*%
X132753914Y-81283750D03*
X132753914Y-77983750D03*
%TD*%
D11*
%TO.C,D33*%
X353416414Y-47925000D03*
X353416414Y-51225000D03*
%TD*%
D10*
%TO.C,D58*%
X137516414Y-100333750D03*
X137516414Y-97033750D03*
%TD*%
%TO.C,D48*%
X304203914Y-81283750D03*
X304203914Y-77983750D03*
%TD*%
%TO.C,D38*%
X101797664Y-81283750D03*
X101797664Y-77983750D03*
%TD*%
D11*
%TO.C,D26*%
X201016414Y-47925000D03*
X201016414Y-51225000D03*
%TD*%
D10*
%TO.C,D60*%
X306585164Y-100333750D03*
X306585164Y-97033750D03*
%TD*%
%TO.C,D45*%
X247053914Y-81283750D03*
X247053914Y-77983750D03*
%TD*%
%TO.C,D46*%
X266103914Y-81283750D03*
X266103914Y-77983750D03*
%TD*%
D12*
%TO.C,C4*%
X339200000Y-56230000D03*
X338240000Y-56230000D03*
%TD*%
D10*
%TO.C,D52*%
X370878914Y-81283750D03*
X370878914Y-77983750D03*
%TD*%
%TO.C,D53*%
X380206250Y-81283750D03*
X380206250Y-77983750D03*
%TD*%
D13*
%TO.C,SW2*%
X335445102Y-72832848D03*
X335445102Y-79132848D03*
X339245102Y-72832848D03*
X339245102Y-79132848D03*
%TD*%
D14*
%TO.C,U2*%
X339207500Y-51760000D03*
X339207500Y-53660000D03*
X336932500Y-52710000D03*
%TD*%
D10*
%TO.C,D11*%
X254256414Y-39268750D03*
X254256414Y-35968750D03*
%TD*%
D12*
%TO.C,C9*%
X328430884Y-59166912D03*
X327470884Y-59166912D03*
%TD*%
D10*
%TO.C,D1*%
X49468914Y-39268750D03*
X49468914Y-35968750D03*
%TD*%
D11*
%TO.C,D32*%
X322460164Y-47925000D03*
X322460164Y-51225000D03*
%TD*%
D10*
%TO.C,D13*%
X292356414Y-39268750D03*
X292356414Y-35968750D03*
%TD*%
D11*
%TO.C,D34*%
X372466414Y-47925000D03*
X372466414Y-51225000D03*
%TD*%
D10*
%TO.C,D42*%
X189903914Y-81283750D03*
X189903914Y-77983750D03*
%TD*%
D13*
%TO.C,SW1*%
X339250000Y-88200000D03*
X339250000Y-81900000D03*
X335450000Y-88200000D03*
X335450000Y-81900000D03*
%TD*%
D10*
%TO.C,D56*%
X92272664Y-100333750D03*
X92272664Y-97033750D03*
%TD*%
D11*
%TO.C,D22*%
X124816414Y-47925000D03*
X124816414Y-51225000D03*
%TD*%
D10*
%TO.C,D68*%
X229591414Y-100333750D03*
X229591414Y-97033750D03*
%TD*%
%TO.C,D59*%
X285153914Y-100333750D03*
X285153914Y-97033750D03*
%TD*%
%TO.C,D9*%
X216156414Y-39268750D03*
X216156414Y-35968750D03*
%TD*%
D11*
%TO.C,D24*%
X162916414Y-47925000D03*
X162916414Y-51225000D03*
%TD*%
D10*
%TO.C,D3*%
X97093914Y-39268750D03*
X97093914Y-35968750D03*
%TD*%
%TO.C,D16*%
X354268914Y-39268750D03*
X354268914Y-35968750D03*
%TD*%
%TO.C,D17*%
X373318914Y-39268750D03*
X373318914Y-35968750D03*
%TD*%
%TO.C,D10*%
X235206414Y-39268750D03*
X235206414Y-35968750D03*
%TD*%
%TO.C,D40*%
X151803914Y-81346250D03*
X151803914Y-78046250D03*
%TD*%
%TO.C,D41*%
X170853914Y-81283750D03*
X170853914Y-77983750D03*
%TD*%
%TO.C,D8*%
X197106414Y-39268750D03*
X197106414Y-35968750D03*
%TD*%
%TO.C,D6*%
X159006414Y-39268750D03*
X159006414Y-35968750D03*
%TD*%
D15*
%TO.C,U1*%
X336845100Y-68107848D03*
X336345100Y-68107848D03*
X335845100Y-68107848D03*
X335345100Y-68107848D03*
X334845100Y-68107848D03*
X334345100Y-68107848D03*
X333845100Y-68107848D03*
X333345100Y-68107848D03*
X332845100Y-68107848D03*
X332345100Y-68107848D03*
X331845100Y-68107848D03*
X331345100Y-68107848D03*
D16*
X329932600Y-66695348D03*
X329932600Y-66195348D03*
X329932600Y-65695348D03*
X329932600Y-65195348D03*
X329932600Y-64695348D03*
X329932600Y-64195348D03*
X329932600Y-63695348D03*
X329932600Y-63195348D03*
X329932600Y-62695348D03*
X329932600Y-62195348D03*
X329932600Y-61695348D03*
X329932600Y-61195348D03*
D15*
X331345100Y-59782848D03*
X331845100Y-59782848D03*
X332345100Y-59782848D03*
X332845100Y-59782848D03*
X333345100Y-59782848D03*
X333845100Y-59782848D03*
X334345100Y-59782848D03*
X334845100Y-59782848D03*
X335345100Y-59782848D03*
X335845100Y-59782848D03*
X336345100Y-59782848D03*
X336845100Y-59782848D03*
D16*
X338257600Y-61195348D03*
X338257600Y-61695348D03*
X338257600Y-62195348D03*
X338257600Y-62695348D03*
X338257600Y-63195348D03*
X338257600Y-63695348D03*
X338257600Y-64195348D03*
X338257600Y-64695348D03*
X338257600Y-65195348D03*
X338257600Y-65695348D03*
X338257600Y-66195348D03*
X338257600Y-66695348D03*
%TD*%
D17*
%TO.C,C1*%
X334680041Y-70189958D03*
X335640041Y-70189958D03*
%TD*%
D10*
%TO.C,D2*%
X68518914Y-39268750D03*
X68518914Y-35968750D03*
%TD*%
D12*
%TO.C,C8*%
X328460002Y-60270001D03*
X327500002Y-60270001D03*
%TD*%
D11*
%TO.C,D21*%
X98622664Y-47925000D03*
X98622664Y-51225000D03*
%TD*%
%TO.C,D29*%
X258166414Y-47925000D03*
X258166414Y-51225000D03*
%TD*%
D10*
%TO.C,D14*%
X307378914Y-43183750D03*
X307378914Y-39883750D03*
%TD*%
%TO.C,D36*%
X47028914Y-81283750D03*
X47028914Y-77983750D03*
%TD*%
D12*
%TO.C,C7*%
X339200002Y-57304800D03*
X338240002Y-57304800D03*
%TD*%
D11*
%TO.C,D23*%
X143866414Y-47925000D03*
X143866414Y-51225000D03*
%TD*%
D10*
%TO.C,D66*%
X172441414Y-100333750D03*
X172441414Y-97033750D03*
%TD*%
D11*
%TO.C,D27*%
X220066414Y-47925000D03*
X220066414Y-51225000D03*
%TD*%
D17*
%TO.C,C6*%
X332430000Y-70218484D03*
X333390000Y-70218484D03*
%TD*%
D10*
%TO.C,D63*%
X373566414Y-98487500D03*
X373566414Y-95187500D03*
%TD*%
%TO.C,D69*%
X266103914Y-100333750D03*
X266103914Y-97033750D03*
%TD*%
D11*
%TO.C,D31*%
X296266414Y-47925000D03*
X296266414Y-51225000D03*
%TD*%
D17*
%TO.C,C2*%
X336430000Y-50410000D03*
X337390000Y-50410000D03*
%TD*%
D10*
%TO.C,D51*%
X351828914Y-81283750D03*
X351828914Y-77983750D03*
%TD*%
D18*
%TO.C,J1*%
X333700000Y-54750000D03*
X333700000Y-53750000D03*
X333700000Y-52750000D03*
X333700000Y-51750000D03*
D19*
X329825000Y-56050000D03*
X329825000Y-50450000D03*
%TD*%
D10*
%TO.C,D5*%
X139956414Y-39268750D03*
X139956414Y-35968750D03*
%TD*%
D11*
%TO.C,D35*%
X383381250Y-47925000D03*
X383381250Y-51225000D03*
%TD*%
D10*
%TO.C,D54*%
X47028914Y-100333750D03*
X47028914Y-97033750D03*
%TD*%
D11*
%TO.C,D19*%
X48616414Y-47925000D03*
X48616414Y-51225000D03*
%TD*%
D10*
%TO.C,D43*%
X208953914Y-81283750D03*
X208953914Y-77983750D03*
%TD*%
%TO.C,D12*%
X273306414Y-39268750D03*
X273306414Y-35968750D03*
%TD*%
%TO.C,D15*%
X328016414Y-43183750D03*
X328016414Y-39883750D03*
%TD*%
%TO.C,D61*%
X328016414Y-100333750D03*
X328016414Y-97033750D03*
%TD*%
D17*
%TO.C,C3*%
X332430328Y-71397341D03*
X333390328Y-71397341D03*
%TD*%
D11*
%TO.C,D28*%
X239116414Y-47925000D03*
X239116414Y-51225000D03*
%TD*%
D10*
%TO.C,D55*%
X66078914Y-100333750D03*
X66078914Y-97033750D03*
%TD*%
D20*
%TO.C,C5*%
X340537901Y-66777901D03*
X340537901Y-65817901D03*
%TD*%
D21*
%TO.C,R1*%
X339910041Y-68464958D03*
X338260041Y-68464958D03*
%TD*%
D10*
%TO.C,D37*%
X66078914Y-81283750D03*
X66078914Y-77983750D03*
%TD*%
D11*
%TO.C,D30*%
X277216414Y-47925000D03*
X277216414Y-51225000D03*
%TD*%
D10*
%TO.C,D18*%
X388143750Y-38956250D03*
X388143750Y-35656250D03*
%TD*%
%TO.C,D44*%
X228003914Y-81283750D03*
X228003914Y-77983750D03*
%TD*%
D11*
%TO.C,D25*%
X181966414Y-47925000D03*
X181966414Y-51225000D03*
%TD*%
D10*
%TO.C,D57*%
X113703914Y-100333750D03*
X113703914Y-97033750D03*
%TD*%
D12*
%TO.C,C10*%
X339227705Y-55081732D03*
X338267705Y-55081732D03*
%TD*%
D10*
%TO.C,D64*%
X377825000Y-98487500D03*
X377825000Y-95187500D03*
%TD*%
%TO.C,D62*%
X351035164Y-100333750D03*
X351035164Y-97033750D03*
%TD*%
%TO.C,D7*%
X178056414Y-39268750D03*
X178056414Y-35968750D03*
%TD*%
%TO.C,D47*%
X285153914Y-81283750D03*
X285153914Y-77983750D03*
%TD*%
%TO.C,D65*%
X151803914Y-100333750D03*
X151803914Y-97033750D03*
%TD*%
M02*
