M48
; DRILL file {KiCad 7.0.7} date Tue May 14 18:11:23 2024
; FORMAT={-:-/ absolute / inch / decimal}
; #@! TF.CreationDate,2024-05-14T18:11:23-06:00
; #@! TF.GenerationSoftware,Kicad,Pcbnew,7.0.7
; #@! TF.FileFunction,Plated,1,2,PTH
FMAT,2
INCH
; #@! TA.AperFunction,Plated,PTH,ViaDrill
T1C0.0118
; #@! TA.AperFunction,Plated,PTH,ComponentDrill
T2C0.0118
; #@! TA.AperFunction,Plated,PTH,ViaDrill
T3C0.0157
; #@! TA.AperFunction,Plated,PTH,ComponentDrill
T4C0.0600
%
G90
G05
T1
X3.4192Y-2.014
X4.7291Y-3.3873
X4.8042Y-3.9868
X10.7613Y-1.7419
X11.9478Y-2.2311
X11.985Y-2.6902
X12.226Y-2.6976
X12.3054Y-1.8616
X12.5157Y-3.0602
X12.8594Y-2.3315
X12.948Y-2.7091
X13.1415Y-2.893
X13.1504Y-3.2421
X13.1945Y-2.0378
X13.2067Y-3.3425
X13.2795Y-2.2059
X13.2829Y-2.7614
X13.3774Y-1.3179
X13.4126Y-3.2421
X13.4464Y-2.6121
X13.6815Y-2.6319
X14.1146Y-3.0598
X14.7283Y-2.6618
T2
X12.9654Y-1.998
X12.9669Y-2.1945
X12.9858Y-1.9988
X12.9874Y-2.1941
X13.0063Y-1.9984
X13.0079Y-1.9764
X13.0079Y-2.1949
X13.0083Y-2.2173
T3
X13.0129Y-1.7289
X13.0601Y-3.8852
T4
X1.514Y-1.3789
X1.514Y-2.1289
X1.514Y-2.8789
X1.514Y-3.6289
X1.764Y-1.2789
X1.764Y-2.0289
X1.764Y-2.7789
X1.764Y-3.5289
X2.264Y-1.3789
X2.264Y-2.1289
X2.264Y-2.8789
X2.264Y-3.6289
X2.514Y-1.2789
X2.514Y-2.0289
X2.514Y-2.7789
X2.514Y-3.5289
X3.2015Y-3.6289
X3.2953Y-3.6289
X3.389Y-1.3789
X3.4515Y-3.5289
X3.4828Y-2.1289
X3.5453Y-3.5289
X3.639Y-1.2789
X3.6703Y-2.8789
X3.7328Y-2.0289
X3.9203Y-2.7789
X4.0453Y-3.6289
X4.139Y-3.6289
X4.2953Y-3.5289
X4.3265Y-1.3789
X4.389Y-3.5289
X4.514Y-2.1289
X4.5765Y-1.2789
X4.764Y-2.0289
X4.889Y-2.8789
X4.889Y-3.6289
X5.0765Y-1.3789
X5.0765Y-3.6289
X5.139Y-2.7789
X5.139Y-3.5289
X5.264Y-2.1289
X5.3265Y-1.2789
X5.3265Y-3.5289
X5.514Y-2.0289
X5.639Y-2.8789
X5.639Y-3.6289
X5.8265Y-1.3789
X5.889Y-2.7789
X5.889Y-3.5289
X6.014Y-2.1289
X6.0765Y-1.2789
X6.264Y-2.0289
X6.389Y-2.8789
X6.4828Y-3.6289
X6.5765Y-1.3789
X6.639Y-2.7789
X6.7328Y-3.5289
X6.764Y-2.1289
X6.8265Y-1.2789
X6.8578Y-3.6289
X7.014Y-2.0289
X7.1078Y-3.5289
X7.139Y-2.8789
X7.3265Y-1.3789
X7.389Y-2.7789
X7.514Y-2.1289
X7.5765Y-1.2789
X7.7015Y-3.6289
X7.764Y-2.0289
X7.889Y-2.8789
X7.889Y-3.6289
X7.9515Y-3.5289
X8.0765Y-1.3789
X8.139Y-2.7789
X8.139Y-3.5289
X8.264Y-2.1289
X8.3265Y-1.2789
X8.514Y-2.0289
X8.639Y-2.8789
X8.7328Y-3.6289
X8.8265Y-1.3789
X8.889Y-2.7789
X8.9828Y-3.5289
X9.014Y-2.1289
X9.0765Y-1.2789
X9.1078Y-3.6289
X9.264Y-2.0289
X9.3578Y-3.5289
X9.389Y-2.8789
X9.5765Y-1.3789
X9.639Y-2.7789
X9.764Y-2.1289
X9.8265Y-1.2789
X10.014Y-2.0289
X10.139Y-2.8789
X10.139Y-3.6289
X10.3265Y-1.3789
X10.389Y-2.7789
X10.389Y-3.5289
X10.514Y-2.1289
X10.5765Y-1.2789
X10.7015Y-3.6289
X10.764Y-2.0289
X10.889Y-2.8789
X10.889Y-3.6289
X10.9515Y-3.5289
X11.0765Y-1.3789
X11.139Y-2.7789
X11.139Y-3.5289
X11.264Y-2.1289
X11.3265Y-1.2789
X11.514Y-2.0289
X11.639Y-2.8789
X11.639Y-3.6289
X11.7328Y-3.6289
X11.8265Y-1.3789
X11.889Y-2.7789
X11.889Y-3.5289
X11.9828Y-3.5289
X12.0765Y-1.2789
X12.1078Y-2.8789
X12.2015Y-1.3789
X12.2953Y-2.1289
X12.3578Y-2.7789
X12.4515Y-1.2789
X12.4828Y-2.8789
X12.4828Y-3.6289
X12.5453Y-2.0289
X12.5765Y-1.3789
X12.5765Y-3.6289
X12.7328Y-2.7789
X12.7328Y-3.5289
X12.8265Y-1.2789
X12.8265Y-3.5289
X13.514Y-1.3789
X13.514Y-2.1289
X13.514Y-2.8789
X13.514Y-3.6289
X13.764Y-1.2789
X13.764Y-2.0289
X13.764Y-2.7789
X13.764Y-3.5289
X13.889Y-3.6289
X14.139Y-3.5289
X14.264Y-1.3789
X14.264Y-2.1289
X14.264Y-2.8789
X14.264Y-3.6289
X14.514Y-1.2789
X14.514Y-2.0289
X14.514Y-2.7789
X14.514Y-3.5289
X15.014Y-1.3789
X15.014Y-2.1289
X15.014Y-2.8789
X15.014Y-3.6289
X15.264Y-1.2789
X15.264Y-2.0289
X15.264Y-2.7789
X15.264Y-3.5289
T0
M30
