0
SECTION
2
HEADER
9
$INSUNITS
70
4
9
$ACADVER
1
AC1014
9
$HANDSEED
5
FFFF
0
ENDSEC
0
SECTION
2
TABLES
0
TABLE
2
VPORT
5
8
100
AcDbSymbolTable
0
ENDTAB
0
TABLE
2
LTYPE
5
5
100
AcDbSymbolTable
0
LTYPE
5
14
100
AcDbSymbolTableRecord
100
AcDbLinetypeTableRecord
2
BYBLOCK
70
0
0
LTYPE
5
15
100
AcDbSymbolTableRecord
100
AcDbLinetypeTableRecord
2
BYLAYER
70
0
0
ENDTAB
0
TABLE
2
LAYER
5
2
100
AcDbSymbolTable
70
2
0
LAYER
5
50
100
AcDbSymbolTableRecord
100
AcDbLayerTableRecord
2
0
70
0
6
CONTINUOUS
0
ENDTAB
0
TABLE
2
STYLE
5
3
100
AcDbSymbolTable
70
1
0
STYLE
5
11
100
AcDbSymbolTableRecord
100
AcDbTextStyleTableRecord
2
STANDARD
70
0
0
ENDTAB
0
TABLE
2
VIEW
5
6
100
AcDbSymbolTable
70
0
0
ENDTAB
0
TABLE
2
UCS
5
7
100
AcDbSymbolTable
70
0
0
ENDTAB
0
TABLE
2
APPID
5
9
100
AcDbSymbolTable
70
2
0
APPID
5
12
100
AcDbSymbolTableRecord
100
AcDbRegAppTableRecord
2
ACAD
70
0
0
ENDTAB
0
TABLE
2
DIMSTYLE
5
A
100
AcDbSymbolTable
70
1
0
ENDTAB
0
TABLE
2
BLOCK_RECORD
5
1
100
AcDbSymbolTable
70
1
0
BLOCK_RECORD
5
1F
100
AcDbSymbolTableRecord
100
AcDbBlockTableRecord
2
*MODEL_SPACE
0
BLOCK_RECORD
5
1B
100
AcDbSymbolTableRecord
100
AcDbBlockTableRecord
2
*PAPER_SPACE
0
ENDTAB
0
ENDSEC
0
SECTION
2
BLOCKS
0
BLOCK
5
20
100
AcDbEntity
100
AcDbBlockBegin
2
*MODEL_SPACE
0
ENDBLK
5
21
100
AcDbEntity
100
AcDbBlockEnd
0
BLOCK
5
1C
100
AcDbEntity
100
AcDbBlockBegin
2
*PAPER_SPACE
0
ENDBLK
5
1D
100
AcDbEntity
100
AcDbBlockEnd
0
ENDSEC
0
SECTION
2
ENTITIES
0
LWPOLYLINE
5
100
100
AcDbEntity
8
0
100
AcDbPolyline
90
8
70
1
43
0.0
10
220.8125
20
-26.337499999999991
42
-0.41421356237314444
10
221.3125
20
-26.837499999999999
10
221.3125
20
-39.837499999999999
42
-0.41421356237311063
10
220.8125
20
-40.337500000000013
10
207.8125
20
-40.337500000000013
42
-0.4142135623730534
10
207.31250000000003
20
-39.837499999999999
10
207.31250000000003
20
-26.837499999999999
42
-0.41421356237307422
10
207.8125
20
-26.337499999999991
0
LWPOLYLINE
5
101
100
AcDbEntity
8
0
100
AcDbPolyline
90
8
70
1
43
0.0
10
201.76249999999999
20
-40.337500000000013
42
0.41421356237311063
10
202.26249999999996
20
-39.837499999999999
10
202.26249999999999
20
-26.837499999999999
42
0.41421356237310025
10
201.76249999999999
20
-26.337499999999999
10
188.76249999999999
20
-26.337499999999999
42
0.41421356237312101
10
188.26249999999993
20
-26.837499999999999
10
188.26249999999999
20
-39.837499999999999
42
0.41421356237313928
10
188.76249999999999
20
-40.337500000000013
0
LWPOLYLINE
5
102
100
AcDbEntity
8
0
100
AcDbPolyline
90
8
70
1
43
0.0
10
169.21250000000001
20
-39.837499999999999
42
0.41421356237311063
10
169.71250000000001
20
-40.337500000000034
10
182.71250000000003
20
-40.337500000000013
42
0.41421356237301177
10
183.21250000000003
20
-39.837499999999999
10
183.21250000000003
20
-26.837499999999999
42
0.41421356237312362
10
182.71250000000003
20
-26.337499999999999
10
169.71250000000001
20
-26.337499999999999
42
0.41421356237316787
10
169.21250000000001
20
-26.837499999999999
0
LWPOLYLINE
5
103
100
AcDbEntity
8
0
100
AcDbPolyline
90
8
70
1
43
0.0
10
131.11250000000001
20
-26.837499999999999
42
-0.41421356237310542
10
131.61250000000001
20
-26.337500000000009
10
144.61250000000001
20
-26.337499999999991
42
-0.41421356237307161
10
145.11250000000001
20
-26.837499999999999
10
145.11250000000001
20
-39.837499999999999
42
-0.41421356237306123
10
144.61250000000001
20
-40.33750000000002
10
131.61250000000001
20
-40.337500000000013
42
-0.41421356237309243
10
131.11250000000001
20
-39.837499999999999
0
LWPOLYLINE
5
104
100
AcDbEntity
8
0
100
AcDbPolyline
90
8
70
1
43
0.0
10
112.56250000000001
20
-26.337499999999999
42
0.41421356237309243
10
112.0625
20
-26.837499999999999
10
112.0625
20
-39.837499999999999
42
0.41421356237309243
10
112.56250000000001
20
-40.337500000000013
10
125.5625
20
-40.337500000000013
42
0.41421356237306123
10
126.0625
20
-39.837499999999999
10
126.06250000000001
20
-26.837499999999999
42
0.41421356237307422
10
125.5625
20
-26.337499999999991
0
LWPOLYLINE
5
105
100
AcDbEntity
8
0
100
AcDbPolyline
90
8
70
1
43
0.0
10
164.16250000000002
20
-26.837499999999999
10
164.16250000000002
20
-39.837499999999999
42
-0.41421356237313928
10
163.66250000000002
20
-40.337500000000013
10
150.66249999999999
20
-40.337500000000013
42
-0.41421356237309243
10
150.16249999999999
20
-39.837499999999999
10
150.16249999999999
20
-26.837499999999999
42
-0.41421356237310542
10
150.66249999999999
20
-26.337500000000009
10
163.66250000000002
20
-26.337499999999991
42
-0.41421356237310025
0
LWPOLYLINE
5
106
100
AcDbEntity
8
0
100
AcDbPolyline
90
8
70
1
43
0.0
10
16.024999999999999
20
-26.337499999999999
10
3.0249999999999999
20
-26.337499999999999
42
0.41421356237309598
10
2.5249999999999999
20
-26.837499999999999
10
2.5249999999999986
20
-39.837499999999999
42
0.4142135623730947
10
3.0249999999999995
20
-40.337500000000013
10
16.024999999999999
20
-40.337500000000013
42
0.41421356237309243
10
16.524999999999999
20
-39.837499999999999
10
16.524999999999999
20
-26.837499999999999
42
0.41421356237309631
0
LWPOLYLINE
5
107
100
AcDbEntity
8
0
100
AcDbPolyline
90
8
70
1
43
0.0
10
21.57500000000001
20
-26.837499999999999
10
21.57500000000001
20
-39.837499999999999
42
0.41421356237310281
10
22.074999999999999
20
-40.337500000000013
10
35.075000000000003
20
-40.337500000000013
42
0.41421356237309503
10
35.57500000000001
20
-39.837499999999999
10
35.57500000000001
20
-26.837499999999999
42
0.41421356237309243
10
35.075000000000003
20
-26.337499999999999
10
22.074999999999999
20
-26.337499999999999
42
0.41421356237309243
0
LWPOLYLINE
5
108
100
AcDbEntity
8
0
100
AcDbPolyline
90
8
70
1
43
0.0
10
50.650000000000013
20
-40.337499999999991
42
-0.41421356237309243
10
50.150000000000013
20
-39.837499999999999
10
50.150000000000013
20
-26.837499999999999
42
-0.41421356237309503
10
50.650000000000013
20
-26.337499999999999
10
63.65000000000002
20
-26.337499999999999
42
-0.41421356237311063
10
64.150000000000006
20
-26.837499999999999
10
64.150000000000006
20
-39.837499999999999
42
-0.41421356237310025
10
63.65000000000002
20
-40.337500000000013
0
LWPOLYLINE
5
109
100
AcDbEntity
8
0
100
AcDbPolyline
90
8
70
1
43
0.0
10
45.650000000000013
20
-26.837499999999999
10
45.650000000000013
20
-39.837499999999999
42
0.41421356237308982
10
46.150000000000013
20
-40.337500000000013
10
46.649999999999999
20
-40.337500000000013
42
0.41421356237310025
10
47.149999999999977
20
-39.837499999999999
10
47.149999999999991
20
-26.837499999999999
42
0.41421356237308982
10
46.649999999999999
20
-26.337499999999999
10
46.150000000000013
20
-26.337499999999999
42
0.41421356237309503
0
LWPOLYLINE
5
110
100
AcDbEntity
8
0
100
AcDbPolyline
90
8
70
1
43
0.0
10
67.650000000000006
20
-26.337499999999999
10
68.150000000000006
20
-26.337499999999999
42
-0.41421356237312362
10
68.65000000000002
20
-26.837499999999999
10
68.650000000000006
20
-39.837499999999999
42
-0.41421356237309243
10
68.150000000000006
20
-40.337500000000013
10
67.650000000000006
20
-40.337499999999991
42
-0.41421356237309243
10
67.150000000000006
20
-39.837499999999999
10
67.150000000000006
20
-26.837499999999999
42
-0.41421356237309503
0
LWPOLYLINE
5
111
100
AcDbEntity
8
0
100
AcDbPolyline
90
8
70
1
43
0.0
10
87.46250000000002
20
-40.337500000000013
10
74.462500000000006
20
-40.337499999999991
42
-0.41421356237307944
10
73.96250000000002
20
-39.837499999999999
10
73.96250000000002
20
-26.837499999999999
42
-0.41421356237307944
10
74.462500000000006
20
-26.337499999999999
10
87.46250000000002
20
-26.337499999999991
42
-0.41421356237309243
10
87.962499999999991
20
-26.837499999999999
10
87.96250000000002
20
-39.837499999999999
42
-0.41421356237306123
0
LWPOLYLINE
5
112
100
AcDbEntity
8
0
100
AcDbPolyline
90
8
70
1
43
0.0
10
106.51250000000002
20
-40.337500000000013
10
93.512500000000003
20
-40.337500000000013
42
-0.41421356237310802
10
93.012500000000017
20
-39.837499999999999
10
93.012500000000017
20
-26.837499999999999
42
-0.41421356237312101
10
93.512500000000003
20
-26.337499999999999
10
106.51250000000002
20
-26.337499999999991
42
-0.41421356237309243
10
107.01250000000002
20
-26.837499999999999
10
107.01250000000002
20
-39.837499999999999
42
-0.41421356237309243
0
LWPOLYLINE
5
113
100
AcDbEntity
8
0
100
AcDbPolyline
90
8
70
1
43
0.0
10
272.04950000000002
20
-42.337499999999999
42
0.41421356237312101
10
272.54950000000008
20
-41.837499999999991
10
272.54950000000002
20
-27.837499999999999
42
0.41421356237312623
10
272.04950000000002
20
-27.337500000000002
10
266.04950000000002
20
-27.337500000000002
42
0.41421356237312884
10
265.54950000000008
20
-27.837499999999999
10
265.54950000000008
20
-41.837499999999991
42
0.4142135623730534
10
266.04950000000002
20
-42.337499999999999
0
LWPOLYLINE
5
114
100
AcDbEntity
8
0
100
AcDbPolyline
90
8
70
1
43
0.0
10
284.01249999999999
20
-40.337500000000013
10
297.0125000000001
20
-40.337500000000013
42
0.41421356237311063
10
297.51250000000016
20
-39.837499999999999
10
297.51250000000016
20
-26.837499999999999
42
0.41421356237310025
10
297.0125000000001
20
-26.337499999999984
10
284.01249999999999
20
-26.337499999999999
42
0.41421356237316787
10
283.51249999999999
20
-26.837499999999999
10
283.51249999999999
20
-39.837499999999999
42
0.41421356237311063
0
LWPOLYLINE
5
115
100
AcDbEntity
8
0
100
AcDbPolyline
90
8
70
1
43
0.0
10
240.36250000000001
20
-39.837499999999999
10
240.36250000000001
20
-26.837499999999999
42
0.41421356237310025
10
239.86250000000001
20
-26.337499999999999
10
226.86250000000001
20
-26.337499999999999
42
0.4142135623730846
10
226.36250000000004
20
-26.837499999999999
10
226.36250000000004
20
-39.837499999999999
42
0.4142135623730846
10
226.86250000000001
20
-40.337500000000013
10
239.86250000000001
20
-40.337500000000013
42
0.41421356237311063
0
LWPOLYLINE
5
116
100
AcDbEntity
8
0
100
AcDbPolyline
90
8
70
1
43
0.0
10
259.41250000000002
20
-39.837499999999999
10
259.41250000000002
20
-26.837499999999999
42
0.41421356237310025
10
258.91250000000002
20
-26.337499999999999
10
245.91250000000002
20
-26.337499999999999
42
0.41421356237312101
10
245.41249999999997
20
-26.837499999999999
10
245.41250000000002
20
-39.837499999999999
42
0.41421356237313928
10
245.91250000000002
20
-40.337500000000013
10
258.91250000000002
20
-40.337500000000013
42
0.41421356237311063
0
LWPOLYLINE
5
117
100
AcDbEntity
8
0
100
AcDbPolyline
90
8
70
1
43
0.0
10
273.98750000000001
20
-39.837499999999999
10
273.98750000000001
20
-26.837499999999999
42
-0.41421356237307161
10
274.48750000000007
20
-26.337499999999999
10
287.48750000000001
20
-26.337499999999991
42
-0.41421356237310025
10
287.98750000000001
20
-26.837499999999999
10
287.98750000000001
20
-39.837499999999999
42
-0.41421356237313928
10
287.48750000000001
20
-40.337500000000013
10
274.48750000000007
20
-40.337500000000013
42
-0.41421356237307422
0
LWPOLYLINE
5
118
100
AcDbEntity
8
0
100
AcDbPolyline
90
8
70
1
43
0.0
10
289.9255
20
-42.337499999999999
10
295.92550000000006
20
-42.337499999999999
42
0.41421356237310542
10
296.42550000000017
20
-41.837499999999991
10
296.42550000000017
20
-27.837499999999999
42
0.41421356237309243
10
295.92550000000006
20
-27.337500000000034
10
289.9255
20
-27.337500000000002
42
0.41421356237312101
10
289.4255
20
-27.837499999999999
10
289.4255
20
-41.837499999999991
42
0.41421356237312101
0
LWPOLYLINE
5
119
100
AcDbEntity
8
0
100
AcDbPolyline
90
2
70
1
43
0.0
10
307.3250000000001
20
-26.837499999999999
10
307.32500000000005
20
-39.837499999999999
0
LWPOLYLINE
5
120
100
AcDbEntity
8
0
100
AcDbPolyline
90
2
70
1
43
0.0
10
321.32499999999999
20
-26.837499999999999
42
0.41421356237309503
10
320.8250000000001
20
-26.337499999999956
42
-0.41421356237309503
0
LWPOLYLINE
5
121
100
AcDbEntity
8
0
100
AcDbPolyline
90
8
70
1
43
0.0
10
307.32500000000005
20
-39.837499999999999
42
0.4142135623730846
10
307.82499999999999
20
-40.337500000000034
10
320.8250000000001
20
-40.337500000000013
42
0.41421356237307944
10
321.32499999999999
20
-39.837499999999999
10
321.32499999999999
20
-26.837499999999999
10
321.32499999999999
20
-39.837499999999999
42
-0.41421356237307944
10
320.8250000000001
20
-40.337500000000013
10
307.82499999999999
20
-40.337500000000034
42
-0.4142135623730846
0
LWPOLYLINE
5
122
100
AcDbEntity
8
0
100
AcDbPolyline
90
2
70
1
43
0.0
10
307.82499999999999
20
-26.337499999999999
42
0.41421356237312623
10
307.3250000000001
20
-26.837499999999999
42
-0.41421356237312623
0
LWPOLYLINE
5
123
100
AcDbEntity
8
0
100
AcDbPolyline
90
2
70
1
43
0.0
10
320.8250000000001
20
-26.337499999999956
10
307.82499999999999
20
-26.337499999999999
0
LWPOLYLINE
5
124
100
AcDbEntity
8
0
100
AcDbPolyline
90
8
70
1
43
0.0
10
264.96249999999998
20
-26.337499999999999
42
0.41421356237316787
10
264.46249999999998
20
-26.837499999999999
10
264.46249999999998
20
-39.837499999999999
42
0.41421356237311063
10
264.96249999999998
20
-40.337500000000034
10
277.96249999999998
20
-40.337500000000013
42
0.41421356237307422
10
278.46250000000009
20
-39.837499999999999
10
278.46250000000009
20
-26.837499999999999
42
0.41421356237309243
10
277.96249999999998
20
-26.337499999999999
0
LWPOLYLINE
5
125
100
AcDbEntity
8
0
100
AcDbPolyline
90
8
70
1
43
0.0
10
326.875
20
-26.337499999999999
42
0.41421356237312101
10
326.375
20
-26.837499999999999
10
326.375
20
-39.837499999999999
42
0.41421356237310802
10
326.875
20
-40.337500000000013
10
339.87500000000011
20
-40.337500000000013
42
0.41421356237307944
10
340.375
20
-39.837499999999999
10
340.375
20
-26.837499999999999
42
0.41421356237309503
10
339.87500000000011
20
-26.337499999999999
0
LWPOLYLINE
5
126
100
AcDbEntity
8
0
100
AcDbPolyline
90
8
70
1
43
0.0
10
326.875
20
-40.337500000000013
10
339.87500000000011
20
-40.337500000000013
42
0.41421356237307944
10
340.375
20
-39.837499999999999
10
340.375
20
-26.837499999999999
42
0.41421356237309503
10
339.87500000000011
20
-26.337499999999999
10
326.875
20
-26.337499999999999
42
0.41421356237312101
10
326.375
20
-26.837499999999999
10
326.375
20
-39.837499999999999
42
0.41421356237310802
0
LWPOLYLINE
5
127
100
AcDbEntity
8
0
100
AcDbPolyline
90
8
70
1
43
0.0
10
53.031250000000014
20
-59.387500000000003
42
-0.41421356237309503
10
52.531250000000007
20
-58.887500000000017
10
52.531250000000007
20
-45.887500000000003
42
-0.41421356237307944
10
53.031250000000014
20
-45.387500000000003
10
66.03125
20
-45.387500000000003
42
-0.41421356237311585
10
66.53125
20
-45.887500000000003
10
66.53125
20
-58.887500000000017
42
-0.41421356237311063
10
66.03125
20
-59.387500000000003
0
LWPOLYLINE
5
128
100
AcDbEntity
8
0
100
AcDbPolyline
90
2
70
1
43
0.0
10
345.42500000000013
20
-39.837499999999999
42
0.41421356237309764
10
345.92500000000001
20
-40.337500000000048
42
-0.41421356237309764
0
LWPOLYLINE
5
129
100
AcDbEntity
8
0
100
AcDbPolyline
90
10
70
1
43
0.0
10
359.42500000000001
20
-39.837499999999999
10
359.42500000000001
20
-26.837499999999999
42
0.41421356237309503
10
358.92500000000013
20
-26.337499999999999
10
345.92500000000001
20
-26.337499999999999
42
0.41421356237308204
10
345.42500000000013
20
-26.837499999999999
10
345.42500000000013
20
-39.837499999999999
10
345.42500000000013
20
-26.837499999999999
42
-0.41421356237308204
10
345.92500000000001
20
-26.337499999999999
10
358.92500000000013
20
-26.337499999999956
42
-0.41421356237309503
10
359.42500000000001
20
-26.837499999999999
0
LWPOLYLINE
5
130
100
AcDbEntity
8
0
100
AcDbPolyline
90
2
70
1
43
0.0
10
358.92500000000013
20
-40.337500000000013
42
0.41421356237307944
10
359.42500000000001
20
-39.837499999999999
42
-0.41421356237307944
0
LWPOLYLINE
5
131
100
AcDbEntity
8
0
100
AcDbPolyline
90
2
70
1
43
0.0
10
345.92500000000001
20
-40.337500000000048
10
358.92500000000013
20
-40.337500000000013
0
LWPOLYLINE
5
132
100
AcDbEntity
8
0
100
AcDbPolyline
90
8
70
1
43
0.0
10
16.524999999999999
20
-58.887500000000017
10
16.524999999999999
20
-45.887500000000003
42
0.41421356237309503
10
16.024999999999999
20
-45.387500000000003
10
3.0249999999999995
20
-45.387500000000003
42
0.41421356237309731
10
2.524999999999999
20
-45.887500000000003
10
2.524999999999999
20
-58.887500000000017
42
0.41421356237308005
10
3.0249999999999995
20
-59.387500000000003
10
16.024999999999999
20
-59.387500000000003
42
0.41421356237307944
0
LWPOLYLINE
5
133
100
AcDbEntity
8
0
100
AcDbPolyline
90
8
70
1
43
0.0
10
22.074999999999999
20
-59.387500000000003
42
-0.41421356237308204
10
21.575000000000017
20
-58.887500000000017
10
21.57500000000001
20
-45.887500000000003
42
-0.41421356237308721
10
22.074999999999999
20
-45.387500000000003
10
35.075000000000003
20
-45.387500000000003
42
-0.41421356237308982
10
35.57500000000001
20
-45.887500000000003
10
35.57500000000001
20
-58.887500000000017
42
-0.41421356237309503
10
35.075000000000003
20
-59.387500000000003
0
LWPOLYLINE
5
134
100
AcDbEntity
8
0
100
AcDbPolyline
90
8
70
1
43
0.0
10
70.03125
20
-45.387500000000003
10
70.53125
20
-45.387500000000003
42
-0.41421356237309503
10
71.03125
20
-45.887500000000003
10
71.03125
20
-58.887500000000017
42
-0.41421356237311063
10
70.53125
20
-59.387500000000003
10
70.03125
20
-59.387500000000003
42
-0.41421356237307422
10
69.531250000000014
20
-58.887500000000017
10
69.531250000000014
20
-45.887500000000003
42
-0.41421356237307422
0
LWPOLYLINE
5
135
100
AcDbEntity
8
0
100
AcDbPolyline
90
8
70
1
43
0.0
10
130.82499999999999
20
-45.887500000000003
10
130.82499999999999
20
-58.887500000000017
42
-0.4142135623730846
10
130.32499999999999
20
-59.387500000000003
10
117.32500000000002
20
-59.387500000000024
42
-0.41421356237310025
10
116.82500000000002
20
-58.887500000000017
10
116.82500000000002
20
-45.887500000000003
42
-0.41421356237308982
10
117.32500000000002
20
-45.387500000000003
10
130.32499999999999
20
-45.387500000000003
42
-0.41421356237308982
0
LWPOLYLINE
5
136
100
AcDbEntity
8
0
100
AcDbPolyline
90
8
70
1
43
0.0
10
111.27500000000001
20
-45.387500000000003
10
98.275000000000006
20
-45.387500000000003
42
0.41421356237308982
10
97.775000000000034
20
-45.887500000000003
10
97.77500000000002
20
-58.887500000000017
42
0.41421356237311063
10
98.275000000000006
20
-59.387499999999996
10
111.27500000000001
20
-59.387500000000003
42
0.41421356237310542
10
111.77500000000002
20
-58.887500000000017
10
111.77500000000002
20
-45.887500000000003
42
0.41421356237308982
0
LWPOLYLINE
5
137
100
AcDbEntity
8
0
100
AcDbPolyline
90
8
70
1
43
0.0
10
49.53125
20
-45.887500000000003
42
0.41421356237309503
10
49.03125
20
-45.387500000000003
10
48.53125
20
-45.387500000000003
42
0.41421356237311063
10
48.031250000000014
20
-45.887500000000003
10
48.031250000000014
20
-58.887500000000017
42
0.41421356237307422
10
48.53125
20
-59.387500000000003
10
49.03125
20
-59.387500000000003
42
0.41421356237307422
10
49.531250000000007
20
-58.887500000000017
0
LWPOLYLINE
5
138
100
AcDbEntity
8
0
100
AcDbPolyline
90
8
70
1
43
0.0
10
78.724999999999994
20
-58.887500000000017
42
0.41421356237311063
10
79.22499999999998
20
-59.387500000000003
10
92.224999999999994
20
-59.387500000000003
42
0.41421356237313145
10
92.725000000000023
20
-58.887500000000017
10
92.725000000000023
20
-45.887500000000003
42
0.41421356237309503
10
92.224999999999994
20
-45.38750000000001
10
79.22499999999998
20
-45.387500000000003
42
0.41421356237309503
10
78.724999999999994
20
-45.887500000000003
0
LWPOLYLINE
5
139
100
AcDbEntity
8
0
100
AcDbPolyline
90
8
70
1
43
0.0
10
136.375
20
-45.387500000000003
42
0.414213562373069
10
135.875
20
-45.887500000000003
10
135.875
20
-58.887500000000017
42
0.41421356237306384
10
136.375
20
-59.387500000000003
10
149.375
20
-59.387500000000003
42
0.41421356237310542
10
149.875
20
-58.887500000000017
10
149.875
20
-45.887500000000003
42
0.41421356237308982
10
149.375
20
-45.387500000000003
0
LWPOLYLINE
5
140
100
AcDbEntity
8
0
100
AcDbPolyline
90
8
70
1
43
0.0
10
154.92500000000001
20
-58.887500000000017
10
154.92500000000001
20
-45.887500000000003
42
-0.414213562373069
10
155.42500000000001
20
-45.387500000000003
10
168.42500000000001
20
-45.387500000000003
42
-0.41421356237312101
10
168.92500000000007
20
-45.887500000000003
10
168.92500000000001
20
-58.887500000000017
42
-0.41421356237312623
10
168.42500000000001
20
-59.387500000000003
10
155.42500000000001
20
-59.387500000000024
42
-0.41421356237307944
0
LWPOLYLINE
5
141
100
AcDbEntity
8
0
100
AcDbPolyline
90
8
70
1
43
0.0
10
174.47500000000002
20
-59.387500000000024
42
-0.41421356237314705
10
173.97500000000002
20
-58.887500000000017
10
173.97500000000002
20
-45.887500000000003
42
-0.41421356237310542
10
174.47500000000002
20
-45.387500000000003
10
187.47499999999999
20
-45.387500000000003
42
-0.41421356237313667
10
187.97499999999999
20
-45.887500000000003
10
187.97499999999999
20
-58.887500000000017
42
-0.41421356237312101
10
187.47499999999999
20
-59.387499999999996
0
LWPOLYLINE
5
142
100
AcDbEntity
8
0
100
AcDbPolyline
90
8
70
1
43
0.0
10
293.36874999999998
20
-58.887500000000017
10
293.36874999999998
20
-45.887500000000003
42
-0.41421356237310542
10
293.86874999999998
20
-45.387500000000003
10
294.36874999999998
20
-45.387500000000003
42
-0.4142135623730846
10
294.86874999999992
20
-45.887500000000003
10
294.86875000000009
20
-58.887500000000017
42
-0.41421356237309503
10
294.36874999999998
20
-59.387500000000003
10
293.86874999999998
20
-59.387500000000024
42
-0.41421356237314705
0
LWPOLYLINE
5
143
100
AcDbEntity
8
0
100
AcDbPolyline
90
8
70
1
43
0.0
10
206.52500000000003
20
-45.387500000000003
10
193.52500000000003
20
-45.387500000000003
42
0.41421356237313667
10
193.02500000000003
20
-45.887500000000003
10
193.02500000000003
20
-58.887500000000017
42
0.41421356237312101
10
193.52500000000003
20
-59.387500000000003
10
206.52500000000003
20
-59.387500000000003
42
0.41421356237307422
10
207.02500000000001
20
-58.887500000000017
10
207.02500000000009
20
-45.887500000000003
42
0.414213562373069
0
LWPOLYLINE
5
144
100
AcDbEntity
8
0
100
AcDbPolyline
90
8
70
1
43
0.0
10
307.32500000000005
20
-58.887500000000017
42
0.414213562373069
10
307.82499999999999
20
-59.387500000000017
10
320.8250000000001
20
-59.387500000000003
42
0.41421356237307944
10
321.32499999999999
20
-58.887500000000017
10
321.32499999999999
20
-45.887500000000003
42
0.41421356237308982
10
320.8250000000001
20
-45.387500000000003
10
307.82499999999999
20
-45.387500000000003
42
0.41421356237313145
10
307.3250000000001
20
-45.887500000000003
0
LWPOLYLINE
5
145
100
AcDbEntity
8
0
100
AcDbPolyline
90
8
70
1
43
0.0
10
271.86874999999998
20
-58.887500000000017
42
0.414213562373069
10
272.36874999999998
20
-59.387500000000017
10
272.86874999999998
20
-59.387500000000003
42
0.41421356237316787
10
273.36874999999998
20
-58.887500000000017
10
273.36874999999998
20
-45.887500000000003
42
0.41421356237310542
10
272.86874999999998
20
-45.387500000000003
10
272.36874999999998
20
-45.387500000000003
42
0.4142135623730846
10
271.86875000000003
20
-45.887500000000003
0
LWPOLYLINE
5
146
100
AcDbEntity
8
0
100
AcDbPolyline
90
8
70
1
43
0.0
10
245.12500000000003
20
-45.887500000000003
42
0.4142135623730846
10
244.62500000000006
20
-45.387499999999974
10
231.625
20
-45.387500000000003
42
0.41421356237312101
10
231.12499999999997
20
-45.887500000000003
10
231.125
20
-58.887500000000017
42
0.41421356237312623
10
231.625
20
-59.387500000000003
10
244.62500000000003
20
-59.387500000000003
42
0.41421356237316787
10
245.12500000000003
20
-58.887500000000017
0
LWPOLYLINE
5
147
100
AcDbEntity
8
0
100
AcDbPolyline
90
8
70
1
43
0.0
10
264.17500000000007
20
-58.887500000000017
10
264.17500000000007
20
-45.887500000000003
42
0.414213562373069
10
263.67500000000001
20
-45.387500000000003
10
250.67500000000001
20
-45.387500000000003
42
0.41421356237312101
10
250.17499999999998
20
-45.887500000000003
10
250.17500000000001
20
-58.887500000000017
42
0.41421356237312623
10
250.67500000000001
20
-59.387500000000003
10
263.67500000000001
20
-59.387500000000003
42
0.41421356237310542
0
LWPOLYLINE
5
148
100
AcDbEntity
8
0
100
AcDbPolyline
90
8
70
1
43
0.0
10
212.07499999999999
20
-58.887500000000017
42
0.41421356237312623
10
212.57499999999999
20
-59.387500000000003
10
225.57500000000002
20
-59.387500000000003
42
0.41421356237316787
10
226.07500000000002
20
-58.887500000000017
10
226.07500000000002
20
-45.887500000000003
42
0.4142135623730846
10
225.57500000000005
20
-45.387499999999974
10
212.57499999999999
20
-45.387500000000003
42
0.41421356237312101
10
212.07499999999996
20
-45.887500000000003
0
LWPOLYLINE
5
149
100
AcDbEntity
8
0
100
AcDbPolyline
90
8
70
1
43
0.0
10
290.36874999999998
20
-45.887500000000003
42
0.41421356237312101
10
289.86874999999998
20
-45.387500000000017
10
276.86874999999998
20
-45.387500000000003
42
0.41421356237312101
10
276.36874999999998
20
-45.887500000000003
10
276.36874999999998
20
-58.887500000000017
42
0.41421356237312623
10
276.86874999999998
20
-59.387500000000003
10
289.86874999999998
20
-59.387500000000003
42
0.41421356237301177
10
290.36874999999998
20
-58.887500000000017
0
LWPOLYLINE
5
150
100
AcDbEntity
8
0
100
AcDbPolyline
90
8
70
1
43
0.0
10
326.875
20
-45.387500000000003
42
0.41421356237312101
10
326.375
20
-45.887500000000003
10
326.375
20
-58.887500000000017
42
0.41421356237310542
10
326.875
20
-59.387500000000003
10
339.87500000000011
20
-59.387500000000003
42
0.41421356237307944
10
340.375
20
-58.887500000000017
10
340.375
20
-45.887500000000003
42
0.41421356237308982
10
339.87500000000011
20
-45.387500000000003
0
LWPOLYLINE
5
151
100
AcDbEntity
8
0
100
AcDbPolyline
90
8
70
1
43
0.0
10
345.42500000000013
20
-58.887500000000017
42
0.41421356237313667
10
345.92500000000001
20
-59.387499999999989
10
358.92500000000013
20
-59.387500000000003
42
0.41421356237307944
10
359.42500000000001
20
-58.887500000000017
10
359.42500000000001
20
-45.887500000000003
42
0.41421356237308982
10
358.92500000000013
20
-45.387499999999967
10
345.92500000000001
20
-45.387500000000003
42
0.41421356237307944
10
345.42500000000013
20
-45.887500000000003
0
LWPOLYLINE
5
152
100
AcDbEntity
8
0
100
AcDbPolyline
90
8
70
1
43
0.0
10
3.0249999999999995
20
-64.4375
10
16.024999999999999
20
-64.4375
42
-0.41421356237308721
10
16.525000000000002
20
-64.9375
10
16.524999999999999
20
-77.9375
42
-0.41421356237309503
10
16.024999999999999
20
-78.4375
10
3.0249999999999995
20
-78.4375
42
-0.41421356237309731
10
2.5249999999999972
20
-77.9375
10
2.5250000000000012
20
-64.9375
42
-0.41421356237312495
0
LWPOLYLINE
5
153
100
AcDbEntity
8
0
100
AcDbPolyline
90
8
70
1
43
0.0
10
70.793750000000003
20
-78.4375
42
0.41421356237311585
10
71.293750000000003
20
-77.9375
10
71.293750000000003
20
-64.9375
42
0.41421356237310542
10
70.793750000000003
20
-64.4375
10
57.793750000000017
20
-64.4375
42
0.41421356237310542
10
57.293750000000003
20
-64.9375
10
57.29375000000001
20
-77.9375
42
0.41421356237307944
10
57.793750000000017
20
-78.4375
0
LWPOLYLINE
5
154
100
AcDbEntity
8
0
100
AcDbPolyline
90
8
70
1
43
0.0
10
35.075000000000003
20
-64.4375
10
22.074999999999999
20
-64.4375
42
0.41421356237309243
10
21.57500000000001
20
-64.9375
10
21.57500000000001
20
-77.9375
42
0.41421356237308721
10
22.074999999999999
20
-78.4375
10
35.075000000000003
20
-78.4375
42
0.41421356237308982
10
35.57500000000001
20
-77.9375
10
35.57500000000001
20
-64.9375
42
0.41421356237309243
0
LWPOLYLINE
5
155
100
AcDbEntity
8
0
100
AcDbPolyline
90
8
70
1
43
0.0
10
55.855750000000022
20
-79.9375
42
-0.41421356237307944
10
55.355750000000015
20
-80.4375
10
49.35575
20
-80.437500000000014
42
-0.41421356237307422
10
48.85575
20
-79.9375
10
48.85575
20
-65.9375
42
-0.41421356237310542
10
49.35575
20
-65.4375
10
55.355750000000015
20
-65.4375
42
-0.41421356237311063
10
55.85575
20
-65.9375
0
LWPOLYLINE
5
156
100
AcDbEntity
8
0
100
AcDbPolyline
90
8
70
1
43
0.0
10
72.731750000000019
20
-79.9375
10
72.731750000000019
20
-65.9375
42
-0.41421356237311063
10
73.231750000000005
20
-65.4375
10
79.231750000000005
20
-65.4375
42
-0.41421356237309503
10
79.731750000000019
20
-65.9375
10
79.731750000000019
20
-79.9375
42
-0.41421356237311585
10
79.231750000000005
20
-80.437500000000014
10
73.231750000000005
20
-80.437500000000014
42
-0.4142135623730846
0
LWPOLYLINE
5
157
100
AcDbEntity
8
0
100
AcDbPolyline
90
8
70
1
43
0.0
10
101.75
20
-64.4375
42
-0.41421356237310542
10
102.25000000000001
20
-64.9375
10
102.25000000000001
20
-77.9375
42
-0.41421356237308982
10
101.75
20
-78.4375
10
88.75
20
-78.437500000000014
42
-0.41421356237310542
10
88.25
20
-77.9375
10
88.250000000000014
20
-64.9375
42
-0.41421356237314189
10
88.75
20
-64.4375
0
LWPOLYLINE
5
158
100
AcDbEntity
8
0
100
AcDbPolyline
90
8
70
1
43
0.0
10
197.5
20
-77.9375
10
197.5
20
-64.9375
42
0.41421356237307422
10
197.00000000000003
20
-64.4375
10
184.00000000000003
20
-64.4375
42
0.41421356237314189
10
183.5
20
-64.9375
10
183.5
20
-77.9375
42
0.41421356237310542
10
184.00000000000003
20
-78.4375
10
197.00000000000003
20
-78.4375
42
0.4142135623730846
0
LWPOLYLINE
5
159
100
AcDbEntity
8
0
100
AcDbPolyline
90
8
70
1
43
0.0
10
139.84999999999999
20
-64.4375
42
-0.41421356237310542
10
140.34999999999999
20
-64.9375
10
140.34999999999999
20
-77.9375
42
-0.41421356237308982
10
139.84999999999999
20
-78.4375
10
126.85000000000001
20
-78.437500000000014
42
-0.41421356237305862
10
126.34999999999999
20
-77.9375
10
126.34999999999999
20
-64.9375
42
-0.41421356237309503
10
126.85000000000001
20
-64.4375
0
LWPOLYLINE
5
160
100
AcDbEntity
8
0
100
AcDbPolyline
90
8
70
1
43
0.0
10
107.80000000000001
20
-78.4375
10
120.8
20
-78.4375
42
0.414213562373069
10
121.30000000000001
20
-77.9375
10
121.30000000000001
20
-64.9375
42
0.41421356237309503
10
120.8
20
-64.4375
10
107.80000000000001
20
-64.4375
42
0.41421356237310542
10
107.30000000000001
20
-64.9375
10
107.30000000000001
20
-77.9375
42
0.41421356237308982
0
LWPOLYLINE
5
161
100
AcDbEntity
8
0
100
AcDbPolyline
90
8
70
1
43
0.0
10
202.55000000000001
20
-77.9375
42
0.4142135623730846
10
203.05000000000001
20
-78.437500000000028
10
216.05000000000004
20
-78.4375
42
0.41421356237311063
10
216.55000000000007
20
-77.9375
10
216.55000000000007
20
-64.9375
42
0.41421356237310025
10
216.05000000000004
20
-64.437500000000028
10
203.05000000000004
20
-64.4375
42
0.41421356237314189
10
202.55000000000001
20
-64.9375
0
LWPOLYLINE
5
162
100
AcDbEntity
8
0
100
AcDbPolyline
90
8
70
1
43
0.0
10
178.44999999999999
20
-77.9375
42
-0.4142135623730846
10
177.95000000000002
20
-78.437500000000028
10
164.95000000000002
20
-78.437500000000014
42
-0.41421356237311063
10
164.44999999999999
20
-77.9375
10
164.44999999999999
20
-64.9375
42
-0.41421356237310025
10
164.95000000000002
20
-64.437499999999986
10
177.94999999999999
20
-64.4375
42
-0.41421356237314189
10
178.44999999999999
20
-64.9375
0
LWPOLYLINE
5
163
100
AcDbEntity
8
0
100
AcDbPolyline
90
8
70
1
43
0.0
10
158.90000000000001
20
-64.4375
10
145.90000000000001
20
-64.4375
42
0.41421356237307422
10
145.40000000000001
20
-64.9375
10
145.40000000000001
20
-77.9375
42
0.414213562373069
10
145.90000000000001
20
-78.4375
10
158.90000000000001
20
-78.4375
42
0.41421356237308982
10
159.40000000000001
20
-77.9375
10
159.40000000000001
20
-64.9375
42
0.41421356237311585
0
LWPOLYLINE
5
164
100
AcDbEntity
8
0
100
AcDbPolyline
90
8
70
1
43
0.0
10
221.59999999999999
20
-64.9375
42
-0.41421356237313145
10
222.10000000000002
20
-64.4375
10
235.10000000000002
20
-64.4375
42
-0.41421356237314189
10
235.60000000000002
20
-64.9375
10
235.60000000000002
20
-77.9375
42
-0.41421356237310542
10
235.10000000000002
20
-78.4375
10
222.10000000000002
20
-78.437500000000014
42
-0.41421356237301699
10
221.59999999999999
20
-77.9375
0
LWPOLYLINE
5
165
100
AcDbEntity
8
0
100
AcDbPolyline
90
8
70
1
43
0.0
10
241.15000000000003
20
-78.437500000000014
42
-0.41421356237301699
10
240.65000000000001
20
-77.9375
10
240.65000000000001
20
-64.9375
42
-0.41421356237313145
10
241.15000000000003
20
-64.4375
10
254.15000000000003
20
-64.4375
42
-0.41421356237314189
10
254.65000000000003
20
-64.9375
10
254.65000000000003
20
-77.9375
42
-0.41421356237310542
10
254.15000000000003
20
-78.4375
0
LWPOLYLINE
5
166
100
AcDbEntity
8
0
100
AcDbPolyline
90
8
70
1
43
0.0
10
285.10624999999999
20
-64.4375
10
272.10624999999999
20
-64.4375
42
0.4142135623730222
10
271.60624999999999
20
-64.9375
10
271.60624999999999
20
-77.9375
42
0.41421356237312101
10
272.10624999999999
20
-78.437499999999986
10
285.10624999999999
20
-78.4375
42
0.4142135623730846
10
285.6062500000001
20
-77.9375
10
285.6062500000001
20
-64.9375
42
0.41421356237307422
0
LWPOLYLINE
5
167
100
AcDbEntity
8
0
100
AcDbPolyline
90
8
70
1
43
0.0
10
307.82499999999999
20
-78.437500000000014
42
-0.41421356237305862
10
307.32500000000005
20
-77.9375
10
307.32500000000005
20
-64.9375
42
-0.41421356237307422
10
307.82499999999999
20
-64.4375
10
320.8250000000001
20
-64.437500000000014
42
-0.41421356237307944
10
321.32499999999999
20
-64.9375
10
321.32499999999999
20
-77.9375
42
-0.41421356237308982
10
320.8250000000001
20
-78.437500000000028
0
LWPOLYLINE
5
168
100
AcDbEntity
8
0
100
AcDbPolyline
90
2
70
1
43
0.0
10
339.87500000000011
20
-64.437500000000014
42
-0.41421356237307944
10
340.375
20
-64.9375
42
0.41421356237307944
0
LWPOLYLINE
5
169
100
AcDbEntity
8
0
100
AcDbPolyline
90
10
70
1
43
0.0
10
339.87500000000011
20
-78.4375
10
326.875
20
-78.437499999999972
42
-0.4142135623730222
10
326.375
20
-77.9375
10
326.375
20
-64.9375
42
-0.41421356237310542
10
326.875
20
-64.437500000000014
10
339.87500000000011
20
-64.437500000000014
10
326.875
20
-64.437500000000014
42
0.41421356237310542
10
326.375
20
-64.9375
10
326.375
20
-77.9375
42
0.4142135623730222
10
326.875
20
-78.437499999999972
0
LWPOLYLINE
5
170
100
AcDbEntity
8
0
100
AcDbPolyline
90
4
70
1
43
0.0
10
340.375
20
-64.9375
10
340.375
20
-77.9375
42
-0.41421356237308982
10
339.87500000000011
20
-78.437500000000028
42
0.41421356237308982
10
340.375
20
-77.9375
0
LWPOLYLINE
5
171
100
AcDbEntity
8
0
100
AcDbPolyline
90
8
70
1
43
0.0
10
273.19999999999999
20
-64.4375
10
260.19999999999999
20
-64.4375
42
0.41421356237314189
10
259.69999999999999
20
-64.9375
10
259.69999999999999
20
-77.9375
42
0.4142135623730846
10
260.19999999999993
20
-78.437500000000028
10
273.19999999999999
20
-78.4375
42
0.41421356237312101
10
273.69999999999999
20
-77.9375
10
273.69999999999999
20
-64.9375
42
0.41421356237313145
0
LWPOLYLINE
5
172
100
AcDbEntity
8
0
100
AcDbPolyline
90
8
70
1
43
0.0
10
281.63125000000002
20
-64.4375
42
0.41421356237314189
10
281.13125000000002
20
-64.9375
10
281.13125000000002
20
-77.9375
42
0.41421356237310542
10
281.63125000000002
20
-78.4375
10
294.63125000000002
20
-78.4375
42
0.4142135623730846
10
295.13124999999997
20
-77.9375
10
295.13125000000014
20
-64.9375
42
0.41421356237309503
10
294.63125000000002
20
-64.437500000000028
0
LWPOLYLINE
5
173
100
AcDbEntity
8
0
100
AcDbPolyline
90
8
70
1
43
0.0
10
269.66825
20
-65.4375
10
263.66825
20
-65.4375
42
0.41421356237314189
10
263.16825
20
-65.9375
10
263.16825
20
-79.9375
42
0.41421356237310025
10
263.66825
20
-80.437500000000014
10
269.66825
20
-80.437500000000014
42
0.41421356237308982
10
270.16825
20
-79.9375
10
270.16825
20
-65.9375
42
0.41421356237313145
0
LWPOLYLINE
5
174
100
AcDbEntity
8
0
100
AcDbPolyline
90
8
70
1
43
0.0
10
287.04425000000009
20
-65.9375
10
287.04425000000003
20
-79.9375
42
0.41421356237307422
10
287.54424999999998
20
-80.437500000000014
10
293.54424999999998
20
-80.437500000000014
42
0.41421356237307944
10
294.04424999999992
20
-79.9375
10
294.04424999999992
20
-65.9375
42
0.41421356237307422
10
293.54424999999998
20
-65.4375
10
287.54424999999998
20
-65.4375
42
0.41421356237307944
0
LWPOLYLINE
5
175
100
AcDbEntity
8
0
100
AcDbPolyline
90
8
70
1
43
0.0
10
22.074999999999999
20
-83.487499999999983
42
0.4142135623730846
10
21.574999999999992
20
-83.987499999999983
10
21.57500000000001
20
-96.987500000000011
42
0.41421356237310542
10
22.074999999999999
20
-97.487500000000011
10
35.075000000000003
20
-97.487500000000011
42
0.41421356237309243
10
35.57500000000001
20
-96.987500000000011
10
35.57500000000001
20
-83.987499999999983
42
0.41421356237306384
10
35.075000000000003
20
-83.487500000000026
0
LWPOLYLINE
5
176
100
AcDbEntity
8
0
100
AcDbPolyline
90
8
70
1
43
0.0
10
45.887500000000003
20
-83.487499999999983
42
0.4142135623730846
10
45.387499999999996
20
-83.987499999999983
10
45.387500000000003
20
-96.987500000000011
42
0.41421356237308982
10
45.887500000000003
20
-97.487500000000011
10
58.887500000000017
20
-97.487500000000011
42
0.4142135623730846
10
59.387500000000003
20
-96.987500000000011
10
59.387500000000003
20
-83.987499999999983
42
0.41421356237311585
10
58.887500000000017
20
-83.487499999999983
0
LWPOLYLINE
5
177
100
AcDbEntity
8
0
100
AcDbPolyline
90
8
70
1
43
0.0
10
359.42500000000001
20
-64.9375
42
0.41421356237313667
10
358.92500000000013
20
-64.437500000000028
10
345.92500000000001
20
-64.4375
42
0.4142135623730846
10
345.42500000000013
20
-64.9375
10
345.42500000000013
20
-77.9375
42
0.41421356237308982
10
345.92500000000001
20
-78.437500000000028
10
358.92500000000013
20
-78.4375
42
0.41421356237307944
10
359.42500000000001
20
-77.9375
0
LWPOLYLINE
5
178
100
AcDbEntity
8
0
100
AcDbPolyline
90
8
70
1
43
0.0
10
3.0249999999999995
20
-83.487499999999983
42
0.41421356237308787
10
2.5249999999999866
20
-83.987499999999983
10
2.524999999999999
20
-96.987500000000011
42
0.41421356237309276
10
3.0249999999999995
20
-97.487500000000011
10
16.024999999999999
20
-97.487500000000011
42
0.41421356237310414
10
16.524999999999999
20
-96.987500000000011
10
16.524999999999999
20
-83.987499999999983
42
0.41421356237310281
10
16.024999999999999
20
-83.487499999999983
0
LWPOLYLINE
5
179
100
AcDbEntity
8
0
100
AcDbPolyline
90
8
70
1
43
0.0
10
69.200000000000003
20
-83.987499999999983
42
-0.41421356237305862
10
69.700000000000003
20
-83.487500000000026
10
82.700000000000017
20
-83.487499999999983
42
-0.41421356237309503
10
83.200000000000003
20
-83.987499999999983
10
83.200000000000017
20
-96.987500000000011
42
-0.41421356237307422
10
82.700000000000017
20
-97.487500000000011
10
69.700000000000003
20
-97.487500000000011
42
-0.41421356237311585
10
69.200000000000003
20
-96.987500000000011
0
LWPOLYLINE
5
180
100
AcDbEntity
8
0
100
AcDbPolyline
90
8
70
1
43
0.0
10
48.268750000000004
20
-97.487500000000011
10
61.268749999999997
20
-97.487500000000011
42
0.4142135623730846
10
61.76874999999999
20
-96.987500000000011
10
61.76874999999999
20
-83.987499999999983
42
0.41421356237311585
10
61.268749999999997
20
-83.487499999999983
10
48.268750000000004
20
-83.487499999999983
42
0.41421356237308982
10
47.768749999999997
20
-83.987499999999983
10
47.768749999999997
20
-96.987500000000011
42
0.41421356237309503
0
LWPOLYLINE
5
181
100
AcDbEntity
8
0
100
AcDbPolyline
90
8
70
1
43
0.0
10
61.76874999999999
20
-83.987499999999983
42
0.41421356237311585
10
61.268749999999997
20
-83.487499999999983
10
48.268750000000004
20
-83.487499999999983
42
0.41421356237308982
10
47.768749999999997
20
-83.987499999999983
10
47.768749999999997
20
-96.987500000000011
42
0.41421356237309503
10
48.268750000000004
20
-97.487500000000011
10
61.268749999999997
20
-97.487500000000011
42
0.4142135623730846
10
61.76874999999999
20
-96.987500000000011
0
LWPOLYLINE
5
182
100
AcDbEntity
8
0
100
AcDbPolyline
90
8
70
1
43
0.0
10
67.318749999999994
20
-83.487499999999983
42
0.4142135623730846
10
66.818749999999994
20
-83.987499999999983
10
66.818749999999994
20
-96.987500000000011
42
0.41421356237308982
10
67.318749999999994
20
-97.487500000000011
10
80.31874999999998
20
-97.487500000000011
42
0.41421356237307422
10
80.81874999999998
20
-96.987500000000011
10
80.81874999999998
20
-83.987499999999983
42
0.4142135623730846
10
80.31874999999998
20
-83.487499999999983
0
LWPOLYLINE
5
183
100
AcDbEntity
8
0
100
AcDbPolyline
90
8
70
1
43
0.0
10
110.0125
20
-96.987500000000011
10
110.0125
20
-83.987499999999983
42
-0.4142135623730846
10
110.51250000000002
20
-83.487499999999983
10
111.0125
20
-83.487499999999983
42
-0.41421356237310542
10
111.51250000000002
20
-83.987499999999983
42
0.41421356237310542
10
111.0125
20
-83.487499999999983
10
110.51250000000002
20
-83.487499999999983
42
0.4142135623730846
10
110.0125
20
-83.987499999999983
0
LWPOLYLINE
5
184
100
AcDbEntity
8
0
100
AcDbPolyline
90
4
70
1
43
0.0
10
111.0125
20
-97.487500000000011
10
110.51250000000002
20
-97.487500000000011
42
-0.41421356237307422
10
110.0125
20
-96.987500000000011
42
0.41421356237307422
10
110.51250000000002
20
-97.487500000000011
0
LWPOLYLINE
5
185
100
AcDbEntity
8
0
100
AcDbPolyline
90
2
70
1
43
0.0
10
111.51250000000002
20
-83.987499999999983
10
111.51250000000002
20
-96.987500000000011
0
LWPOLYLINE
5
186
100
AcDbEntity
8
0
100
AcDbPolyline
90
2
70
1
43
0.0
10
111.51250000000002
20
-96.987500000000011
42
-0.41421356237309503
10
111.0125
20
-97.487500000000011
42
0.41421356237309503
0
LWPOLYLINE
5
187
100
AcDbEntity
8
0
100
AcDbPolyline
90
2
70
1
43
0.0
10
106.51250000000002
20
-97.487500000000011
10
93.512500000000003
20
-97.487500000000011
0
LWPOLYLINE
5
188
100
AcDbEntity
8
0
100
AcDbPolyline
90
10
70
1
43
0.0
10
93.012500000000017
20
-83.987499999999983
42
-0.41421356237309503
10
93.512500000000003
20
-83.487500000000026
10
106.51250000000002
20
-83.487499999999983
42
-0.41421356237310542
10
107.01250000000002
20
-83.987499999999983
10
107.01250000000002
20
-96.987500000000011
42
-0.41421356237309503
10
106.51250000000002
20
-97.487500000000011
42
0.41421356237309503
10
107.01250000000002
20
-96.987500000000011
10
107.01250000000002
20
-83.987499999999983
42
0.41421356237310542
10
106.51250000000002
20
-83.487499999999983
10
93.512500000000003
20
-83.487500000000026
42
0.41421356237309503
0
LWPOLYLINE
5
189
100
AcDbEntity
8
0
100
AcDbPolyline
90
4
70
1
43
0.0
10
93.512500000000003
20
-97.487500000000011
42
-0.41421356237306384
10
93.012500000000017
20
-96.987500000000011
10
93.012500000000017
20
-83.987499999999983
10
93.012500000000017
20
-96.987500000000011
42
0.41421356237306384
0
LWPOLYLINE
5
190
100
AcDbEntity
8
0
100
AcDbPolyline
90
2
70
1
43
0.0
10
89.512499999999989
20
-83.487499999999983
10
89.012500000000031
20
-83.487499999999983
0
LWPOLYLINE
5
191
100
AcDbEntity
8
0
100
AcDbPolyline
90
2
70
1
43
0.0
10
89.012500000000031
20
-97.487500000000011
10
89.512499999999989
20
-97.487500000000011
0
LWPOLYLINE
5
192
100
AcDbEntity
8
0
100
AcDbPolyline
90
6
70
1
43
0.0
10
89.512499999999989
20
-97.487500000000011
42
0.41421356237311585
10
90.012500000000017
20
-96.987500000000011
10
90.012500000000003
20
-83.987499999999983
42
0.41421356237309503
10
89.512499999999989
20
-83.487499999999983
42
-0.41421356237309503
10
90.012500000000003
20
-83.987499999999983
10
90.012500000000017
20
-96.987500000000011
42
-0.41421356237311585
0
LWPOLYLINE
5
193
100
AcDbEntity
8
0
100
AcDbPolyline
90
2
70
1
43
0.0
10
88.512500000000003
20
-83.987499999999983
10
88.512500000000003
20
-96.987500000000011
0
LWPOLYLINE
5
194
100
AcDbEntity
8
0
100
AcDbPolyline
90
2
70
1
43
0.0
10
88.512500000000003
20
-96.987500000000011
42
0.41421356237312623
10
89.012500000000031
20
-97.487500000000011
42
-0.41421356237312623
0
LWPOLYLINE
5
195
100
AcDbEntity
8
0
100
AcDbPolyline
90
2
70
1
43
0.0
10
89.012500000000031
20
-83.487499999999983
42
0.4142135623730534
10
88.512500000000003
20
-83.987499999999983
42
-0.4142135623730534
0
LWPOLYLINE
5
196
100
AcDbEntity
8
0
100
AcDbPolyline
90
8
70
1
43
0.0
10
164.95000000000002
20
-97.487500000000011
42
-0.41421356237314705
10
164.44999999999999
20
-96.987500000000011
10
164.44999999999999
20
-83.987499999999983
42
-0.41421356237304302
10
164.94999999999999
20
-83.487500000000026
10
177.94999999999999
20
-83.487499999999983
42
-0.41421356237312623
10
178.44999999999999
20
-83.987499999999983
10
178.44999999999999
20
-96.987500000000011
42
-0.41421356237313667
10
177.94999999999999
20
-97.487500000000011
0
LWPOLYLINE
5
197
100
AcDbEntity
8
0
100
AcDbPolyline
90
8
70
1
43
0.0
10
164.44999999999999
20
-83.987499999999983
42
-0.41421356237304302
10
164.94999999999999
20
-83.487500000000026
10
177.94999999999999
20
-83.487499999999983
42
-0.41421356237312623
10
178.44999999999999
20
-83.987499999999983
10
178.44999999999999
20
-96.987500000000011
42
-0.41421356237313667
10
177.94999999999999
20
-97.487500000000011
10
164.95000000000002
20
-97.487500000000011
42
-0.41421356237314705
10
164.44999999999999
20
-96.987500000000011
0
LWPOLYLINE
5
198
100
AcDbEntity
8
0
100
AcDbPolyline
90
8
70
1
43
0.0
10
88.75
20
-97.487500000000011
10
101.75
20
-97.487500000000011
42
0.41421356237309503
10
102.25000000000001
20
-96.987500000000011
10
102.25000000000001
20
-83.987499999999983
42
0.41421356237310542
10
101.75
20
-83.487499999999983
10
88.75
20
-83.487499999999983
42
0.41421356237307422
10
88.250000000000014
20
-83.987499999999983
10
88.250000000000014
20
-96.987500000000011
42
0.41421356237314705
0
LWPOLYLINE
5
199
100
AcDbEntity
8
0
100
AcDbPolyline
90
8
70
1
43
0.0
10
151.16925000000003
20
-95.987500000000011
42
-0.41421356237310542
10
150.66925000000001
20
-96.487499999999997
10
144.66925000000001
20
-96.487499999999997
42
-0.4142135623730846
10
144.16925000000001
20
-95.987500000000011
10
144.16925000000001
20
-81.987500000000026
42
-0.41421356237309503
10
144.66925000000001
20
-81.487499999999983
10
150.66925000000001
20
-81.487499999999983
42
-0.41421356237309503
10
151.16925000000003
20
-81.987500000000026
0
LWPOLYLINE
5
200
100
AcDbEntity
8
0
100
AcDbPolyline
90
8
70
1
43
0.0
10
107.80000000000001
20
-97.487500000000011
10
120.8
20
-97.487500000000011
42
0.41421356237307422
10
121.30000000000001
20
-96.987500000000011
10
121.30000000000001
20
-83.987499999999983
42
0.4142135623730534
10
120.8
20
-83.487500000000011
10
107.80000000000001
20
-83.487499999999983
42
0.41421356237310542
10
107.30000000000001
20
-83.987499999999983
10
107.30000000000001
20
-96.987500000000011
42
0.41421356237309503
0
LWPOLYLINE
5
201
100
AcDbEntity
8
0
100
AcDbPolyline
90
8
70
1
43
0.0
10
110.8
20
-95.987500000000011
42
0.4142135623730846
10
111.30000000000001
20
-96.487499999999997
10
117.30000000000001
20
-96.487499999999997
42
0.41421356237310542
10
117.80000000000001
20
-95.987500000000011
10
117.80000000000001
20
-81.987500000000026
42
0.41421356237309503
10
117.30000000000001
20
-81.487499999999983
10
111.30000000000001
20
-81.487499999999983
42
0.41421356237309503
10
110.8
20
-81.987500000000026
0
LWPOLYLINE
5
202
100
AcDbEntity
8
0
100
AcDbPolyline
90
8
70
1
43
0.0
10
222.07499999999999
20
-96.487499999999997
42
0.41421356237312623
10
222.57499999999999
20
-95.987500000000011
10
222.57499999999999
20
-81.987500000000026
42
0.41421356237310542
10
222.07499999999999
20
-81.487499999999983
10
216.07500000000002
20
-81.487499999999983
42
0.41421356237307422
10
215.57500000000002
20
-81.987500000000026
10
215.57500000000002
20
-95.987500000000011
42
0.41421356237311585
10
216.07500000000002
20
-96.487499999999997
0
LWPOLYLINE
5
203
100
AcDbEntity
8
0
100
AcDbPolyline
90
8
70
1
43
0.0
10
222.57499999999999
20
-95.987500000000011
10
222.57499999999999
20
-81.987500000000026
42
0.41421356237310542
10
222.07499999999999
20
-81.487499999999983
10
216.07500000000002
20
-81.487499999999983
42
0.41421356237307422
10
215.57500000000002
20
-81.987500000000026
10
215.57500000000002
20
-95.987500000000011
42
0.41421356237311585
10
216.07500000000002
20
-96.487499999999997
10
222.07499999999999
20
-96.487499999999997
42
0.41421356237312623
0
LWPOLYLINE
5
204
100
AcDbEntity
8
0
100
AcDbPolyline
90
8
70
1
43
0.0
10
225.10000000000002
20
-81.987500000000026
10
225.10000000000002
20
-95.987500000000011
42
0.41421356237311585
10
225.60000000000002
20
-96.487499999999983
10
231.59999999999999
20
-96.487499999999997
42
0.41421356237312623
10
232.10000000000002
20
-95.987500000000011
10
232.10000000000002
20
-81.987500000000026
42
0.41421356237310542
10
231.59999999999999
20
-81.487499999999983
10
225.60000000000002
20
-81.487499999999983
42
0.41421356237307422
0
LWPOLYLINE
5
205
100
AcDbEntity
8
0
100
AcDbPolyline
90
2
70
1
43
0.0
10
126.82500000000002
20
-81.487499999999983
42
-0.41421356237309503
10
127.32500000000002
20
-81.987500000000026
42
0.41421356237309503
0
LWPOLYLINE
5
206
100
AcDbEntity
8
0
100
AcDbPolyline
90
2
70
1
43
0.0
10
126.82500000000002
20
-96.487499999999997
10
120.82500000000002
20
-96.487499999999997
0
LWPOLYLINE
5
207
100
AcDbEntity
8
0
100
AcDbPolyline
90
6
70
1
43
0.0
10
120.325
20
-95.987500000000011
10
120.325
20
-81.987500000000026
42
-0.41421356237309503
10
120.82500000000002
20
-81.487499999999983
10
126.82500000000002
20
-81.487499999999983
10
120.82500000000002
20
-81.487499999999983
42
0.41421356237309503
10
120.325
20
-81.987500000000026
0
LWPOLYLINE
5
208
100
AcDbEntity
8
0
100
AcDbPolyline
90
2
70
1
43
0.0
10
127.32500000000002
20
-95.987500000000011
42
-0.41421356237310542
10
126.82500000000002
20
-96.487499999999997
42
0.41421356237310542
0
LWPOLYLINE
5
209
100
AcDbEntity
8
0
100
AcDbPolyline
90
2
70
1
43
0.0
10
127.32500000000002
20
-81.987500000000026
10
127.32500000000002
20
-95.987500000000011
0
LWPOLYLINE
5
210
100
AcDbEntity
8
0
100
AcDbPolyline
90
2
70
1
43
0.0
10
120.82500000000002
20
-96.487499999999997
42
-0.4142135623730846
10
120.325
20
-95.987500000000011
42
0.4142135623730846
0
LWPOLYLINE
5
211
100
AcDbEntity
8
0
100
AcDbPolyline
90
8
70
1
43
0.0
10
142.23124999999999
20
-97.487500000000011
42
0.41421356237309503
10
142.73124999999999
20
-96.987500000000011
10
142.73124999999999
20
-83.987499999999983
42
0.41421356237310542
10
142.23124999999999
20
-83.487499999999983
10
129.23124999999999
20
-83.487499999999983
42
0.41421356237307422
10
128.73124999999999
20
-83.987499999999983
10
128.73124999999999
20
-96.987500000000011
42
0.41421356237314705
10
129.23124999999999
20
-97.487500000000011
0
LWPOLYLINE
5
212
100
AcDbEntity
8
0
100
AcDbPolyline
90
8
70
1
43
0.0
10
136.375
20
-97.487500000000011
42
-0.41421356237307422
10
135.875
20
-96.987500000000011
10
135.875
20
-83.987499999999983
42
-0.4142135623730534
10
136.375
20
-83.487500000000026
10
149.375
20
-83.487499999999983
42
-0.41421356237310542
10
149.875
20
-83.987499999999983
10
149.875
20
-96.987500000000011
42
-0.41421356237309503
10
149.375
20
-97.487500000000011
0
LWPOLYLINE
5
213
100
AcDbEntity
8
0
100
AcDbPolyline
90
8
70
1
43
0.0
10
160.69425000000001
20
-81.987500000000026
42
0.4142135623730846
10
160.19425000000007
20
-81.487499999999997
10
154.19425000000001
20
-81.487499999999983
42
0.41421356237309503
10
153.69425000000001
20
-81.987500000000026
10
153.69425000000001
20
-95.987500000000011
42
0.4142135623730846
10
154.19425000000001
20
-96.487499999999997
10
160.19425000000001
20
-96.487499999999997
42
0.41421356237312623
10
160.69425000000001
20
-95.987500000000011
0
LWPOLYLINE
5
214
100
AcDbEntity
8
0
100
AcDbPolyline
90
8
70
1
43
0.0
10
164.92500000000004
20
-81.487499999999983
42
-0.4142135623730846
10
165.42500000000004
20
-81.987500000000026
10
165.42500000000001
20
-95.987500000000011
42
-0.41421356237312623
10
164.92500000000004
20
-96.487499999999997
10
158.92500000000001
20
-96.487499999999997
42
-0.41421356237310542
10
158.42500000000001
20
-95.987500000000011
10
158.42500000000001
20
-81.987500000000026
42
-0.41421356237309503
10
158.92500000000001
20
-81.487499999999983
0
LWPOLYLINE
5
215
100
AcDbEntity
8
0
100
AcDbPolyline
90
8
70
1
43
0.0
10
136.31825000000001
20
-96.487499999999997
10
130.31825000000001
20
-96.487499999999997
42
-0.41421356237310542
10
129.81825000000001
20
-95.987500000000011
10
129.81825000000001
20
-81.987500000000026
42
-0.41421356237309503
10
130.31825000000001
20
-81.487499999999983
10
136.31825000000001
20
-81.487499999999983
42
-0.41421356237309503
10
136.81825000000001
20
-81.987500000000026
10
136.81825000000001
20
-95.987500000000011
42
-0.4142135623730846
0
LWPOLYLINE
5
216
100
AcDbEntity
8
0
100
AcDbPolyline
90
8
70
1
43
0.0
10
152.25625000000002
20
-83.987499999999983
42
0.4142135623730534
10
151.75624999999999
20
-83.487500000000011
10
138.75624999999999
20
-83.487499999999983
42
0.41421356237307422
10
138.25624999999999
20
-83.987499999999983
10
138.25624999999999
20
-96.987500000000011
42
0.41421356237314705
10
138.75624999999999
20
-97.487500000000011
10
151.75624999999999
20
-97.487500000000011
42
0.41421356237309503
10
152.25625000000002
20
-96.987500000000011
0
LWPOLYLINE
5
217
100
AcDbEntity
8
0
100
AcDbPolyline
90
8
70
1
43
0.0
10
127.29325000000001
20
-95.987500000000011
10
127.29325000000001
20
-81.987500000000026
42
0.41421356237309503
10
126.79325
20
-81.487499999999983
10
120.79325
20
-81.487499999999983
42
0.41421356237309503
10
120.29325
20
-81.987500000000026
10
120.29325
20
-95.987500000000011
42
0.41421356237310542
10
120.79325
20
-96.487499999999997
10
126.79325
20
-96.487499999999997
42
0.4142135623730846
0
LWPOLYLINE
5
218
100
AcDbEntity
8
0
100
AcDbPolyline
90
8
70
1
43
0.0
10
173.68750000000003
20
-83.987499999999983
10
173.68750000000003
20
-96.987500000000011
42
-0.41421356237310542
10
173.1875
20
-97.487500000000011
10
160.1875
20
-97.487500000000011
42
-0.41421356237309503
10
159.6875
20
-96.987500000000011
10
159.6875
20
-83.987499999999983
42
-0.41421356237304302
10
160.18749999999997
20
-83.487500000000026
10
173.1875
20
-83.487499999999983
42
-0.41421356237304302
0
LWPOLYLINE
5
219
100
AcDbEntity
8
0
100
AcDbPolyline
90
8
70
1
43
0.0
10
201.81925000000004
20
-81.487499999999983
42
0.41421356237313667
10
201.31925000000007
20
-81.987500000000026
10
201.31925000000001
20
-95.987500000000011
42
0.41421356237310542
10
201.81925000000001
20
-96.487499999999997
10
207.81925000000001
20
-96.487499999999997
42
0.41421356237304302
10
208.31925000000001
20
-95.987500000000011
10
208.31925000000001
20
-81.987500000000026
42
0.41421356237312623
10
207.81925000000001
20
-81.487499999999955
0
LWPOLYLINE
5
220
100
AcDbEntity
8
0
100
AcDbPolyline
90
8
70
1
43
0.0
10
183.94325000000003
20
-96.487499999999997
42
0.41421356237304302
10
184.44325000000003
20
-95.987500000000011
10
184.44325000000003
20
-81.987500000000026
42
0.41421356237312623
10
183.94325000000003
20
-81.487499999999983
10
177.94325000000001
20
-81.487499999999983
42
0.41421356237307422
10
177.44325000000001
20
-81.987500000000026
10
177.44325000000001
20
-95.987500000000011
42
0.41421356237311585
10
177.94325000000001
20
-96.487499999999997
0
LWPOLYLINE
5
221
100
AcDbEntity
8
0
100
AcDbPolyline
90
8
70
1
43
0.0
10
193.02500000000003
20
-83.987499999999983
42
-0.41421356237304302
10
193.52499999999998
20
-83.487500000000026
10
206.52500000000003
20
-83.487499999999983
42
-0.41421356237306384
10
207.02500000000009
20
-83.987499999999983
10
207.02500000000009
20
-96.987500000000011
42
-0.41421356237307422
10
206.52500000000003
20
-97.487500000000011
10
193.52500000000003
20
-97.487500000000011
42
-0.41421356237314705
10
193.02500000000003
20
-96.987500000000011
0
LWPOLYLINE
5
222
100
AcDbEntity
8
0
100
AcDbPolyline
90
8
70
1
43
0.0
10
183.97500000000002
20
-96.487499999999997
42
0.41421356237304302
10
184.47500000000002
20
-95.987500000000011
10
184.47500000000002
20
-81.987500000000026
42
0.41421356237312623
10
183.97500000000002
20
-81.487499999999955
10
177.97499999999999
20
-81.487499999999983
42
0.41421356237307422
10
177.47499999999999
20
-81.987500000000026
10
177.47499999999999
20
-95.987500000000011
42
0.41421356237311585
10
177.97499999999999
20
-96.487499999999997
0
LWPOLYLINE
5
223
100
AcDbEntity
8
0
100
AcDbPolyline
90
8
70
1
43
0.0
10
185.88125000000002
20
-83.987499999999983
42
-0.41421356237311585
10
186.38124999999999
20
-83.48750000000004
10
199.38124999999999
20
-83.487499999999983
42
-0.41421356237304302
10
199.88124999999999
20
-83.987499999999983
10
199.88124999999999
20
-96.987500000000011
42
-0.41421356237310542
10
199.38124999999999
20
-97.487500000000011
10
186.38124999999999
20
-97.487500000000011
42
-0.41421356237310542
10
185.88124999999997
20
-96.987500000000011
0
LWPOLYLINE
5
224
100
AcDbEntity
8
0
100
AcDbPolyline
90
8
70
1
43
0.0
10
209.40625
20
-96.987500000000011
10
209.40625
20
-83.987499999999983
42
0.41421356237306384
10
208.90625
20
-83.487500000000026
10
195.90625000000003
20
-83.487499999999983
42
0.41421356237304302
10
195.40625000000003
20
-83.987499999999983
10
195.40625000000003
20
-96.987500000000011
42
0.41421356237310542
10
195.90625000000003
20
-97.487500000000026
10
208.90625
20
-97.487500000000011
42
0.41421356237310542
0
LWPOLYLINE
5
225
100
AcDbEntity
8
0
100
AcDbPolyline
90
8
70
1
43
0.0
10
217.34425000000002
20
-81.487499999999983
10
211.34424999999999
20
-81.487499999999983
42
0.41421356237307422
10
210.84424999999999
20
-81.987500000000026
10
210.84424999999999
20
-95.987500000000011
42
0.41421356237311585
10
211.34424999999999
20
-96.487499999999997
10
217.34425000000002
20
-96.487499999999997
42
0.41421356237310542
10
217.84424999999999
20
-95.987500000000011
10
217.84424999999999
20
-81.987500000000026
42
0.41421356237306384
0
LWPOLYLINE
5
226
100
AcDbEntity
8
0
100
AcDbPolyline
90
4
70
1
43
0.0
10
231.38750000000002
20
-83.987499999999983
10
231.38750000000002
20
-96.987500000000011
10
231.38750000000002
20
-83.987499999999983
42
-0.41421356237309503
10
231.88749999999999
20
-83.487499999999983
42
0.41421356237310542
0
LWPOLYLINE
5
227
100
AcDbEntity
8
0
100
AcDbPolyline
90
4
70
1
43
0.0
10
232.88749999999999
20
-96.987500000000011
10
232.88749999999996
20
-83.987499999999983
42
0.41421356237312623
10
232.38749999999996
20
-83.487500000000026
42
-0.41421356237306384
10
232.88749999999999
20
-83.987499999999983
0
LWPOLYLINE
5
228
100
AcDbEntity
8
0
100
AcDbPolyline
90
4
70
1
43
0.0
10
231.88749999999999
20
-97.487500000000011
10
232.38749999999999
20
-97.487500000000011
10
231.88749999999999
20
-97.487500000000011
42
-0.4142135623730846
10
231.38750000000002
20
-96.987500000000011
42
0.4142135623730846
0
LWPOLYLINE
5
229
100
AcDbEntity
8
0
100
AcDbPolyline
90
2
70
1
43
0.0
10
232.38749999999999
20
-83.487500000000026
10
231.88749999999999
20
-83.487499999999983
0
LWPOLYLINE
5
230
100
AcDbEntity
8
0
100
AcDbPolyline
90
2
70
1
43
0.0
10
232.38749999999999
20
-97.487500000000011
42
0.41421356237314705
10
232.88749999999999
20
-96.987500000000011
42
-0.41421356237313667
0
LWPOLYLINE
5
231
100
AcDbEntity
8
0
100
AcDbPolyline
90
8
70
1
43
0.0
10
193.96825000000004
20
-81.987500000000026
42
0.41421356237312623
10
193.46825000000001
20
-81.487499999999955
10
187.46825000000001
20
-81.487499999999983
42
0.41421356237307422
10
186.96825000000001
20
-81.987500000000026
10
186.96825000000001
20
-95.987500000000011
42
0.41421356237311585
10
187.46825000000001
20
-96.487499999999983
10
193.46825000000001
20
-96.487499999999997
42
0.41421356237304302
10
193.96825000000004
20
-95.987500000000011
0
LWPOLYLINE
5
232
100
AcDbEntity
8
0
100
AcDbPolyline
90
16
70
1
43
0.0
10
253.88750000000002
20
-97.487500000000011
10
253.38750000000002
20
-97.487500000000011
42
-0.41421356237314705
10
252.88749999999999
20
-96.987500000000011
10
252.88749999999999
20
-83.987499999999983
42
-0.41421356237304302
10
253.38749999999999
20
-83.487500000000026
10
253.88750000000002
20
-83.487499999999983
42
-0.41421356237310542
10
254.38749999999999
20
-83.987499999999983
10
254.38749999999999
20
-96.987500000000011
42
-0.4142135623730846
10
253.88750000000002
20
-97.487500000000011
10
253.38750000000002
20
-97.487500000000011
42
-0.41421356237314705
10
252.88749999999999
20
-96.987500000000011
10
252.88749999999999
20
-83.987499999999983
42
-0.41421356237304302
10
253.38749999999999
20
-83.487500000000026
10
253.88750000000002
20
-83.487499999999983
42
-0.41421356237310542
10
254.38749999999999
20
-83.987499999999983
10
254.38749999999999
20
-96.987500000000011
42
-0.4142135623730846
0
LWPOLYLINE
5
233
100
AcDbEntity
8
0
100
AcDbPolyline
90
2
70
1
43
0.0
10
236.38750000000002
20
-83.487500000000026
10
249.38749999999999
20
-83.487500000000026
0
LWPOLYLINE
5
234
100
AcDbEntity
8
0
100
AcDbPolyline
90
4
70
1
43
0.0
10
236.38750000000002
20
-97.487500000000011
42
-0.41421356237310542
10
235.88750000000005
20
-96.987500000000011
42
0.41421356237310542
10
236.38750000000002
20
-97.487500000000011
10
249.38749999999999
20
-97.487500000000011
0
LWPOLYLINE
5
235
100
AcDbEntity
8
0
100
AcDbPolyline
90
4
70
1
43
0.0
10
249.88749999999999
20
-83.987499999999983
10
249.88749999999999
20
-96.987500000000011
42
-0.41421356237310542
10
249.38749999999999
20
-97.487500000000011
42
0.41421356237310542
10
249.88749999999999
20
-96.987500000000011
0
LWPOLYLINE
5
236
100
AcDbEntity
8
0
100
AcDbPolyline
90
2
70
1
43
0.0
10
235.88750000000002
20
-83.987499999999983
10
235.88750000000005
20
-96.987500000000011
0
LWPOLYLINE
5
237
100
AcDbEntity
8
0
100
AcDbPolyline
90
2
70
1
43
0.0
10
236.38750000000002
20
-83.487500000000026
42
0.41421356237304302
10
235.88750000000002
20
-83.987499999999983
42
-0.41421356237311585
0
LWPOLYLINE
5
238
100
AcDbEntity
8
0
100
AcDbPolyline
90
2
70
1
43
0.0
10
249.38749999999999
20
-83.487500000000026
42
-0.41421356237304302
10
249.88749999999999
20
-83.987499999999983
42
0.41421356237311585
0
LWPOLYLINE
5
239
100
AcDbEntity
8
0
100
AcDbPolyline
90
8
70
1
43
0.0
10
235.10000000000002
20
-97.487500000000011
10
222.10000000000002
20
-97.487500000000011
42
-0.41421356237310542
10
221.59999999999999
20
-96.987500000000011
10
221.59999999999999
20
-83.987499999999983
42
-0.41421356237306384
10
222.10000000000002
20
-83.487500000000026
10
235.10000000000002
20
-83.487499999999983
42
-0.41421356237312623
10
235.60000000000002
20
-83.987499999999983
10
235.60000000000002
20
-96.987500000000011
42
-0.41421356237313667
0
LWPOLYLINE
5
240
100
AcDbEntity
8
0
100
AcDbPolyline
90
8
70
1
43
0.0
10
260.19999999999999
20
-83.487499999999983
42
0.41421356237312623
10
259.69999999999999
20
-83.987499999999983
10
259.69999999999999
20
-96.987500000000011
42
0.41421356237313667
10
260.19999999999999
20
-97.487500000000011
10
273.19999999999999
20
-97.487500000000011
42
0.41421356237310542
10
273.69999999999999
20
-96.987500000000011
10
273.69999999999999
20
-83.987499999999983
42
0.41421356237306384
10
273.19999999999999
20
-83.487500000000026
0
LWPOLYLINE
5
241
100
AcDbEntity
8
0
100
AcDbPolyline
90
2
70
1
43
0.0
10
281.63125000000002
20
-83.487499999999983
42
0.41421356237312623
10
281.13125000000002
20
-83.987499999999983
42
-0.41421356237312623
0
LWPOLYLINE
5
242
100
AcDbEntity
8
0
100
AcDbPolyline
90
10
70
1
43
0.0
10
295.13125000000002
20
-83.987499999999983
10
295.13124999999997
20
-96.987500000000011
42
-0.4142135623730846
10
294.63125000000002
20
-97.487499999999997
10
281.63125000000002
20
-97.487500000000011
42
-0.41421356237314705
10
281.13125000000002
20
-96.987500000000011
10
281.13125000000002
20
-83.987499999999983
10
281.13125000000002
20
-96.987500000000011
42
0.41421356237313667
10
281.63125000000002
20
-97.487500000000011
10
294.63125000000002
20
-97.487499999999997
42
0.41421356237306384
10
295.13125000000014
20
-96.987500000000011
0
LWPOLYLINE
5
243
100
AcDbEntity
8
0
100
AcDbPolyline
90
2
70
1
43
0.0
10
294.63125000000002
20
-83.487499999999983
10
281.63125000000002
20
-83.487499999999983
0
LWPOLYLINE
5
244
100
AcDbEntity
8
0
100
AcDbPolyline
90
2
70
1
43
0.0
10
295.13125000000002
20
-83.987499999999983
42
0.41421356237309503
10
294.63125000000002
20
-83.487499999999983
42
-0.41421356237310542
0
LWPOLYLINE
5
245
100
AcDbEntity
8
0
100
AcDbPolyline
90
8
70
1
43
0.0
10
275.58125000000007
20
-83.487499999999983
10
262.58125000000001
20
-83.487499999999983
42
0.41421356237312623
10
262.08125000000001
20
-83.987499999999983
10
262.08125000000001
20
-96.987500000000011
42
0.41421356237313667
10
262.58125000000001
20
-97.487500000000011
10
275.58125000000007
20
-97.487500000000011
42
0.41421356237312623
10
276.08125000000001
20
-96.987500000000011
10
276.08125000000007
20
-83.987499999999983
42
0.41421356237312623
0
LWPOLYLINE
5
246
100
AcDbEntity
8
0
100
AcDbPolyline
90
8
70
1
43
0.0
10
240.65000000000001
20
-83.987499999999983
42
-0.41421356237306384
10
241.15000000000003
20
-83.487500000000026
10
254.15000000000003
20
-83.487499999999983
42
-0.41421356237312623
10
254.65000000000003
20
-83.987499999999983
10
254.65000000000003
20
-96.987500000000011
42
-0.41421356237313667
10
254.15000000000003
20
-97.487500000000011
10
241.15000000000003
20
-97.487500000000011
42
-0.41421356237310542
10
240.65000000000003
20
-96.987500000000011
0
LWPOLYLINE
5
247
100
AcDbEntity
8
0
100
AcDbPolyline
90
8
70
1
43
0.0
10
297.0125000000001
20
-83.487499999999983
10
284.01249999999999
20
-83.487499999999983
42
0.41421356237312623
10
283.51249999999999
20
-83.987499999999983
10
283.51249999999999
20
-96.987500000000011
42
0.41421356237313667
10
284.01249999999999
20
-97.487500000000011
10
297.0125000000001
20
-97.487500000000011
42
0.41421356237312623
10
297.51249999999999
20
-96.987500000000011
10
297.51250000000016
20
-83.987499999999983
42
0.41421356237312623
0
LWPOLYLINE
5
248
100
AcDbEntity
8
0
100
AcDbPolyline
90
8
70
1
43
0.0
10
307.82499999999999
20
-97.487500000000011
10
320.8250000000001
20
-97.487500000000011
42
0.4142135623730846
10
321.32499999999999
20
-96.987500000000011
10
321.32499999999999
20
-83.987499999999983
42
0.41421356237313667
10
320.8250000000001
20
-83.487499999999983
10
307.82499999999999
20
-83.487499999999983
42
0.41421356237307422
10
307.3250000000001
20
-83.987499999999983
10
307.32500000000005
20
-96.987500000000011
42
0.4142135623730846
0
LWPOLYLINE
5
249
100
AcDbEntity
8
0
100
AcDbPolyline
90
8
70
1
43
0.0
10
307.82499999999999
20
-83.487499999999983
42
0.41421356237307422
10
307.3250000000001
20
-83.987499999999983
10
307.32500000000005
20
-96.987500000000011
42
0.4142135623730846
10
307.82499999999999
20
-97.487500000000011
10
320.8250000000001
20
-97.487500000000011
42
0.4142135623730846
10
321.32499999999999
20
-96.987500000000011
10
321.32499999999999
20
-83.987499999999983
42
0.41421356237313667
10
320.8250000000001
20
-83.487499999999983
0
LWPOLYLINE
5
250
100
AcDbEntity
8
0
100
AcDbPolyline
90
8
70
1
43
0.0
10
332.28800000000012
20
-95.987500000000011
42
0.41421356237313667
10
332.78800000000001
20
-96.487499999999983
10
338.78800000000012
20
-96.487499999999997
42
0.4142135623730846
10
339.28799999999995
20
-95.987500000000011
10
339.28800000000001
20
-81.987500000000026
42
0.4142135623730846
10
338.78800000000012
20
-81.487499999999983
10
332.78800000000001
20
-81.487499999999983
42
0.4142135623730846
10
332.28800000000012
20
-81.987500000000026
0
LWPOLYLINE
5
251
100
AcDbEntity
8
0
100
AcDbPolyline
90
8
70
1
43
0.0
10
330.85000000000014
20
-96.987500000000011
42
-0.41421356237312623
10
330.35000000000002
20
-97.487500000000026
10
317.35000000000002
20
-97.487500000000011
42
-0.41421356237314705
10
316.85000000000002
20
-96.987500000000011
10
316.85000000000002
20
-83.987499999999983
42
-0.41421356237304302
10
317.35000000000002
20
-83.487500000000026
10
330.35000000000002
20
-83.487500000000026
42
-0.4142135623730222
10
330.85000000000002
20
-83.987499999999983
0
LWPOLYLINE
5
252
100
AcDbEntity
8
0
100
AcDbPolyline
90
147
70
1
43
0.0
10
246.21514142345922
20
-99.512500000000017
10
97.18485857654079
20
-99.512500000000017
42
0.2446984432290481
10
95.546554487962766
20
-100.36534712729791
10
92.161792496868628
20
-105.1992882181755
42
-0.24469844322901985
10
91.752216474724136
20
-105.41249999999999
10
91.012500000000017
20
-105.41249999999999
42
-0.4142135623730534
10
90.512500000000017
20
-104.91249999999999
10
90.512500000000017
20
-103.15000000000001
42
0.99999999999999989
10
87.512500000000003
20
-103.15000000000001
10
87.512500000000003
20
-104.91249999999999
42
-0.4142135623730534
10
87.012500000000003
20
-105.41249999999999
10
86.272783525275884
20
-105.41249999999999
42
-0.24469844322901985
10
85.863207503131378
20
-105.1992882181755
10
82.478445512037212
20
-100.36534712729789
42
0.24469844322904014
10
80.840141423459244
20
-99.512500000000017
10
29.107317068898837
20
-99.512500000000017
42
0.24469844322904166
10
27.469012980320858
20
-100.36534712729791
10
24.074999999999996
20
-105.21250000000002
10
24.084250989226685
20
-105.19928821817552
42
-0.24469844322899276
10
23.674674967082186
20
-105.41249999999999
10
23.074999999999996
20
-105.41249999999999
42
-0.41421356237305601
10
22.574999999999985
20
-104.91249999999999
10
22.574999999999999
20
-103.71250000000002
10
22.574999999999999
20
-103.15000000000001
42
0.99999999999999989
10
19.574999999999999
20
-103.15000000000001
10
19.574999999999999
20
-103.71250000000002
10
19.574999999999996
20
-104.91249999999999
42
-0.41421356237306772
10
19.074999999999999
20
-105.41249999999999
10
18.335283525275873
20
-105.41249999999999
42
-0.24469844322900913
10
17.92570750313137
20
-105.19928821817551
10
14.54094551203722
20
-100.36534712729792
42
0.24469844322904807
10
12.902641423459237
20
-99.512500000000017
10
0.99999999999999645
20
-99.512500000000017
42
-0.41421356237308987
10
0
20
-98.512500000000003
10
0
20
-25.3125
42
-0.41421356237309459
10
1.0000000000000051
20
-24.312500000000004
10
12.902641423459213
20
-24.312500000000004
42
0.24469844322903181
10
14.540945512037197
20
-23.459652872702094
10
17.925707503131378
20
-18.625711781824478
42
-0.24469844322903525
10
18.335283525275873
20
-18.412500000000001
10
19.074999999999999
20
-18.412500000000001
42
-0.41421356237308982
10
19.574999999999999
20
-18.912500000000001
10
19.575000000000017
20
-20.675000000000029
42
0.99999999999999989
10
22.574999999999999
20
-20.675000000000018
10
22.574999999999999
20
-18.912500000000001
42
-0.41421356237310025
10
23.074999999999996
20
-18.412500000000001
10
23.814716474724126
20
-18.412500000000001
42
-0.24469844322903467
10
24.224292496868621
20
-18.625711781824482
10
27.609054487962787
20
-23.45965287270209
42
0.2453598649993057
10
29.252350248638184
20
-24.31249377079272
10
97.464340961142312
20
-24.142247295168488
42
0.24403722340229358
10
99.097653377622891
20
-23.289406397077876
10
102.36320750313139
20
-18.625711781824467
42
-0.24469844322903467
10
102.77278352527588
20
-18.412499999999991
10
103.5125
20
-18.412499999999994
42
-0.41421356237308854
10
104.01250000000002
20
-18.912499999999991
10
104.01250000000005
20
-20.675000000000008
42
0.99999999999999989
10
107.01249999999999
20
-20.675000000000008
10
107.01250000000002
20
-18.912499999999991
42
-0.41421356237308854
10
107.51250000000002
20
-18.412499999999994
10
108.25221647472415
20
-18.412499999999994
42
-0.24469844322904349
10
108.66179249686864
20
-18.625711781824464
10
112.04655448796282
20
-23.459652872702101
42
0.24469844322903905
10
113.6848585765408
20
-24.312500000000004
10
187.81557022548191
20
-24.312500000000004
10
187.09014142345916
20
-24.312499999999964
42
0.24469844322905213
10
188.72844551203724
20
-23.459652872702044
10
192.11320750313138
20
-18.625711781824435
42
-0.24469844322905759
10
192.52278352527586
20
-18.412499999999977
10
193.26249999999999
20
-18.412499999999984
42
-0.41421356237312756
10
193.76249999999999
20
-18.912499999999973
10
193.76250000000002
20
-20.570764473606168
10
193.76250000000002
20
-20.674999999999997
42
0.99999999999999989
10
196.76249999999999
20
-20.674999999999997
10
196.76249999999999
20
-20.570764473606168
10
196.76249999999999
20
-18.912499999999973
42
-0.41421356237309631
10
197.26249999999999
20
-18.412499999999966
10
198.00221647472412
20
-18.412499999999969
42
-0.24469844322906209
10
198.4117924968686
20
-18.625711781824464
10
201.79655448796274
20
-23.459652872702044
42
0.24469844322905154
10
203.43485857654088
20
-24.312499999999943
10
202.7094297745181
20
-24.312499999999989
10
266.3445488470781
20
-24.312499999999989
42
0.24573813645727496
10
267.98734046340309
20
-23.453217189022876
10
271.33833338279601
20
-18.627320702744282
42
-0.24573813645719156
10
271.74903128687725
20
-18.412499999999998
10
272.48750000000007
20
-18.412500000000001
42
-0.41421356237312756
10
272.98750000000007
20
-18.912499999999991
10
272.98750000000007
20
-20.373031246787193
10
272.98750000000007
20
-20.674999999999994
42
0.99999999999999989
10
275.98750000000007
20
-20.674999999999994
10
275.98750000000007
20
-20.373031246787146
10
275.98750000000001
20
-18.912499999999991
42
-0.41421356237312756
10
276.48750000000001
20
-18.412500000000001
10
277.22596871312282
20
-18.412499999999991
42
-0.24573813645717696
10
277.63666661720407
20
-18.627320702744264
10
280.98765953659716
20
-23.453217189022936
42
0.24573813645724427
10
282.63045115292215
20
-24.312500000000025
10
330.70264142345934
20
-24.312500000000021
42
0.24469844322903819
10
332.34094551203731
20
-23.459652872702144
10
335.72570750313156
20
-18.625711781824425
42
-0.24469844322912152
10
336.13528352527601
20
-18.412499999999948
10
336.87500000000011
20
-18.412499999999916
42
-0.41421356237313017
10
337.37500000000011
20
-18.912499999999948
10
337.37500000000011
20
-20.212330102681079
10
337.37500000000011
20
-20.674999999999986
42
0.99999999999999989
10
340.37500000000011
20
-20.674999999999986
10
340.37500000000011
20
-20.21233010268103
10
340.375
20
-18.912499999999952
42
-0.41421356237325629
10
340.875
20
-18.412499999999987
10
341.61471647472416
20
-18.412499999999959
42
-0.24469844322905138
10
342.02429249686867
20
-18.625711781824442
10
345.40905448796303
20
-23.45965287270208
42
0.24469844322904033
10
347.04735857654094
20
-24.312499999999972
10
360.95000000000022
20
-24.312500000000014
42
-0.41421356237309631
10
361.94999999999999
20
-25.312499999999947
10
361.94999999999999
20
-98.512499999998226
42
-0.41421356237308982
10
360.95000000000022
20
-99.512499999998184
10
322.88133602907999
20
-99.512500000000017
10
323.60676483110262
20
-99.512500000000017
42
0.24469844322905163
10
321.96846074252471
20
-100.36534712729789
10
318.5836987514304
20
-105.19928821817547
42
-0.24469844322901455
10
318.17412272928595
20
-105.41249999999997
10
317.43440625456179
20
-105.41249999999994
42
-0.4142135623730846
10
316.93440625456179
20
-104.91249999999995
10
316.93440625456179
20
-103.15000000000001
42
0.99999999999999989
10
313.93440625456185
20
-103.15000000000001
10
313.93440625456196
20
-104.91249999999995
42
-0.41421356237309503
10
313.43440625456191
20
-105.41249999999997
10
312.6946897798378
20
-105.41249999999998
42
-0.24469844322902559
10
312.2851137576933
20
-105.1992882181755
10
308.90035176659916
20
-100.36534712729792
42
0.24469844322902284
10
307.26204767802119
20
-99.512500000000031
10
262.55985857654076
20
-99.512500000000017
42
0.2446984432290279
10
260.92155448796279
20
-100.36534712729791
10
257.5367924968686
20
-105.19928821817551
42
-0.24469844322901455
10
257.12721647472415
20
-105.41249999999999
10
256.38750000000005
20
-105.41249999999998
42
-0.4142135623730846
10
255.88750000000002
20
-104.91249999999999
10
255.88750000000002
20
-103.15000000000001
42
0.99999999999999989
10
252.88750000000005
20
-103.15000000000001
10
252.88749999999999
20
-103.43412583590978
10
252.88749999999996
20
-104.91249999999999
42
-0.4142135623730846
10
252.38749999999996
20
-105.41249999999998
10
251.64778352527583
20
-105.41249999999998
42
-0.24469844322903761
10
251.23820750313138
20
-105.19928821817547
10
247.85344551203721
20
-100.36534712729791
42
0.24469844322901621
0
LINE
5
253
100
AcDbEntity
8
0
100
AcDbLine
10
13.97817399458674
20
-99.512500000000017
30
0
11
0.99999999999999645
21
-99.512500000000017
31
0
0
LWPOLYLINE
5
254
100
AcDbEntity
8
0
100
AcDbPolyline
90
16
70
1
43
0.0
10
340.375
20
-96.987500000000011
10
340.375
20
-83.987499999999983
42
0.41421356237313667
10
339.87500000000011
20
-83.487500000000011
10
326.875
20
-83.487499999999983
42
0.41421356237311585
10
326.375
20
-83.987499999999983
10
326.375
20
-96.987500000000011
42
0.41421356237312623
10
326.875
20
-97.487500000000011
10
339.87500000000011
20
-97.487500000000011
42
0.4142135623730846
10
340.375
20
-96.987500000000011
10
340.375
20
-83.987499999999983
42
0.41421356237313667
10
339.87500000000011
20
-83.487500000000011
10
326.875
20
-83.487499999999983
42
0.41421356237311585
10
326.375
20
-83.987499999999983
10
326.375
20
-96.987500000000011
42
0.41421356237312623
10
326.875
20
-97.487500000000011
10
339.87500000000011
20
-97.487500000000011
42
0.4142135623730846
0
LWPOLYLINE
5
255
100
AcDbEntity
8
0
100
AcDbPolyline
90
8
70
1
43
0.0
10
308.41200000000009
20
-81.987500000000026
10
308.41200000000009
20
-95.987500000000011
42
0.41421356237311585
10
308.91200000000015
20
-96.487499999999983
10
314.91200000000009
20
-96.487499999999997
42
0.41421356237312623
10
315.41200000000009
20
-95.987500000000011
10
315.41200000000009
20
-81.987500000000026
42
0.4142135623730846
10
314.91200000000015
20
-81.487499999999997
10
308.91200000000015
20
-81.487499999999983
42
0.41421356237307422
0
LWPOLYLINE
5
256
100
AcDbEntity
8
0
100
AcDbPolyline
90
8
70
1
43
0.0
10
345.92500000000001
20
-83.487499999999983
42
0.4142135623730846
10
345.42500000000018
20
-83.987499999999983
10
345.42500000000013
20
-96.987500000000011
42
0.4142135623730846
10
345.92500000000001
20
-97.487500000000011
10
358.92500000000013
20
-97.487500000000011
42
0.4142135623730846
10
359.42500000000001
20
-96.987500000000011
10
359.42500000000001
20
-83.987499999999983
42
0.41421356237313667
10
358.92500000000013
20
-83.487499999999983
0
LWPOLYLINE
5
257
100
AcDbEntity
8
0
100
AcDbPolyline
90
8
70
1
43
0.0
10
40.931500000000007
20
-83.487500000000026
42
-0.41421356237314705
10
41.231500000000018
20
-83.787500000000023
10
41.231500000000018
20
-97.041053390593277
42
-0.41421356237314705
10
40.931500000000007
20
-97.341053390593274
10
40.031500000000008
20
-97.341053390593274
42
-0.41421356237317308
10
39.731499999999997
20
-97.041053390593262
10
39.731499999999997
20
-83.787500000000023
42
-0.41421356237311241
10
40.031500000000008
20
-83.487500000000026
0
LINE
5
258
100
AcDbEntity
8
0
100
AcDbLine
10
105.44912629719772
20
-83.487500000000026
30
0
11
109.57613055949231
21
-83.487499999999983
31
0
0
LINE
5
259
100
AcDbEntity
8
0
100
AcDbLine
10
104.60400597044801
20
-97.487500000000011
30
0
11
109.57613055949231
21
-97.487500000000011
31
0
0
LINE
5
260
100
AcDbEntity
8
0
100
AcDbLine
10
234.23449338798889
20
-97.487500000000011
30
0
11
237.47135333050451
21
-97.487500000000011
31
0
0
LINE
5
261
100
AcDbEntity
8
0
100
AcDbLine
10
234.11118443779785
20
-83.487500000000026
30
0
11
238.13413893778161
21
-83.487500000000026
31
0
0
SPLINE
5
262
100
AcDbEntity
8
0
100
AcDbSpline
70
4
71
3
72
8
73
4
74
0
42
0.000000001
43
0.0000000001
44
0.0000000001
40
0
40
0
40
0
40
0
40
1
40
1
40
1
40
1
41
1
41
1
41
1
41
1
10
296.82770786468143
20
-48.034844959294873
30
0
10
297.00033817580493
20
-47.099896201794742
30
0
10
297.58238969958512
20
-46.123696688303966
30
0
10
298.06361370871122
20
-45.349155933845921
30
0
0
SPLINE
5
263
100
AcDbEntity
8
0
100
AcDbSpline
70
4
71
3
72
8
73
4
74
0
42
0.000000001
43
0.0000000001
44
0.0000000001
40
0
40
0
40
0
40
0
40
1
40
1
40
1
40
1
41
1
41
1
41
1
41
1
10
298.06361370871122
20
-45.349155933845921
30
0
10
298.39054086883584
20
-44.823630253864756
30
0
10
298.84426561721011
20
-44.235467576043909
30
0
10
299.50117458204886
20
-44.13616738368453
30
0
0
SPLINE
5
264
100
AcDbEntity
8
0
100
AcDbSpline
70
4
71
3
72
8
73
4
74
0
42
0.000000001
43
0.0000000001
44
0.0000000001
40
0
40
0
40
0
40
0
40
1
40
1
40
1
40
1
41
1
41
1
41
1
41
1
10
299.50117458204886
20
-44.13616738368453
30
0
10
299.53936696372568
20
-44.130058094506161
30
0
10
299.57908666769686
20
-44.126999720192252
30
0
10
299.61422440478441
20
-44.140751215430704
30
0
0
SPLINE
5
265
100
AcDbEntity
8
0
100
AcDbSpline
70
4
71
3
72
8
73
4
74
0
42
0.000000001
43
0.0000000001
44
0.0000000001
40
0
40
0
40
0
40
0
40
1
40
1
40
1
40
1
41
1
41
1
41
1
41
1
10
299.61422440478441
20
-44.140751215430704
30
0
10
299.68602533639165
20
-44.169775933615078
30
0
10
299.71505191943822
20
-44.256857547617685
30
0
10
299.71963575118451
20
-44.334767768403253
30
0
0
SPLINE
5
266
100
AcDbEntity
8
0
100
AcDbSpline
70
4
71
3
72
8
73
4
74
0
42
0.000000001
43
0.0000000001
44
0.0000000001
40
0
40
0
40
0
40
0
40
1
40
1
40
1
40
1
41
1
41
1
41
1
41
1
10
299.71963575118451
20
-44.334767768403253
30
0
10
299.80060434628399
20
-45.636363389999495
30
0
10
299.88004375422651
20
-46.911988938000533
30
0
10
299.87240527789118
20
-48.222752223089103
30
0
0
SPLINE
5
267
100
AcDbEntity
8
0
100
AcDbSpline
70
4
71
3
72
8
73
4
74
0
42
0.000000001
43
0.0000000001
44
0.0000000001
40
0
40
0
40
0
40
0
40
1
40
1
40
1
40
1
41
1
41
1
41
1
41
1
10
299.87240527789118
20
-48.222752223089103
30
0
10
299.8708779555966
20
-48.514543510988801
30
0
10
299.86935063330202
20
-48.806331069163782
30
0
10
299.89379338460265
20
-49.098122357063509
30
0
0
SPLINE
5
268
100
AcDbEntity
8
0
100
AcDbSpline
70
4
71
3
72
8
73
4
74
0
42
0.000000001
43
0.0000000001
44
0.0000000001
40
0
40
0
40
0
40
0
40
1
40
1
40
1
40
1
41
1
41
1
41
1
41
1
10
299.89379338460265
20
-49.098122357063509
30
0
10
299.91212498186246
20
-49.316583526199061
30
0
10
299.9472627189499
20
-49.531986321020646
30
0
10
299.98087126888038
20
-49.748922032724003
30
0
0
SPLINE
5
269
100
AcDbEntity
8
0
100
AcDbSpline
70
4
71
3
72
8
73
4
74
0
42
0.000000001
43
0.0000000001
44
0.0000000001
40
0
40
0
40
0
40
0
40
1
40
1
40
1
40
1
41
1
41
1
41
1
41
1
10
299.98087126888038
20
-49.748922032724003
30
0
10
300.01142517422181
20
-49.94752241744272
30
0
10
300.04350640185766
20
-50.146122802161429
30
0
10
300.07406030719898
20
-50.344723186880167
30
0
0
SPLINE
5
270
100
AcDbEntity
8
0
100
AcDbSpline
70
4
71
3
72
8
73
4
74
0
42
0.000000001
43
0.0000000001
44
0.0000000001
40
0
40
0
40
0
40
0
40
1
40
1
40
1
40
1
41
1
41
1
41
1
41
1
10
300.07406030719898
20
-50.344723186880167
30
0
10
300.11989116521113
20
-50.631930643033733
30
0
10
300.50486962656714
20
-50.691509266559464
30
0
10
300.63778023371935
20
-50.43333025831501
30
0
0
SPLINE
5
271
100
AcDbEntity
8
0
100
AcDbSpline
70
4
71
3
72
8
73
4
74
0
42
0.000000001
43
0.0000000001
44
0.0000000001
40
0
40
0
40
0
40
0
40
1
40
1
40
1
40
1
41
1
41
1
41
1
41
1
10
300.63778023371935
20
-50.43333025831501
30
0
10
300.63930755601399
20
-50.42874642656885
30
0
10
300.64236406546559
20
-50.424162594822732
30
0
10
300.64541871005463
20
-50.419582492801347
30
0
0
SPLINE
5
272
100
AcDbEntity
8
0
100
AcDbSpline
70
4
71
3
72
8
73
4
74
0
42
0.000000001
43
0.0000000001
44
0.0000000001
40
0
40
0
40
0
40
0
40
1
40
1
40
1
40
1
41
1
41
1
41
1
41
1
10
300.64541871005463
20
-50.419582492801347
30
0
10
300.74777354700319
20
-50.224036752671786
30
0
10
300.88373879874462
20
-50.046826339526866
30
0
10
301.0197040504861
20
-49.872666841246357
30
0
0
SPLINE
5
273
100
AcDbEntity
8
0
100
AcDbSpline
70
4
71
3
72
8
73
4
74
0
42
0.000000001
43
0.0000000001
44
0.0000000001
40
0
40
0
40
0
40
0
40
1
40
1
40
1
40
1
41
1
41
1
41
1
41
1
10
301.0197040504861
20
-49.872666841246357
30
0
10
301.44440408067572
20
-49.322696545102183
30
0
10
301.87062956829749
20
-48.77119706180104
30
0
10
302.29532959848711
20
-48.221226765656908
30
0
0
SPLINE
5
274
100
AcDbEntity
8
0
100
AcDbSpline
70
4
71
3
72
8
73
4
74
0
42
0.000000001
43
0.0000000001
44
0.0000000001
40
0
40
0
40
0
40
0
40
1
40
1
40
1
40
1
41
1
41
1
41
1
41
1
10
302.29532959848711
20
-48.221226765656908
30
0
10
302.43893332656387
20
-48.036374146451863
30
0
10
302.59781400731134
20
-47.935548496660296
30
0
10
302.83002294196069
20
-48.082205004463873
30
0
0
SPLINE
5
275
100
AcDbEntity
8
0
100
AcDbSpline
70
4
71
3
72
8
73
4
74
0
42
0.000000001
43
0.0000000001
44
0.0000000001
40
0
40
0
40
0
40
0
40
1
40
1
40
1
40
1
41
1
41
1
41
1
41
1
10
302.83002294196069
20
-48.082205004463873
30
0
10
303.25625029444484
20
-48.349551676200626
30
0
10
303.65650570847151
20
-48.930075877686114
30
0
10
303.97121056051481
20
-49.319638170788231
30
0
0
SPLINE
5
276
100
AcDbEntity
8
0
100
AcDbSpline
70
4
71
3
72
8
73
4
74
0
42
0.000000001
43
0.0000000001
44
0.0000000001
40
0
40
0
40
0
40
0
40
1
40
1
40
1
40
1
41
1
41
1
41
1
41
1
10
303.97121056051481
20
-49.319638170788231
30
0
10
304.3470232232408
20
-49.785585227243701
30
0
10
304.68158885970115
20
-50.28361537619751
30
0
10
304.9825440813683
20
-50.801502579843344
30
0
0
SPLINE
5
277
100
AcDbEntity
8
0
100
AcDbSpline
70
4
71
3
72
8
73
4
74
0
42
0.000000001
43
0.0000000001
44
0.0000000001
40
0
40
0
40
0
40
0
40
1
40
1
40
1
40
1
41
1
41
1
41
1
41
1
10
304.9825440813683
20
-50.801502579843344
30
0
10
305.3033600874524
20
-51.354527520576667
30
0
10
305.62570341583114
20
-51.907552461310011
30
0
10
305.94651942191518
20
-52.459051944611168
30
0
0
SPLINE
5
278
100
AcDbEntity
8
0
100
AcDbSpline
70
4
71
3
72
8
73
4
74
0
42
0.000000001
43
0.0000000001
44
0.0000000001
40
0
40
0
40
0
40
0
40
1
40
1
40
1
40
1
41
1
41
1
41
1
41
1
10
305.94651942191518
20
-52.459051944611168
30
0
10
306.34372019135259
20
-53.141930983045214
30
0
10
306.4414930614173
20
-53.659821916415851
30
0
10
306.35594249943404
20
-54.429778839127749
30
0
0
SPLINE
5
279
100
AcDbEntity
8
0
100
AcDbSpline
70
4
71
3
72
8
73
4
74
0
42
0.000000001
43
0.0000000001
44
0.0000000001
40
0
40
0
40
0
40
0
40
1
40
1
40
1
40
1
41
1
41
1
41
1
41
1
10
306.35594249943404
20
-54.429778839127749
30
0
10
306.31316628601121
20
-54.80864801130533
30
0
10
306.0610965669452
20
-56.409671532274217
30
0
10
306.0610965669452
20
-56.745764491029
30
0
0
SPLINE
5
280
100
AcDbEntity
8
0
100
AcDbSpline
70
4
71
3
72
8
73
4
74
0
42
0.000000001
43
0.0000000001
44
0.0000000001
40
0
40
0
40
0
40
0
40
1
40
1
40
1
40
1
41
1
41
1
41
1
41
1
10
306.0610965669452
20
-56.745764491029
30
0
10
306.0610965669452
20
-58.46900549822567
30
0
10
304.83130187695616
20
-59.773655764411096
30
0
10
304.20647413975331
20
-61.270798990999225
30
0
0
SPLINE
5
281
100
AcDbEntity
8
0
100
AcDbSpline
70
4
71
3
72
8
73
4
74
0
42
0.000000001
43
0.0000000001
44
0.0000000001
40
0
40
0
40
0
40
0
40
1
40
1
40
1
40
1
41
1
41
1
41
1
41
1
10
304.20647413975331
20
-61.270798990999225
30
0
10
303.88260348908
20
-62.046868932614274
30
0
10
303.76802634404987
20
-62.890155974090348
30
0
10
303.74052708329771
20
-63.725804539231142
30
0
0
SPLINE
5
282
100
AcDbEntity
8
0
100
AcDbSpline
70
4
71
3
72
8
73
4
74
0
42
0.000000001
43
0.0000000001
44
0.0000000001
40
0
40
0
40
0
40
0
40
1
40
1
40
1
40
1
41
1
41
1
41
1
41
1
10
303.74052708329771
20
-63.725804539231142
30
0
10
303.72066629888087
20
-64.32313301568189
30
0
10
303.80316221627498
20
-64.97087618189083
30
0
10
303.72677745292162
20
-65.58348161101226
30
0
0
SPLINE
5
283
100
AcDbEntity
8
0
100
AcDbSpline
70
4
71
3
72
8
73
4
74
0
42
0.000000001
43
0.0000000001
44
0.0000000001
40
0
40
0
40
0
40
0
40
1
40
1
40
1
40
1
41
1
41
1
41
1
41
1
10
303.72677745292162
20
-65.58348161101226
30
0
10
303.64733804497911
20
-66.21900246913971
30
0
10
303.58928487888562
20
-66.845357528637223
30
0
10
303.54039937628437
20
-67.483934896216255
30
0
0
SPLINE
5
284
100
AcDbEntity
8
0
100
AcDbSpline
70
4
71
3
72
8
73
4
74
0
42
0.000000001
43
0.0000000001
44
0.0000000001
40
0
40
0
40
0
40
0
40
1
40
1
40
1
40
1
41
1
41
1
41
1
41
1
10
303.54039937628437
20
-67.483934896216255
30
0
10
303.51137279323768
20
-67.85669291435309
30
0
10
303.46095996834202
20
-68.224867100743808
30
0
10
303.55109249720886
20
-68.591513964839919
30
0
0
SPLINE
5
285
100
AcDbEntity
8
0
100
AcDbSpline
70
4
71
3
72
8
73
4
74
0
42
0.000000001
43
0.0000000001
44
0.0000000001
40
0
40
0
40
0
40
0
40
1
40
1
40
1
40
1
41
1
41
1
41
1
41
1
10
303.55109249720886
20
-68.591513964839919
30
0
10
303.6840012394988
20
-69.129261952902581
30
0
10
303.90704624038062
20
-69.488270340663348
30
0
10
303.85204771887629
20
-70.055046776635152
30
0
0
SPLINE
5
286
100
AcDbEntity
8
0
100
AcDbSpline
70
4
71
3
72
8
73
4
74
0
42
0.000000001
43
0.0000000001
44
0.0000000001
40
0
40
0
40
0
40
0
40
1
40
1
40
1
40
1
41
1
41
1
41
1
41
1
10
303.85204771887629
20
-70.055046776635152
30
0
10
303.79399455278281
20
-70.655431762537489
30
0
10
303.74052521843538
20
-71.257342205872021
30
0
10
303.68858507124514
20
-71.857727191774345
30
0
0
SPLINE
5
287
100
AcDbEntity
8
0
100
AcDbSpline
70
4
71
3
72
8
73
4
74
0
42
0.000000001
43
0.0000000001
44
0.0000000001
40
0
40
0
40
0
40
0
40
1
40
1
40
1
40
1
41
1
41
1
41
1
41
1
10
303.68858507124514
20
-71.857727191774345
30
0
10
303.57706257080417
20
-73.147102370151458
30
0
10
303.37846218608536
20
-74.482307474109405
30
0
10
303.37846218608536
20
-75.774738229506909
30
0
0
SPLINE
5
288
100
AcDbEntity
8
0
100
AcDbSpline
70
4
71
3
72
8
73
4
74
0
42
0.000000001
43
0.0000000001
44
0.0000000001
40
0
40
0
40
0
40
0
40
1
40
1
40
1
40
1
41
1
41
1
41
1
41
1
10
303.37846218608536
20
-75.774738229506909
30
0
10
303.35554675707942
20
-75.996254043231659
30
0
10
303.32652017403268
20
-76.225408333291682
30
0
10
303.21347035129719
20
-76.416370241675068
30
0
0
SPLINE
5
289
100
AcDbEntity
8
0
100
AcDbSpline
70
4
71
3
72
8
73
4
74
0
42
0.000000001
43
0.0000000001
44
0.0000000001
40
0
40
0
40
0
40
0
40
1
40
1
40
1
40
1
41
1
41
1
41
1
41
1
10
303.21347035129719
20
-76.416370241675068
30
0
10
303.03320156383836
20
-76.717326395773568
30
0
10
302.7704387238478
20
-76.888428452171311
30
0
10
302.75821641576619
20
-77.267296691917707
30
0
0
SPLINE
5
290
100
AcDbEntity
8
0
100
AcDbSpline
70
4
71
3
72
8
73
4
74
0
42
0.000000001
43
0.0000000001
44
0.0000000001
40
0
40
0
40
0
40
0
40
1
40
1
40
1
40
1
41
1
41
1
41
1
41
1
10
302.75821641576619
20
-77.267296691917707
30
0
10
302.75210526172549
20
-77.4597859225957
30
0
10
302.75210526172549
20
-77.676718837005481
30
0
10
302.7734933684369
20
-77.762270331419927
30
0
0
SPLINE
5
291
100
AcDbEntity
8
0
100
AcDbSpline
70
4
71
3
72
8
73
4
74
0
42
0.000000001
43
0.0000000001
44
0.0000000001
40
0
40
0
40
0
40
0
40
1
40
1
40
1
40
1
41
1
41
1
41
1
41
1
10
302.7734933684369
20
-77.762270331419927
30
0
10
302.81626958185973
20
-77.930316810797308
30
0
10
302.7734933684369
20
-78.478759784646869
30
0
10
302.81626958185973
20
-78.604030050601466
30
0
0
SPLINE
5
292
100
AcDbEntity
8
0
100
AcDbSpline
70
4
71
3
72
8
73
4
74
0
42
0.000000001
43
0.0000000001
44
0.0000000001
40
0
40
0
40
0
40
0
40
1
40
1
40
1
40
1
41
1
41
1
41
1
41
1
10
302.81626958185973
20
-78.604030050601466
30
0
10
302.85904579528267
20
-78.729300316555992
30
0
10
302.8590457952825
20
-79.236496264139703
30
0
10
302.85904579528267
20
-79.488565983205788
30
0
0
SPLINE
5
293
100
AcDbEntity
8
0
100
AcDbSpline
70
4
71
3
72
8
73
4
74
0
42
0.000000001
43
0.0000000001
44
0.0000000001
40
0
40
0
40
0
40
0
40
1
40
1
40
1
40
1
41
1
41
1
41
1
41
1
10
302.85904579528267
20
-79.488565983205788
30
0
10
302.85904579528267
20
-79.740635702271874
30
0
10
302.85904579528267
20
-80.035480702329579
30
0
10
302.85904579528267
20
-80.28907820990581
30
0
0
SPLINE
5
294
100
AcDbEntity
8
0
100
AcDbSpline
70
4
71
3
72
8
73
4
74
0
42
0.000000001
43
0.0000000001
44
0.0000000001
40
0
40
0
40
0
40
0
40
1
40
1
40
1
40
1
41
1
41
1
41
1
41
1
10
302.85904579528267
20
-80.28907820990581
30
0
10
302.85904579528267
20
-80.541147928971895
30
0
10
302.8590457952825
20
-80.626698957170788
30
0
10
302.85904579528267
20
-81.005567196917227
30
0
0
SPLINE
5
295
100
AcDbEntity
8
0
100
AcDbSpline
70
4
71
3
72
8
73
4
74
0
42
0.000000001
43
0.0000000001
44
0.0000000001
40
0
40
0
40
0
40
0
40
1
40
1
40
1
40
1
41
1
41
1
41
1
41
1
10
302.85904579528267
20
-81.005567196917227
30
0
10
302.85904579528267
20
-81.384435436663622
30
0
10
303.06986848808282
20
-82.268971369267916
30
0
10
303.19666607633201
20
-82.395769889948298
30
0
0
SPLINE
5
296
100
AcDbEntity
8
0
100
AcDbSpline
70
4
71
3
72
8
73
4
74
0
42
0.000000001
43
0.0000000001
44
0.0000000001
40
0
40
0
40
0
40
0
40
1
40
1
40
1
40
1
41
1
41
1
41
1
41
1
10
303.19666607633201
20
-82.395769889948298
30
0
10
303.66414045508202
20
-82.863244734913934
30
0
10
303.76038600285216
20
-83.686672390619975
30
0
10
303.57553524850965
20
-84.291639809621643
30
0
0
SPLINE
5
297
100
AcDbEntity
8
0
100
AcDbSpline
70
4
71
3
72
8
73
4
74
0
42
0.000000001
43
0.0000000001
44
0.0000000001
40
0
40
0
40
0
40
0
40
1
40
1
40
1
40
1
41
1
41
1
41
1
41
1
10
303.57553524850965
20
-84.291639809621643
30
0
10
303.45943078118489
20
-84.670508282475865
30
0
10
303.1676413581477
20
-85.018822849988737
30
0
10
302.77960638734021
20
-85.096735168744502
30
0
0
SPLINE
5
298
100
AcDbEntity
8
0
100
AcDbSpline
70
4
71
3
72
8
73
4
74
0
42
0.000000001
43
0.0000000001
44
0.0000000001
40
0
40
0
40
0
40
0
40
1
40
1
40
1
40
1
41
1
41
1
41
1
41
1
10
302.77960638734021
20
-85.096735168744502
30
0
10
302.54434094323915
20
-85.144093815266686
30
0
10
302.3014370228031
20
-85.092152036321735
30
0
10
302.07381191990015
20
-85.020350405391213
30
0
0
SPLINE
5
299
100
AcDbEntity
8
0
100
AcDbSpline
70
4
71
3
72
8
73
4
74
0
42
0.000000001
43
0.0000000001
44
0.0000000001
40
0
40
0
40
0
40
0
40
1
40
1
40
1
40
1
41
1
41
1
41
1
41
1
10
302.07381191990015
20
-85.020350405391213
30
0
10
301.55286820680266
20
-84.85841461383886
30
0
10
300.00378483302416
20
-84.242753374589284
30
0
10
300.21460752582431
20
-83.492654905216241
30
0
0
LINE
5
300
100
AcDbEntity
8
0
100
AcDbLine
10
300.21460752582431
20
-83.492654905216241
30
0
11
300.4009856024615
21
-82.826579675531846
31
0
0
SPLINE
5
301
100
AcDbEntity
8
0
100
AcDbSpline
70
4
71
3
72
8
73
4
74
0
42
0.000000001
43
0.0000000001
44
0.0000000001
40
0
40
0
40
0
40
0
40
1
40
1
40
1
40
1
41
1
41
1
41
1
41
1
10
300.4009856024615
20
-82.826579675531846
30
0
10
300.41015140109153
20
-82.791442870875542
30
0
10
300.42542835376213
20
-82.757833388513816
30
0
10
300.44223262872737
20
-82.727279483172481
30
0
0
LINE
5
302
100
AcDbEntity
8
0
100
AcDbLine
10
300.44223262872737
20
-82.727279483172481
30
0
11
301.04719958151338
21
-81.679280436721328
31
0
0
SPLINE
5
303
100
AcDbEntity
8
0
100
AcDbSpline
70
0
71
2
72
6
73
3
74
0
42
0.000000001
43
0.0000000001
44
0.0000000001
40
0
40
0
40
0
40
1
40
1
40
1
10
301.04719958151338
20
-81.679280436721328
30
0
10
301.55897749598086
20
-80.794744970332587
30
0
10
301.5986971999522
20
-80.499899504059243
30
0
0
SPLINE
5
304
100
AcDbEntity
8
0
100
AcDbSpline
70
4
71
3
72
8
73
4
74
0
42
0.000000001
43
0.0000000001
44
0.0000000001
40
0
40
0
40
0
40
0
40
1
40
1
40
1
40
1
41
1
41
1
41
1
41
1
10
301.5986971999522
20
-80.499899504059243
30
0
10
301.63688958162879
20
-80.205054504001566
30
0
10
301.64452805796418
20
-78.309185050543732
30
0
10
301.5986971999522
20
-78.141138571166294
30
0
0
SPLINE
5
305
100
AcDbEntity
8
0
100
AcDbSpline
70
0
71
2
72
6
73
3
74
0
42
0.000000001
43
0.0000000001
44
0.0000000001
40
0
40
0
40
0
40
1
40
1
40
1
10
301.5986971999522
20
-78.141138571166294
30
0
10
301.55286634194022
20
-77.97309209178897
30
0
10
301.5986971999522
20
-76.329292357397222
30
0
0
LINE
5
306
100
AcDbEntity
8
0
100
AcDbLine
10
301.5986971999522
20
-76.329292357397222
30
0
11
301.5986971999522
21
-76.080275418057937
31
0
0
SPLINE
5
307
100
AcDbEntity
8
0
100
AcDbSpline
70
0
71
2
72
6
73
3
74
0
42
0.000000001
43
0.0000000001
44
0.0000000001
40
0
40
0
40
0
40
1
40
1
40
1
10
301.5986971999522
20
-76.080275418057951
30
0
10
301.60175184454135
20
-75.195739485453629
30
0
10
301.5986971999522
20
-75.02769300607622
30
0
0
SPLINE
5
308
100
AcDbEntity
8
0
100
AcDbSpline
70
4
71
3
72
8
73
4
74
0
42
0.000000001
43
0.0000000001
44
0.0000000001
40
0
40
0
40
0
40
0
40
1
40
1
40
1
40
1
41
1
41
1
41
1
41
1
10
301.5986971999522
20
-75.02769300607622
30
0
10
301.5956425553631
20
-74.859646526698853
30
0
10
301.60175184454135
20
-73.342645312987443
30
0
10
301.5986971999522
20
-73.047800312929752
30
0
0
SPLINE
5
309
100
AcDbEntity
8
0
100
AcDbSpline
70
4
71
3
72
8
73
4
74
0
42
0.000000001
43
0.0000000001
44
0.0000000001
40
0
40
0
40
0
40
0
40
1
40
1
40
1
40
1
41
1
41
1
41
1
41
1
10
301.5986971999522
20
-73.047800312929752
30
0
10
301.5956425553631
20
-72.752955312872032
30
0
10
301.60175184454135
20
-70.35294548885085
30
0
10
301.5986971999522
20
-70.183371687178891
30
0
0
SPLINE
5
310
100
AcDbEntity
8
0
100
AcDbSpline
70
4
71
3
72
8
73
4
74
0
42
0.000000001
43
0.0000000001
44
0.0000000001
40
0
40
0
40
0
40
0
40
1
40
1
40
1
40
1
41
1
41
1
41
1
41
1
10
301.5986971999522
20
-70.183371687178891
30
0
10
301.5925860459115
20
-69.842694896677969
30
0
10
301.5055081616336
20
-69.344666612586551
30
0
10
301.66744348697017
20
-69.036072914583968
30
0
0
SPLINE
5
311
100
AcDbEntity
8
0
100
AcDbSpline
70
4
71
3
72
8
73
4
74
0
42
0.000000001
43
0.0000000001
44
0.0000000001
40
0
40
0
40
0
40
0
40
1
40
1
40
1
40
1
41
1
41
1
41
1
41
1
10
301.66744348697017
20
-69.036072914583968
30
0
10
301.70563586864705
20
-68.964271982976754
30
0
10
301.75757788069967
20
-68.900107662842501
30
0
10
301.79729758467084
20
-68.828306731235301
30
0
0
SPLINE
5
312
100
AcDbEntity
8
0
100
AcDbSpline
70
4
71
3
72
8
73
4
74
0
42
0.000000001
43
0.0000000001
44
0.0000000001
40
0
40
0
40
0
40
0
40
1
40
1
40
1
40
1
41
1
41
1
41
1
41
1
10
301.79729758467084
20
-68.828306731235301
30
0
10
302.03409035106637
20
-68.39291358012116
30
0
10
301.96839870863749
20
-67.610734349327771
30
0
10
302.01575875380649
20
-67.11881535441475
30
0
0
SPLINE
5
313
100
AcDbEntity
8
0
100
AcDbSpline
70
4
71
3
72
8
73
4
74
0
42
0.000000001
43
0.0000000001
44
0.0000000001
40
0
40
0
40
0
40
0
40
1
40
1
40
1
40
1
41
1
41
1
41
1
41
1
10
302.01575875380649
20
-67.11881535441475
30
0
10
302.01575875380649
20
-67.112704200373969
30
0
10
302.01728607610113
20
-67.106593046333217
30
0
10
302.01728607610119
20
-67.098954569997858
30
0
0
SPLINE
5
314
100
AcDbEntity
8
0
100
AcDbSpline
70
4
71
3
72
8
73
4
74
0
42
0.000000001
43
0.0000000001
44
0.0000000001
40
0
40
0
40
0
40
0
40
1
40
1
40
1
40
1
41
1
41
1
41
1
41
1
10
302.01728607610119
20
-67.098954569997858
30
0
10
302.02339723014182
20
-66.926324258874359
30
0
10
302.10130931578982
20
-64.489650307902323
30
0
10
302.10130931578982
20
-64.286467956299816
30
0
0
SPLINE
5
315
100
AcDbEntity
8
0
100
AcDbSpline
70
4
71
3
72
8
73
4
74
0
42
0.000000001
43
0.0000000001
44
0.0000000001
40
0
40
0
40
0
40
0
40
1
40
1
40
1
40
1
41
1
41
1
41
1
41
1
10
302.10130931578982
20
-64.286467956299816
30
0
10
302.10130931578982
20
-64.075645263499609
30
0
10
302.14408552921259
20
-63.191111195757657
30
0
10
302.14408552921259
20
-62.896265263268738
30
0
0
SPLINE
5
316
100
AcDbEntity
8
0
100
AcDbSpline
70
4
71
3
72
8
73
4
74
0
42
0.000000001
43
0.0000000001
44
0.0000000001
40
0
40
0
40
0
40
0
40
1
40
1
40
1
40
1
41
1
41
1
41
1
41
1
10
302.14408552921259
20
-62.896265263268738
30
0
10
302.14408552921259
20
-62.708357999474522
30
0
10
301.75299591381588
20
-62.028533605629654
30
0
10
301.467315779957
20
-61.55647725999583
30
0
0
SPLINE
5
317
100
AcDbEntity
8
0
100
AcDbSpline
70
4
71
3
72
8
73
4
74
0
42
0.000000001
43
0.0000000001
44
0.0000000001
40
0
40
0
40
0
40
0
40
1
40
1
40
1
40
1
41
1
41
1
41
1
41
1
10
301.467315779957
20
-61.55647725999583
30
0
10
301.28551967020337
20
-61.255522038328543
30
0
10
301.27482654927888
20
-60.882764020191722
30
0
10
301.4382891969102
20
-60.572641135032121
30
0
0
SPLINE
5
318
100
AcDbEntity
8
0
100
AcDbSpline
70
4
71
3
72
8
73
4
74
0
42
0.000000001
43
0.0000000001
44
0.0000000001
40
0
40
0
40
0
40
0
40
1
40
1
40
1
40
1
41
1
41
1
41
1
41
1
10
301.4382891969102
20
-60.572641135032121
30
0
10
301.62313995125282
20
-60.221271223606692
30
0
10
301.85840539535371
20
-59.793516548827903
30
0
10
301.9745098626783
20
-59.652969330202694
30
0
0
SPLINE
5
319
100
AcDbEntity
8
0
100
AcDbSpline
70
4
71
3
72
8
73
4
74
0
42
0.000000001
43
0.0000000001
44
0.0000000001
40
0
40
0
40
0
40
0
40
1
40
1
40
1
40
1
41
1
41
1
41
1
41
1
10
301.9745098626783
20
-59.652969330202694
30
0
10
302.5473955878283
20
-58.96397913772789
30
0
10
302.98889989298334
20
-58.197074994742792
30
0
10
303.41359805831053
20
-57.410311932203193
30
0
0
SPLINE
5
320
100
AcDbEntity
8
0
100
AcDbSpline
70
4
71
3
72
8
73
4
74
0
42
0.000000001
43
0.0000000001
44
0.0000000001
40
0
40
0
40
0
40
0
40
1
40
1
40
1
40
1
41
1
41
1
41
1
41
1
10
303.41359805831053
20
-57.410311932203193
30
0
10
303.80316035141266
20
-56.686184002640942
30
0
10
304.36993492252213
20
-56.085799016738576
30
0
10
304.84963160935365
20
-55.421251575564384
30
0
0
SPLINE
5
321
100
AcDbEntity
8
0
100
AcDbSpline
70
4
71
3
72
8
73
4
74
0
42
0.000000001
43
0.0000000001
44
0.0000000001
40
0
40
0
40
0
40
0
40
1
40
1
40
1
40
1
41
1
41
1
41
1
41
1
10
304.84963160935365
20
-55.421251575564384
30
0
10
304.90921209774172
20
-55.338757523032662
30
0
10
304.97031990842436
20
-55.25320509618701
30
0
10
305.00087381376568
20
-55.15543409098462
30
0
0
SPLINE
5
322
100
AcDbEntity
8
0
100
AcDbSpline
70
4
71
3
72
8
73
4
74
0
42
0.000000001
43
0.0000000001
44
0.0000000001
40
0
40
0
40
0
40
0
40
1
40
1
40
1
40
1
41
1
41
1
41
1
41
1
10
305.00087381376568
20
-55.15543409098462
30
0
10
305.03601155085323
20
-55.042386133111563
30
0
10
305.02837307451784
20
-54.921695969178394
30
0
10
305.02073459818263
20
-54.804064179559155
30
0
0
SPLINE
5
323
100
AcDbEntity
8
0
100
AcDbSpline
70
4
71
3
72
8
73
4
74
0
42
0.000000001
43
0.0000000001
44
0.0000000001
40
0
40
0
40
0
40
0
40
1
40
1
40
1
40
1
41
1
41
1
41
1
41
1
10
305.02073459818263
20
-54.804064179559155
30
0
10
304.9840695388005
20
-54.229649267252036
30
0
10
304.91990708352864
20
-53.604823394911499
30
0
10
304.71672286706365
20
-53.044159977842817
30
0
0
SPLINE
5
324
100
AcDbEntity
8
0
100
AcDbSpline
70
4
71
3
72
8
73
4
74
0
42
0.000000001
43
0.0000000001
44
0.0000000001
40
0
40
0
40
0
40
0
40
1
40
1
40
1
40
1
41
1
41
1
41
1
41
1
10
304.71672286706365
20
-53.044159977842817
30
0
10
304.49367973104438
20
-52.426972581837617
30
0
10
304.05828657993032
20
-51.976302478052787
30
0
10
303.70233283675867
20
-51.440079947422333
30
0
0
SPLINE
5
325
100
AcDbEntity
8
0
100
AcDbSpline
70
4
71
3
72
8
73
4
74
0
42
0.000000001
43
0.0000000001
44
0.0000000001
40
0
40
0
40
0
40
0
40
1
40
1
40
1
40
1
41
1
41
1
41
1
41
1
10
303.70233283675867
20
-51.440079947422333
30
0
10
303.66108581049286
20
-51.378972136739662
30
0
10
303.55109063234647
20
-51.258285702531261
30
0
10
303.44873579539797
20
-51.149817846679582
30
0
0
SPLINE
5
326
100
AcDbEntity
8
0
100
AcDbSpline
70
4
71
3
72
8
73
4
74
0
42
0.000000001
43
0.0000000001
44
0.0000000001
40
0
40
0
40
0
40
0
40
1
40
1
40
1
40
1
41
1
41
1
41
1
41
1
10
303.44873579539797
20
-51.149817846679582
30
0
10
303.3341586503679
20
-51.029131412471209
30
0
10
303.14472406427916
20
-51.024547580725041
30
0
10
303.02403576520834
20
-51.139124725755053
30
0
0
LINE
5
327
100
AcDbEntity
8
0
100
AcDbLine
10
303.02403576520834
20
-51.139124725755053
30
0
11
302.36712680036959
21
-51.763950598095612
31
0
0
SPLINE
5
328
100
AcDbEntity
8
0
100
AcDbSpline
70
4
71
3
72
8
73
4
74
0
42
0.000000001
43
0.0000000001
44
0.0000000001
40
0
40
0
40
0
40
0
40
1
40
1
40
1
40
1
41
1
41
1
41
1
41
1
10
302.36712680036959
20
-51.763950598095612
30
0
10
302.35796100173962
20
-51.773118261587896
30
0
10
302.35032252540418
20
-51.780756737923276
30
0
10
302.34268404906913
20
-51.79144985884777
30
0
0
LINE
5
329
100
AcDbEntity
8
0
100
AcDbLine
10
302.34268404906913
20
-51.79144985884777
30
0
11
301.40926261386335
21
-52.928053645655794
31
0
0
SPLINE
5
330
100
AcDbEntity
8
0
100
AcDbSpline
70
4
71
3
72
8
73
4
74
0
42
0.000000001
43
0.0000000001
44
0.0000000001
40
0
40
0
40
0
40
0
40
1
40
1
40
1
40
1
41
1
41
1
41
1
41
1
10
301.40926261386335
20
-52.928053645655794
30
0
10
301.3939856611928
20
-52.946385242915639
30
0
10
301.3817633531113
20
-52.966246027332495
30
0
10
301.3710702321867
20
-52.989161456338472
30
0
0
SPLINE
5
331
100
AcDbEntity
8
0
100
AcDbSpline
70
4
71
3
72
8
73
4
74
0
42
0.000000001
43
0.0000000001
44
0.0000000001
40
0
40
0
40
0
40
0
40
1
40
1
40
1
40
1
41
1
41
1
41
1
41
1
10
301.3710702321867
20
-52.989161456338472
30
0
10
300.91276165206659
20
-53.939387166509292
30
0
10
300.50639508399917
20
-54.936972921849062
30
0
10
299.9273982048083
20
-55.815397700412646
30
0
0
SPLINE
5
332
100
AcDbEntity
8
0
100
AcDbSpline
70
4
71
3
72
8
73
4
74
0
42
0.000000001
43
0.0000000001
44
0.0000000001
40
0
40
0
40
0
40
0
40
1
40
1
40
1
40
1
41
1
41
1
41
1
41
1
10
299.9273982048083
20
-55.815397700412646
30
0
10
299.81740489152452
20
-55.983444179790034
30
0
10
299.68449428437219
20
-56.162183780091929
30
0
10
299.52867011307615
20
-56.285928588614283
30
0
0
SPLINE
5
333
100
AcDbEntity
8
0
100
AcDbSpline
70
4
71
3
72
8
73
4
74
0
42
0.000000001
43
0.0000000001
44
0.0000000001
40
0
40
0
40
0
40
0
40
1
40
1
40
1
40
1
41
1
41
1
41
1
41
1
10
299.52867011307615
20
-56.285928588614283
30
0
10
299.34229203643901
20
-56.43411428357485
30
0
10
299.06272305662083
20
-56.313427849366462
30
0
10
299.04439145936101
20
-56.075105895814083
30
0
0
SPLINE
5
334
100
AcDbEntity
8
0
100
AcDbSpline
70
4
71
3
72
8
73
4
74
0
42
0.000000001
43
0.0000000001
44
0.0000000001
40
0
40
0
40
0
40
0
40
1
40
1
40
1
40
1
41
1
41
1
41
1
41
1
10
299.04439145936101
20
-56.075105895814083
30
0
10
298.9191211934064
20
-54.457278099879858
30
0
10
298.10333154782001
20
-52.877638955897623
30
0
10
297.59613560023638
20
-51.357582165165852
30
0
0
SPLINE
5
335
100
AcDbEntity
8
0
100
AcDbSpline
70
4
71
3
72
8
73
4
74
0
42
0.000000001
43
0.0000000001
44
0.0000000001
40
0
40
0
40
0
40
0
40
1
40
1
40
1
40
1
41
1
41
1
41
1
41
1
10
297.59613560023638
20
-51.357582165165852
30
0
10
297.26309728607083
20
-50.363051054415251
30
0
10
296.68868423862585
20
-49.408241512498293
30
0
10
296.78492978639628
20
-48.32357787288062
30
0
0
SPLINE
5
336
100
AcDbEntity
8
0
100
AcDbSpline
70
4
71
3
72
8
73
4
74
0
42
0.000000001
43
0.0000000001
44
0.0000000001
40
0
40
0
40
0
40
0
40
1
40
1
40
1
40
1
41
1
41
1
41
1
41
1
10
296.78492978639628
20
-48.32357787288062
30
0
10
296.79562663704553
20
-48.227336054835213
30
0
10
296.80937626742161
20
-48.131090507065046
30
0
10
296.82770786468143
20
-48.034844959294873
30
0
0
SPLINE
5
337
100
AcDbEntity
8
0
100
AcDbSpline
70
4
71
3
72
8
73
4
74
0
42
0.000000001
43
0.0000000001
44
0.0000000001
40
0
40
0
40
0
40
0
40
1
40
1
40
1
40
1
41
1
41
1
41
1
41
1
10
41.63191746697774
20
-56.157003079197196
30
0
10
41.395124700582222
20
-56.59239623031133
30
0
10
41.460816343011089
20
-57.374575461104726
30
0
10
41.413456297842089
20
-57.86649445601774
30
0
0
SPLINE
5
338
100
AcDbEntity
8
0
100
AcDbSpline
70
4
71
3
72
8
73
4
74
0
42
0.000000001
43
0.0000000001
44
0.0000000001
40
0
40
0
40
0
40
0
40
1
40
1
40
1
40
1
41
1
41
1
41
1
41
1
10
45.833079451412225
20
-73.627727645266631
30
0
10
46.166117765577759
20
-74.622258756017231
30
0
10
46.74053081302273
20
-75.577068297934204
30
0
10
46.644285265252321
20
-76.661731937551878
30
0
0
SPLINE
5
339
100
AcDbEntity
8
0
100
AcDbSpline
70
4
71
3
72
8
73
4
74
0
42
0.000000001
43
0.0000000001
44
0.0000000001
40
0
40
0
40
0
40
0
40
1
40
1
40
1
40
1
41
1
41
1
41
1
41
1
10
41.285129522436009
20
-62.089044547163745
30
0
10
41.285129522436009
20
-62.276951810957961
30
0
10
41.676219137832724
20
-62.956776204802829
30
0
10
41.961899271691586
20
-63.42883255043666
30
0
0
SPLINE
5
340
100
AcDbEntity
8
0
100
AcDbSpline
70
4
71
3
72
8
73
4
74
0
42
0.000000001
43
0.0000000001
44
0.0000000001
40
0
40
0
40
0
40
0
40
1
40
1
40
1
40
1
41
1
41
1
41
1
41
1
10
43.90054493857243
20
-68.6993812218182
30
0
10
44.086923015209585
20
-68.551195526857626
30
0
10
44.366491995027751
20
-68.67188196106602
30
0
10
44.384823592287582
20
-68.910203914618407
30
0
0
SPLINE
5
341
100
AcDbEntity
8
0
100
AcDbSpline
70
0
71
2
72
6
73
3
74
0
42
0.000000001
43
0.0000000001
44
0.0000000001
40
0
40
0
40
0
40
1
40
1
40
1
10
42.382015470135215
20
-43.306029373711155
30
0
10
41.870237555667742
20
-44.190564840099896
30
0
10
41.830517851696392
20
-44.485410306373232
30
0
0
SPLINE
5
342
100
AcDbEntity
8
0
100
AcDbSpline
70
4
71
3
72
8
73
4
74
0
42
0.000000001
43
0.0000000001
44
0.0000000001
40
0
40
0
40
0
40
0
40
1
40
1
40
1
40
1
41
1
41
1
41
1
41
1
10
42.409511001162493
20
-75.11264296918614
30
0
10
41.984810970972866
20
-75.662613265330293
30
0
10
41.558585483351116
20
-76.21411274863145
30
0
10
41.13388545316149
20
-76.764083044775575
30
0
0
SPLINE
5
343
100
AcDbEntity
8
0
100
AcDbSpline
70
4
71
3
72
8
73
4
74
0
42
0.000000001
43
0.0000000001
44
0.0000000001
40
0
40
0
40
0
40
0
40
1
40
1
40
1
40
1
41
1
41
1
41
1
41
1
10
41.327905735858764
20
-60.698841854132681
30
0
10
41.327905735858764
20
-60.909664546932866
30
0
10
41.285129522436009
20
-61.794198614674826
30
0
10
41.285129522436009
20
-62.089044547163745
30
0
0
SPLINE
5
344
100
AcDbEntity
8
0
100
AcDbSpline
70
4
71
3
72
8
73
4
74
0
42
0.000000001
43
0.0000000001
44
0.0000000001
40
0
40
0
40
0
40
0
40
1
40
1
40
1
40
1
41
1
41
1
41
1
41
1
10
38.712492184584953
20
-71.941149832589673
30
0
10
38.935535320604203
20
-72.55833722859488
30
0
10
39.370928471718265
20
-73.009007332379696
30
0
10
39.726882214889912
20
-73.545229863010164
30
0
0
SPLINE
5
345
100
AcDbEntity
8
0
100
AcDbSpline
70
4
71
3
72
8
73
4
74
0
42
0.000000001
43
0.0000000001
44
0.0000000001
40
0
40
0
40
0
40
0
40
1
40
1
40
1
40
1
41
1
41
1
41
1
41
1
10
41.355403131748439
20
-39.964959405041263
30
0
10
41.876346844845934
20
-40.126895196593615
30
0
10
43.425430218624442
20
-40.742556435843198
30
0
10
43.214607525824292
20
-41.492654905216241
30
0
0
SPLINE
5
346
100
AcDbEntity
8
0
100
AcDbSpline
70
4
71
3
72
8
73
4
74
0
42
0.000000001
43
0.0000000001
44
0.0000000001
40
0
40
0
40
0
40
0
40
1
40
1
40
1
40
1
41
1
41
1
41
1
41
1
10
39.702437598726952
20
-59.40182819942023
30
0
10
39.781877006669475
20
-58.76630734129278
30
0
10
39.839930172762983
20
-58.13995228179526
30
0
10
39.888815675364214
20
-57.501374914216228
30
0
0
SPLINE
5
347
100
AcDbEntity
8
0
100
AcDbSpline
70
4
71
3
72
8
73
4
74
0
42
0.000000001
43
0.0000000001
44
0.0000000001
40
0
40
0
40
0
40
0
40
1
40
1
40
1
40
1
41
1
41
1
41
1
41
1
10
39.853679803138931
20
-40.69367000081084
30
0
10
39.969784270463691
20
-40.314801527956618
30
0
10
40.261573693500885
20
-39.966486960443738
30
0
10
40.649608664308381
20
-39.888574641687981
30
0
0
SPLINE
5
348
100
AcDbEntity
8
0
100
AcDbSpline
70
4
71
3
72
8
73
4
74
0
42
0.000000001
43
0.0000000001
44
0.0000000001
40
0
40
0
40
0
40
0
40
1
40
1
40
1
40
1
41
1
41
1
41
1
41
1
10
40.649608664308381
20
-39.888574641687981
30
0
10
40.884874108409448
20
-39.841215995165797
30
0
10
41.127778028845484
20
-39.893157774110747
30
0
10
41.355403131748439
20
-39.964959405041263
30
0
0
SPLINE
5
349
100
AcDbEntity
8
0
100
AcDbSpline
70
4
71
3
72
8
73
4
74
0
42
0.000000001
43
0.0000000001
44
0.0000000001
40
0
40
0
40
0
40
0
40
1
40
1
40
1
40
1
41
1
41
1
41
1
41
1
10
42.019952437785236
20
-72.057256164776703
30
0
10
42.035229390455775
20
-72.038924567516844
30
0
10
42.047451698537309
20
-72.01906378309998
30
0
10
42.058144819461887
20
-71.996148354094018
30
0
0
SPLINE
5
350
100
AcDbEntity
8
0
100
AcDbSpline
70
4
71
3
72
8
73
4
74
0
42
0.000000001
43
0.0000000001
44
0.0000000001
40
0
40
0
40
0
40
0
40
1
40
1
40
1
40
1
41
1
41
1
41
1
41
1
10
42.78379634159397
20
-74.565727317631143
30
0
10
42.681441504645406
20
-74.761273057760704
30
0
10
42.545476252903967
20
-74.938483470905609
30
0
10
42.409511001162493
20
-75.11264296918614
30
0
0
SPLINE
5
351
100
AcDbEntity
8
0
100
AcDbSpline
70
4
71
3
72
8
73
4
74
0
42
0.000000001
43
0.0000000001
44
0.0000000001
40
0
40
0
40
0
40
0
40
1
40
1
40
1
40
1
41
1
41
1
41
1
41
1
10
41.413456297842089
20
-57.86649445601774
30
0
10
41.413456297842089
20
-57.872605610058507
30
0
10
41.411928975547461
20
-57.878716764099273
30
0
10
41.41192897554739
20
-57.886355240434632
30
0
0
SPLINE
5
352
100
AcDbEntity
8
0
100
AcDbSpline
70
4
71
3
72
8
73
4
74
0
42
0.000000001
43
0.0000000001
44
0.0000000001
40
0
40
0
40
0
40
0
40
1
40
1
40
1
40
1
41
1
41
1
41
1
41
1
10
39.726882214889912
20
-73.545229863010164
30
0
10
39.768129241155712
20
-73.606337673692821
30
0
10
39.878124419302104
20
-73.727024107901229
30
0
10
39.980479256250632
20
-73.835491963752901
30
0
0
SPLINE
5
353
100
AcDbEntity
8
0
100
AcDbSpline
70
4
71
3
72
8
73
4
74
0
42
0.000000001
43
0.0000000001
44
0.0000000001
40
0
40
0
40
0
40
0
40
1
40
1
40
1
40
1
41
1
41
1
41
1
41
1
10
46.644285265252321
20
-76.661731937551878
30
0
10
46.633588414603054
20
-76.757973755597277
30
0
10
46.619838784226964
20
-76.854219303367429
30
0
10
46.601507186967204
20
-76.950464851137625
30
0
0
SPLINE
5
354
100
AcDbEntity
8
0
100
AcDbSpline
70
4
71
3
72
8
73
4
74
0
42
0.000000001
43
0.0000000001
44
0.0000000001
40
0
40
0
40
0
40
0
40
1
40
1
40
1
40
1
41
1
41
1
41
1
41
1
10
43.928040469599743
20
-80.84914242674796
30
0
10
43.88984808792295
20
-80.855251715926329
30
0
10
43.850128383951741
20
-80.858310090240224
30
0
10
43.814990646864167
20
-80.844558595001786
30
0
0
SPLINE
5
355
100
AcDbEntity
8
0
100
AcDbSpline
70
4
71
3
72
8
73
4
74
0
42
0.000000001
43
0.0000000001
44
0.0000000001
40
0
40
0
40
0
40
0
40
1
40
1
40
1
40
1
41
1
41
1
41
1
41
1
10
40.670998635882405
20
-47.71801311851479
30
0
10
40.677109789923101
20
-47.525523887836798
30
0
10
40.677109789923101
20
-47.308590973427009
30
0
10
40.655721683211688
20
-47.223039479012556
30
0
0
SPLINE
5
356
100
AcDbEntity
8
0
100
AcDbSpline
70
4
71
3
72
8
73
4
74
0
42
0.000000001
43
0.0000000001
44
0.0000000001
40
0
40
0
40
0
40
0
40
1
40
1
40
1
40
1
41
1
41
1
41
1
41
1
10
41.830517851696392
20
-49.95761680435627
30
0
10
41.833572496285505
20
-50.12566328373363
30
0
10
41.827463207107279
20
-51.642664497445054
30
0
10
41.830517851696392
20
-51.937509497502738
30
0
0
SPLINE
5
357
100
AcDbEntity
8
0
100
AcDbSpline
70
4
71
3
72
8
73
4
74
0
42
0.000000001
43
0.0000000001
44
0.0000000001
40
0
40
0
40
0
40
0
40
1
40
1
40
1
40
1
41
1
41
1
41
1
41
1
10
41.830517851696392
20
-51.937509497502738
30
0
10
41.833572496285505
20
-52.232354497560458
30
0
10
41.827463207107279
20
-54.632364321581647
30
0
10
41.830517851696392
20
-54.801938123253599
30
0
0
SPLINE
5
358
100
AcDbEntity
8
0
100
AcDbSpline
70
4
71
3
72
8
73
4
74
0
42
0.000000001
43
0.0000000001
44
0.0000000001
40
0
40
0
40
0
40
0
40
1
40
1
40
1
40
1
41
1
41
1
41
1
41
1
10
40.570169256365965
20
-45.496743827226702
30
0
10
40.570169256365965
20
-45.244674108160609
30
0
10
40.570169256365965
20
-44.949829108102904
30
0
10
40.570169256365965
20
-44.696231600526673
30
0
0
SPLINE
5
359
100
AcDbEntity
8
0
100
AcDbSpline
70
4
71
3
72
8
73
4
74
0
42
0.000000001
43
0.0000000001
44
0.0000000001
40
0
40
0
40
0
40
0
40
1
40
1
40
1
40
1
41
1
41
1
41
1
41
1
10
41.761771564678412
20
-55.949236895848522
30
0
10
41.723579183001583
20
-56.021037827455721
30
0
10
41.671637170948912
20
-56.085202147589996
30
0
10
41.63191746697774
20
-56.157003079197196
30
0
0
SPLINE
5
360
100
AcDbEntity
8
0
100
AcDbSpline
70
4
71
3
72
8
73
4
74
0
42
0.000000001
43
0.0000000001
44
0.0000000001
40
0
40
0
40
0
40
0
40
1
40
1
40
1
40
1
41
1
41
1
41
1
41
1
10
39.878122554439742
20
-56.393795845592571
30
0
10
39.745213812149778
20
-55.856047857529909
30
0
10
39.522168811267953
20
-55.497039469769149
30
0
10
39.577167332772312
20
-54.930263033797331
30
0
0
SPLINE
5
361
100
AcDbEntity
8
0
100
AcDbSpline
70
0
71
2
72
6
73
3
74
0
42
0.000000001
43
0.0000000001
44
0.0000000001
40
0
40
0
40
0
40
1
40
1
40
1
10
41.830517851696392
20
-46.844171239266188
30
0
10
41.876348709708367
20
-47.012217718643512
30
0
10
41.830517851696392
20
-48.656017453035261
30
0
0
SPLINE
5
362
100
AcDbEntity
8
0
100
AcDbSpline
70
4
71
3
72
8
73
4
74
0
42
0.000000001
43
0.0000000001
44
0.0000000001
40
0
40
0
40
0
40
0
40
1
40
1
40
1
40
1
41
1
41
1
41
1
41
1
10
45.365601342937374
20
-79.636153876586576
30
0
10
45.038674182812748
20
-80.161679556567719
30
0
10
44.584949434438464
20
-80.749842234388581
30
0
10
43.928040469599743
20
-80.84914242674796
30
0
0
SPLINE
5
363
100
AcDbEntity
8
0
100
AcDbSpline
70
4
71
3
72
8
73
4
74
0
42
0.000000001
43
0.0000000001
44
0.0000000001
40
0
40
0
40
0
40
0
40
1
40
1
40
1
40
1
41
1
41
1
41
1
41
1
10
40.05075286556324
20
-49.210571580925581
30
0
10
40.07366829456921
20
-48.989055767200817
30
0
10
40.10269487761591
20
-48.759901477140801
30
0
10
40.215744700351415
20
-48.568939568757415
30
0
0
SPLINE
5
364
100
AcDbEntity
8
0
100
AcDbSpline
70
4
71
3
72
8
73
4
74
0
42
0.000000001
43
0.0000000001
44
0.0000000001
40
0
40
0
40
0
40
0
40
1
40
1
40
1
40
1
41
1
41
1
41
1
41
1
10
42.058144819461887
20
-71.996148354094018
30
0
10
42.516453399581991
20
-71.045922643923191
30
0
10
42.922819967649424
20
-70.048336888583435
30
0
10
43.501816846840285
20
-69.169912110019837
30
0
0
SPLINE
5
365
100
AcDbEntity
8
0
100
AcDbSpline
70
4
71
3
72
8
73
4
74
0
42
0.000000001
43
0.0000000001
44
0.0000000001
40
0
40
0
40
0
40
0
40
1
40
1
40
1
40
1
41
1
41
1
41
1
41
1
10
43.028229449187101
20
-42.158730134900637
30
0
10
43.019063650557079
20
-42.193866939556941
30
0
10
43.003786697886468
20
-42.227476421918666
30
0
10
42.98698242292123
20
-42.258030327259995
30
0
0
SPLINE
5
366
100
AcDbEntity
8
0
100
AcDbSpline
70
4
71
3
72
8
73
4
74
0
42
0.000000001
43
0.0000000001
44
0.0000000001
40
0
40
0
40
0
40
0
40
1
40
1
40
1
40
1
41
1
41
1
41
1
41
1
10
40.215744700351415
20
-48.568939568757415
30
0
10
40.396013487810272
20
-48.267983414658914
30
0
10
40.658776327800801
20
-48.096881358261172
30
0
10
40.670998635882405
20
-47.71801311851479
30
0
0
SPLINE
5
367
100
AcDbEntity
8
0
100
AcDbSpline
70
4
71
3
72
8
73
4
74
0
42
0.000000001
43
0.0000000001
44
0.0000000001
40
0
40
0
40
0
40
0
40
1
40
1
40
1
40
1
41
1
41
1
41
1
41
1
10
41.830517851696392
20
-54.801938123253599
30
0
10
41.836629005737088
20
-55.142614913754528
30
0
10
41.923706890015005
20
-55.640643197845947
30
0
10
41.761771564678412
20
-55.949236895848522
30
0
0
SPLINE
5
368
100
AcDbEntity
8
0
100
AcDbSpline
70
0
71
2
72
6
73
3
74
0
42
0.000000001
43
0.0000000001
44
0.0000000001
40
0
40
0
40
0
40
1
40
1
40
1
10
41.830517851696392
20
-48.905034392374532
30
0
10
41.827463207107279
20
-49.789570324978854
30
0
10
41.830517851696392
20
-49.95761680435627
30
0
0
LINE
5
369
100
AcDbEntity
8
0
100
AcDbLine
10
41.830517851696392
20
-48.656017453035261
30
0
11
41.830517851696392
21
-48.905034392374553
31
0
0
SPLINE
5
370
100
AcDbEntity
8
0
100
AcDbSpline
70
4
71
3
72
8
73
4
74
0
42
0.000000001
43
0.0000000001
44
0.0000000001
40
0
40
0
40
0
40
0
40
1
40
1
40
1
40
1
41
1
41
1
41
1
41
1
10
40.655721683211688
20
-47.223039479012556
30
0
10
40.612945469788862
20
-47.054992999635175
30
0
10
40.655721683211688
20
-46.506550025785629
30
0
10
40.612945469788862
20
-46.381279759831024
30
0
0
SPLINE
5
371
100
AcDbEntity
8
0
100
AcDbSpline
70
4
71
3
72
8
73
4
74
0
42
0.000000001
43
0.0000000001
44
0.0000000001
40
0
40
0
40
0
40
0
40
1
40
1
40
1
40
1
41
1
41
1
41
1
41
1
10
43.501816846840285
20
-69.169912110019837
30
0
10
43.611810160124065
20
-69.001865630642442
30
0
10
43.744720767276391
20
-68.823126030340561
30
0
10
43.90054493857243
20
-68.6993812218182
30
0
0
SPLINE
5
372
100
AcDbEntity
8
0
100
AcDbSpline
70
4
71
3
72
8
73
4
74
0
42
0.000000001
43
0.0000000001
44
0.0000000001
40
0
40
0
40
0
40
0
40
1
40
1
40
1
40
1
41
1
41
1
41
1
41
1
10
40.570169256365965
20
-44.696231600526673
30
0
10
40.570169256365965
20
-44.44416188146058
30
0
10
40.570169256366107
20
-44.358610853261695
30
0
10
40.570169256365965
20
-43.979742613515256
30
0
0
LINE
5
373
100
AcDbEntity
8
0
100
AcDbLine
10
43.214607525824292
20
-41.492654905216241
30
0
11
43.028229449187101
21
-42.158730134900637
31
0
0
SPLINE
5
374
100
AcDbEntity
8
0
100
AcDbSpline
70
4
71
3
72
8
73
4
74
0
42
0.000000001
43
0.0000000001
44
0.0000000001
40
0
40
0
40
0
40
0
40
1
40
1
40
1
40
1
41
1
41
1
41
1
41
1
10
40.570169256365965
20
-43.979742613515256
30
0
10
40.570169256365965
20
-43.60087437376886
30
0
10
40.359346563565779
20
-42.716338441164574
30
0
10
40.232548975316583
20
-42.589539920484178
30
0
0
SPLINE
5
375
100
AcDbEntity
8
0
100
AcDbSpline
70
4
71
3
72
8
73
4
74
0
42
0.000000001
43
0.0000000001
44
0.0000000001
40
0
40
0
40
0
40
0
40
1
40
1
40
1
40
1
41
1
41
1
41
1
41
1
10
43.814990646864167
20
-80.844558595001786
30
0
10
43.743189715256932
20
-80.815533876817398
30
0
10
43.714163132210409
20
-80.728452262814798
30
0
10
43.709579300464092
20
-80.65054204202923
30
0
0
SPLINE
5
376
100
AcDbEntity
8
0
100
AcDbSpline
70
4
71
3
72
8
73
4
74
0
42
0.000000001
43
0.0000000001
44
0.0000000001
40
0
40
0
40
0
40
0
40
1
40
1
40
1
40
1
41
1
41
1
41
1
41
1
10
41.13388545316149
20
-76.764083044775575
30
0
10
40.990281725084728
20
-76.948935663980635
30
0
10
40.831401044337248
20
-77.049761313772194
30
0
10
40.599192109687905
20
-76.903104805968624
30
0
0
SPLINE
5
377
100
AcDbEntity
8
0
100
AcDbSpline
70
4
71
3
72
8
73
4
74
0
42
0.000000001
43
0.0000000001
44
0.0000000001
40
0
40
0
40
0
40
0
40
1
40
1
40
1
40
1
41
1
41
1
41
1
41
1
10
40.612945469788862
20
-46.381279759831024
30
0
10
40.570169256365965
20
-46.256009493876491
30
0
10
40.570169256366107
20
-45.748813546292794
30
0
10
40.570169256365965
20
-45.496743827226702
30
0
0
SPLINE
5
378
100
AcDbEntity
8
0
100
AcDbSpline
70
4
71
3
72
8
73
4
74
0
42
0.000000001
43
0.0000000001
44
0.0000000001
40
0
40
0
40
0
40
0
40
1
40
1
40
1
40
1
41
1
41
1
41
1
41
1
10
41.454705188970287
20
-65.332340480229789
30
0
10
40.8818194638203
20
-66.021330672704607
30
0
10
40.440315158665257
20
-66.788234815689705
30
0
10
40.015616993338064
20
-67.574997878229283
30
0
0
SPLINE
5
379
100
AcDbEntity
8
0
100
AcDbSpline
70
4
71
3
72
8
73
4
74
0
42
0.000000001
43
0.0000000001
44
0.0000000001
40
0
40
0
40
0
40
0
40
1
40
1
40
1
40
1
41
1
41
1
41
1
41
1
10
40.599192109687905
20
-76.903104805968624
30
0
10
40.172964757203793
20
-76.63575813423185
30
0
10
39.772709343177091
20
-76.055233932746361
30
0
10
39.458004491133785
20
-75.665671639644259
30
0
0
SPLINE
5
380
100
AcDbEntity
8
0
100
AcDbSpline
70
4
71
3
72
8
73
4
74
0
42
0.000000001
43
0.0000000001
44
0.0000000001
40
0
40
0
40
0
40
0
40
1
40
1
40
1
40
1
41
1
41
1
41
1
41
1
10
39.888815675364214
20
-57.501374914216228
30
0
10
39.917842258410914
20
-57.1286168960794
30
0
10
39.968255083306559
20
-56.760442709688689
30
0
10
39.878122554439742
20
-56.393795845592571
30
0
0
LINE
5
381
100
AcDbEntity
8
0
100
AcDbLine
10
40.405179286440259
20
-73.846185084677444
30
0
11
41.062088251279015
21
-73.221359212336864
31
0
0
SPLINE
5
382
100
AcDbEntity
8
0
100
AcDbSpline
70
4
71
3
72
8
73
4
74
0
42
0.000000001
43
0.0000000001
44
0.0000000001
40
0
40
0
40
0
40
0
40
1
40
1
40
1
40
1
41
1
41
1
41
1
41
1
10
41.41192897554739
20
-57.886355240434632
30
0
10
41.405817821506766
20
-58.058985551558131
30
0
10
41.327905735858764
20
-60.49565950253016
30
0
10
41.327905735858764
20
-60.698841854132681
30
0
0
SPLINE
5
383
100
AcDbEntity
8
0
100
AcDbSpline
70
4
71
3
72
8
73
4
74
0
42
0.000000001
43
0.0000000001
44
0.0000000001
40
0
40
0
40
0
40
0
40
1
40
1
40
1
40
1
41
1
41
1
41
1
41
1
10
37.368118484703395
20
-68.23954531940349
30
0
10
37.368118484703395
20
-66.516304312206827
30
0
10
38.597913174692422
20
-65.211654046021394
30
0
10
39.222740911895293
20
-63.714510819433265
30
0
0
SPLINE
5
384
100
AcDbEntity
8
0
100
AcDbSpline
70
4
71
3
72
8
73
4
74
0
42
0.000000001
43
0.0000000001
44
0.0000000001
40
0
40
0
40
0
40
0
40
1
40
1
40
1
40
1
41
1
41
1
41
1
41
1
10
37.482695629733421
20
-72.526257865821322
30
0
10
37.085494860296009
20
-71.843378827387269
30
0
10
36.987721990231293
20
-71.325487894016632
30
0
10
37.073272552214547
20
-70.555530971304734
30
0
0
SPLINE
5
385
100
AcDbEntity
8
0
100
AcDbSpline
70
4
71
3
72
8
73
4
74
0
42
0.000000001
43
0.0000000001
44
0.0000000001
40
0
40
0
40
0
40
0
40
1
40
1
40
1
40
1
41
1
41
1
41
1
41
1
10
43.448343782768227
20
-75.236387777708472
30
0
10
43.417789877426792
20
-75.03778739298977
30
0
10
43.385708649790942
20
-74.839187008271068
30
0
10
43.355154744449614
20
-74.640586623552323
30
0
0
SPLINE
5
386
100
AcDbEntity
8
0
100
AcDbSpline
70
4
71
3
72
8
73
4
74
0
42
0.000000001
43
0.0000000001
44
0.0000000001
40
0
40
0
40
0
40
0
40
1
40
1
40
1
40
1
41
1
41
1
41
1
41
1
10
39.980479256250632
20
-73.835491963752901
30
0
10
40.095056401280694
20
-73.956178397961281
30
0
10
40.284490987369431
20
-73.960762229707441
30
0
10
40.405179286440259
20
-73.846185084677444
30
0
0
SPLINE
5
387
100
AcDbEntity
8
0
100
AcDbSpline
70
4
71
3
72
8
73
4
74
0
42
0.000000001
43
0.0000000001
44
0.0000000001
40
0
40
0
40
0
40
0
40
1
40
1
40
1
40
1
41
1
41
1
41
1
41
1
10
41.990925854738428
20
-64.412668675400354
30
0
10
41.806075100395759
20
-64.764038586825791
30
0
10
41.57080965629487
20
-65.191793261604587
30
0
10
41.454705188970287
20
-65.332340480229789
30
0
0
LINE
5
388
100
AcDbEntity
8
0
100
AcDbLine
10
42.98698242292123
20
-42.258030327259995
30
0
11
42.382015470135215
21
-43.306029373711155
31
0
0
SPLINE
5
389
100
AcDbEntity
8
0
100
AcDbSpline
70
4
71
3
72
8
73
4
74
0
42
0.000000001
43
0.0000000001
44
0.0000000001
40
0
40
0
40
0
40
0
40
1
40
1
40
1
40
1
41
1
41
1
41
1
41
1
10
37.073272552214547
20
-70.555530971304734
30
0
10
37.116048765637373
20
-70.176661799127146
30
0
10
37.368118484703395
20
-68.575638278158266
30
0
10
37.368118484703395
20
-68.23954531940349
30
0
0
SPLINE
5
390
100
AcDbEntity
8
0
100
AcDbSpline
70
4
71
3
72
8
73
4
74
0
42
0.000000001
43
0.0000000001
44
0.0000000001
40
0
40
0
40
0
40
0
40
1
40
1
40
1
40
1
41
1
41
1
41
1
41
1
10
43.535421667045931
20
-75.887187453368966
30
0
10
43.517090069786136
20
-75.668726284233429
30
0
10
43.481952332698704
20
-75.453323489411844
30
0
10
43.448343782768227
20
-75.236387777708472
30
0
0
SPLINE
5
391
100
AcDbEntity
8
0
100
AcDbSpline
70
4
71
3
72
8
73
4
74
0
42
0.000000001
43
0.0000000001
44
0.0000000001
40
0
40
0
40
0
40
0
40
1
40
1
40
1
40
1
41
1
41
1
41
1
41
1
10
43.556809773757415
20
-76.76255758734338
30
0
10
43.558337096052007
20
-76.470766299443682
30
0
10
43.559864418346564
20
-76.178978741268708
30
0
10
43.535421667045931
20
-75.887187453368966
30
0
0
SPLINE
5
392
100
AcDbEntity
8
0
100
AcDbSpline
70
4
71
3
72
8
73
4
74
0
42
0.000000001
43
0.0000000001
44
0.0000000001
40
0
40
0
40
0
40
0
40
1
40
1
40
1
40
1
41
1
41
1
41
1
41
1
10
38.408480453465977
20
-70.18124563087332
30
0
10
38.445145512848107
20
-70.75566054318044
30
0
10
38.509307968119948
20
-71.380486415520991
30
0
10
38.712492184584953
20
-71.941149832589673
30
0
0
SPLINE
5
393
100
AcDbEntity
8
0
100
AcDbSpline
70
4
71
3
72
8
73
4
74
0
42
0.000000001
43
0.0000000001
44
0.0000000001
40
0
40
0
40
0
40
0
40
1
40
1
40
1
40
1
41
1
41
1
41
1
41
1
10
39.577167332772312
20
-54.930263033797331
30
0
10
39.635220498865785
20
-54.329878047895008
30
0
10
39.688689833213225
20
-53.727967604560469
30
0
10
39.740629980403462
20
-53.127582618658138
30
0
0
SPLINE
5
394
100
AcDbEntity
8
0
100
AcDbSpline
70
4
71
3
72
8
73
4
74
0
42
0.000000001
43
0.0000000001
44
0.0000000001
40
0
40
0
40
0
40
0
40
1
40
1
40
1
40
1
41
1
41
1
41
1
41
1
10
39.740629980403462
20
-53.127582618658138
30
0
10
39.85215248084441
20
-51.838207440281032
30
0
10
40.05075286556324
20
-50.503002336323092
30
0
10
40.05075286556324
20
-49.210571580925581
30
0
0
SPLINE
5
395
100
AcDbEntity
8
0
100
AcDbSpline
70
4
71
3
72
8
73
4
74
0
42
0.000000001
43
0.0000000001
44
0.0000000001
40
0
40
0
40
0
40
0
40
1
40
1
40
1
40
1
41
1
41
1
41
1
41
1
10
41.961899271691586
20
-63.42883255043666
30
0
10
42.143695381445212
20
-63.729787772103947
30
0
10
42.15438850236972
20
-64.102545790240754
30
0
10
41.990925854738428
20
-64.412668675400354
30
0
0
SPLINE
5
396
100
AcDbEntity
8
0
100
AcDbSpline
70
4
71
3
72
8
73
4
74
0
42
0.000000001
43
0.0000000001
44
0.0000000001
40
0
40
0
40
0
40
0
40
1
40
1
40
1
40
1
41
1
41
1
41
1
41
1
10
38.579583442294954
20
-69.564058234868099
30
0
10
38.520002953906889
20
-69.646552287399828
30
0
10
38.458895143224233
20
-69.73210471424548
30
0
10
38.428341237882904
20
-69.82987571944787
30
0
0
SPLINE
5
397
100
AcDbEntity
8
0
100
AcDbSpline
70
4
71
3
72
8
73
4
74
0
42
0.000000001
43
0.0000000001
44
0.0000000001
40
0
40
0
40
0
40
0
40
1
40
1
40
1
40
1
41
1
41
1
41
1
41
1
10
41.062088251279015
20
-73.221359212336864
30
0
10
41.071254049908966
20
-73.212191548844586
30
0
10
41.078892526244395
20
-73.204553072509214
30
0
10
41.08653100257947
20
-73.193859951584727
30
0
0
LINE
5
398
100
AcDbEntity
8
0
100
AcDbLine
10
41.08653100257947
20
-73.193859951584727
30
0
11
42.019952437785236
21
-72.057256164776703
31
0
0
SPLINE
5
399
100
AcDbEntity
8
0
100
AcDbSpline
70
4
71
3
72
8
73
4
74
0
42
0.000000001
43
0.0000000001
44
0.0000000001
40
0
40
0
40
0
40
0
40
1
40
1
40
1
40
1
41
1
41
1
41
1
41
1
10
43.355154744449614
20
-74.640586623552323
30
0
10
43.309323886437461
20
-74.353379167398742
30
0
10
42.924345425081441
20
-74.293800543873033
30
0
10
42.791434817929222
20
-74.551979552117473
30
0
0
SPLINE
5
400
100
AcDbEntity
8
0
100
AcDbSpline
70
4
71
3
72
8
73
4
74
0
42
0.000000001
43
0.0000000001
44
0.0000000001
40
0
40
0
40
0
40
0
40
1
40
1
40
1
40
1
41
1
41
1
41
1
41
1
10
46.601507186967204
20
-76.950464851137625
30
0
10
46.428876875843706
20
-77.885413608637734
30
0
10
45.846825352063483
20
-78.861613122128517
30
0
10
45.365601342937374
20
-79.636153876586576
30
0
0
SPLINE
5
401
100
AcDbEntity
8
0
100
AcDbSpline
70
4
71
3
72
8
73
4
74
0
42
0.000000001
43
0.0000000001
44
0.0000000001
40
0
40
0
40
0
40
0
40
1
40
1
40
1
40
1
41
1
41
1
41
1
41
1
10
44.384823592287582
20
-68.910203914618407
30
0
10
44.510093858242186
20
-70.528031710552625
30
0
10
45.325883503828599
20
-72.107670854534859
30
0
10
45.833079451412225
20
-73.627727645266631
30
0
0
SPLINE
5
402
100
AcDbEntity
8
0
100
AcDbSpline
70
4
71
3
72
8
73
4
74
0
42
0.000000001
43
0.0000000001
44
0.0000000001
40
0
40
0
40
0
40
0
40
1
40
1
40
1
40
1
41
1
41
1
41
1
41
1
10
40.015616993338064
20
-67.574997878229283
30
0
10
39.626054700235976
20
-68.29912580779154
30
0
10
39.059280129126471
20
-68.899510793693921
30
0
10
38.579583442294954
20
-69.564058234868099
30
0
0
SPLINE
5
403
100
AcDbEntity
8
0
100
AcDbSpline
70
4
71
3
72
8
73
4
74
0
42
0.000000001
43
0.0000000001
44
0.0000000001
40
0
40
0
40
0
40
0
40
1
40
1
40
1
40
1
41
1
41
1
41
1
41
1
10
41.830517851696392
20
-44.485410306373232
30
0
10
41.792325470019811
20
-44.780255306430917
30
0
10
41.784686993684417
20
-46.676124759888744
30
0
10
41.830517851696392
20
-46.844171239266188
30
0
0
SPLINE
5
404
100
AcDbEntity
8
0
100
AcDbSpline
70
4
71
3
72
8
73
4
74
0
42
0.000000001
43
0.0000000001
44
0.0000000001
40
0
40
0
40
0
40
0
40
1
40
1
40
1
40
1
41
1
41
1
41
1
41
1
10
42.791434817929222
20
-74.551979552117473
30
0
10
42.789907495634594
20
-74.556563383863647
30
0
10
42.786850986183047
20
-74.561147215609751
30
0
10
42.78379634159397
20
-74.565727317631143
30
0
0
SPLINE
5
405
100
AcDbEntity
8
0
100
AcDbSpline
70
4
71
3
72
8
73
4
74
0
42
0.000000001
43
0.0000000001
44
0.0000000001
40
0
40
0
40
0
40
0
40
1
40
1
40
1
40
1
41
1
41
1
41
1
41
1
10
39.222740911895293
20
-63.714510819433265
30
0
10
39.546611562568586
20
-62.938440877818216
30
0
10
39.661188707598718
20
-62.095153836342149
30
0
10
39.688687968350898
20
-61.259505271201348
30
0
0
SPLINE
5
406
100
AcDbEntity
8
0
100
AcDbSpline
70
4
71
3
72
8
73
4
74
0
42
0.000000001
43
0.0000000001
44
0.0000000001
40
0
40
0
40
0
40
0
40
1
40
1
40
1
40
1
41
1
41
1
41
1
41
1
10
38.446670970280302
20
-74.183807230589153
30
0
10
38.125854964196193
20
-73.630782289855816
30
0
10
37.803511635817493
20
-73.077757349122464
30
0
10
37.482695629733421
20
-72.526257865821322
30
0
0
SPLINE
5
407
100
AcDbEntity
8
0
100
AcDbSpline
70
4
71
3
72
8
73
4
74
0
42
0.000000001
43
0.0000000001
44
0.0000000001
40
0
40
0
40
0
40
0
40
1
40
1
40
1
40
1
41
1
41
1
41
1
41
1
10
43.709579300464092
20
-80.65054204202923
30
0
10
43.628610705364615
20
-79.348946420432995
30
0
10
43.549171297422092
20
-78.07332087243195
30
0
10
43.556809773757415
20
-76.76255758734338
30
0
0
SPLINE
5
408
100
AcDbEntity
8
0
100
AcDbSpline
70
4
71
3
72
8
73
4
74
0
42
0.000000001
43
0.0000000001
44
0.0000000001
40
0
40
0
40
0
40
0
40
1
40
1
40
1
40
1
41
1
41
1
41
1
41
1
10
40.232548975316583
20
-42.589539920484178
30
0
10
39.765074596566564
20
-42.122065075518542
30
0
10
39.668829048796439
20
-41.298637419812508
30
0
10
39.853679803138931
20
-40.69367000081084
30
0
0
SPLINE
5
409
100
AcDbEntity
8
0
100
AcDbSpline
70
4
71
3
72
8
73
4
74
0
42
0.000000001
43
0.0000000001
44
0.0000000001
40
0
40
0
40
0
40
0
40
1
40
1
40
1
40
1
41
1
41
1
41
1
41
1
10
38.428341237882904
20
-69.82987571944787
30
0
10
38.393203500795401
20
-69.94292367732092
30
0
10
38.40084197713076
20
-70.063613841254096
30
0
10
38.408480453465977
20
-70.18124563087332
30
0
0
SPLINE
5
410
100
AcDbEntity
8
0
100
AcDbSpline
70
4
71
3
72
8
73
4
74
0
42
0.000000001
43
0.0000000001
44
0.0000000001
40
0
40
0
40
0
40
0
40
1
40
1
40
1
40
1
41
1
41
1
41
1
41
1
10
39.688687968350898
20
-61.259505271201348
30
0
10
39.708548752767719
20
-60.662176794750586
30
0
10
39.626052835373613
20
-60.014433628541653
30
0
10
39.702437598726952
20
-59.40182819942023
30
0
0
SPLINE
5
411
100
AcDbEntity
8
0
100
AcDbSpline
70
4
71
3
72
8
73
4
74
0
42
0.000000001
43
0.0000000001
44
0.0000000001
40
0
40
0
40
0
40
0
40
1
40
1
40
1
40
1
41
1
41
1
41
1
41
1
10
39.458004491133785
20
-75.665671639644259
30
0
10
39.082191828407787
20
-75.199724583188782
30
0
10
38.747626191947482
20
-74.70169443423498
30
0
10
38.446670970280302
20
-74.183807230589153
30
0
0
CIRCLE
5
412
100
AcDbEntity
8
0
100
AcDbCircle
10
21.07500000000001
20
-20.805508646474355
30
0
40
1.4999999999999902
210
-0
220
0
230
1
0
LINE
5
413
100
AcDbEntity
8
0
100
AcDbLine
10
21.07500000000001
20
-20.675000000000018
30
0
11
21.07500000000001
21
-20.475000000000016
31
0
0
LINE
5
414
100
AcDbEntity
8
0
100
AcDbLine
10
107.01249999999999
20
-20.675000000000008
30
0
11
105.51249999999997
21
-20.674999999999976
31
0
0
LINE
5
415
100
AcDbEntity
8
0
100
AcDbLine
10
193.76250000000002
20
-20.674999999999997
30
0
11
195.26250000000002
21
-20.674999999999969
31
0
0
LINE
5
416
100
AcDbEntity
8
0
100
AcDbLine
10
272.98750000000007
20
-20.674999999999994
30
0
11
274.48750000000007
21
-20.674999999999994
31
0
0
LINE
5
417
100
AcDbEntity
8
0
100
AcDbLine
10
337.37500000000011
20
-20.674999999999986
30
0
11
338.87500000000011
21
-20.674999999999986
31
0
0
LINE
5
418
100
AcDbEntity
8
0
100
AcDbLine
10
255.88750000000002
20
-103.15000000000001
30
0
11
254.38750000000002
21
-103.15000000000001
31
0
0
LINE
5
419
100
AcDbEntity
8
0
100
AcDbLine
10
316.93440625456179
20
-103.15000000000001
30
0
11
315.43440625456179
21
-103.15000000000001
31
0
0
LINE
5
420
100
AcDbEntity
8
0
100
AcDbLine
10
90.512500000000017
20
-103.15000000000001
30
0
11
89.012500000000017
21
-103.15000000000001
31
0
0
ELLIPSE
5
421
100
AcDbEntity
8
0
100
AcDbEllipse
10
302.45946118444169
20
-55.2838652689166
30
0
11
-1.4007699230102497e-16
21
1.1688080895797641
31
0.0
40
1
41
0
42
6.2831853071795862
0
ELLIPSE
5
422
100
AcDbEntity
8
0
100
AcDbEllipse
10
40.969753867206904
20
-69.701444541515897
30
0
11
2.8321470087316412e-16
21
-1.1688080895797641
31
0.0
40
1
41
0
42
6.2831853071795862
0
ENDSEC
0
SECTION
2
OBJECTS
0
DICTIONARY
5
C
100
AcDbDictionary
3
ACAD_GROUP
350
D
3
ACAD_MLINESTYLE
350
17
0
DICTIONARY
5
D
100
AcDbDictionary
0
DICTIONARY
5
1A
330
C
100
AcDbDictionary
0
DICTIONARY
5
17
100
AcDbDictionary
0
ENDSEC
0
EOF
